G04 #@! TF.GenerationSoftware,KiCad,Pcbnew,(5.1.10)-1*
G04 #@! TF.CreationDate,2021-08-03T19:00:01-05:00*
G04 #@! TF.ProjectId,spimux,7370696d-7578-42e6-9b69-6361645f7063,rev?*
G04 #@! TF.SameCoordinates,Original*
G04 #@! TF.FileFunction,Copper,L1,Top*
G04 #@! TF.FilePolarity,Positive*
%FSLAX46Y46*%
G04 Gerber Fmt 4.6, Leading zero omitted, Abs format (unit mm)*
G04 Created by KiCad (PCBNEW (5.1.10)-1) date 2021-08-03 19:00:01*
%MOMM*%
%LPD*%
G01*
G04 APERTURE LIST*
G04 #@! TA.AperFunction,SMDPad,CuDef*
%ADD10C,0.500000*%
G04 #@! TD*
G04 #@! TA.AperFunction,ComponentPad*
%ADD11C,3.800000*%
G04 #@! TD*
G04 #@! TA.AperFunction,ComponentPad*
%ADD12O,1.700000X1.700000*%
G04 #@! TD*
G04 #@! TA.AperFunction,ComponentPad*
%ADD13R,1.700000X1.700000*%
G04 #@! TD*
G04 #@! TA.AperFunction,SMDPad,CuDef*
%ADD14R,1.500000X2.000000*%
G04 #@! TD*
G04 #@! TA.AperFunction,SMDPad,CuDef*
%ADD15R,3.800000X2.000000*%
G04 #@! TD*
G04 #@! TA.AperFunction,ViaPad*
%ADD16C,0.600000*%
G04 #@! TD*
G04 #@! TA.AperFunction,Conductor*
%ADD17C,0.160000*%
G04 #@! TD*
G04 #@! TA.AperFunction,Conductor*
%ADD18C,0.300000*%
G04 #@! TD*
G04 #@! TA.AperFunction,Conductor*
%ADD19C,0.500000*%
G04 #@! TD*
G04 #@! TA.AperFunction,Conductor*
%ADD20C,0.254000*%
G04 #@! TD*
G04 #@! TA.AperFunction,Conductor*
%ADD21C,0.100000*%
G04 #@! TD*
G04 APERTURE END LIST*
D10*
X140610000Y-93580000D03*
X139610000Y-93580000D03*
X138610000Y-93580000D03*
X137610000Y-93580000D03*
X136610000Y-93580000D03*
X140610000Y-94580000D03*
X139610000Y-94580000D03*
X138610000Y-94580000D03*
X137610000Y-94580000D03*
X136610000Y-94580000D03*
X140610000Y-95580000D03*
X139610000Y-95580000D03*
X138610000Y-95580000D03*
X137610000Y-95580000D03*
X136610000Y-95580000D03*
X140610000Y-96580000D03*
X139610000Y-96580000D03*
X138610000Y-96580000D03*
X137610000Y-96580000D03*
X136610000Y-96580000D03*
X140610000Y-97580000D03*
X139610000Y-97580000D03*
X138610000Y-97580000D03*
X137610000Y-97580000D03*
G04 #@! TA.AperFunction,SMDPad,CuDef*
G36*
G01*
X114605000Y-97935000D02*
X114605000Y-98135000D01*
G75*
G02*
X114505000Y-98235000I-100000J0D01*
G01*
X113230000Y-98235000D01*
G75*
G02*
X113130000Y-98135000I0J100000D01*
G01*
X113130000Y-97935000D01*
G75*
G02*
X113230000Y-97835000I100000J0D01*
G01*
X114505000Y-97835000D01*
G75*
G02*
X114605000Y-97935000I0J-100000D01*
G01*
G37*
G04 #@! TD.AperFunction*
G04 #@! TA.AperFunction,SMDPad,CuDef*
G36*
G01*
X114605000Y-97285000D02*
X114605000Y-97485000D01*
G75*
G02*
X114505000Y-97585000I-100000J0D01*
G01*
X113230000Y-97585000D01*
G75*
G02*
X113130000Y-97485000I0J100000D01*
G01*
X113130000Y-97285000D01*
G75*
G02*
X113230000Y-97185000I100000J0D01*
G01*
X114505000Y-97185000D01*
G75*
G02*
X114605000Y-97285000I0J-100000D01*
G01*
G37*
G04 #@! TD.AperFunction*
G04 #@! TA.AperFunction,SMDPad,CuDef*
G36*
G01*
X114605000Y-96635000D02*
X114605000Y-96835000D01*
G75*
G02*
X114505000Y-96935000I-100000J0D01*
G01*
X113230000Y-96935000D01*
G75*
G02*
X113130000Y-96835000I0J100000D01*
G01*
X113130000Y-96635000D01*
G75*
G02*
X113230000Y-96535000I100000J0D01*
G01*
X114505000Y-96535000D01*
G75*
G02*
X114605000Y-96635000I0J-100000D01*
G01*
G37*
G04 #@! TD.AperFunction*
G04 #@! TA.AperFunction,SMDPad,CuDef*
G36*
G01*
X114605000Y-95985000D02*
X114605000Y-96185000D01*
G75*
G02*
X114505000Y-96285000I-100000J0D01*
G01*
X113230000Y-96285000D01*
G75*
G02*
X113130000Y-96185000I0J100000D01*
G01*
X113130000Y-95985000D01*
G75*
G02*
X113230000Y-95885000I100000J0D01*
G01*
X114505000Y-95885000D01*
G75*
G02*
X114605000Y-95985000I0J-100000D01*
G01*
G37*
G04 #@! TD.AperFunction*
G04 #@! TA.AperFunction,SMDPad,CuDef*
G36*
G01*
X114605000Y-95335000D02*
X114605000Y-95535000D01*
G75*
G02*
X114505000Y-95635000I-100000J0D01*
G01*
X113230000Y-95635000D01*
G75*
G02*
X113130000Y-95535000I0J100000D01*
G01*
X113130000Y-95335000D01*
G75*
G02*
X113230000Y-95235000I100000J0D01*
G01*
X114505000Y-95235000D01*
G75*
G02*
X114605000Y-95335000I0J-100000D01*
G01*
G37*
G04 #@! TD.AperFunction*
G04 #@! TA.AperFunction,SMDPad,CuDef*
G36*
G01*
X114605000Y-94685000D02*
X114605000Y-94885000D01*
G75*
G02*
X114505000Y-94985000I-100000J0D01*
G01*
X113230000Y-94985000D01*
G75*
G02*
X113130000Y-94885000I0J100000D01*
G01*
X113130000Y-94685000D01*
G75*
G02*
X113230000Y-94585000I100000J0D01*
G01*
X114505000Y-94585000D01*
G75*
G02*
X114605000Y-94685000I0J-100000D01*
G01*
G37*
G04 #@! TD.AperFunction*
G04 #@! TA.AperFunction,SMDPad,CuDef*
G36*
G01*
X114605000Y-94035000D02*
X114605000Y-94235000D01*
G75*
G02*
X114505000Y-94335000I-100000J0D01*
G01*
X113230000Y-94335000D01*
G75*
G02*
X113130000Y-94235000I0J100000D01*
G01*
X113130000Y-94035000D01*
G75*
G02*
X113230000Y-93935000I100000J0D01*
G01*
X114505000Y-93935000D01*
G75*
G02*
X114605000Y-94035000I0J-100000D01*
G01*
G37*
G04 #@! TD.AperFunction*
G04 #@! TA.AperFunction,SMDPad,CuDef*
G36*
G01*
X114605000Y-93385000D02*
X114605000Y-93585000D01*
G75*
G02*
X114505000Y-93685000I-100000J0D01*
G01*
X113230000Y-93685000D01*
G75*
G02*
X113130000Y-93585000I0J100000D01*
G01*
X113130000Y-93385000D01*
G75*
G02*
X113230000Y-93285000I100000J0D01*
G01*
X114505000Y-93285000D01*
G75*
G02*
X114605000Y-93385000I0J-100000D01*
G01*
G37*
G04 #@! TD.AperFunction*
G04 #@! TA.AperFunction,SMDPad,CuDef*
G36*
G01*
X114605000Y-92735000D02*
X114605000Y-92935000D01*
G75*
G02*
X114505000Y-93035000I-100000J0D01*
G01*
X113230000Y-93035000D01*
G75*
G02*
X113130000Y-92935000I0J100000D01*
G01*
X113130000Y-92735000D01*
G75*
G02*
X113230000Y-92635000I100000J0D01*
G01*
X114505000Y-92635000D01*
G75*
G02*
X114605000Y-92735000I0J-100000D01*
G01*
G37*
G04 #@! TD.AperFunction*
G04 #@! TA.AperFunction,SMDPad,CuDef*
G36*
G01*
X114605000Y-92085000D02*
X114605000Y-92285000D01*
G75*
G02*
X114505000Y-92385000I-100000J0D01*
G01*
X113230000Y-92385000D01*
G75*
G02*
X113130000Y-92285000I0J100000D01*
G01*
X113130000Y-92085000D01*
G75*
G02*
X113230000Y-91985000I100000J0D01*
G01*
X114505000Y-91985000D01*
G75*
G02*
X114605000Y-92085000I0J-100000D01*
G01*
G37*
G04 #@! TD.AperFunction*
G04 #@! TA.AperFunction,SMDPad,CuDef*
G36*
G01*
X120330000Y-92085000D02*
X120330000Y-92285000D01*
G75*
G02*
X120230000Y-92385000I-100000J0D01*
G01*
X118955000Y-92385000D01*
G75*
G02*
X118855000Y-92285000I0J100000D01*
G01*
X118855000Y-92085000D01*
G75*
G02*
X118955000Y-91985000I100000J0D01*
G01*
X120230000Y-91985000D01*
G75*
G02*
X120330000Y-92085000I0J-100000D01*
G01*
G37*
G04 #@! TD.AperFunction*
G04 #@! TA.AperFunction,SMDPad,CuDef*
G36*
G01*
X120330000Y-92735000D02*
X120330000Y-92935000D01*
G75*
G02*
X120230000Y-93035000I-100000J0D01*
G01*
X118955000Y-93035000D01*
G75*
G02*
X118855000Y-92935000I0J100000D01*
G01*
X118855000Y-92735000D01*
G75*
G02*
X118955000Y-92635000I100000J0D01*
G01*
X120230000Y-92635000D01*
G75*
G02*
X120330000Y-92735000I0J-100000D01*
G01*
G37*
G04 #@! TD.AperFunction*
G04 #@! TA.AperFunction,SMDPad,CuDef*
G36*
G01*
X120330000Y-93385000D02*
X120330000Y-93585000D01*
G75*
G02*
X120230000Y-93685000I-100000J0D01*
G01*
X118955000Y-93685000D01*
G75*
G02*
X118855000Y-93585000I0J100000D01*
G01*
X118855000Y-93385000D01*
G75*
G02*
X118955000Y-93285000I100000J0D01*
G01*
X120230000Y-93285000D01*
G75*
G02*
X120330000Y-93385000I0J-100000D01*
G01*
G37*
G04 #@! TD.AperFunction*
G04 #@! TA.AperFunction,SMDPad,CuDef*
G36*
G01*
X120330000Y-94035000D02*
X120330000Y-94235000D01*
G75*
G02*
X120230000Y-94335000I-100000J0D01*
G01*
X118955000Y-94335000D01*
G75*
G02*
X118855000Y-94235000I0J100000D01*
G01*
X118855000Y-94035000D01*
G75*
G02*
X118955000Y-93935000I100000J0D01*
G01*
X120230000Y-93935000D01*
G75*
G02*
X120330000Y-94035000I0J-100000D01*
G01*
G37*
G04 #@! TD.AperFunction*
G04 #@! TA.AperFunction,SMDPad,CuDef*
G36*
G01*
X120330000Y-94685000D02*
X120330000Y-94885000D01*
G75*
G02*
X120230000Y-94985000I-100000J0D01*
G01*
X118955000Y-94985000D01*
G75*
G02*
X118855000Y-94885000I0J100000D01*
G01*
X118855000Y-94685000D01*
G75*
G02*
X118955000Y-94585000I100000J0D01*
G01*
X120230000Y-94585000D01*
G75*
G02*
X120330000Y-94685000I0J-100000D01*
G01*
G37*
G04 #@! TD.AperFunction*
G04 #@! TA.AperFunction,SMDPad,CuDef*
G36*
G01*
X120330000Y-95335000D02*
X120330000Y-95535000D01*
G75*
G02*
X120230000Y-95635000I-100000J0D01*
G01*
X118955000Y-95635000D01*
G75*
G02*
X118855000Y-95535000I0J100000D01*
G01*
X118855000Y-95335000D01*
G75*
G02*
X118955000Y-95235000I100000J0D01*
G01*
X120230000Y-95235000D01*
G75*
G02*
X120330000Y-95335000I0J-100000D01*
G01*
G37*
G04 #@! TD.AperFunction*
G04 #@! TA.AperFunction,SMDPad,CuDef*
G36*
G01*
X120330000Y-95985000D02*
X120330000Y-96185000D01*
G75*
G02*
X120230000Y-96285000I-100000J0D01*
G01*
X118955000Y-96285000D01*
G75*
G02*
X118855000Y-96185000I0J100000D01*
G01*
X118855000Y-95985000D01*
G75*
G02*
X118955000Y-95885000I100000J0D01*
G01*
X120230000Y-95885000D01*
G75*
G02*
X120330000Y-95985000I0J-100000D01*
G01*
G37*
G04 #@! TD.AperFunction*
G04 #@! TA.AperFunction,SMDPad,CuDef*
G36*
G01*
X120330000Y-96635000D02*
X120330000Y-96835000D01*
G75*
G02*
X120230000Y-96935000I-100000J0D01*
G01*
X118955000Y-96935000D01*
G75*
G02*
X118855000Y-96835000I0J100000D01*
G01*
X118855000Y-96635000D01*
G75*
G02*
X118955000Y-96535000I100000J0D01*
G01*
X120230000Y-96535000D01*
G75*
G02*
X120330000Y-96635000I0J-100000D01*
G01*
G37*
G04 #@! TD.AperFunction*
G04 #@! TA.AperFunction,SMDPad,CuDef*
G36*
G01*
X120330000Y-97285000D02*
X120330000Y-97485000D01*
G75*
G02*
X120230000Y-97585000I-100000J0D01*
G01*
X118955000Y-97585000D01*
G75*
G02*
X118855000Y-97485000I0J100000D01*
G01*
X118855000Y-97285000D01*
G75*
G02*
X118955000Y-97185000I100000J0D01*
G01*
X120230000Y-97185000D01*
G75*
G02*
X120330000Y-97285000I0J-100000D01*
G01*
G37*
G04 #@! TD.AperFunction*
G04 #@! TA.AperFunction,SMDPad,CuDef*
G36*
G01*
X120330000Y-97935000D02*
X120330000Y-98135000D01*
G75*
G02*
X120230000Y-98235000I-100000J0D01*
G01*
X118955000Y-98235000D01*
G75*
G02*
X118855000Y-98135000I0J100000D01*
G01*
X118855000Y-97935000D01*
G75*
G02*
X118955000Y-97835000I100000J0D01*
G01*
X120230000Y-97835000D01*
G75*
G02*
X120330000Y-97935000I0J-100000D01*
G01*
G37*
G04 #@! TD.AperFunction*
D11*
X166500000Y-100000000D03*
G04 #@! TA.AperFunction,SMDPad,CuDef*
G36*
G01*
X117930000Y-98920000D02*
X117930000Y-99260000D01*
G75*
G02*
X117790000Y-99400000I-140000J0D01*
G01*
X117510000Y-99400000D01*
G75*
G02*
X117370000Y-99260000I0J140000D01*
G01*
X117370000Y-98920000D01*
G75*
G02*
X117510000Y-98780000I140000J0D01*
G01*
X117790000Y-98780000D01*
G75*
G02*
X117930000Y-98920000I0J-140000D01*
G01*
G37*
G04 #@! TD.AperFunction*
G04 #@! TA.AperFunction,SMDPad,CuDef*
G36*
G01*
X118890000Y-98920000D02*
X118890000Y-99260000D01*
G75*
G02*
X118750000Y-99400000I-140000J0D01*
G01*
X118470000Y-99400000D01*
G75*
G02*
X118330000Y-99260000I0J140000D01*
G01*
X118330000Y-98920000D01*
G75*
G02*
X118470000Y-98780000I140000J0D01*
G01*
X118750000Y-98780000D01*
G75*
G02*
X118890000Y-98920000I0J-140000D01*
G01*
G37*
G04 #@! TD.AperFunction*
D12*
X137510000Y-106780000D03*
X137510000Y-104240000D03*
X140050000Y-106780000D03*
X140050000Y-104240000D03*
X142590000Y-106780000D03*
X142590000Y-104240000D03*
X145130000Y-106780000D03*
X145130000Y-104240000D03*
X147670000Y-106780000D03*
X147670000Y-104240000D03*
X150210000Y-106780000D03*
D13*
X150210000Y-104240000D03*
G04 #@! TA.AperFunction,SMDPad,CuDef*
G36*
G01*
X132225000Y-98205000D02*
X132425000Y-98205000D01*
G75*
G02*
X132525000Y-98305000I0J-100000D01*
G01*
X132525000Y-99580000D01*
G75*
G02*
X132425000Y-99680000I-100000J0D01*
G01*
X132225000Y-99680000D01*
G75*
G02*
X132125000Y-99580000I0J100000D01*
G01*
X132125000Y-98305000D01*
G75*
G02*
X132225000Y-98205000I100000J0D01*
G01*
G37*
G04 #@! TD.AperFunction*
G04 #@! TA.AperFunction,SMDPad,CuDef*
G36*
G01*
X131575000Y-98205000D02*
X131775000Y-98205000D01*
G75*
G02*
X131875000Y-98305000I0J-100000D01*
G01*
X131875000Y-99580000D01*
G75*
G02*
X131775000Y-99680000I-100000J0D01*
G01*
X131575000Y-99680000D01*
G75*
G02*
X131475000Y-99580000I0J100000D01*
G01*
X131475000Y-98305000D01*
G75*
G02*
X131575000Y-98205000I100000J0D01*
G01*
G37*
G04 #@! TD.AperFunction*
G04 #@! TA.AperFunction,SMDPad,CuDef*
G36*
G01*
X130925000Y-98205000D02*
X131125000Y-98205000D01*
G75*
G02*
X131225000Y-98305000I0J-100000D01*
G01*
X131225000Y-99580000D01*
G75*
G02*
X131125000Y-99680000I-100000J0D01*
G01*
X130925000Y-99680000D01*
G75*
G02*
X130825000Y-99580000I0J100000D01*
G01*
X130825000Y-98305000D01*
G75*
G02*
X130925000Y-98205000I100000J0D01*
G01*
G37*
G04 #@! TD.AperFunction*
G04 #@! TA.AperFunction,SMDPad,CuDef*
G36*
G01*
X130275000Y-98205000D02*
X130475000Y-98205000D01*
G75*
G02*
X130575000Y-98305000I0J-100000D01*
G01*
X130575000Y-99580000D01*
G75*
G02*
X130475000Y-99680000I-100000J0D01*
G01*
X130275000Y-99680000D01*
G75*
G02*
X130175000Y-99580000I0J100000D01*
G01*
X130175000Y-98305000D01*
G75*
G02*
X130275000Y-98205000I100000J0D01*
G01*
G37*
G04 #@! TD.AperFunction*
G04 #@! TA.AperFunction,SMDPad,CuDef*
G36*
G01*
X129625000Y-98205000D02*
X129825000Y-98205000D01*
G75*
G02*
X129925000Y-98305000I0J-100000D01*
G01*
X129925000Y-99580000D01*
G75*
G02*
X129825000Y-99680000I-100000J0D01*
G01*
X129625000Y-99680000D01*
G75*
G02*
X129525000Y-99580000I0J100000D01*
G01*
X129525000Y-98305000D01*
G75*
G02*
X129625000Y-98205000I100000J0D01*
G01*
G37*
G04 #@! TD.AperFunction*
G04 #@! TA.AperFunction,SMDPad,CuDef*
G36*
G01*
X128975000Y-98205000D02*
X129175000Y-98205000D01*
G75*
G02*
X129275000Y-98305000I0J-100000D01*
G01*
X129275000Y-99580000D01*
G75*
G02*
X129175000Y-99680000I-100000J0D01*
G01*
X128975000Y-99680000D01*
G75*
G02*
X128875000Y-99580000I0J100000D01*
G01*
X128875000Y-98305000D01*
G75*
G02*
X128975000Y-98205000I100000J0D01*
G01*
G37*
G04 #@! TD.AperFunction*
G04 #@! TA.AperFunction,SMDPad,CuDef*
G36*
G01*
X128325000Y-98205000D02*
X128525000Y-98205000D01*
G75*
G02*
X128625000Y-98305000I0J-100000D01*
G01*
X128625000Y-99580000D01*
G75*
G02*
X128525000Y-99680000I-100000J0D01*
G01*
X128325000Y-99680000D01*
G75*
G02*
X128225000Y-99580000I0J100000D01*
G01*
X128225000Y-98305000D01*
G75*
G02*
X128325000Y-98205000I100000J0D01*
G01*
G37*
G04 #@! TD.AperFunction*
G04 #@! TA.AperFunction,SMDPad,CuDef*
G36*
G01*
X127675000Y-98205000D02*
X127875000Y-98205000D01*
G75*
G02*
X127975000Y-98305000I0J-100000D01*
G01*
X127975000Y-99580000D01*
G75*
G02*
X127875000Y-99680000I-100000J0D01*
G01*
X127675000Y-99680000D01*
G75*
G02*
X127575000Y-99580000I0J100000D01*
G01*
X127575000Y-98305000D01*
G75*
G02*
X127675000Y-98205000I100000J0D01*
G01*
G37*
G04 #@! TD.AperFunction*
G04 #@! TA.AperFunction,SMDPad,CuDef*
G36*
G01*
X127025000Y-98205000D02*
X127225000Y-98205000D01*
G75*
G02*
X127325000Y-98305000I0J-100000D01*
G01*
X127325000Y-99580000D01*
G75*
G02*
X127225000Y-99680000I-100000J0D01*
G01*
X127025000Y-99680000D01*
G75*
G02*
X126925000Y-99580000I0J100000D01*
G01*
X126925000Y-98305000D01*
G75*
G02*
X127025000Y-98205000I100000J0D01*
G01*
G37*
G04 #@! TD.AperFunction*
G04 #@! TA.AperFunction,SMDPad,CuDef*
G36*
G01*
X126375000Y-98205000D02*
X126575000Y-98205000D01*
G75*
G02*
X126675000Y-98305000I0J-100000D01*
G01*
X126675000Y-99580000D01*
G75*
G02*
X126575000Y-99680000I-100000J0D01*
G01*
X126375000Y-99680000D01*
G75*
G02*
X126275000Y-99580000I0J100000D01*
G01*
X126275000Y-98305000D01*
G75*
G02*
X126375000Y-98205000I100000J0D01*
G01*
G37*
G04 #@! TD.AperFunction*
G04 #@! TA.AperFunction,SMDPad,CuDef*
G36*
G01*
X125725000Y-98205000D02*
X125925000Y-98205000D01*
G75*
G02*
X126025000Y-98305000I0J-100000D01*
G01*
X126025000Y-99580000D01*
G75*
G02*
X125925000Y-99680000I-100000J0D01*
G01*
X125725000Y-99680000D01*
G75*
G02*
X125625000Y-99580000I0J100000D01*
G01*
X125625000Y-98305000D01*
G75*
G02*
X125725000Y-98205000I100000J0D01*
G01*
G37*
G04 #@! TD.AperFunction*
G04 #@! TA.AperFunction,SMDPad,CuDef*
G36*
G01*
X125075000Y-98205000D02*
X125275000Y-98205000D01*
G75*
G02*
X125375000Y-98305000I0J-100000D01*
G01*
X125375000Y-99580000D01*
G75*
G02*
X125275000Y-99680000I-100000J0D01*
G01*
X125075000Y-99680000D01*
G75*
G02*
X124975000Y-99580000I0J100000D01*
G01*
X124975000Y-98305000D01*
G75*
G02*
X125075000Y-98205000I100000J0D01*
G01*
G37*
G04 #@! TD.AperFunction*
G04 #@! TA.AperFunction,SMDPad,CuDef*
G36*
G01*
X125075000Y-92480000D02*
X125275000Y-92480000D01*
G75*
G02*
X125375000Y-92580000I0J-100000D01*
G01*
X125375000Y-93855000D01*
G75*
G02*
X125275000Y-93955000I-100000J0D01*
G01*
X125075000Y-93955000D01*
G75*
G02*
X124975000Y-93855000I0J100000D01*
G01*
X124975000Y-92580000D01*
G75*
G02*
X125075000Y-92480000I100000J0D01*
G01*
G37*
G04 #@! TD.AperFunction*
G04 #@! TA.AperFunction,SMDPad,CuDef*
G36*
G01*
X125725000Y-92480000D02*
X125925000Y-92480000D01*
G75*
G02*
X126025000Y-92580000I0J-100000D01*
G01*
X126025000Y-93855000D01*
G75*
G02*
X125925000Y-93955000I-100000J0D01*
G01*
X125725000Y-93955000D01*
G75*
G02*
X125625000Y-93855000I0J100000D01*
G01*
X125625000Y-92580000D01*
G75*
G02*
X125725000Y-92480000I100000J0D01*
G01*
G37*
G04 #@! TD.AperFunction*
G04 #@! TA.AperFunction,SMDPad,CuDef*
G36*
G01*
X126375000Y-92480000D02*
X126575000Y-92480000D01*
G75*
G02*
X126675000Y-92580000I0J-100000D01*
G01*
X126675000Y-93855000D01*
G75*
G02*
X126575000Y-93955000I-100000J0D01*
G01*
X126375000Y-93955000D01*
G75*
G02*
X126275000Y-93855000I0J100000D01*
G01*
X126275000Y-92580000D01*
G75*
G02*
X126375000Y-92480000I100000J0D01*
G01*
G37*
G04 #@! TD.AperFunction*
G04 #@! TA.AperFunction,SMDPad,CuDef*
G36*
G01*
X127025000Y-92480000D02*
X127225000Y-92480000D01*
G75*
G02*
X127325000Y-92580000I0J-100000D01*
G01*
X127325000Y-93855000D01*
G75*
G02*
X127225000Y-93955000I-100000J0D01*
G01*
X127025000Y-93955000D01*
G75*
G02*
X126925000Y-93855000I0J100000D01*
G01*
X126925000Y-92580000D01*
G75*
G02*
X127025000Y-92480000I100000J0D01*
G01*
G37*
G04 #@! TD.AperFunction*
G04 #@! TA.AperFunction,SMDPad,CuDef*
G36*
G01*
X127675000Y-92480000D02*
X127875000Y-92480000D01*
G75*
G02*
X127975000Y-92580000I0J-100000D01*
G01*
X127975000Y-93855000D01*
G75*
G02*
X127875000Y-93955000I-100000J0D01*
G01*
X127675000Y-93955000D01*
G75*
G02*
X127575000Y-93855000I0J100000D01*
G01*
X127575000Y-92580000D01*
G75*
G02*
X127675000Y-92480000I100000J0D01*
G01*
G37*
G04 #@! TD.AperFunction*
G04 #@! TA.AperFunction,SMDPad,CuDef*
G36*
G01*
X128325000Y-92480000D02*
X128525000Y-92480000D01*
G75*
G02*
X128625000Y-92580000I0J-100000D01*
G01*
X128625000Y-93855000D01*
G75*
G02*
X128525000Y-93955000I-100000J0D01*
G01*
X128325000Y-93955000D01*
G75*
G02*
X128225000Y-93855000I0J100000D01*
G01*
X128225000Y-92580000D01*
G75*
G02*
X128325000Y-92480000I100000J0D01*
G01*
G37*
G04 #@! TD.AperFunction*
G04 #@! TA.AperFunction,SMDPad,CuDef*
G36*
G01*
X128975000Y-92480000D02*
X129175000Y-92480000D01*
G75*
G02*
X129275000Y-92580000I0J-100000D01*
G01*
X129275000Y-93855000D01*
G75*
G02*
X129175000Y-93955000I-100000J0D01*
G01*
X128975000Y-93955000D01*
G75*
G02*
X128875000Y-93855000I0J100000D01*
G01*
X128875000Y-92580000D01*
G75*
G02*
X128975000Y-92480000I100000J0D01*
G01*
G37*
G04 #@! TD.AperFunction*
G04 #@! TA.AperFunction,SMDPad,CuDef*
G36*
G01*
X129625000Y-92480000D02*
X129825000Y-92480000D01*
G75*
G02*
X129925000Y-92580000I0J-100000D01*
G01*
X129925000Y-93855000D01*
G75*
G02*
X129825000Y-93955000I-100000J0D01*
G01*
X129625000Y-93955000D01*
G75*
G02*
X129525000Y-93855000I0J100000D01*
G01*
X129525000Y-92580000D01*
G75*
G02*
X129625000Y-92480000I100000J0D01*
G01*
G37*
G04 #@! TD.AperFunction*
G04 #@! TA.AperFunction,SMDPad,CuDef*
G36*
G01*
X130275000Y-92480000D02*
X130475000Y-92480000D01*
G75*
G02*
X130575000Y-92580000I0J-100000D01*
G01*
X130575000Y-93855000D01*
G75*
G02*
X130475000Y-93955000I-100000J0D01*
G01*
X130275000Y-93955000D01*
G75*
G02*
X130175000Y-93855000I0J100000D01*
G01*
X130175000Y-92580000D01*
G75*
G02*
X130275000Y-92480000I100000J0D01*
G01*
G37*
G04 #@! TD.AperFunction*
G04 #@! TA.AperFunction,SMDPad,CuDef*
G36*
G01*
X130925000Y-92480000D02*
X131125000Y-92480000D01*
G75*
G02*
X131225000Y-92580000I0J-100000D01*
G01*
X131225000Y-93855000D01*
G75*
G02*
X131125000Y-93955000I-100000J0D01*
G01*
X130925000Y-93955000D01*
G75*
G02*
X130825000Y-93855000I0J100000D01*
G01*
X130825000Y-92580000D01*
G75*
G02*
X130925000Y-92480000I100000J0D01*
G01*
G37*
G04 #@! TD.AperFunction*
G04 #@! TA.AperFunction,SMDPad,CuDef*
G36*
G01*
X131575000Y-92480000D02*
X131775000Y-92480000D01*
G75*
G02*
X131875000Y-92580000I0J-100000D01*
G01*
X131875000Y-93855000D01*
G75*
G02*
X131775000Y-93955000I-100000J0D01*
G01*
X131575000Y-93955000D01*
G75*
G02*
X131475000Y-93855000I0J100000D01*
G01*
X131475000Y-92580000D01*
G75*
G02*
X131575000Y-92480000I100000J0D01*
G01*
G37*
G04 #@! TD.AperFunction*
G04 #@! TA.AperFunction,SMDPad,CuDef*
G36*
G01*
X132225000Y-92480000D02*
X132425000Y-92480000D01*
G75*
G02*
X132525000Y-92580000I0J-100000D01*
G01*
X132525000Y-93855000D01*
G75*
G02*
X132425000Y-93955000I-100000J0D01*
G01*
X132225000Y-93955000D01*
G75*
G02*
X132125000Y-93855000I0J100000D01*
G01*
X132125000Y-92580000D01*
G75*
G02*
X132225000Y-92480000I100000J0D01*
G01*
G37*
G04 #@! TD.AperFunction*
D14*
X123820000Y-101280000D03*
X119220000Y-101280000D03*
X121520000Y-101280000D03*
D15*
X121520000Y-107580000D03*
G04 #@! TA.AperFunction,SMDPad,CuDef*
G36*
G01*
X136410000Y-91375000D02*
X136410000Y-91745000D01*
G75*
G02*
X136275000Y-91880000I-135000J0D01*
G01*
X136005000Y-91880000D01*
G75*
G02*
X135870000Y-91745000I0J135000D01*
G01*
X135870000Y-91375000D01*
G75*
G02*
X136005000Y-91240000I135000J0D01*
G01*
X136275000Y-91240000D01*
G75*
G02*
X136410000Y-91375000I0J-135000D01*
G01*
G37*
G04 #@! TD.AperFunction*
G04 #@! TA.AperFunction,SMDPad,CuDef*
G36*
G01*
X137430000Y-91375000D02*
X137430000Y-91745000D01*
G75*
G02*
X137295000Y-91880000I-135000J0D01*
G01*
X137025000Y-91880000D01*
G75*
G02*
X136890000Y-91745000I0J135000D01*
G01*
X136890000Y-91375000D01*
G75*
G02*
X137025000Y-91240000I135000J0D01*
G01*
X137295000Y-91240000D01*
G75*
G02*
X137430000Y-91375000I0J-135000D01*
G01*
G37*
G04 #@! TD.AperFunction*
G04 #@! TA.AperFunction,SMDPad,CuDef*
G36*
G01*
X139670000Y-91755000D02*
X139670000Y-91385000D01*
G75*
G02*
X139805000Y-91250000I135000J0D01*
G01*
X140075000Y-91250000D01*
G75*
G02*
X140210000Y-91385000I0J-135000D01*
G01*
X140210000Y-91755000D01*
G75*
G02*
X140075000Y-91890000I-135000J0D01*
G01*
X139805000Y-91890000D01*
G75*
G02*
X139670000Y-91755000I0J135000D01*
G01*
G37*
G04 #@! TD.AperFunction*
G04 #@! TA.AperFunction,SMDPad,CuDef*
G36*
G01*
X138650000Y-91755000D02*
X138650000Y-91385000D01*
G75*
G02*
X138785000Y-91250000I135000J0D01*
G01*
X139055000Y-91250000D01*
G75*
G02*
X139190000Y-91385000I0J-135000D01*
G01*
X139190000Y-91755000D01*
G75*
G02*
X139055000Y-91890000I-135000J0D01*
G01*
X138785000Y-91890000D01*
G75*
G02*
X138650000Y-91755000I0J135000D01*
G01*
G37*
G04 #@! TD.AperFunction*
G04 #@! TA.AperFunction,SMDPad,CuDef*
G36*
G01*
X163020000Y-101865000D02*
X163020000Y-101495000D01*
G75*
G02*
X163155000Y-101360000I135000J0D01*
G01*
X163425000Y-101360000D01*
G75*
G02*
X163560000Y-101495000I0J-135000D01*
G01*
X163560000Y-101865000D01*
G75*
G02*
X163425000Y-102000000I-135000J0D01*
G01*
X163155000Y-102000000D01*
G75*
G02*
X163020000Y-101865000I0J135000D01*
G01*
G37*
G04 #@! TD.AperFunction*
G04 #@! TA.AperFunction,SMDPad,CuDef*
G36*
G01*
X162000000Y-101865000D02*
X162000000Y-101495000D01*
G75*
G02*
X162135000Y-101360000I135000J0D01*
G01*
X162405000Y-101360000D01*
G75*
G02*
X162540000Y-101495000I0J-135000D01*
G01*
X162540000Y-101865000D01*
G75*
G02*
X162405000Y-102000000I-135000J0D01*
G01*
X162135000Y-102000000D01*
G75*
G02*
X162000000Y-101865000I0J135000D01*
G01*
G37*
G04 #@! TD.AperFunction*
G04 #@! TA.AperFunction,SMDPad,CuDef*
G36*
G01*
X159195000Y-103290000D02*
X158825000Y-103290000D01*
G75*
G02*
X158690000Y-103155000I0J135000D01*
G01*
X158690000Y-102885000D01*
G75*
G02*
X158825000Y-102750000I135000J0D01*
G01*
X159195000Y-102750000D01*
G75*
G02*
X159330000Y-102885000I0J-135000D01*
G01*
X159330000Y-103155000D01*
G75*
G02*
X159195000Y-103290000I-135000J0D01*
G01*
G37*
G04 #@! TD.AperFunction*
G04 #@! TA.AperFunction,SMDPad,CuDef*
G36*
G01*
X159195000Y-104310000D02*
X158825000Y-104310000D01*
G75*
G02*
X158690000Y-104175000I0J135000D01*
G01*
X158690000Y-103905000D01*
G75*
G02*
X158825000Y-103770000I135000J0D01*
G01*
X159195000Y-103770000D01*
G75*
G02*
X159330000Y-103905000I0J-135000D01*
G01*
X159330000Y-104175000D01*
G75*
G02*
X159195000Y-104310000I-135000J0D01*
G01*
G37*
G04 #@! TD.AperFunction*
G04 #@! TA.AperFunction,SMDPad,CuDef*
G36*
G01*
X158855000Y-106970000D02*
X159225000Y-106970000D01*
G75*
G02*
X159360000Y-107105000I0J-135000D01*
G01*
X159360000Y-107375000D01*
G75*
G02*
X159225000Y-107510000I-135000J0D01*
G01*
X158855000Y-107510000D01*
G75*
G02*
X158720000Y-107375000I0J135000D01*
G01*
X158720000Y-107105000D01*
G75*
G02*
X158855000Y-106970000I135000J0D01*
G01*
G37*
G04 #@! TD.AperFunction*
G04 #@! TA.AperFunction,SMDPad,CuDef*
G36*
G01*
X158855000Y-105950000D02*
X159225000Y-105950000D01*
G75*
G02*
X159360000Y-106085000I0J-135000D01*
G01*
X159360000Y-106355000D01*
G75*
G02*
X159225000Y-106490000I-135000J0D01*
G01*
X158855000Y-106490000D01*
G75*
G02*
X158720000Y-106355000I0J135000D01*
G01*
X158720000Y-106085000D01*
G75*
G02*
X158855000Y-105950000I135000J0D01*
G01*
G37*
G04 #@! TD.AperFunction*
D12*
X156560000Y-98910000D03*
X156560000Y-96370000D03*
D13*
X156560000Y-93830000D03*
D12*
X162220000Y-98940000D03*
D13*
X162220000Y-96400000D03*
D12*
X103830000Y-106440000D03*
X106370000Y-106440000D03*
X103830000Y-103900000D03*
X106370000Y-103900000D03*
X103830000Y-101360000D03*
X106370000Y-101360000D03*
X103830000Y-98820000D03*
X106370000Y-98820000D03*
X103830000Y-96280000D03*
X106370000Y-96280000D03*
X103830000Y-93740000D03*
D13*
X106370000Y-93740000D03*
D12*
X162250000Y-106580000D03*
D13*
X162250000Y-104040000D03*
D12*
X156480000Y-106680000D03*
D13*
X156480000Y-104140000D03*
G04 #@! TA.AperFunction,SMDPad,CuDef*
G36*
G01*
X126840000Y-91180000D02*
X126840000Y-91520000D01*
G75*
G02*
X126700000Y-91660000I-140000J0D01*
G01*
X126420000Y-91660000D01*
G75*
G02*
X126280000Y-91520000I0J140000D01*
G01*
X126280000Y-91180000D01*
G75*
G02*
X126420000Y-91040000I140000J0D01*
G01*
X126700000Y-91040000D01*
G75*
G02*
X126840000Y-91180000I0J-140000D01*
G01*
G37*
G04 #@! TD.AperFunction*
G04 #@! TA.AperFunction,SMDPad,CuDef*
G36*
G01*
X127800000Y-91180000D02*
X127800000Y-91520000D01*
G75*
G02*
X127660000Y-91660000I-140000J0D01*
G01*
X127380000Y-91660000D01*
G75*
G02*
X127240000Y-91520000I0J140000D01*
G01*
X127240000Y-91180000D01*
G75*
G02*
X127380000Y-91040000I140000J0D01*
G01*
X127660000Y-91040000D01*
G75*
G02*
X127800000Y-91180000I0J-140000D01*
G01*
G37*
G04 #@! TD.AperFunction*
G04 #@! TA.AperFunction,SMDPad,CuDef*
G36*
G01*
X113570000Y-99400000D02*
X113570000Y-99060000D01*
G75*
G02*
X113710000Y-98920000I140000J0D01*
G01*
X113990000Y-98920000D01*
G75*
G02*
X114130000Y-99060000I0J-140000D01*
G01*
X114130000Y-99400000D01*
G75*
G02*
X113990000Y-99540000I-140000J0D01*
G01*
X113710000Y-99540000D01*
G75*
G02*
X113570000Y-99400000I0J140000D01*
G01*
G37*
G04 #@! TD.AperFunction*
G04 #@! TA.AperFunction,SMDPad,CuDef*
G36*
G01*
X112610000Y-99400000D02*
X112610000Y-99060000D01*
G75*
G02*
X112750000Y-98920000I140000J0D01*
G01*
X113030000Y-98920000D01*
G75*
G02*
X113170000Y-99060000I0J-140000D01*
G01*
X113170000Y-99400000D01*
G75*
G02*
X113030000Y-99540000I-140000J0D01*
G01*
X112750000Y-99540000D01*
G75*
G02*
X112610000Y-99400000I0J140000D01*
G01*
G37*
G04 #@! TD.AperFunction*
G04 #@! TA.AperFunction,SMDPad,CuDef*
G36*
G01*
X130050000Y-105850000D02*
X130050000Y-104750000D01*
G75*
G02*
X130300000Y-104500000I250000J0D01*
G01*
X132800000Y-104500000D01*
G75*
G02*
X133050000Y-104750000I0J-250000D01*
G01*
X133050000Y-105850000D01*
G75*
G02*
X132800000Y-106100000I-250000J0D01*
G01*
X130300000Y-106100000D01*
G75*
G02*
X130050000Y-105850000I0J250000D01*
G01*
G37*
G04 #@! TD.AperFunction*
G04 #@! TA.AperFunction,SMDPad,CuDef*
G36*
G01*
X125650000Y-105850000D02*
X125650000Y-104750000D01*
G75*
G02*
X125900000Y-104500000I250000J0D01*
G01*
X128400000Y-104500000D01*
G75*
G02*
X128650000Y-104750000I0J-250000D01*
G01*
X128650000Y-105850000D01*
G75*
G02*
X128400000Y-106100000I-250000J0D01*
G01*
X125900000Y-106100000D01*
G75*
G02*
X125650000Y-105850000I0J250000D01*
G01*
G37*
G04 #@! TD.AperFunction*
G04 #@! TA.AperFunction,SMDPad,CuDef*
G36*
G01*
X115240000Y-103190000D02*
X114140000Y-103190000D01*
G75*
G02*
X113890000Y-102940000I0J250000D01*
G01*
X113890000Y-100440000D01*
G75*
G02*
X114140000Y-100190000I250000J0D01*
G01*
X115240000Y-100190000D01*
G75*
G02*
X115490000Y-100440000I0J-250000D01*
G01*
X115490000Y-102940000D01*
G75*
G02*
X115240000Y-103190000I-250000J0D01*
G01*
G37*
G04 #@! TD.AperFunction*
G04 #@! TA.AperFunction,SMDPad,CuDef*
G36*
G01*
X115240000Y-107590000D02*
X114140000Y-107590000D01*
G75*
G02*
X113890000Y-107340000I0J250000D01*
G01*
X113890000Y-104840000D01*
G75*
G02*
X114140000Y-104590000I250000J0D01*
G01*
X115240000Y-104590000D01*
G75*
G02*
X115490000Y-104840000I0J-250000D01*
G01*
X115490000Y-107340000D01*
G75*
G02*
X115240000Y-107590000I-250000J0D01*
G01*
G37*
G04 #@! TD.AperFunction*
D16*
X130070000Y-91910000D03*
X135870000Y-96240000D03*
X113110000Y-101690000D03*
X114690000Y-99660000D03*
X116230000Y-101690000D03*
X131530000Y-103670000D03*
X131560000Y-107550000D03*
X124840000Y-107830000D03*
X159850000Y-107240000D03*
X163660000Y-102680000D03*
X125600000Y-91270000D03*
X111370000Y-91310000D03*
X117650000Y-97890000D03*
X138030000Y-91560000D03*
X128280000Y-91350000D03*
X121520000Y-99780000D03*
X121520000Y-102840000D03*
X127150000Y-104060000D03*
X129250000Y-105300000D03*
X127150000Y-106590000D03*
X125030000Y-105300000D03*
X159920000Y-104040000D03*
X138160011Y-92949989D03*
X127775000Y-94365022D03*
X101210000Y-99700000D03*
X117220000Y-92190000D03*
X110780000Y-94290000D03*
X110390000Y-95440000D03*
X115905000Y-96735000D03*
X115355000Y-96085000D03*
X134150000Y-97040000D03*
X133177500Y-98942500D03*
X125825000Y-100195000D03*
X134140000Y-95140000D03*
X135270000Y-91560000D03*
X135610000Y-93020000D03*
X123780000Y-98180000D03*
X122285000Y-94605000D03*
X131675000Y-94435000D03*
X123140000Y-95250000D03*
X132325000Y-95225000D03*
X122866998Y-98230000D03*
X131025000Y-97510009D03*
D17*
X129725000Y-93217500D02*
X129725000Y-92255000D01*
X129725000Y-92255000D02*
X130070000Y-91910000D01*
D18*
X114690000Y-101690000D02*
X113110000Y-101690000D01*
X114690000Y-101690000D02*
X114690000Y-99660000D01*
X114690000Y-101690000D02*
X116230000Y-101690000D01*
D17*
X159040000Y-107240000D02*
X159850000Y-107240000D01*
X163290000Y-101680000D02*
X163290000Y-102310000D01*
X163290000Y-102310000D02*
X163660000Y-102680000D01*
X113867500Y-92185000D02*
X112245000Y-92185000D01*
X112245000Y-92185000D02*
X111370000Y-91310000D01*
X114260000Y-99230000D02*
X114690000Y-99660000D01*
X113850000Y-99230000D02*
X114260000Y-99230000D01*
X117650000Y-99090000D02*
X117650000Y-97890000D01*
X125680000Y-91350000D02*
X125600000Y-91270000D01*
X126560000Y-91350000D02*
X125680000Y-91350000D01*
X136030000Y-96080000D02*
X135870000Y-96240000D01*
X137110000Y-96080000D02*
X136030000Y-96080000D01*
X137610000Y-95580000D02*
X137110000Y-96080000D01*
X112890000Y-99230000D02*
X112890000Y-98790000D01*
X112890000Y-98790000D02*
X113010000Y-98670000D01*
X113010000Y-98670000D02*
X113770000Y-98670000D01*
X113867500Y-98572500D02*
X113867500Y-98035000D01*
X113770000Y-98670000D02*
X113867500Y-98572500D01*
X159490000Y-100380000D02*
X159490000Y-98120000D01*
X157620000Y-102250000D02*
X159490000Y-100380000D01*
X157620000Y-104220000D02*
X157620000Y-102250000D01*
X158390000Y-104990000D02*
X157620000Y-104220000D01*
X160370000Y-104990000D02*
X158390000Y-104990000D01*
X160910011Y-105530011D02*
X160370000Y-104990000D01*
X160016706Y-108830000D02*
X160910011Y-107936695D01*
X161210000Y-96400000D02*
X162220000Y-96400000D01*
X119554998Y-108830000D02*
X160016706Y-108830000D01*
X159490000Y-98120000D02*
X161210000Y-96400000D01*
X116814998Y-106090000D02*
X119554998Y-108830000D01*
X160910011Y-107936695D02*
X160910011Y-105530011D01*
D19*
X137160000Y-91560000D02*
X138030000Y-91560000D01*
X138030000Y-91560000D02*
X138910000Y-91560000D01*
D17*
X127520000Y-91350000D02*
X128280000Y-91350000D01*
D18*
X121520000Y-101280000D02*
X121520000Y-102840000D01*
X121520000Y-101280000D02*
X121520000Y-99780000D01*
X127150000Y-105300000D02*
X125030000Y-105300000D01*
X127150000Y-105300000D02*
X127150000Y-104060000D01*
X127150000Y-105300000D02*
X127150000Y-106590000D01*
X127150000Y-105300000D02*
X129250000Y-105300000D01*
D17*
X133164999Y-103064999D02*
X130335001Y-103064999D01*
X133710000Y-108290000D02*
X133710000Y-103610000D01*
X129250000Y-104150000D02*
X129250000Y-105300000D01*
X130335001Y-103064999D02*
X129250000Y-104150000D01*
X133710000Y-103610000D02*
X133164999Y-103064999D01*
X159010000Y-104040000D02*
X159920000Y-104040000D01*
D18*
X121520000Y-99780000D02*
X121520000Y-98910000D01*
X120645000Y-98035000D02*
X119592500Y-98035000D01*
X121520000Y-98910000D02*
X120645000Y-98035000D01*
D17*
X118610000Y-99090000D02*
X120230000Y-99090000D01*
X120920000Y-99780000D02*
X121520000Y-99780000D01*
X120230000Y-99090000D02*
X120920000Y-99780000D01*
X138120000Y-94070000D02*
X138120000Y-92990000D01*
X137610000Y-94580000D02*
X138120000Y-94070000D01*
D18*
X160074999Y-108305001D02*
X133725001Y-108305001D01*
X160580000Y-107800000D02*
X160074999Y-108305001D01*
X160580000Y-105950000D02*
X160580000Y-107800000D01*
X160100000Y-105470000D02*
X160580000Y-105950000D01*
X156680000Y-105470000D02*
X160100000Y-105470000D01*
X156480000Y-105270000D02*
X156680000Y-105470000D01*
X156480000Y-105270000D02*
X156480000Y-104140000D01*
D17*
X127775000Y-93217500D02*
X127775000Y-94365022D01*
X158200000Y-106220000D02*
X159040000Y-106220000D01*
X157740000Y-106680000D02*
X158200000Y-106220000D01*
X156480000Y-106680000D02*
X157740000Y-106680000D01*
X129930000Y-100050000D02*
X149850000Y-100050000D01*
X129725000Y-99845000D02*
X129930000Y-100050000D01*
X129725000Y-98942500D02*
X129725000Y-99845000D01*
X149850000Y-100050000D02*
X156480000Y-106680000D01*
X162250000Y-104040000D02*
X161040000Y-104040000D01*
X160020000Y-103020000D02*
X159010000Y-103020000D01*
X161040000Y-104040000D02*
X160020000Y-103020000D01*
X117220000Y-92190000D02*
X119587500Y-92190000D01*
X163270000Y-104040000D02*
X162250000Y-104040000D01*
X163610000Y-104380000D02*
X163270000Y-104040000D01*
X163610000Y-108070000D02*
X163610000Y-104380000D01*
X162589990Y-109090010D02*
X163610000Y-108070000D01*
X102030010Y-109090010D02*
X162589990Y-109090010D01*
X101210000Y-108270000D02*
X102030010Y-109090010D01*
X101210000Y-99700000D02*
X101210000Y-108270000D01*
X103830000Y-101360000D02*
X100550000Y-98080000D01*
X100550000Y-98080000D02*
X100550000Y-91580000D01*
X100550000Y-91580000D02*
X101480000Y-90650000D01*
X101480000Y-90650000D02*
X151840000Y-90650000D01*
X155020000Y-93830000D02*
X156560000Y-93830000D01*
X151840000Y-90650000D02*
X155020000Y-93830000D01*
X106370000Y-101360000D02*
X107660000Y-101360000D01*
X111635000Y-97385000D02*
X113867500Y-97385000D01*
X107660000Y-101360000D02*
X111635000Y-97385000D01*
X103830000Y-98820000D02*
X105060000Y-97590000D01*
X105060000Y-97590000D02*
X108010000Y-97590000D01*
X108010000Y-97590000D02*
X108770000Y-96830000D01*
X108770000Y-96830000D02*
X108770000Y-95300000D01*
X110585000Y-93485000D02*
X113867500Y-93485000D01*
X108770000Y-95300000D02*
X110585000Y-93485000D01*
X106370000Y-98820000D02*
X108180000Y-98820000D01*
X108180000Y-98820000D02*
X109200000Y-97800000D01*
X109200000Y-97800000D02*
X109200000Y-95600000D01*
X110015000Y-94785000D02*
X113867500Y-94785000D01*
X109200000Y-95600000D02*
X110015000Y-94785000D01*
X111910000Y-94290000D02*
X110780000Y-94290000D01*
X112065000Y-94135000D02*
X111910000Y-94290000D01*
X113867500Y-94135000D02*
X112065000Y-94135000D01*
X113867500Y-95435000D02*
X110395000Y-95435000D01*
X113867500Y-96735000D02*
X115905000Y-96735000D01*
X113867500Y-96085000D02*
X115355000Y-96085000D01*
X126799989Y-96459989D02*
X133569989Y-96459989D01*
X125825000Y-93217500D02*
X125825000Y-95485000D01*
X125825000Y-95485000D02*
X126799989Y-96459989D01*
X133569989Y-96459989D02*
X134150000Y-97040000D01*
X140950000Y-102790000D02*
X141310000Y-103150000D01*
X141310000Y-105500000D02*
X142590000Y-106780000D01*
X127670000Y-102790000D02*
X140950000Y-102790000D01*
X141310000Y-103150000D02*
X141310000Y-105500000D01*
X125175000Y-100295000D02*
X127670000Y-102790000D01*
X125175000Y-98942500D02*
X125175000Y-100295000D01*
X148750000Y-105700000D02*
X147670000Y-106780000D01*
X147310000Y-101650000D02*
X148750000Y-103090000D01*
X128300000Y-101650000D02*
X147310000Y-101650000D01*
X127125000Y-100475000D02*
X128300000Y-101650000D01*
X148750000Y-103090000D02*
X148750000Y-105700000D01*
X127125000Y-98942500D02*
X127125000Y-100475000D01*
X147670000Y-102840000D02*
X147670000Y-104240000D01*
X147030000Y-102200000D02*
X147670000Y-102840000D01*
X127970000Y-102200000D02*
X147030000Y-102200000D01*
X126475000Y-100705000D02*
X127970000Y-102200000D01*
X126475000Y-98942500D02*
X126475000Y-100705000D01*
X149120000Y-105690000D02*
X150210000Y-106780000D01*
X149120000Y-102690000D02*
X149120000Y-105690000D01*
X147510000Y-101080000D02*
X149120000Y-102690000D01*
X128570000Y-101080000D02*
X147510000Y-101080000D01*
X127775000Y-100285000D02*
X128570000Y-101080000D01*
X127775000Y-98942500D02*
X127775000Y-100285000D01*
X150210000Y-102480000D02*
X150210000Y-104240000D01*
X148250000Y-100520000D02*
X150210000Y-102480000D01*
X128830000Y-100520000D02*
X148250000Y-100520000D01*
X128425000Y-100115000D02*
X128830000Y-100520000D01*
X128425000Y-98942500D02*
X128425000Y-100115000D01*
X162220000Y-98940000D02*
X162220000Y-101630000D01*
X153987500Y-98942500D02*
X156560000Y-96370000D01*
X132325000Y-98942500D02*
X133177500Y-98942500D01*
X133177500Y-98942500D02*
X153987500Y-98942500D01*
X125825000Y-98942500D02*
X125825000Y-100195000D01*
X140770000Y-91570000D02*
X139940000Y-91570000D01*
X141530000Y-92330000D02*
X140770000Y-91570000D01*
X139610000Y-94580000D02*
X139100000Y-95090000D01*
X141530000Y-95710000D02*
X141530000Y-92330000D01*
X139100000Y-95730000D02*
X139440000Y-96070000D01*
X139100000Y-95090000D02*
X139100000Y-95730000D01*
X141170000Y-96070000D02*
X141530000Y-95710000D01*
X139440000Y-96070000D02*
X141170000Y-96070000D01*
X130790000Y-91940000D02*
X130375000Y-92355000D01*
X132570000Y-91940000D02*
X130790000Y-91940000D01*
X133090000Y-92460000D02*
X132570000Y-91940000D01*
X138610000Y-92460000D02*
X133090000Y-92460000D01*
X139140000Y-92990000D02*
X138610000Y-92460000D01*
X139140000Y-94110000D02*
X139140000Y-92990000D01*
X130375000Y-92355000D02*
X130375000Y-93217500D01*
X139610000Y-94580000D02*
X139140000Y-94110000D01*
X136140000Y-91560000D02*
X135270000Y-91560000D01*
X134140000Y-95140000D02*
X134700000Y-94580000D01*
X135610000Y-93020000D02*
X135610000Y-94560000D01*
X134700000Y-94580000D02*
X136610000Y-94580000D01*
X120785000Y-96735000D02*
X121320000Y-97270000D01*
X119592500Y-96735000D02*
X120785000Y-96735000D01*
X121320000Y-97270000D02*
X122870000Y-97270000D01*
X122870000Y-97270000D02*
X123780000Y-98180000D01*
X131675000Y-93217500D02*
X131675000Y-94435000D01*
X122285000Y-94605000D02*
X121180000Y-93500000D01*
X121180000Y-93500000D02*
X119607500Y-93500000D01*
X132325000Y-93217500D02*
X132325000Y-95225000D01*
X120945000Y-94135000D02*
X119592500Y-94135000D01*
X122060000Y-95250000D02*
X120945000Y-94135000D01*
X123140000Y-95250000D02*
X122060000Y-95250000D01*
X131675000Y-97451998D02*
X131675000Y-98942500D01*
X131253001Y-97029999D02*
X131675000Y-97451998D01*
X129999999Y-97029999D02*
X131253001Y-97029999D01*
X129889998Y-97140000D02*
X129999999Y-97029999D01*
X124195000Y-95905000D02*
X125430000Y-97140000D01*
X121955000Y-95905000D02*
X124195000Y-95905000D01*
X120830000Y-94780000D02*
X121955000Y-95905000D01*
X125430000Y-97140000D02*
X129889998Y-97140000D01*
X119597500Y-94780000D02*
X120830000Y-94780000D01*
X120690000Y-95440000D02*
X119597500Y-95440000D01*
X121570000Y-96320000D02*
X120690000Y-95440000D01*
X124820000Y-97560000D02*
X123580000Y-96320000D01*
X129980000Y-97560000D02*
X124820000Y-97560000D01*
X123580000Y-96320000D02*
X121570000Y-96320000D01*
X130375000Y-97955000D02*
X129980000Y-97560000D01*
X130375000Y-98942500D02*
X130375000Y-97955000D01*
X129075000Y-98205000D02*
X129075000Y-98942500D01*
X124343004Y-97960000D02*
X128830000Y-97960000D01*
X128830000Y-97960000D02*
X129075000Y-98205000D01*
X123253004Y-96870000D02*
X124343004Y-97960000D01*
X121450000Y-96870000D02*
X123253004Y-96870000D01*
X120680000Y-96100000D02*
X121450000Y-96870000D01*
X120680000Y-96100000D02*
X119607500Y-96100000D01*
X119592500Y-97385000D02*
X120885000Y-97385000D01*
X121730000Y-98230000D02*
X122866998Y-98230000D01*
X120885000Y-97385000D02*
X121730000Y-98230000D01*
X131025000Y-98942500D02*
X131025000Y-97510009D01*
X137610000Y-96933553D02*
X137610000Y-96580000D01*
X131770000Y-96720000D02*
X132670000Y-97620000D01*
X132670000Y-97620000D02*
X136923553Y-97620000D01*
X125175000Y-95635000D02*
X126260000Y-96720000D01*
X126260000Y-96720000D02*
X131770000Y-96720000D01*
X136923553Y-97620000D02*
X137610000Y-96933553D01*
X125175000Y-93217500D02*
X125175000Y-95635000D01*
X139110000Y-97080000D02*
X138610000Y-96580000D01*
X141950000Y-97080000D02*
X139110000Y-97080000D01*
X126820011Y-91919989D02*
X128630011Y-91919989D01*
X142420000Y-96610000D02*
X141950000Y-97080000D01*
X128630011Y-91919989D02*
X129580000Y-90970000D01*
X141670000Y-90970000D02*
X142420000Y-91720000D01*
X129580000Y-90970000D02*
X141670000Y-90970000D01*
X126475000Y-93217500D02*
X126475000Y-92265000D01*
X126475000Y-92265000D02*
X126820011Y-91919989D01*
X142420000Y-91720000D02*
X142420000Y-96610000D01*
X128970000Y-92180000D02*
X127425000Y-92180000D01*
X129760000Y-91390000D02*
X128970000Y-92180000D01*
X133350000Y-92160000D02*
X132580000Y-91390000D01*
X127425000Y-92180000D02*
X127125000Y-92480000D01*
X138819002Y-92160000D02*
X133350000Y-92160000D01*
X132580000Y-91390000D02*
X129760000Y-91390000D01*
X140090000Y-93430998D02*
X138819002Y-92160000D01*
X127125000Y-92480000D02*
X127125000Y-93217500D01*
X140090000Y-95100000D02*
X140090000Y-93430998D01*
X139610000Y-95580000D02*
X140090000Y-95100000D01*
X128425000Y-94805000D02*
X128425000Y-93217500D01*
X129694999Y-96074999D02*
X128425000Y-94805000D01*
X136398599Y-97005001D02*
X135215001Y-97005001D01*
X136403599Y-97010001D02*
X136398599Y-97005001D01*
X136816401Y-97010001D02*
X136403599Y-97010001D01*
X137040001Y-96786401D02*
X136816401Y-97010001D01*
X137150000Y-96669002D02*
X137040001Y-96779001D01*
X137150000Y-96410998D02*
X137150000Y-96669002D01*
X137460998Y-96100000D02*
X137150000Y-96410998D01*
X135215001Y-97005001D02*
X134284999Y-96074999D01*
X137040001Y-96779001D02*
X137040001Y-96786401D01*
X139010000Y-96100000D02*
X137460998Y-96100000D01*
X139490000Y-96580000D02*
X139010000Y-96100000D01*
X134284999Y-96074999D02*
X129694999Y-96074999D01*
X139610000Y-96580000D02*
X139490000Y-96580000D01*
X136350000Y-95090000D02*
X138100000Y-95090000D01*
X135690000Y-95750000D02*
X136350000Y-95090000D01*
X130350000Y-95750000D02*
X135690000Y-95750000D01*
X129075000Y-94475000D02*
X130350000Y-95750000D01*
X138100000Y-95090000D02*
X138610000Y-94580000D01*
X129075000Y-93217500D02*
X129075000Y-94475000D01*
D20*
X117023000Y-97828246D02*
X117023000Y-97951754D01*
X117047095Y-98072889D01*
X117094360Y-98186996D01*
X117162977Y-98289689D01*
X117243001Y-98369713D01*
X117243000Y-98535861D01*
X117178662Y-98588662D01*
X117120388Y-98659670D01*
X117077087Y-98740681D01*
X117050422Y-98828584D01*
X117041418Y-98920000D01*
X117041418Y-99260000D01*
X117050422Y-99351416D01*
X117077087Y-99439319D01*
X117120388Y-99520330D01*
X117178662Y-99591338D01*
X117249670Y-99649612D01*
X117330681Y-99692913D01*
X117418584Y-99719578D01*
X117510000Y-99728582D01*
X117790000Y-99728582D01*
X117881416Y-99719578D01*
X117969319Y-99692913D01*
X118050330Y-99649612D01*
X118121338Y-99591338D01*
X118130000Y-99580783D01*
X118138662Y-99591338D01*
X118209670Y-99649612D01*
X118264316Y-99678820D01*
X118225820Y-99690498D01*
X118115506Y-99749463D01*
X118018815Y-99828815D01*
X117939463Y-99925506D01*
X117880498Y-100035820D01*
X117844188Y-100155518D01*
X117831928Y-100280000D01*
X117835000Y-100994250D01*
X117993750Y-101153000D01*
X119093000Y-101153000D01*
X119093000Y-99803750D01*
X118963756Y-99674506D01*
X119010330Y-99649612D01*
X119081338Y-99591338D01*
X119139612Y-99520330D01*
X119152082Y-99497000D01*
X120023000Y-99497000D01*
X120023000Y-99647148D01*
X119970000Y-99641928D01*
X119505750Y-99645000D01*
X119347000Y-99803750D01*
X119347000Y-101153000D01*
X119367000Y-101153000D01*
X119367000Y-101407000D01*
X119347000Y-101407000D01*
X119347000Y-102756250D01*
X119505750Y-102915000D01*
X119970000Y-102918072D01*
X120023000Y-102912852D01*
X120023000Y-104091634D01*
X118814242Y-105909685D01*
X118810735Y-105915269D01*
X117597597Y-107963046D01*
X116004484Y-107964054D01*
X116020537Y-107944494D01*
X116079502Y-107834180D01*
X116115812Y-107714482D01*
X116128072Y-107590000D01*
X116125000Y-106375750D01*
X115966250Y-106217000D01*
X114817000Y-106217000D01*
X114817000Y-106237000D01*
X114563000Y-106237000D01*
X114563000Y-106217000D01*
X113413750Y-106217000D01*
X113255000Y-106375750D01*
X113251928Y-107590000D01*
X113264188Y-107714482D01*
X113300498Y-107834180D01*
X113359463Y-107944494D01*
X113376881Y-107965717D01*
X101997000Y-107972920D01*
X101997000Y-106796890D01*
X102388524Y-106796890D01*
X102433175Y-106944099D01*
X102558359Y-107206920D01*
X102732412Y-107440269D01*
X102948645Y-107635178D01*
X103198748Y-107784157D01*
X103473109Y-107881481D01*
X103703000Y-107760814D01*
X103703000Y-106567000D01*
X103957000Y-106567000D01*
X103957000Y-107760814D01*
X104186891Y-107881481D01*
X104461252Y-107784157D01*
X104711355Y-107635178D01*
X104927588Y-107440269D01*
X105100000Y-107209120D01*
X105272412Y-107440269D01*
X105488645Y-107635178D01*
X105738748Y-107784157D01*
X106013109Y-107881481D01*
X106243000Y-107760814D01*
X106243000Y-106567000D01*
X106497000Y-106567000D01*
X106497000Y-107760814D01*
X106726891Y-107881481D01*
X107001252Y-107784157D01*
X107251355Y-107635178D01*
X107467588Y-107440269D01*
X107641641Y-107206920D01*
X107766825Y-106944099D01*
X107811476Y-106796890D01*
X107690155Y-106567000D01*
X106497000Y-106567000D01*
X106243000Y-106567000D01*
X103957000Y-106567000D01*
X103703000Y-106567000D01*
X102509845Y-106567000D01*
X102388524Y-106796890D01*
X101997000Y-106796890D01*
X101997000Y-105367167D01*
X102811626Y-105368329D01*
X102732412Y-105439731D01*
X102558359Y-105673080D01*
X102433175Y-105935901D01*
X102388524Y-106083110D01*
X102509845Y-106313000D01*
X103703000Y-106313000D01*
X103703000Y-106293000D01*
X103957000Y-106293000D01*
X103957000Y-106313000D01*
X106243000Y-106313000D01*
X106243000Y-106293000D01*
X106497000Y-106293000D01*
X106497000Y-106313000D01*
X107690155Y-106313000D01*
X107811476Y-106083110D01*
X107766825Y-105935901D01*
X107641641Y-105673080D01*
X107467588Y-105439731D01*
X107395629Y-105374868D01*
X108889819Y-105377000D01*
X108914599Y-105374595D01*
X108938433Y-105367402D01*
X108960407Y-105355697D01*
X108981269Y-105338311D01*
X109705329Y-104590000D01*
X113251928Y-104590000D01*
X113255000Y-105804250D01*
X113413750Y-105963000D01*
X114563000Y-105963000D01*
X114563000Y-104113750D01*
X114817000Y-104113750D01*
X114817000Y-105963000D01*
X115966250Y-105963000D01*
X116125000Y-105804250D01*
X116128072Y-104590000D01*
X116115812Y-104465518D01*
X116079502Y-104345820D01*
X116020537Y-104235506D01*
X115941185Y-104138815D01*
X115844494Y-104059463D01*
X115734180Y-104000498D01*
X115614482Y-103964188D01*
X115490000Y-103951928D01*
X114975750Y-103955000D01*
X114817000Y-104113750D01*
X114563000Y-104113750D01*
X114404250Y-103955000D01*
X113890000Y-103951928D01*
X113765518Y-103964188D01*
X113645820Y-104000498D01*
X113535506Y-104059463D01*
X113438815Y-104138815D01*
X113359463Y-104235506D01*
X113300498Y-104345820D01*
X113264188Y-104465518D01*
X113251928Y-104590000D01*
X109705329Y-104590000D01*
X111033732Y-103217106D01*
X113637952Y-103222202D01*
X113658927Y-103261443D01*
X113730881Y-103349119D01*
X113818557Y-103421073D01*
X113918586Y-103474540D01*
X114027124Y-103507465D01*
X114140000Y-103518582D01*
X115240000Y-103518582D01*
X115352876Y-103507465D01*
X115461414Y-103474540D01*
X115561443Y-103421073D01*
X115649119Y-103349119D01*
X115721073Y-103261443D01*
X115739849Y-103226315D01*
X116089751Y-103227000D01*
X116114533Y-103224608D01*
X116138371Y-103217428D01*
X116160351Y-103205735D01*
X116179627Y-103189978D01*
X116195458Y-103170764D01*
X116207237Y-103148830D01*
X116214511Y-103125020D01*
X116217000Y-103100000D01*
X116217000Y-102317000D01*
X116291754Y-102317000D01*
X116412889Y-102292905D01*
X116444044Y-102280000D01*
X117831928Y-102280000D01*
X117844188Y-102404482D01*
X117880498Y-102524180D01*
X117939463Y-102634494D01*
X118018815Y-102731185D01*
X118115506Y-102810537D01*
X118225820Y-102869502D01*
X118345518Y-102905812D01*
X118470000Y-102918072D01*
X118934250Y-102915000D01*
X119093000Y-102756250D01*
X119093000Y-101407000D01*
X117993750Y-101407000D01*
X117835000Y-101565750D01*
X117831928Y-102280000D01*
X116444044Y-102280000D01*
X116526996Y-102245640D01*
X116629689Y-102177023D01*
X116717023Y-102089689D01*
X116785640Y-101986996D01*
X116832905Y-101872889D01*
X116857000Y-101751754D01*
X116857000Y-101628246D01*
X116832905Y-101507111D01*
X116785640Y-101393004D01*
X116717023Y-101290311D01*
X116629689Y-101202977D01*
X116526996Y-101134360D01*
X116412889Y-101087095D01*
X116291754Y-101063000D01*
X116217000Y-101063000D01*
X116217000Y-98960000D01*
X116214560Y-98935224D01*
X116207333Y-98911399D01*
X116195597Y-98889443D01*
X116179803Y-98870197D01*
X116160557Y-98854403D01*
X116138601Y-98842667D01*
X116114776Y-98835440D01*
X116090000Y-98833000D01*
X114823240Y-98833000D01*
X114840282Y-98828109D01*
X114951471Y-98770811D01*
X115049346Y-98692922D01*
X115130144Y-98597436D01*
X115190761Y-98488021D01*
X115228868Y-98368883D01*
X115240000Y-98266750D01*
X115081250Y-98108000D01*
X113994500Y-98108000D01*
X113994500Y-98182000D01*
X113740500Y-98182000D01*
X113740500Y-98108000D01*
X113720500Y-98108000D01*
X113720500Y-97962000D01*
X113740500Y-97962000D01*
X113740500Y-97913582D01*
X113994500Y-97913582D01*
X113994500Y-97962000D01*
X115081250Y-97962000D01*
X115221005Y-97822245D01*
X117024901Y-97818687D01*
X117023000Y-97828246D01*
G04 #@! TA.AperFunction,Conductor*
D21*
G36*
X117023000Y-97828246D02*
G01*
X117023000Y-97951754D01*
X117047095Y-98072889D01*
X117094360Y-98186996D01*
X117162977Y-98289689D01*
X117243001Y-98369713D01*
X117243000Y-98535861D01*
X117178662Y-98588662D01*
X117120388Y-98659670D01*
X117077087Y-98740681D01*
X117050422Y-98828584D01*
X117041418Y-98920000D01*
X117041418Y-99260000D01*
X117050422Y-99351416D01*
X117077087Y-99439319D01*
X117120388Y-99520330D01*
X117178662Y-99591338D01*
X117249670Y-99649612D01*
X117330681Y-99692913D01*
X117418584Y-99719578D01*
X117510000Y-99728582D01*
X117790000Y-99728582D01*
X117881416Y-99719578D01*
X117969319Y-99692913D01*
X118050330Y-99649612D01*
X118121338Y-99591338D01*
X118130000Y-99580783D01*
X118138662Y-99591338D01*
X118209670Y-99649612D01*
X118264316Y-99678820D01*
X118225820Y-99690498D01*
X118115506Y-99749463D01*
X118018815Y-99828815D01*
X117939463Y-99925506D01*
X117880498Y-100035820D01*
X117844188Y-100155518D01*
X117831928Y-100280000D01*
X117835000Y-100994250D01*
X117993750Y-101153000D01*
X119093000Y-101153000D01*
X119093000Y-99803750D01*
X118963756Y-99674506D01*
X119010330Y-99649612D01*
X119081338Y-99591338D01*
X119139612Y-99520330D01*
X119152082Y-99497000D01*
X120023000Y-99497000D01*
X120023000Y-99647148D01*
X119970000Y-99641928D01*
X119505750Y-99645000D01*
X119347000Y-99803750D01*
X119347000Y-101153000D01*
X119367000Y-101153000D01*
X119367000Y-101407000D01*
X119347000Y-101407000D01*
X119347000Y-102756250D01*
X119505750Y-102915000D01*
X119970000Y-102918072D01*
X120023000Y-102912852D01*
X120023000Y-104091634D01*
X118814242Y-105909685D01*
X118810735Y-105915269D01*
X117597597Y-107963046D01*
X116004484Y-107964054D01*
X116020537Y-107944494D01*
X116079502Y-107834180D01*
X116115812Y-107714482D01*
X116128072Y-107590000D01*
X116125000Y-106375750D01*
X115966250Y-106217000D01*
X114817000Y-106217000D01*
X114817000Y-106237000D01*
X114563000Y-106237000D01*
X114563000Y-106217000D01*
X113413750Y-106217000D01*
X113255000Y-106375750D01*
X113251928Y-107590000D01*
X113264188Y-107714482D01*
X113300498Y-107834180D01*
X113359463Y-107944494D01*
X113376881Y-107965717D01*
X101997000Y-107972920D01*
X101997000Y-106796890D01*
X102388524Y-106796890D01*
X102433175Y-106944099D01*
X102558359Y-107206920D01*
X102732412Y-107440269D01*
X102948645Y-107635178D01*
X103198748Y-107784157D01*
X103473109Y-107881481D01*
X103703000Y-107760814D01*
X103703000Y-106567000D01*
X103957000Y-106567000D01*
X103957000Y-107760814D01*
X104186891Y-107881481D01*
X104461252Y-107784157D01*
X104711355Y-107635178D01*
X104927588Y-107440269D01*
X105100000Y-107209120D01*
X105272412Y-107440269D01*
X105488645Y-107635178D01*
X105738748Y-107784157D01*
X106013109Y-107881481D01*
X106243000Y-107760814D01*
X106243000Y-106567000D01*
X106497000Y-106567000D01*
X106497000Y-107760814D01*
X106726891Y-107881481D01*
X107001252Y-107784157D01*
X107251355Y-107635178D01*
X107467588Y-107440269D01*
X107641641Y-107206920D01*
X107766825Y-106944099D01*
X107811476Y-106796890D01*
X107690155Y-106567000D01*
X106497000Y-106567000D01*
X106243000Y-106567000D01*
X103957000Y-106567000D01*
X103703000Y-106567000D01*
X102509845Y-106567000D01*
X102388524Y-106796890D01*
X101997000Y-106796890D01*
X101997000Y-105367167D01*
X102811626Y-105368329D01*
X102732412Y-105439731D01*
X102558359Y-105673080D01*
X102433175Y-105935901D01*
X102388524Y-106083110D01*
X102509845Y-106313000D01*
X103703000Y-106313000D01*
X103703000Y-106293000D01*
X103957000Y-106293000D01*
X103957000Y-106313000D01*
X106243000Y-106313000D01*
X106243000Y-106293000D01*
X106497000Y-106293000D01*
X106497000Y-106313000D01*
X107690155Y-106313000D01*
X107811476Y-106083110D01*
X107766825Y-105935901D01*
X107641641Y-105673080D01*
X107467588Y-105439731D01*
X107395629Y-105374868D01*
X108889819Y-105377000D01*
X108914599Y-105374595D01*
X108938433Y-105367402D01*
X108960407Y-105355697D01*
X108981269Y-105338311D01*
X109705329Y-104590000D01*
X113251928Y-104590000D01*
X113255000Y-105804250D01*
X113413750Y-105963000D01*
X114563000Y-105963000D01*
X114563000Y-104113750D01*
X114817000Y-104113750D01*
X114817000Y-105963000D01*
X115966250Y-105963000D01*
X116125000Y-105804250D01*
X116128072Y-104590000D01*
X116115812Y-104465518D01*
X116079502Y-104345820D01*
X116020537Y-104235506D01*
X115941185Y-104138815D01*
X115844494Y-104059463D01*
X115734180Y-104000498D01*
X115614482Y-103964188D01*
X115490000Y-103951928D01*
X114975750Y-103955000D01*
X114817000Y-104113750D01*
X114563000Y-104113750D01*
X114404250Y-103955000D01*
X113890000Y-103951928D01*
X113765518Y-103964188D01*
X113645820Y-104000498D01*
X113535506Y-104059463D01*
X113438815Y-104138815D01*
X113359463Y-104235506D01*
X113300498Y-104345820D01*
X113264188Y-104465518D01*
X113251928Y-104590000D01*
X109705329Y-104590000D01*
X111033732Y-103217106D01*
X113637952Y-103222202D01*
X113658927Y-103261443D01*
X113730881Y-103349119D01*
X113818557Y-103421073D01*
X113918586Y-103474540D01*
X114027124Y-103507465D01*
X114140000Y-103518582D01*
X115240000Y-103518582D01*
X115352876Y-103507465D01*
X115461414Y-103474540D01*
X115561443Y-103421073D01*
X115649119Y-103349119D01*
X115721073Y-103261443D01*
X115739849Y-103226315D01*
X116089751Y-103227000D01*
X116114533Y-103224608D01*
X116138371Y-103217428D01*
X116160351Y-103205735D01*
X116179627Y-103189978D01*
X116195458Y-103170764D01*
X116207237Y-103148830D01*
X116214511Y-103125020D01*
X116217000Y-103100000D01*
X116217000Y-102317000D01*
X116291754Y-102317000D01*
X116412889Y-102292905D01*
X116444044Y-102280000D01*
X117831928Y-102280000D01*
X117844188Y-102404482D01*
X117880498Y-102524180D01*
X117939463Y-102634494D01*
X118018815Y-102731185D01*
X118115506Y-102810537D01*
X118225820Y-102869502D01*
X118345518Y-102905812D01*
X118470000Y-102918072D01*
X118934250Y-102915000D01*
X119093000Y-102756250D01*
X119093000Y-101407000D01*
X117993750Y-101407000D01*
X117835000Y-101565750D01*
X117831928Y-102280000D01*
X116444044Y-102280000D01*
X116526996Y-102245640D01*
X116629689Y-102177023D01*
X116717023Y-102089689D01*
X116785640Y-101986996D01*
X116832905Y-101872889D01*
X116857000Y-101751754D01*
X116857000Y-101628246D01*
X116832905Y-101507111D01*
X116785640Y-101393004D01*
X116717023Y-101290311D01*
X116629689Y-101202977D01*
X116526996Y-101134360D01*
X116412889Y-101087095D01*
X116291754Y-101063000D01*
X116217000Y-101063000D01*
X116217000Y-98960000D01*
X116214560Y-98935224D01*
X116207333Y-98911399D01*
X116195597Y-98889443D01*
X116179803Y-98870197D01*
X116160557Y-98854403D01*
X116138601Y-98842667D01*
X116114776Y-98835440D01*
X116090000Y-98833000D01*
X114823240Y-98833000D01*
X114840282Y-98828109D01*
X114951471Y-98770811D01*
X115049346Y-98692922D01*
X115130144Y-98597436D01*
X115190761Y-98488021D01*
X115228868Y-98368883D01*
X115240000Y-98266750D01*
X115081250Y-98108000D01*
X113994500Y-98108000D01*
X113994500Y-98182000D01*
X113740500Y-98182000D01*
X113740500Y-98108000D01*
X113720500Y-98108000D01*
X113720500Y-97962000D01*
X113740500Y-97962000D01*
X113740500Y-97913582D01*
X113994500Y-97913582D01*
X113994500Y-97962000D01*
X115081250Y-97962000D01*
X115221005Y-97822245D01*
X117024901Y-97818687D01*
X117023000Y-97828246D01*
G37*
G04 #@! TD.AperFunction*
D20*
X124623000Y-99647148D02*
X124570000Y-99641928D01*
X124105750Y-99645000D01*
X123947000Y-99803750D01*
X123947000Y-101153000D01*
X125046250Y-101153000D01*
X125205000Y-100994250D01*
X125205401Y-100900984D01*
X127368070Y-103063655D01*
X127380815Y-103079185D01*
X127442789Y-103130045D01*
X127513494Y-103167838D01*
X127590214Y-103191111D01*
X127650008Y-103197000D01*
X127650010Y-103197000D01*
X127670000Y-103198969D01*
X127689989Y-103197000D01*
X129627416Y-103197000D01*
X128976356Y-103848061D01*
X128960815Y-103860815D01*
X128922130Y-103907955D01*
X128909955Y-103922789D01*
X128875186Y-103987838D01*
X128872162Y-103993495D01*
X128848889Y-104070215D01*
X128843813Y-104121754D01*
X128841031Y-104150000D01*
X128843000Y-104169990D01*
X128843000Y-104382165D01*
X128809119Y-104340881D01*
X128721443Y-104268927D01*
X128621414Y-104215460D01*
X128512876Y-104182535D01*
X128400000Y-104171418D01*
X127767121Y-104171418D01*
X127777000Y-104121754D01*
X127777000Y-103998246D01*
X127752905Y-103877111D01*
X127705640Y-103763004D01*
X127637023Y-103660311D01*
X127549689Y-103572977D01*
X127446996Y-103504360D01*
X127332889Y-103457095D01*
X127211754Y-103433000D01*
X127088246Y-103433000D01*
X126967111Y-103457095D01*
X126853004Y-103504360D01*
X126750311Y-103572977D01*
X126662977Y-103660311D01*
X126594360Y-103763004D01*
X126547095Y-103877111D01*
X126523000Y-103998246D01*
X126523000Y-104121754D01*
X126532879Y-104171418D01*
X125900000Y-104171418D01*
X125787124Y-104182535D01*
X125678586Y-104215460D01*
X125578557Y-104268927D01*
X125490881Y-104340881D01*
X125418927Y-104428557D01*
X125365460Y-104528586D01*
X125332535Y-104637124D01*
X125322170Y-104742361D01*
X125212889Y-104697095D01*
X125091754Y-104673000D01*
X124968246Y-104673000D01*
X124847111Y-104697095D01*
X124733004Y-104744360D01*
X124630311Y-104812977D01*
X124542977Y-104900311D01*
X124474360Y-105003004D01*
X124427095Y-105117111D01*
X124403000Y-105238246D01*
X124403000Y-105361754D01*
X124427095Y-105482889D01*
X124474360Y-105596996D01*
X124542977Y-105699689D01*
X124630311Y-105787023D01*
X124733004Y-105855640D01*
X124847111Y-105902905D01*
X124968246Y-105927000D01*
X125091754Y-105927000D01*
X125212889Y-105902905D01*
X125322170Y-105857639D01*
X125332535Y-105962876D01*
X125365460Y-106071414D01*
X125418927Y-106171443D01*
X125490881Y-106259119D01*
X125578557Y-106331073D01*
X125678586Y-106384540D01*
X125787124Y-106417465D01*
X125900000Y-106428582D01*
X126542824Y-106428582D01*
X126523000Y-106528246D01*
X126523000Y-106651754D01*
X126547095Y-106772889D01*
X126594360Y-106886996D01*
X126662977Y-106989689D01*
X126750311Y-107077023D01*
X126853004Y-107145640D01*
X126967111Y-107192905D01*
X127088246Y-107217000D01*
X127211754Y-107217000D01*
X127332889Y-107192905D01*
X127446996Y-107145640D01*
X127549689Y-107077023D01*
X127637023Y-106989689D01*
X127705640Y-106886996D01*
X127752905Y-106772889D01*
X127777000Y-106651754D01*
X127777000Y-106528246D01*
X127757176Y-106428582D01*
X128400000Y-106428582D01*
X128512876Y-106417465D01*
X128621414Y-106384540D01*
X128721443Y-106331073D01*
X128809119Y-106259119D01*
X128881073Y-106171443D01*
X128934540Y-106071414D01*
X128967465Y-105962876D01*
X128977046Y-105865598D01*
X129067111Y-105902905D01*
X129188246Y-105927000D01*
X129311754Y-105927000D01*
X129413082Y-105906845D01*
X129411928Y-106100000D01*
X129424188Y-106224482D01*
X129460498Y-106344180D01*
X129519463Y-106454494D01*
X129598815Y-106551185D01*
X129695506Y-106630537D01*
X129805820Y-106689502D01*
X129925518Y-106725812D01*
X130050000Y-106738072D01*
X131264250Y-106735000D01*
X131423000Y-106576250D01*
X131423000Y-105427000D01*
X131403000Y-105427000D01*
X131403000Y-105173000D01*
X131423000Y-105173000D01*
X131423000Y-104023750D01*
X131264250Y-103865000D01*
X130113495Y-103862089D01*
X130503586Y-103471999D01*
X132996416Y-103471999D01*
X133303001Y-103778585D01*
X133303001Y-103915213D01*
X133294180Y-103910498D01*
X133174482Y-103874188D01*
X133050000Y-103861928D01*
X131835750Y-103865000D01*
X131677000Y-104023750D01*
X131677000Y-105173000D01*
X131697000Y-105173000D01*
X131697000Y-105427000D01*
X131677000Y-105427000D01*
X131677000Y-106576250D01*
X131835750Y-106735000D01*
X133050000Y-106738072D01*
X133174482Y-106725812D01*
X133294180Y-106689502D01*
X133303000Y-106684787D01*
X133303000Y-108082625D01*
X133282179Y-108121578D01*
X133254904Y-108211493D01*
X133245694Y-108305001D01*
X133254904Y-108398509D01*
X133262333Y-108423000D01*
X123865894Y-108423000D01*
X123856999Y-106359453D01*
X123854452Y-106334687D01*
X123847122Y-106310894D01*
X123835292Y-106288988D01*
X123819415Y-106269811D01*
X123800102Y-106254100D01*
X123778095Y-106242459D01*
X123754239Y-106235335D01*
X123729436Y-106233001D01*
X119456714Y-106251991D01*
X120648454Y-104296081D01*
X120659262Y-104273653D01*
X120665487Y-104249548D01*
X120666999Y-104229506D01*
X120660614Y-102588532D01*
X120705897Y-102602268D01*
X120770000Y-102608582D01*
X120937197Y-102608582D01*
X120917095Y-102657111D01*
X120893000Y-102778246D01*
X120893000Y-102901754D01*
X120917095Y-103022889D01*
X120964360Y-103136996D01*
X121032977Y-103239689D01*
X121120311Y-103327023D01*
X121223004Y-103395640D01*
X121337111Y-103442905D01*
X121458246Y-103467000D01*
X121581754Y-103467000D01*
X121702889Y-103442905D01*
X121816996Y-103395640D01*
X121919689Y-103327023D01*
X122007023Y-103239689D01*
X122075640Y-103136996D01*
X122122905Y-103022889D01*
X122147000Y-102901754D01*
X122147000Y-102778246D01*
X122122905Y-102657111D01*
X122102803Y-102608582D01*
X122270000Y-102608582D01*
X122334103Y-102602268D01*
X122395743Y-102583570D01*
X122452550Y-102553206D01*
X122482761Y-102528413D01*
X122539463Y-102634494D01*
X122618815Y-102731185D01*
X122715506Y-102810537D01*
X122825820Y-102869502D01*
X122945518Y-102905812D01*
X123070000Y-102918072D01*
X123534250Y-102915000D01*
X123693000Y-102756250D01*
X123693000Y-101407000D01*
X123947000Y-101407000D01*
X123947000Y-102756250D01*
X124105750Y-102915000D01*
X124570000Y-102918072D01*
X124694482Y-102905812D01*
X124814180Y-102869502D01*
X124924494Y-102810537D01*
X125021185Y-102731185D01*
X125100537Y-102634494D01*
X125159502Y-102524180D01*
X125195812Y-102404482D01*
X125208072Y-102280000D01*
X125205000Y-101565750D01*
X125046250Y-101407000D01*
X123947000Y-101407000D01*
X123693000Y-101407000D01*
X123673000Y-101407000D01*
X123673000Y-101153000D01*
X123693000Y-101153000D01*
X123693000Y-99803750D01*
X123534250Y-99645000D01*
X123070000Y-99641928D01*
X122945518Y-99654188D01*
X122825820Y-99690498D01*
X122715506Y-99749463D01*
X122618815Y-99828815D01*
X122539463Y-99925506D01*
X122482761Y-100031587D01*
X122452550Y-100006794D01*
X122395743Y-99976430D01*
X122334103Y-99957732D01*
X122270000Y-99951418D01*
X122125187Y-99951418D01*
X122147000Y-99841754D01*
X122147000Y-99718246D01*
X122122905Y-99597111D01*
X122075640Y-99483004D01*
X122007023Y-99380311D01*
X121997000Y-99370288D01*
X121997000Y-99217000D01*
X124623000Y-99217000D01*
X124623000Y-99647148D01*
G04 #@! TA.AperFunction,Conductor*
D21*
G36*
X124623000Y-99647148D02*
G01*
X124570000Y-99641928D01*
X124105750Y-99645000D01*
X123947000Y-99803750D01*
X123947000Y-101153000D01*
X125046250Y-101153000D01*
X125205000Y-100994250D01*
X125205401Y-100900984D01*
X127368070Y-103063655D01*
X127380815Y-103079185D01*
X127442789Y-103130045D01*
X127513494Y-103167838D01*
X127590214Y-103191111D01*
X127650008Y-103197000D01*
X127650010Y-103197000D01*
X127670000Y-103198969D01*
X127689989Y-103197000D01*
X129627416Y-103197000D01*
X128976356Y-103848061D01*
X128960815Y-103860815D01*
X128922130Y-103907955D01*
X128909955Y-103922789D01*
X128875186Y-103987838D01*
X128872162Y-103993495D01*
X128848889Y-104070215D01*
X128843813Y-104121754D01*
X128841031Y-104150000D01*
X128843000Y-104169990D01*
X128843000Y-104382165D01*
X128809119Y-104340881D01*
X128721443Y-104268927D01*
X128621414Y-104215460D01*
X128512876Y-104182535D01*
X128400000Y-104171418D01*
X127767121Y-104171418D01*
X127777000Y-104121754D01*
X127777000Y-103998246D01*
X127752905Y-103877111D01*
X127705640Y-103763004D01*
X127637023Y-103660311D01*
X127549689Y-103572977D01*
X127446996Y-103504360D01*
X127332889Y-103457095D01*
X127211754Y-103433000D01*
X127088246Y-103433000D01*
X126967111Y-103457095D01*
X126853004Y-103504360D01*
X126750311Y-103572977D01*
X126662977Y-103660311D01*
X126594360Y-103763004D01*
X126547095Y-103877111D01*
X126523000Y-103998246D01*
X126523000Y-104121754D01*
X126532879Y-104171418D01*
X125900000Y-104171418D01*
X125787124Y-104182535D01*
X125678586Y-104215460D01*
X125578557Y-104268927D01*
X125490881Y-104340881D01*
X125418927Y-104428557D01*
X125365460Y-104528586D01*
X125332535Y-104637124D01*
X125322170Y-104742361D01*
X125212889Y-104697095D01*
X125091754Y-104673000D01*
X124968246Y-104673000D01*
X124847111Y-104697095D01*
X124733004Y-104744360D01*
X124630311Y-104812977D01*
X124542977Y-104900311D01*
X124474360Y-105003004D01*
X124427095Y-105117111D01*
X124403000Y-105238246D01*
X124403000Y-105361754D01*
X124427095Y-105482889D01*
X124474360Y-105596996D01*
X124542977Y-105699689D01*
X124630311Y-105787023D01*
X124733004Y-105855640D01*
X124847111Y-105902905D01*
X124968246Y-105927000D01*
X125091754Y-105927000D01*
X125212889Y-105902905D01*
X125322170Y-105857639D01*
X125332535Y-105962876D01*
X125365460Y-106071414D01*
X125418927Y-106171443D01*
X125490881Y-106259119D01*
X125578557Y-106331073D01*
X125678586Y-106384540D01*
X125787124Y-106417465D01*
X125900000Y-106428582D01*
X126542824Y-106428582D01*
X126523000Y-106528246D01*
X126523000Y-106651754D01*
X126547095Y-106772889D01*
X126594360Y-106886996D01*
X126662977Y-106989689D01*
X126750311Y-107077023D01*
X126853004Y-107145640D01*
X126967111Y-107192905D01*
X127088246Y-107217000D01*
X127211754Y-107217000D01*
X127332889Y-107192905D01*
X127446996Y-107145640D01*
X127549689Y-107077023D01*
X127637023Y-106989689D01*
X127705640Y-106886996D01*
X127752905Y-106772889D01*
X127777000Y-106651754D01*
X127777000Y-106528246D01*
X127757176Y-106428582D01*
X128400000Y-106428582D01*
X128512876Y-106417465D01*
X128621414Y-106384540D01*
X128721443Y-106331073D01*
X128809119Y-106259119D01*
X128881073Y-106171443D01*
X128934540Y-106071414D01*
X128967465Y-105962876D01*
X128977046Y-105865598D01*
X129067111Y-105902905D01*
X129188246Y-105927000D01*
X129311754Y-105927000D01*
X129413082Y-105906845D01*
X129411928Y-106100000D01*
X129424188Y-106224482D01*
X129460498Y-106344180D01*
X129519463Y-106454494D01*
X129598815Y-106551185D01*
X129695506Y-106630537D01*
X129805820Y-106689502D01*
X129925518Y-106725812D01*
X130050000Y-106738072D01*
X131264250Y-106735000D01*
X131423000Y-106576250D01*
X131423000Y-105427000D01*
X131403000Y-105427000D01*
X131403000Y-105173000D01*
X131423000Y-105173000D01*
X131423000Y-104023750D01*
X131264250Y-103865000D01*
X130113495Y-103862089D01*
X130503586Y-103471999D01*
X132996416Y-103471999D01*
X133303001Y-103778585D01*
X133303001Y-103915213D01*
X133294180Y-103910498D01*
X133174482Y-103874188D01*
X133050000Y-103861928D01*
X131835750Y-103865000D01*
X131677000Y-104023750D01*
X131677000Y-105173000D01*
X131697000Y-105173000D01*
X131697000Y-105427000D01*
X131677000Y-105427000D01*
X131677000Y-106576250D01*
X131835750Y-106735000D01*
X133050000Y-106738072D01*
X133174482Y-106725812D01*
X133294180Y-106689502D01*
X133303000Y-106684787D01*
X133303000Y-108082625D01*
X133282179Y-108121578D01*
X133254904Y-108211493D01*
X133245694Y-108305001D01*
X133254904Y-108398509D01*
X133262333Y-108423000D01*
X123865894Y-108423000D01*
X123856999Y-106359453D01*
X123854452Y-106334687D01*
X123847122Y-106310894D01*
X123835292Y-106288988D01*
X123819415Y-106269811D01*
X123800102Y-106254100D01*
X123778095Y-106242459D01*
X123754239Y-106235335D01*
X123729436Y-106233001D01*
X119456714Y-106251991D01*
X120648454Y-104296081D01*
X120659262Y-104273653D01*
X120665487Y-104249548D01*
X120666999Y-104229506D01*
X120660614Y-102588532D01*
X120705897Y-102602268D01*
X120770000Y-102608582D01*
X120937197Y-102608582D01*
X120917095Y-102657111D01*
X120893000Y-102778246D01*
X120893000Y-102901754D01*
X120917095Y-103022889D01*
X120964360Y-103136996D01*
X121032977Y-103239689D01*
X121120311Y-103327023D01*
X121223004Y-103395640D01*
X121337111Y-103442905D01*
X121458246Y-103467000D01*
X121581754Y-103467000D01*
X121702889Y-103442905D01*
X121816996Y-103395640D01*
X121919689Y-103327023D01*
X122007023Y-103239689D01*
X122075640Y-103136996D01*
X122122905Y-103022889D01*
X122147000Y-102901754D01*
X122147000Y-102778246D01*
X122122905Y-102657111D01*
X122102803Y-102608582D01*
X122270000Y-102608582D01*
X122334103Y-102602268D01*
X122395743Y-102583570D01*
X122452550Y-102553206D01*
X122482761Y-102528413D01*
X122539463Y-102634494D01*
X122618815Y-102731185D01*
X122715506Y-102810537D01*
X122825820Y-102869502D01*
X122945518Y-102905812D01*
X123070000Y-102918072D01*
X123534250Y-102915000D01*
X123693000Y-102756250D01*
X123693000Y-101407000D01*
X123947000Y-101407000D01*
X123947000Y-102756250D01*
X124105750Y-102915000D01*
X124570000Y-102918072D01*
X124694482Y-102905812D01*
X124814180Y-102869502D01*
X124924494Y-102810537D01*
X125021185Y-102731185D01*
X125100537Y-102634494D01*
X125159502Y-102524180D01*
X125195812Y-102404482D01*
X125208072Y-102280000D01*
X125205000Y-101565750D01*
X125046250Y-101407000D01*
X123947000Y-101407000D01*
X123693000Y-101407000D01*
X123673000Y-101407000D01*
X123673000Y-101153000D01*
X123693000Y-101153000D01*
X123693000Y-99803750D01*
X123534250Y-99645000D01*
X123070000Y-99641928D01*
X122945518Y-99654188D01*
X122825820Y-99690498D01*
X122715506Y-99749463D01*
X122618815Y-99828815D01*
X122539463Y-99925506D01*
X122482761Y-100031587D01*
X122452550Y-100006794D01*
X122395743Y-99976430D01*
X122334103Y-99957732D01*
X122270000Y-99951418D01*
X122125187Y-99951418D01*
X122147000Y-99841754D01*
X122147000Y-99718246D01*
X122122905Y-99597111D01*
X122075640Y-99483004D01*
X122007023Y-99380311D01*
X121997000Y-99370288D01*
X121997000Y-99217000D01*
X124623000Y-99217000D01*
X124623000Y-99647148D01*
G37*
G04 #@! TD.AperFunction*
M02*
