G04 #@! TF.GenerationSoftware,KiCad,Pcbnew,(5.1.10)-1*
G04 #@! TF.CreationDate,2021-07-16T14:19:48-05:00*
G04 #@! TF.ProjectId,spimux,7370696d-7578-42e6-9b69-6361645f7063,rev?*
G04 #@! TF.SameCoordinates,Original*
G04 #@! TF.FileFunction,Copper,L1,Top*
G04 #@! TF.FilePolarity,Positive*
%FSLAX46Y46*%
G04 Gerber Fmt 4.6, Leading zero omitted, Abs format (unit mm)*
G04 Created by KiCad (PCBNEW (5.1.10)-1) date 2021-07-16 14:19:48*
%MOMM*%
%LPD*%
G01*
G04 APERTURE LIST*
G04 #@! TA.AperFunction,ComponentPad*
%ADD10C,3.800000*%
G04 #@! TD*
G04 #@! TA.AperFunction,ComponentPad*
%ADD11O,1.700000X1.700000*%
G04 #@! TD*
G04 #@! TA.AperFunction,ComponentPad*
%ADD12R,1.700000X1.700000*%
G04 #@! TD*
G04 #@! TA.AperFunction,SMDPad,CuDef*
%ADD13C,0.500000*%
G04 #@! TD*
G04 #@! TA.AperFunction,SMDPad,CuDef*
%ADD14R,1.500000X2.000000*%
G04 #@! TD*
G04 #@! TA.AperFunction,SMDPad,CuDef*
%ADD15R,3.800000X2.000000*%
G04 #@! TD*
G04 #@! TA.AperFunction,ViaPad*
%ADD16C,0.600000*%
G04 #@! TD*
G04 #@! TA.AperFunction,Conductor*
%ADD17C,0.150000*%
G04 #@! TD*
G04 #@! TA.AperFunction,Conductor*
%ADD18C,0.300000*%
G04 #@! TD*
G04 #@! TA.AperFunction,Conductor*
%ADD19C,0.500000*%
G04 #@! TD*
G04 #@! TA.AperFunction,Conductor*
%ADD20C,0.254000*%
G04 #@! TD*
G04 #@! TA.AperFunction,Conductor*
%ADD21C,0.100000*%
G04 #@! TD*
G04 APERTURE END LIST*
D10*
X166500000Y-100000000D03*
G04 #@! TA.AperFunction,SMDPad,CuDef*
G36*
G01*
X119240000Y-91190000D02*
X119240000Y-91530000D01*
G75*
G02*
X119100000Y-91670000I-140000J0D01*
G01*
X118820000Y-91670000D01*
G75*
G02*
X118680000Y-91530000I0J140000D01*
G01*
X118680000Y-91190000D01*
G75*
G02*
X118820000Y-91050000I140000J0D01*
G01*
X119100000Y-91050000D01*
G75*
G02*
X119240000Y-91190000I0J-140000D01*
G01*
G37*
G04 #@! TD.AperFunction*
G04 #@! TA.AperFunction,SMDPad,CuDef*
G36*
G01*
X120200000Y-91190000D02*
X120200000Y-91530000D01*
G75*
G02*
X120060000Y-91670000I-140000J0D01*
G01*
X119780000Y-91670000D01*
G75*
G02*
X119640000Y-91530000I0J140000D01*
G01*
X119640000Y-91190000D01*
G75*
G02*
X119780000Y-91050000I140000J0D01*
G01*
X120060000Y-91050000D01*
G75*
G02*
X120200000Y-91190000I0J-140000D01*
G01*
G37*
G04 #@! TD.AperFunction*
D11*
X137510000Y-106780000D03*
X137510000Y-104240000D03*
X140050000Y-106780000D03*
X140050000Y-104240000D03*
X142590000Y-106780000D03*
X142590000Y-104240000D03*
X145130000Y-106780000D03*
X145130000Y-104240000D03*
X147670000Y-106780000D03*
X147670000Y-104240000D03*
X150210000Y-106780000D03*
D12*
X150210000Y-104240000D03*
D13*
X140610000Y-93580000D03*
X139610000Y-93580000D03*
X138610000Y-93580000D03*
X137610000Y-93580000D03*
X136610000Y-93580000D03*
X140610000Y-94580000D03*
X139610000Y-94580000D03*
X138610000Y-94580000D03*
X137610000Y-94580000D03*
X136610000Y-94580000D03*
X140610000Y-95580000D03*
X139610000Y-95580000D03*
X138610000Y-95580000D03*
X137610000Y-95580000D03*
X136610000Y-95580000D03*
X140610000Y-96580000D03*
X139610000Y-96580000D03*
X138610000Y-96580000D03*
X137610000Y-96580000D03*
X136610000Y-96580000D03*
X140610000Y-97580000D03*
X139610000Y-97580000D03*
X138610000Y-97580000D03*
X137610000Y-97580000D03*
G04 #@! TA.AperFunction,SMDPad,CuDef*
G36*
G01*
X132225000Y-98205000D02*
X132425000Y-98205000D01*
G75*
G02*
X132525000Y-98305000I0J-100000D01*
G01*
X132525000Y-99580000D01*
G75*
G02*
X132425000Y-99680000I-100000J0D01*
G01*
X132225000Y-99680000D01*
G75*
G02*
X132125000Y-99580000I0J100000D01*
G01*
X132125000Y-98305000D01*
G75*
G02*
X132225000Y-98205000I100000J0D01*
G01*
G37*
G04 #@! TD.AperFunction*
G04 #@! TA.AperFunction,SMDPad,CuDef*
G36*
G01*
X131575000Y-98205000D02*
X131775000Y-98205000D01*
G75*
G02*
X131875000Y-98305000I0J-100000D01*
G01*
X131875000Y-99580000D01*
G75*
G02*
X131775000Y-99680000I-100000J0D01*
G01*
X131575000Y-99680000D01*
G75*
G02*
X131475000Y-99580000I0J100000D01*
G01*
X131475000Y-98305000D01*
G75*
G02*
X131575000Y-98205000I100000J0D01*
G01*
G37*
G04 #@! TD.AperFunction*
G04 #@! TA.AperFunction,SMDPad,CuDef*
G36*
G01*
X130925000Y-98205000D02*
X131125000Y-98205000D01*
G75*
G02*
X131225000Y-98305000I0J-100000D01*
G01*
X131225000Y-99580000D01*
G75*
G02*
X131125000Y-99680000I-100000J0D01*
G01*
X130925000Y-99680000D01*
G75*
G02*
X130825000Y-99580000I0J100000D01*
G01*
X130825000Y-98305000D01*
G75*
G02*
X130925000Y-98205000I100000J0D01*
G01*
G37*
G04 #@! TD.AperFunction*
G04 #@! TA.AperFunction,SMDPad,CuDef*
G36*
G01*
X130275000Y-98205000D02*
X130475000Y-98205000D01*
G75*
G02*
X130575000Y-98305000I0J-100000D01*
G01*
X130575000Y-99580000D01*
G75*
G02*
X130475000Y-99680000I-100000J0D01*
G01*
X130275000Y-99680000D01*
G75*
G02*
X130175000Y-99580000I0J100000D01*
G01*
X130175000Y-98305000D01*
G75*
G02*
X130275000Y-98205000I100000J0D01*
G01*
G37*
G04 #@! TD.AperFunction*
G04 #@! TA.AperFunction,SMDPad,CuDef*
G36*
G01*
X129625000Y-98205000D02*
X129825000Y-98205000D01*
G75*
G02*
X129925000Y-98305000I0J-100000D01*
G01*
X129925000Y-99580000D01*
G75*
G02*
X129825000Y-99680000I-100000J0D01*
G01*
X129625000Y-99680000D01*
G75*
G02*
X129525000Y-99580000I0J100000D01*
G01*
X129525000Y-98305000D01*
G75*
G02*
X129625000Y-98205000I100000J0D01*
G01*
G37*
G04 #@! TD.AperFunction*
G04 #@! TA.AperFunction,SMDPad,CuDef*
G36*
G01*
X128975000Y-98205000D02*
X129175000Y-98205000D01*
G75*
G02*
X129275000Y-98305000I0J-100000D01*
G01*
X129275000Y-99580000D01*
G75*
G02*
X129175000Y-99680000I-100000J0D01*
G01*
X128975000Y-99680000D01*
G75*
G02*
X128875000Y-99580000I0J100000D01*
G01*
X128875000Y-98305000D01*
G75*
G02*
X128975000Y-98205000I100000J0D01*
G01*
G37*
G04 #@! TD.AperFunction*
G04 #@! TA.AperFunction,SMDPad,CuDef*
G36*
G01*
X128325000Y-98205000D02*
X128525000Y-98205000D01*
G75*
G02*
X128625000Y-98305000I0J-100000D01*
G01*
X128625000Y-99580000D01*
G75*
G02*
X128525000Y-99680000I-100000J0D01*
G01*
X128325000Y-99680000D01*
G75*
G02*
X128225000Y-99580000I0J100000D01*
G01*
X128225000Y-98305000D01*
G75*
G02*
X128325000Y-98205000I100000J0D01*
G01*
G37*
G04 #@! TD.AperFunction*
G04 #@! TA.AperFunction,SMDPad,CuDef*
G36*
G01*
X127675000Y-98205000D02*
X127875000Y-98205000D01*
G75*
G02*
X127975000Y-98305000I0J-100000D01*
G01*
X127975000Y-99580000D01*
G75*
G02*
X127875000Y-99680000I-100000J0D01*
G01*
X127675000Y-99680000D01*
G75*
G02*
X127575000Y-99580000I0J100000D01*
G01*
X127575000Y-98305000D01*
G75*
G02*
X127675000Y-98205000I100000J0D01*
G01*
G37*
G04 #@! TD.AperFunction*
G04 #@! TA.AperFunction,SMDPad,CuDef*
G36*
G01*
X127025000Y-98205000D02*
X127225000Y-98205000D01*
G75*
G02*
X127325000Y-98305000I0J-100000D01*
G01*
X127325000Y-99580000D01*
G75*
G02*
X127225000Y-99680000I-100000J0D01*
G01*
X127025000Y-99680000D01*
G75*
G02*
X126925000Y-99580000I0J100000D01*
G01*
X126925000Y-98305000D01*
G75*
G02*
X127025000Y-98205000I100000J0D01*
G01*
G37*
G04 #@! TD.AperFunction*
G04 #@! TA.AperFunction,SMDPad,CuDef*
G36*
G01*
X126375000Y-98205000D02*
X126575000Y-98205000D01*
G75*
G02*
X126675000Y-98305000I0J-100000D01*
G01*
X126675000Y-99580000D01*
G75*
G02*
X126575000Y-99680000I-100000J0D01*
G01*
X126375000Y-99680000D01*
G75*
G02*
X126275000Y-99580000I0J100000D01*
G01*
X126275000Y-98305000D01*
G75*
G02*
X126375000Y-98205000I100000J0D01*
G01*
G37*
G04 #@! TD.AperFunction*
G04 #@! TA.AperFunction,SMDPad,CuDef*
G36*
G01*
X125725000Y-98205000D02*
X125925000Y-98205000D01*
G75*
G02*
X126025000Y-98305000I0J-100000D01*
G01*
X126025000Y-99580000D01*
G75*
G02*
X125925000Y-99680000I-100000J0D01*
G01*
X125725000Y-99680000D01*
G75*
G02*
X125625000Y-99580000I0J100000D01*
G01*
X125625000Y-98305000D01*
G75*
G02*
X125725000Y-98205000I100000J0D01*
G01*
G37*
G04 #@! TD.AperFunction*
G04 #@! TA.AperFunction,SMDPad,CuDef*
G36*
G01*
X125075000Y-98205000D02*
X125275000Y-98205000D01*
G75*
G02*
X125375000Y-98305000I0J-100000D01*
G01*
X125375000Y-99580000D01*
G75*
G02*
X125275000Y-99680000I-100000J0D01*
G01*
X125075000Y-99680000D01*
G75*
G02*
X124975000Y-99580000I0J100000D01*
G01*
X124975000Y-98305000D01*
G75*
G02*
X125075000Y-98205000I100000J0D01*
G01*
G37*
G04 #@! TD.AperFunction*
G04 #@! TA.AperFunction,SMDPad,CuDef*
G36*
G01*
X125075000Y-92480000D02*
X125275000Y-92480000D01*
G75*
G02*
X125375000Y-92580000I0J-100000D01*
G01*
X125375000Y-93855000D01*
G75*
G02*
X125275000Y-93955000I-100000J0D01*
G01*
X125075000Y-93955000D01*
G75*
G02*
X124975000Y-93855000I0J100000D01*
G01*
X124975000Y-92580000D01*
G75*
G02*
X125075000Y-92480000I100000J0D01*
G01*
G37*
G04 #@! TD.AperFunction*
G04 #@! TA.AperFunction,SMDPad,CuDef*
G36*
G01*
X125725000Y-92480000D02*
X125925000Y-92480000D01*
G75*
G02*
X126025000Y-92580000I0J-100000D01*
G01*
X126025000Y-93855000D01*
G75*
G02*
X125925000Y-93955000I-100000J0D01*
G01*
X125725000Y-93955000D01*
G75*
G02*
X125625000Y-93855000I0J100000D01*
G01*
X125625000Y-92580000D01*
G75*
G02*
X125725000Y-92480000I100000J0D01*
G01*
G37*
G04 #@! TD.AperFunction*
G04 #@! TA.AperFunction,SMDPad,CuDef*
G36*
G01*
X126375000Y-92480000D02*
X126575000Y-92480000D01*
G75*
G02*
X126675000Y-92580000I0J-100000D01*
G01*
X126675000Y-93855000D01*
G75*
G02*
X126575000Y-93955000I-100000J0D01*
G01*
X126375000Y-93955000D01*
G75*
G02*
X126275000Y-93855000I0J100000D01*
G01*
X126275000Y-92580000D01*
G75*
G02*
X126375000Y-92480000I100000J0D01*
G01*
G37*
G04 #@! TD.AperFunction*
G04 #@! TA.AperFunction,SMDPad,CuDef*
G36*
G01*
X127025000Y-92480000D02*
X127225000Y-92480000D01*
G75*
G02*
X127325000Y-92580000I0J-100000D01*
G01*
X127325000Y-93855000D01*
G75*
G02*
X127225000Y-93955000I-100000J0D01*
G01*
X127025000Y-93955000D01*
G75*
G02*
X126925000Y-93855000I0J100000D01*
G01*
X126925000Y-92580000D01*
G75*
G02*
X127025000Y-92480000I100000J0D01*
G01*
G37*
G04 #@! TD.AperFunction*
G04 #@! TA.AperFunction,SMDPad,CuDef*
G36*
G01*
X127675000Y-92480000D02*
X127875000Y-92480000D01*
G75*
G02*
X127975000Y-92580000I0J-100000D01*
G01*
X127975000Y-93855000D01*
G75*
G02*
X127875000Y-93955000I-100000J0D01*
G01*
X127675000Y-93955000D01*
G75*
G02*
X127575000Y-93855000I0J100000D01*
G01*
X127575000Y-92580000D01*
G75*
G02*
X127675000Y-92480000I100000J0D01*
G01*
G37*
G04 #@! TD.AperFunction*
G04 #@! TA.AperFunction,SMDPad,CuDef*
G36*
G01*
X128325000Y-92480000D02*
X128525000Y-92480000D01*
G75*
G02*
X128625000Y-92580000I0J-100000D01*
G01*
X128625000Y-93855000D01*
G75*
G02*
X128525000Y-93955000I-100000J0D01*
G01*
X128325000Y-93955000D01*
G75*
G02*
X128225000Y-93855000I0J100000D01*
G01*
X128225000Y-92580000D01*
G75*
G02*
X128325000Y-92480000I100000J0D01*
G01*
G37*
G04 #@! TD.AperFunction*
G04 #@! TA.AperFunction,SMDPad,CuDef*
G36*
G01*
X128975000Y-92480000D02*
X129175000Y-92480000D01*
G75*
G02*
X129275000Y-92580000I0J-100000D01*
G01*
X129275000Y-93855000D01*
G75*
G02*
X129175000Y-93955000I-100000J0D01*
G01*
X128975000Y-93955000D01*
G75*
G02*
X128875000Y-93855000I0J100000D01*
G01*
X128875000Y-92580000D01*
G75*
G02*
X128975000Y-92480000I100000J0D01*
G01*
G37*
G04 #@! TD.AperFunction*
G04 #@! TA.AperFunction,SMDPad,CuDef*
G36*
G01*
X129625000Y-92480000D02*
X129825000Y-92480000D01*
G75*
G02*
X129925000Y-92580000I0J-100000D01*
G01*
X129925000Y-93855000D01*
G75*
G02*
X129825000Y-93955000I-100000J0D01*
G01*
X129625000Y-93955000D01*
G75*
G02*
X129525000Y-93855000I0J100000D01*
G01*
X129525000Y-92580000D01*
G75*
G02*
X129625000Y-92480000I100000J0D01*
G01*
G37*
G04 #@! TD.AperFunction*
G04 #@! TA.AperFunction,SMDPad,CuDef*
G36*
G01*
X130275000Y-92480000D02*
X130475000Y-92480000D01*
G75*
G02*
X130575000Y-92580000I0J-100000D01*
G01*
X130575000Y-93855000D01*
G75*
G02*
X130475000Y-93955000I-100000J0D01*
G01*
X130275000Y-93955000D01*
G75*
G02*
X130175000Y-93855000I0J100000D01*
G01*
X130175000Y-92580000D01*
G75*
G02*
X130275000Y-92480000I100000J0D01*
G01*
G37*
G04 #@! TD.AperFunction*
G04 #@! TA.AperFunction,SMDPad,CuDef*
G36*
G01*
X130925000Y-92480000D02*
X131125000Y-92480000D01*
G75*
G02*
X131225000Y-92580000I0J-100000D01*
G01*
X131225000Y-93855000D01*
G75*
G02*
X131125000Y-93955000I-100000J0D01*
G01*
X130925000Y-93955000D01*
G75*
G02*
X130825000Y-93855000I0J100000D01*
G01*
X130825000Y-92580000D01*
G75*
G02*
X130925000Y-92480000I100000J0D01*
G01*
G37*
G04 #@! TD.AperFunction*
G04 #@! TA.AperFunction,SMDPad,CuDef*
G36*
G01*
X131575000Y-92480000D02*
X131775000Y-92480000D01*
G75*
G02*
X131875000Y-92580000I0J-100000D01*
G01*
X131875000Y-93855000D01*
G75*
G02*
X131775000Y-93955000I-100000J0D01*
G01*
X131575000Y-93955000D01*
G75*
G02*
X131475000Y-93855000I0J100000D01*
G01*
X131475000Y-92580000D01*
G75*
G02*
X131575000Y-92480000I100000J0D01*
G01*
G37*
G04 #@! TD.AperFunction*
G04 #@! TA.AperFunction,SMDPad,CuDef*
G36*
G01*
X132225000Y-92480000D02*
X132425000Y-92480000D01*
G75*
G02*
X132525000Y-92580000I0J-100000D01*
G01*
X132525000Y-93855000D01*
G75*
G02*
X132425000Y-93955000I-100000J0D01*
G01*
X132225000Y-93955000D01*
G75*
G02*
X132125000Y-93855000I0J100000D01*
G01*
X132125000Y-92580000D01*
G75*
G02*
X132225000Y-92480000I100000J0D01*
G01*
G37*
G04 #@! TD.AperFunction*
G04 #@! TA.AperFunction,SMDPad,CuDef*
G36*
G01*
X120085000Y-92755000D02*
X120085000Y-92555000D01*
G75*
G02*
X120185000Y-92455000I100000J0D01*
G01*
X121460000Y-92455000D01*
G75*
G02*
X121560000Y-92555000I0J-100000D01*
G01*
X121560000Y-92755000D01*
G75*
G02*
X121460000Y-92855000I-100000J0D01*
G01*
X120185000Y-92855000D01*
G75*
G02*
X120085000Y-92755000I0J100000D01*
G01*
G37*
G04 #@! TD.AperFunction*
G04 #@! TA.AperFunction,SMDPad,CuDef*
G36*
G01*
X120085000Y-93405000D02*
X120085000Y-93205000D01*
G75*
G02*
X120185000Y-93105000I100000J0D01*
G01*
X121460000Y-93105000D01*
G75*
G02*
X121560000Y-93205000I0J-100000D01*
G01*
X121560000Y-93405000D01*
G75*
G02*
X121460000Y-93505000I-100000J0D01*
G01*
X120185000Y-93505000D01*
G75*
G02*
X120085000Y-93405000I0J100000D01*
G01*
G37*
G04 #@! TD.AperFunction*
G04 #@! TA.AperFunction,SMDPad,CuDef*
G36*
G01*
X120085000Y-94055000D02*
X120085000Y-93855000D01*
G75*
G02*
X120185000Y-93755000I100000J0D01*
G01*
X121460000Y-93755000D01*
G75*
G02*
X121560000Y-93855000I0J-100000D01*
G01*
X121560000Y-94055000D01*
G75*
G02*
X121460000Y-94155000I-100000J0D01*
G01*
X120185000Y-94155000D01*
G75*
G02*
X120085000Y-94055000I0J100000D01*
G01*
G37*
G04 #@! TD.AperFunction*
G04 #@! TA.AperFunction,SMDPad,CuDef*
G36*
G01*
X120085000Y-94705000D02*
X120085000Y-94505000D01*
G75*
G02*
X120185000Y-94405000I100000J0D01*
G01*
X121460000Y-94405000D01*
G75*
G02*
X121560000Y-94505000I0J-100000D01*
G01*
X121560000Y-94705000D01*
G75*
G02*
X121460000Y-94805000I-100000J0D01*
G01*
X120185000Y-94805000D01*
G75*
G02*
X120085000Y-94705000I0J100000D01*
G01*
G37*
G04 #@! TD.AperFunction*
G04 #@! TA.AperFunction,SMDPad,CuDef*
G36*
G01*
X120085000Y-95355000D02*
X120085000Y-95155000D01*
G75*
G02*
X120185000Y-95055000I100000J0D01*
G01*
X121460000Y-95055000D01*
G75*
G02*
X121560000Y-95155000I0J-100000D01*
G01*
X121560000Y-95355000D01*
G75*
G02*
X121460000Y-95455000I-100000J0D01*
G01*
X120185000Y-95455000D01*
G75*
G02*
X120085000Y-95355000I0J100000D01*
G01*
G37*
G04 #@! TD.AperFunction*
G04 #@! TA.AperFunction,SMDPad,CuDef*
G36*
G01*
X120085000Y-96005000D02*
X120085000Y-95805000D01*
G75*
G02*
X120185000Y-95705000I100000J0D01*
G01*
X121460000Y-95705000D01*
G75*
G02*
X121560000Y-95805000I0J-100000D01*
G01*
X121560000Y-96005000D01*
G75*
G02*
X121460000Y-96105000I-100000J0D01*
G01*
X120185000Y-96105000D01*
G75*
G02*
X120085000Y-96005000I0J100000D01*
G01*
G37*
G04 #@! TD.AperFunction*
G04 #@! TA.AperFunction,SMDPad,CuDef*
G36*
G01*
X120085000Y-96655000D02*
X120085000Y-96455000D01*
G75*
G02*
X120185000Y-96355000I100000J0D01*
G01*
X121460000Y-96355000D01*
G75*
G02*
X121560000Y-96455000I0J-100000D01*
G01*
X121560000Y-96655000D01*
G75*
G02*
X121460000Y-96755000I-100000J0D01*
G01*
X120185000Y-96755000D01*
G75*
G02*
X120085000Y-96655000I0J100000D01*
G01*
G37*
G04 #@! TD.AperFunction*
G04 #@! TA.AperFunction,SMDPad,CuDef*
G36*
G01*
X120085000Y-97305000D02*
X120085000Y-97105000D01*
G75*
G02*
X120185000Y-97005000I100000J0D01*
G01*
X121460000Y-97005000D01*
G75*
G02*
X121560000Y-97105000I0J-100000D01*
G01*
X121560000Y-97305000D01*
G75*
G02*
X121460000Y-97405000I-100000J0D01*
G01*
X120185000Y-97405000D01*
G75*
G02*
X120085000Y-97305000I0J100000D01*
G01*
G37*
G04 #@! TD.AperFunction*
G04 #@! TA.AperFunction,SMDPad,CuDef*
G36*
G01*
X120085000Y-97955000D02*
X120085000Y-97755000D01*
G75*
G02*
X120185000Y-97655000I100000J0D01*
G01*
X121460000Y-97655000D01*
G75*
G02*
X121560000Y-97755000I0J-100000D01*
G01*
X121560000Y-97955000D01*
G75*
G02*
X121460000Y-98055000I-100000J0D01*
G01*
X120185000Y-98055000D01*
G75*
G02*
X120085000Y-97955000I0J100000D01*
G01*
G37*
G04 #@! TD.AperFunction*
G04 #@! TA.AperFunction,SMDPad,CuDef*
G36*
G01*
X120085000Y-98605000D02*
X120085000Y-98405000D01*
G75*
G02*
X120185000Y-98305000I100000J0D01*
G01*
X121460000Y-98305000D01*
G75*
G02*
X121560000Y-98405000I0J-100000D01*
G01*
X121560000Y-98605000D01*
G75*
G02*
X121460000Y-98705000I-100000J0D01*
G01*
X120185000Y-98705000D01*
G75*
G02*
X120085000Y-98605000I0J100000D01*
G01*
G37*
G04 #@! TD.AperFunction*
G04 #@! TA.AperFunction,SMDPad,CuDef*
G36*
G01*
X114360000Y-98605000D02*
X114360000Y-98405000D01*
G75*
G02*
X114460000Y-98305000I100000J0D01*
G01*
X115735000Y-98305000D01*
G75*
G02*
X115835000Y-98405000I0J-100000D01*
G01*
X115835000Y-98605000D01*
G75*
G02*
X115735000Y-98705000I-100000J0D01*
G01*
X114460000Y-98705000D01*
G75*
G02*
X114360000Y-98605000I0J100000D01*
G01*
G37*
G04 #@! TD.AperFunction*
G04 #@! TA.AperFunction,SMDPad,CuDef*
G36*
G01*
X114360000Y-97955000D02*
X114360000Y-97755000D01*
G75*
G02*
X114460000Y-97655000I100000J0D01*
G01*
X115735000Y-97655000D01*
G75*
G02*
X115835000Y-97755000I0J-100000D01*
G01*
X115835000Y-97955000D01*
G75*
G02*
X115735000Y-98055000I-100000J0D01*
G01*
X114460000Y-98055000D01*
G75*
G02*
X114360000Y-97955000I0J100000D01*
G01*
G37*
G04 #@! TD.AperFunction*
G04 #@! TA.AperFunction,SMDPad,CuDef*
G36*
G01*
X114360000Y-97305000D02*
X114360000Y-97105000D01*
G75*
G02*
X114460000Y-97005000I100000J0D01*
G01*
X115735000Y-97005000D01*
G75*
G02*
X115835000Y-97105000I0J-100000D01*
G01*
X115835000Y-97305000D01*
G75*
G02*
X115735000Y-97405000I-100000J0D01*
G01*
X114460000Y-97405000D01*
G75*
G02*
X114360000Y-97305000I0J100000D01*
G01*
G37*
G04 #@! TD.AperFunction*
G04 #@! TA.AperFunction,SMDPad,CuDef*
G36*
G01*
X114360000Y-96655000D02*
X114360000Y-96455000D01*
G75*
G02*
X114460000Y-96355000I100000J0D01*
G01*
X115735000Y-96355000D01*
G75*
G02*
X115835000Y-96455000I0J-100000D01*
G01*
X115835000Y-96655000D01*
G75*
G02*
X115735000Y-96755000I-100000J0D01*
G01*
X114460000Y-96755000D01*
G75*
G02*
X114360000Y-96655000I0J100000D01*
G01*
G37*
G04 #@! TD.AperFunction*
G04 #@! TA.AperFunction,SMDPad,CuDef*
G36*
G01*
X114360000Y-96005000D02*
X114360000Y-95805000D01*
G75*
G02*
X114460000Y-95705000I100000J0D01*
G01*
X115735000Y-95705000D01*
G75*
G02*
X115835000Y-95805000I0J-100000D01*
G01*
X115835000Y-96005000D01*
G75*
G02*
X115735000Y-96105000I-100000J0D01*
G01*
X114460000Y-96105000D01*
G75*
G02*
X114360000Y-96005000I0J100000D01*
G01*
G37*
G04 #@! TD.AperFunction*
G04 #@! TA.AperFunction,SMDPad,CuDef*
G36*
G01*
X114360000Y-95355000D02*
X114360000Y-95155000D01*
G75*
G02*
X114460000Y-95055000I100000J0D01*
G01*
X115735000Y-95055000D01*
G75*
G02*
X115835000Y-95155000I0J-100000D01*
G01*
X115835000Y-95355000D01*
G75*
G02*
X115735000Y-95455000I-100000J0D01*
G01*
X114460000Y-95455000D01*
G75*
G02*
X114360000Y-95355000I0J100000D01*
G01*
G37*
G04 #@! TD.AperFunction*
G04 #@! TA.AperFunction,SMDPad,CuDef*
G36*
G01*
X114360000Y-94705000D02*
X114360000Y-94505000D01*
G75*
G02*
X114460000Y-94405000I100000J0D01*
G01*
X115735000Y-94405000D01*
G75*
G02*
X115835000Y-94505000I0J-100000D01*
G01*
X115835000Y-94705000D01*
G75*
G02*
X115735000Y-94805000I-100000J0D01*
G01*
X114460000Y-94805000D01*
G75*
G02*
X114360000Y-94705000I0J100000D01*
G01*
G37*
G04 #@! TD.AperFunction*
G04 #@! TA.AperFunction,SMDPad,CuDef*
G36*
G01*
X114360000Y-94055000D02*
X114360000Y-93855000D01*
G75*
G02*
X114460000Y-93755000I100000J0D01*
G01*
X115735000Y-93755000D01*
G75*
G02*
X115835000Y-93855000I0J-100000D01*
G01*
X115835000Y-94055000D01*
G75*
G02*
X115735000Y-94155000I-100000J0D01*
G01*
X114460000Y-94155000D01*
G75*
G02*
X114360000Y-94055000I0J100000D01*
G01*
G37*
G04 #@! TD.AperFunction*
G04 #@! TA.AperFunction,SMDPad,CuDef*
G36*
G01*
X114360000Y-93405000D02*
X114360000Y-93205000D01*
G75*
G02*
X114460000Y-93105000I100000J0D01*
G01*
X115735000Y-93105000D01*
G75*
G02*
X115835000Y-93205000I0J-100000D01*
G01*
X115835000Y-93405000D01*
G75*
G02*
X115735000Y-93505000I-100000J0D01*
G01*
X114460000Y-93505000D01*
G75*
G02*
X114360000Y-93405000I0J100000D01*
G01*
G37*
G04 #@! TD.AperFunction*
G04 #@! TA.AperFunction,SMDPad,CuDef*
G36*
G01*
X114360000Y-92755000D02*
X114360000Y-92555000D01*
G75*
G02*
X114460000Y-92455000I100000J0D01*
G01*
X115735000Y-92455000D01*
G75*
G02*
X115835000Y-92555000I0J-100000D01*
G01*
X115835000Y-92755000D01*
G75*
G02*
X115735000Y-92855000I-100000J0D01*
G01*
X114460000Y-92855000D01*
G75*
G02*
X114360000Y-92755000I0J100000D01*
G01*
G37*
G04 #@! TD.AperFunction*
D14*
X123820000Y-101280000D03*
X119220000Y-101280000D03*
X121520000Y-101280000D03*
D15*
X121520000Y-107580000D03*
G04 #@! TA.AperFunction,SMDPad,CuDef*
G36*
G01*
X136410000Y-91375000D02*
X136410000Y-91745000D01*
G75*
G02*
X136275000Y-91880000I-135000J0D01*
G01*
X136005000Y-91880000D01*
G75*
G02*
X135870000Y-91745000I0J135000D01*
G01*
X135870000Y-91375000D01*
G75*
G02*
X136005000Y-91240000I135000J0D01*
G01*
X136275000Y-91240000D01*
G75*
G02*
X136410000Y-91375000I0J-135000D01*
G01*
G37*
G04 #@! TD.AperFunction*
G04 #@! TA.AperFunction,SMDPad,CuDef*
G36*
G01*
X137430000Y-91375000D02*
X137430000Y-91745000D01*
G75*
G02*
X137295000Y-91880000I-135000J0D01*
G01*
X137025000Y-91880000D01*
G75*
G02*
X136890000Y-91745000I0J135000D01*
G01*
X136890000Y-91375000D01*
G75*
G02*
X137025000Y-91240000I135000J0D01*
G01*
X137295000Y-91240000D01*
G75*
G02*
X137430000Y-91375000I0J-135000D01*
G01*
G37*
G04 #@! TD.AperFunction*
G04 #@! TA.AperFunction,SMDPad,CuDef*
G36*
G01*
X139670000Y-91755000D02*
X139670000Y-91385000D01*
G75*
G02*
X139805000Y-91250000I135000J0D01*
G01*
X140075000Y-91250000D01*
G75*
G02*
X140210000Y-91385000I0J-135000D01*
G01*
X140210000Y-91755000D01*
G75*
G02*
X140075000Y-91890000I-135000J0D01*
G01*
X139805000Y-91890000D01*
G75*
G02*
X139670000Y-91755000I0J135000D01*
G01*
G37*
G04 #@! TD.AperFunction*
G04 #@! TA.AperFunction,SMDPad,CuDef*
G36*
G01*
X138650000Y-91755000D02*
X138650000Y-91385000D01*
G75*
G02*
X138785000Y-91250000I135000J0D01*
G01*
X139055000Y-91250000D01*
G75*
G02*
X139190000Y-91385000I0J-135000D01*
G01*
X139190000Y-91755000D01*
G75*
G02*
X139055000Y-91890000I-135000J0D01*
G01*
X138785000Y-91890000D01*
G75*
G02*
X138650000Y-91755000I0J135000D01*
G01*
G37*
G04 #@! TD.AperFunction*
G04 #@! TA.AperFunction,SMDPad,CuDef*
G36*
G01*
X163020000Y-101865000D02*
X163020000Y-101495000D01*
G75*
G02*
X163155000Y-101360000I135000J0D01*
G01*
X163425000Y-101360000D01*
G75*
G02*
X163560000Y-101495000I0J-135000D01*
G01*
X163560000Y-101865000D01*
G75*
G02*
X163425000Y-102000000I-135000J0D01*
G01*
X163155000Y-102000000D01*
G75*
G02*
X163020000Y-101865000I0J135000D01*
G01*
G37*
G04 #@! TD.AperFunction*
G04 #@! TA.AperFunction,SMDPad,CuDef*
G36*
G01*
X162000000Y-101865000D02*
X162000000Y-101495000D01*
G75*
G02*
X162135000Y-101360000I135000J0D01*
G01*
X162405000Y-101360000D01*
G75*
G02*
X162540000Y-101495000I0J-135000D01*
G01*
X162540000Y-101865000D01*
G75*
G02*
X162405000Y-102000000I-135000J0D01*
G01*
X162135000Y-102000000D01*
G75*
G02*
X162000000Y-101865000I0J135000D01*
G01*
G37*
G04 #@! TD.AperFunction*
G04 #@! TA.AperFunction,SMDPad,CuDef*
G36*
G01*
X159195000Y-103290000D02*
X158825000Y-103290000D01*
G75*
G02*
X158690000Y-103155000I0J135000D01*
G01*
X158690000Y-102885000D01*
G75*
G02*
X158825000Y-102750000I135000J0D01*
G01*
X159195000Y-102750000D01*
G75*
G02*
X159330000Y-102885000I0J-135000D01*
G01*
X159330000Y-103155000D01*
G75*
G02*
X159195000Y-103290000I-135000J0D01*
G01*
G37*
G04 #@! TD.AperFunction*
G04 #@! TA.AperFunction,SMDPad,CuDef*
G36*
G01*
X159195000Y-104310000D02*
X158825000Y-104310000D01*
G75*
G02*
X158690000Y-104175000I0J135000D01*
G01*
X158690000Y-103905000D01*
G75*
G02*
X158825000Y-103770000I135000J0D01*
G01*
X159195000Y-103770000D01*
G75*
G02*
X159330000Y-103905000I0J-135000D01*
G01*
X159330000Y-104175000D01*
G75*
G02*
X159195000Y-104310000I-135000J0D01*
G01*
G37*
G04 #@! TD.AperFunction*
G04 #@! TA.AperFunction,SMDPad,CuDef*
G36*
G01*
X158855000Y-106970000D02*
X159225000Y-106970000D01*
G75*
G02*
X159360000Y-107105000I0J-135000D01*
G01*
X159360000Y-107375000D01*
G75*
G02*
X159225000Y-107510000I-135000J0D01*
G01*
X158855000Y-107510000D01*
G75*
G02*
X158720000Y-107375000I0J135000D01*
G01*
X158720000Y-107105000D01*
G75*
G02*
X158855000Y-106970000I135000J0D01*
G01*
G37*
G04 #@! TD.AperFunction*
G04 #@! TA.AperFunction,SMDPad,CuDef*
G36*
G01*
X158855000Y-105950000D02*
X159225000Y-105950000D01*
G75*
G02*
X159360000Y-106085000I0J-135000D01*
G01*
X159360000Y-106355000D01*
G75*
G02*
X159225000Y-106490000I-135000J0D01*
G01*
X158855000Y-106490000D01*
G75*
G02*
X158720000Y-106355000I0J135000D01*
G01*
X158720000Y-106085000D01*
G75*
G02*
X158855000Y-105950000I135000J0D01*
G01*
G37*
G04 #@! TD.AperFunction*
D11*
X156560000Y-98910000D03*
X156560000Y-96370000D03*
D12*
X156560000Y-93830000D03*
D11*
X162220000Y-98940000D03*
D12*
X162220000Y-96400000D03*
D11*
X103830000Y-106440000D03*
X106370000Y-106440000D03*
X103830000Y-103900000D03*
X106370000Y-103900000D03*
X103830000Y-101360000D03*
X106370000Y-101360000D03*
X103830000Y-98820000D03*
X106370000Y-98820000D03*
X103830000Y-96280000D03*
X106370000Y-96280000D03*
X103830000Y-93740000D03*
D12*
X106370000Y-93740000D03*
D11*
X162250000Y-106580000D03*
D12*
X162250000Y-104040000D03*
D11*
X156480000Y-106680000D03*
D12*
X156480000Y-104140000D03*
G04 #@! TA.AperFunction,SMDPad,CuDef*
G36*
G01*
X126840000Y-91180000D02*
X126840000Y-91520000D01*
G75*
G02*
X126700000Y-91660000I-140000J0D01*
G01*
X126420000Y-91660000D01*
G75*
G02*
X126280000Y-91520000I0J140000D01*
G01*
X126280000Y-91180000D01*
G75*
G02*
X126420000Y-91040000I140000J0D01*
G01*
X126700000Y-91040000D01*
G75*
G02*
X126840000Y-91180000I0J-140000D01*
G01*
G37*
G04 #@! TD.AperFunction*
G04 #@! TA.AperFunction,SMDPad,CuDef*
G36*
G01*
X127800000Y-91180000D02*
X127800000Y-91520000D01*
G75*
G02*
X127660000Y-91660000I-140000J0D01*
G01*
X127380000Y-91660000D01*
G75*
G02*
X127240000Y-91520000I0J140000D01*
G01*
X127240000Y-91180000D01*
G75*
G02*
X127380000Y-91040000I140000J0D01*
G01*
X127660000Y-91040000D01*
G75*
G02*
X127800000Y-91180000I0J-140000D01*
G01*
G37*
G04 #@! TD.AperFunction*
G04 #@! TA.AperFunction,SMDPad,CuDef*
G36*
G01*
X123720000Y-94110000D02*
X123720000Y-93770000D01*
G75*
G02*
X123860000Y-93630000I140000J0D01*
G01*
X124140000Y-93630000D01*
G75*
G02*
X124280000Y-93770000I0J-140000D01*
G01*
X124280000Y-94110000D01*
G75*
G02*
X124140000Y-94250000I-140000J0D01*
G01*
X123860000Y-94250000D01*
G75*
G02*
X123720000Y-94110000I0J140000D01*
G01*
G37*
G04 #@! TD.AperFunction*
G04 #@! TA.AperFunction,SMDPad,CuDef*
G36*
G01*
X122760000Y-94110000D02*
X122760000Y-93770000D01*
G75*
G02*
X122900000Y-93630000I140000J0D01*
G01*
X123180000Y-93630000D01*
G75*
G02*
X123320000Y-93770000I0J-140000D01*
G01*
X123320000Y-94110000D01*
G75*
G02*
X123180000Y-94250000I-140000J0D01*
G01*
X122900000Y-94250000D01*
G75*
G02*
X122760000Y-94110000I0J140000D01*
G01*
G37*
G04 #@! TD.AperFunction*
G04 #@! TA.AperFunction,SMDPad,CuDef*
G36*
G01*
X123720000Y-92850000D02*
X123720000Y-92510000D01*
G75*
G02*
X123860000Y-92370000I140000J0D01*
G01*
X124140000Y-92370000D01*
G75*
G02*
X124280000Y-92510000I0J-140000D01*
G01*
X124280000Y-92850000D01*
G75*
G02*
X124140000Y-92990000I-140000J0D01*
G01*
X123860000Y-92990000D01*
G75*
G02*
X123720000Y-92850000I0J140000D01*
G01*
G37*
G04 #@! TD.AperFunction*
G04 #@! TA.AperFunction,SMDPad,CuDef*
G36*
G01*
X122760000Y-92850000D02*
X122760000Y-92510000D01*
G75*
G02*
X122900000Y-92370000I140000J0D01*
G01*
X123180000Y-92370000D01*
G75*
G02*
X123320000Y-92510000I0J-140000D01*
G01*
X123320000Y-92850000D01*
G75*
G02*
X123180000Y-92990000I-140000J0D01*
G01*
X122900000Y-92990000D01*
G75*
G02*
X122760000Y-92850000I0J140000D01*
G01*
G37*
G04 #@! TD.AperFunction*
G04 #@! TA.AperFunction,SMDPad,CuDef*
G36*
G01*
X130050000Y-105850000D02*
X130050000Y-104750000D01*
G75*
G02*
X130300000Y-104500000I250000J0D01*
G01*
X132800000Y-104500000D01*
G75*
G02*
X133050000Y-104750000I0J-250000D01*
G01*
X133050000Y-105850000D01*
G75*
G02*
X132800000Y-106100000I-250000J0D01*
G01*
X130300000Y-106100000D01*
G75*
G02*
X130050000Y-105850000I0J250000D01*
G01*
G37*
G04 #@! TD.AperFunction*
G04 #@! TA.AperFunction,SMDPad,CuDef*
G36*
G01*
X125650000Y-105850000D02*
X125650000Y-104750000D01*
G75*
G02*
X125900000Y-104500000I250000J0D01*
G01*
X128400000Y-104500000D01*
G75*
G02*
X128650000Y-104750000I0J-250000D01*
G01*
X128650000Y-105850000D01*
G75*
G02*
X128400000Y-106100000I-250000J0D01*
G01*
X125900000Y-106100000D01*
G75*
G02*
X125650000Y-105850000I0J250000D01*
G01*
G37*
G04 #@! TD.AperFunction*
G04 #@! TA.AperFunction,SMDPad,CuDef*
G36*
G01*
X115240000Y-103190000D02*
X114140000Y-103190000D01*
G75*
G02*
X113890000Y-102940000I0J250000D01*
G01*
X113890000Y-100440000D01*
G75*
G02*
X114140000Y-100190000I250000J0D01*
G01*
X115240000Y-100190000D01*
G75*
G02*
X115490000Y-100440000I0J-250000D01*
G01*
X115490000Y-102940000D01*
G75*
G02*
X115240000Y-103190000I-250000J0D01*
G01*
G37*
G04 #@! TD.AperFunction*
G04 #@! TA.AperFunction,SMDPad,CuDef*
G36*
G01*
X115240000Y-107590000D02*
X114140000Y-107590000D01*
G75*
G02*
X113890000Y-107340000I0J250000D01*
G01*
X113890000Y-104840000D01*
G75*
G02*
X114140000Y-104590000I250000J0D01*
G01*
X115240000Y-104590000D01*
G75*
G02*
X115490000Y-104840000I0J-250000D01*
G01*
X115490000Y-107340000D01*
G75*
G02*
X115240000Y-107590000I-250000J0D01*
G01*
G37*
G04 #@! TD.AperFunction*
D16*
X130070000Y-91910000D03*
X113545000Y-97855000D03*
X135870000Y-96240000D03*
X113110000Y-101690000D03*
X114690000Y-99660000D03*
X116230000Y-101690000D03*
X131480000Y-103540000D03*
X131560000Y-107550000D03*
X124840000Y-107830000D03*
X119980000Y-105900000D03*
X117090000Y-91390000D03*
X117880000Y-91360000D03*
X159850000Y-107240000D03*
X163660000Y-102680000D03*
X125600000Y-91270000D03*
X138030000Y-91560000D03*
X138035001Y-92935010D03*
X127775000Y-94445000D03*
X128280000Y-91350000D03*
X119485000Y-93955000D03*
X121520000Y-99780000D03*
X121520000Y-102840000D03*
X127150000Y-104060000D03*
X129250000Y-105300000D03*
X127150000Y-106590000D03*
X125030000Y-105300000D03*
X159920000Y-104040000D03*
X120960000Y-91700000D03*
X134150000Y-97040000D03*
X133177500Y-98942500D03*
X125825000Y-100195000D03*
X134140000Y-95140000D03*
X135270000Y-91560000D03*
X123540000Y-98200000D03*
X135610000Y-93020000D03*
X122285000Y-94605000D03*
X131675000Y-94435000D03*
X123140000Y-95250000D03*
X132325000Y-95225000D03*
X119325000Y-97855000D03*
X131025000Y-97505000D03*
D17*
X129725000Y-93217500D02*
X129725000Y-92255000D01*
X129725000Y-92255000D02*
X130070000Y-91910000D01*
X130070000Y-91910000D02*
X130070000Y-91910000D01*
X115097500Y-97855000D02*
X113545000Y-97855000D01*
X113545000Y-97855000D02*
X113545000Y-97855000D01*
X137184999Y-96005001D02*
X136104999Y-96005001D01*
X137610000Y-95580000D02*
X137184999Y-96005001D01*
X136104999Y-96005001D02*
X135870000Y-96240000D01*
X135870000Y-96240000D02*
X135870000Y-96240000D01*
D18*
X114690000Y-101690000D02*
X113110000Y-101690000D01*
X114690000Y-101690000D02*
X114690000Y-99660000D01*
X114690000Y-101690000D02*
X116230000Y-101690000D01*
D17*
X113110000Y-101690000D02*
X113110000Y-101690000D01*
X114690000Y-99660000D02*
X114690000Y-99660000D01*
X116230000Y-101690000D02*
X116230000Y-101690000D01*
X159040000Y-107240000D02*
X159850000Y-107240000D01*
X159850000Y-107240000D02*
X159850000Y-107240000D01*
X163290000Y-101680000D02*
X163290000Y-102310000D01*
X163290000Y-102310000D02*
X163660000Y-102680000D01*
X163660000Y-102680000D02*
X163660000Y-102680000D01*
X118960000Y-91360000D02*
X117880000Y-91360000D01*
D18*
X122380000Y-92680000D02*
X123040000Y-92680000D01*
X121755000Y-93305000D02*
X122380000Y-92680000D01*
X120822500Y-93305000D02*
X121755000Y-93305000D01*
D17*
X159490000Y-97080000D02*
X160170000Y-96400000D01*
X157620000Y-102250000D02*
X159490000Y-100380000D01*
X157620000Y-104220000D02*
X157620000Y-102250000D01*
X160370000Y-104990000D02*
X158390000Y-104990000D01*
X160905010Y-105525010D02*
X160370000Y-104990000D01*
X160905010Y-108474990D02*
X160905010Y-105525010D01*
X160170000Y-96400000D02*
X162220000Y-96400000D01*
X159490000Y-100380000D02*
X159490000Y-97080000D01*
X160624999Y-108755001D02*
X160905010Y-108474990D01*
X115385001Y-108755001D02*
X160624999Y-108755001D01*
X114690000Y-108060000D02*
X115385001Y-108755001D01*
X158390000Y-104990000D02*
X157620000Y-104220000D01*
X114690000Y-106090000D02*
X114690000Y-108060000D01*
X138910000Y-91560000D02*
X138920000Y-91570000D01*
D19*
X137160000Y-91560000D02*
X138030000Y-91560000D01*
X138030000Y-91560000D02*
X138910000Y-91560000D01*
D17*
X137610000Y-94580000D02*
X138035001Y-94154999D01*
X138035001Y-94154999D02*
X138035001Y-92935010D01*
X138035001Y-92764999D02*
X138035001Y-92935010D01*
X127775000Y-93217500D02*
X127775000Y-94445000D01*
X127775000Y-94445000D02*
X127775000Y-94445000D01*
X127520000Y-91350000D02*
X128280000Y-91350000D01*
X128280000Y-91350000D02*
X128280000Y-91350000D01*
X120822500Y-93955000D02*
X119485000Y-93955000D01*
X119485000Y-93955000D02*
X119485000Y-93955000D01*
X120837500Y-93940000D02*
X120822500Y-93955000D01*
X123040000Y-93940000D02*
X120837500Y-93940000D01*
D18*
X121520000Y-101280000D02*
X121520000Y-102840000D01*
X121520000Y-101280000D02*
X121520000Y-99780000D01*
D17*
X121520000Y-99780000D02*
X121520000Y-99780000D01*
X121520000Y-102840000D02*
X121520000Y-102840000D01*
D18*
X127150000Y-105300000D02*
X125030000Y-105300000D01*
X127150000Y-105300000D02*
X127150000Y-104060000D01*
X127150000Y-105300000D02*
X127150000Y-106590000D01*
X127150000Y-105300000D02*
X129250000Y-105300000D01*
D17*
X127150000Y-104060000D02*
X127150000Y-104060000D01*
X129250000Y-105300000D02*
X129250000Y-105300000D01*
X127150000Y-106590000D02*
X127150000Y-106590000D01*
X125030000Y-105300000D02*
X125030000Y-105300000D01*
X156480000Y-104140000D02*
X156490000Y-104140000D01*
X156490000Y-104140000D02*
X156590000Y-104040000D01*
X133164999Y-103064999D02*
X130335001Y-103064999D01*
X133710000Y-108290000D02*
X133710000Y-103610000D01*
X133725001Y-108305001D02*
X133710000Y-108290000D01*
X129250000Y-104150000D02*
X129250000Y-105300000D01*
X130335001Y-103064999D02*
X129250000Y-104150000D01*
X133710000Y-103610000D02*
X133164999Y-103064999D01*
D18*
X160074999Y-108305001D02*
X133725001Y-108305001D01*
X160580000Y-107800000D02*
X160074999Y-108305001D01*
X160100000Y-105470000D02*
X160580000Y-105950000D01*
X156690000Y-105470000D02*
X160100000Y-105470000D01*
X156480000Y-105260000D02*
X156690000Y-105470000D01*
X160580000Y-105950000D02*
X160580000Y-107800000D01*
X156480000Y-104140000D02*
X156480000Y-105260000D01*
D17*
X159010000Y-104040000D02*
X159920000Y-104040000D01*
X159920000Y-104040000D02*
X159920000Y-104040000D01*
X119920000Y-91360000D02*
X120620000Y-91360000D01*
X120620000Y-91360000D02*
X120960000Y-91700000D01*
X158200000Y-106220000D02*
X159040000Y-106220000D01*
X157740000Y-106680000D02*
X158200000Y-106220000D01*
X156480000Y-106680000D02*
X157740000Y-106680000D01*
X150340000Y-100540000D02*
X156480000Y-106680000D01*
X149950000Y-100250000D02*
X150500000Y-100800000D01*
X129930000Y-100050000D02*
X149850000Y-100050000D01*
X129725000Y-99845000D02*
X129930000Y-100050000D01*
X129725000Y-98942500D02*
X129725000Y-99845000D01*
X162250000Y-104040000D02*
X161040000Y-104040000D01*
X160020000Y-103020000D02*
X159010000Y-103020000D01*
X161040000Y-104040000D02*
X160020000Y-103020000D01*
X163610000Y-107780000D02*
X163610000Y-105400000D01*
X102175012Y-109005012D02*
X162384988Y-109005012D01*
X101210000Y-108040000D02*
X102175012Y-109005012D01*
X162384988Y-109005012D02*
X163610000Y-107780000D01*
X101210000Y-105670000D02*
X101210000Y-108040000D01*
X101780000Y-105100000D02*
X101210000Y-105670000D01*
X107270000Y-105100000D02*
X101780000Y-105100000D01*
X111600000Y-100770000D02*
X107270000Y-105100000D01*
X163610000Y-105400000D02*
X162250000Y-104040000D01*
X111600000Y-98360000D02*
X111600000Y-100770000D01*
X112755000Y-97205000D02*
X111600000Y-98360000D01*
X115097500Y-97205000D02*
X112755000Y-97205000D01*
X103830000Y-101360000D02*
X100550000Y-98080000D01*
X100550000Y-98080000D02*
X100550000Y-91580000D01*
X100550000Y-91580000D02*
X101480000Y-90650000D01*
X101480000Y-90650000D02*
X151840000Y-90650000D01*
X155020000Y-93830000D02*
X156560000Y-93830000D01*
X151840000Y-90650000D02*
X155020000Y-93830000D01*
X110565000Y-95255000D02*
X114215000Y-95255000D01*
X108890000Y-100390000D02*
X108890000Y-96930000D01*
X108890000Y-96930000D02*
X110565000Y-95255000D01*
X107920000Y-101360000D02*
X108890000Y-100390000D01*
X106370000Y-101360000D02*
X107920000Y-101360000D01*
X114215000Y-95255000D02*
X115097500Y-95255000D01*
X112905000Y-95255000D02*
X114215000Y-95255000D01*
X117295000Y-92655000D02*
X120822500Y-92655000D01*
X115660000Y-91020000D02*
X117295000Y-92655000D01*
X100940000Y-92000000D02*
X101920000Y-91020000D01*
X102200000Y-98820000D02*
X100940000Y-97560000D01*
X101920000Y-91020000D02*
X115660000Y-91020000D01*
X100940000Y-97560000D02*
X100940000Y-92000000D01*
X103830000Y-98820000D02*
X102200000Y-98820000D01*
X115995000Y-93305000D02*
X115097500Y-93305000D01*
X116300000Y-92220000D02*
X116300000Y-93000000D01*
X116300000Y-93000000D02*
X115995000Y-93305000D01*
X115600000Y-91520000D02*
X116300000Y-92220000D01*
X102670000Y-91520000D02*
X115600000Y-91520000D01*
X101760000Y-92430000D02*
X102670000Y-91520000D01*
X101760000Y-97030000D02*
X101760000Y-92430000D01*
X105344999Y-97794999D02*
X102524999Y-97794999D01*
X102524999Y-97794999D02*
X101760000Y-97030000D01*
X106370000Y-98820000D02*
X105344999Y-97794999D01*
X104870000Y-92510000D02*
X105425000Y-91955000D01*
X104870000Y-95240000D02*
X104870000Y-92510000D01*
X103830000Y-96280000D02*
X104870000Y-95240000D01*
X105425000Y-91955000D02*
X108135000Y-91955000D01*
X108835000Y-92655000D02*
X115097500Y-92655000D01*
X108135000Y-91955000D02*
X108835000Y-92655000D01*
X108955000Y-93955000D02*
X115097500Y-93955000D01*
X105554998Y-92540000D02*
X107540000Y-92540000D01*
X107540000Y-92540000D02*
X108955000Y-93955000D01*
X105320000Y-92774998D02*
X105554998Y-92540000D01*
X105320000Y-95230000D02*
X105320000Y-92774998D01*
X106370000Y-96280000D02*
X105320000Y-95230000D01*
X113575000Y-95905000D02*
X115097500Y-95905000D01*
X110965000Y-95905000D02*
X115097500Y-95905000D01*
X109610000Y-97260000D02*
X110965000Y-95905000D01*
X109610000Y-100680000D02*
X109610000Y-97260000D01*
X103830000Y-93740000D02*
X102500000Y-95070000D01*
X102500000Y-95070000D02*
X102500000Y-96760000D01*
X106022998Y-102530000D02*
X107760000Y-102530000D01*
X102500000Y-96760000D02*
X103050000Y-97310000D01*
X103050000Y-97310000D02*
X107250000Y-97310000D01*
X107250000Y-97310000D02*
X107790000Y-97850000D01*
X107790000Y-97850000D02*
X107790000Y-99330000D01*
X105100000Y-100623000D02*
X105100000Y-101607002D01*
X105388001Y-100334999D02*
X105100000Y-100623000D01*
X106785001Y-100334999D02*
X105388001Y-100334999D01*
X107790000Y-99330000D02*
X106785001Y-100334999D01*
X105100000Y-101607002D02*
X106022998Y-102530000D01*
X107760000Y-102530000D02*
X109610000Y-100680000D01*
X108825000Y-94605000D02*
X115097500Y-94605000D01*
X107960000Y-93740000D02*
X108825000Y-94605000D01*
X106370000Y-93740000D02*
X107960000Y-93740000D01*
X126800001Y-96460001D02*
X133570001Y-96460001D01*
X125825000Y-93217500D02*
X125825000Y-95485000D01*
X125825000Y-95485000D02*
X126800001Y-96460001D01*
X133570001Y-96460001D02*
X134150000Y-97040000D01*
X140950000Y-102790000D02*
X141310000Y-103150000D01*
X141310000Y-105500000D02*
X142590000Y-106780000D01*
X127670000Y-102790000D02*
X140950000Y-102790000D01*
X141310000Y-103150000D02*
X141310000Y-105500000D01*
X125175000Y-100295000D02*
X127670000Y-102790000D01*
X125175000Y-98942500D02*
X125175000Y-100295000D01*
X148750000Y-105700000D02*
X147670000Y-106780000D01*
X147310000Y-101650000D02*
X148750000Y-103090000D01*
X128300000Y-101650000D02*
X147310000Y-101650000D01*
X127125000Y-100475000D02*
X128300000Y-101650000D01*
X148750000Y-103090000D02*
X148750000Y-105700000D01*
X127125000Y-98942500D02*
X127125000Y-100475000D01*
X147670000Y-102840000D02*
X147670000Y-104240000D01*
X147030000Y-102200000D02*
X147670000Y-102840000D01*
X127970000Y-102200000D02*
X147030000Y-102200000D01*
X126475000Y-100705000D02*
X127970000Y-102200000D01*
X126475000Y-98942500D02*
X126475000Y-100705000D01*
X149120000Y-105690000D02*
X150210000Y-106780000D01*
X149120000Y-102690000D02*
X149120000Y-105690000D01*
X147510000Y-101080000D02*
X149120000Y-102690000D01*
X128570000Y-101080000D02*
X147510000Y-101080000D01*
X127775000Y-100285000D02*
X128570000Y-101080000D01*
X127775000Y-98942500D02*
X127775000Y-100285000D01*
X150210000Y-102480000D02*
X150210000Y-104240000D01*
X148250000Y-100520000D02*
X150210000Y-102480000D01*
X128830000Y-100520000D02*
X148250000Y-100520000D01*
X128425000Y-100115000D02*
X128830000Y-100520000D01*
X128425000Y-98942500D02*
X128425000Y-100115000D01*
X156590000Y-98940000D02*
X156560000Y-98910000D01*
X162220000Y-101630000D02*
X162270000Y-101680000D01*
X162220000Y-98940000D02*
X162220000Y-101630000D01*
X153987500Y-98942500D02*
X156560000Y-96370000D01*
X132325000Y-98942500D02*
X133177500Y-98942500D01*
X133177500Y-98942500D02*
X153987500Y-98942500D01*
X125825000Y-98942500D02*
X125825000Y-100195000D01*
X125825000Y-100195000D02*
X125825000Y-100195000D01*
X130375000Y-92355000D02*
X130375000Y-93217500D01*
X130800000Y-91930000D02*
X130375000Y-92355000D01*
X132560000Y-91930000D02*
X130800000Y-91930000D01*
X133090000Y-92460000D02*
X132560000Y-91930000D01*
X138610000Y-92460000D02*
X133090000Y-92460000D01*
X139140000Y-92990000D02*
X138610000Y-92460000D01*
X139140000Y-94110000D02*
X139140000Y-92990000D01*
X139610000Y-94580000D02*
X139140000Y-94110000D01*
X140770000Y-91570000D02*
X139940000Y-91570000D01*
X141530000Y-92330000D02*
X140770000Y-91570000D01*
X139610000Y-94580000D02*
X139100000Y-95090000D01*
X141530000Y-95710000D02*
X141530000Y-92330000D01*
X139100000Y-95730000D02*
X139440000Y-96070000D01*
X139100000Y-95090000D02*
X139100000Y-95730000D01*
X141170000Y-96070000D02*
X141530000Y-95710000D01*
X139440000Y-96070000D02*
X141170000Y-96070000D01*
X136140000Y-91560000D02*
X135270000Y-91560000D01*
X135270000Y-91560000D02*
X135270000Y-91560000D01*
X123235000Y-98505000D02*
X123540000Y-98200000D01*
X120822500Y-98505000D02*
X123235000Y-98505000D01*
X134140000Y-95140000D02*
X134700000Y-94580000D01*
X135610000Y-94560000D02*
X135630000Y-94580000D01*
X135610000Y-93020000D02*
X135610000Y-94560000D01*
X135630000Y-94580000D02*
X136610000Y-94580000D01*
X134700000Y-94580000D02*
X135630000Y-94580000D01*
X120822500Y-94605000D02*
X122285000Y-94605000D01*
X122285000Y-94605000D02*
X122285000Y-94605000D01*
X131675000Y-93217500D02*
X131675000Y-94435000D01*
X131675000Y-94435000D02*
X131675000Y-94435000D01*
X123135000Y-95255000D02*
X123140000Y-95250000D01*
X120822500Y-95255000D02*
X123135000Y-95255000D01*
X123140000Y-95250000D02*
X123140000Y-95250000D01*
X132325000Y-93217500D02*
X132325000Y-95225000D01*
X132325000Y-95225000D02*
X132325000Y-95244990D01*
X131675000Y-97451998D02*
X131675000Y-98942500D01*
X131253001Y-97029999D02*
X131675000Y-97451998D01*
X130290001Y-97029999D02*
X131253001Y-97029999D01*
X125430000Y-97140000D02*
X130180000Y-97140000D01*
X124195000Y-95905000D02*
X125430000Y-97140000D01*
X130180000Y-97140000D02*
X130290001Y-97029999D01*
X120822500Y-95905000D02*
X124195000Y-95905000D01*
X120822500Y-96555000D02*
X123815000Y-96555000D01*
X123815000Y-96555000D02*
X124820000Y-97560000D01*
X124820000Y-97560000D02*
X129980000Y-97560000D01*
X130375000Y-97955000D02*
X130375000Y-98942500D01*
X129980000Y-97560000D02*
X130375000Y-97955000D01*
X129075000Y-98205000D02*
X129075000Y-98942500D01*
X128830000Y-97960000D02*
X129075000Y-98205000D01*
X124343004Y-97960000D02*
X128830000Y-97960000D01*
X123588004Y-97205000D02*
X124343004Y-97960000D01*
X120822500Y-97205000D02*
X123588004Y-97205000D01*
X120822500Y-97855000D02*
X119325000Y-97855000D01*
X119325000Y-97855000D02*
X119325000Y-97855000D01*
X131025000Y-98942500D02*
X131067500Y-98942500D01*
X131025000Y-98942500D02*
X131025000Y-97505000D01*
X131025000Y-97505000D02*
X131025000Y-97505000D01*
X136570000Y-97620000D02*
X137610000Y-96580000D01*
X132670000Y-97620000D02*
X136570000Y-97620000D01*
X131770000Y-96720000D02*
X132670000Y-97620000D01*
X126260000Y-96720000D02*
X131770000Y-96720000D01*
X125175000Y-95635000D02*
X126260000Y-96720000D01*
X125175000Y-93217500D02*
X125175000Y-95635000D01*
X139035001Y-97005001D02*
X138610000Y-96580000D01*
X142024999Y-97005001D02*
X139035001Y-97005001D01*
X142420000Y-91720000D02*
X142420000Y-96610000D01*
X142420000Y-96610000D02*
X142024999Y-97005001D01*
X129580000Y-90970000D02*
X141670000Y-90970000D01*
X126760000Y-91980000D02*
X128570000Y-91980000D01*
X126475000Y-92265000D02*
X126760000Y-91980000D01*
X141670000Y-90970000D02*
X142420000Y-91720000D01*
X128570000Y-91980000D02*
X129580000Y-90970000D01*
X126475000Y-93217500D02*
X126475000Y-92265000D01*
X127125000Y-92480000D02*
X127125000Y-93217500D01*
X127300010Y-92304990D02*
X127125000Y-92480000D01*
X128845010Y-92304990D02*
X127300010Y-92304990D01*
X129760000Y-91390000D02*
X128845010Y-92304990D01*
X132373566Y-91390000D02*
X129760000Y-91390000D01*
X138859002Y-92200000D02*
X133183566Y-92200000D01*
X133183566Y-92200000D02*
X132373566Y-91390000D01*
X140090000Y-93430998D02*
X138859002Y-92200000D01*
X140090000Y-95100000D02*
X140090000Y-93430998D01*
X139610000Y-95580000D02*
X140090000Y-95100000D01*
X139610000Y-96580000D02*
X139540000Y-96580000D01*
X129694999Y-96074999D02*
X128425000Y-94805000D01*
X135215001Y-97005001D02*
X134284999Y-96074999D01*
X136814001Y-97005001D02*
X135215001Y-97005001D01*
X137150000Y-96669002D02*
X136814001Y-97005001D01*
X137150000Y-96410998D02*
X137150000Y-96669002D01*
X134284999Y-96074999D02*
X129694999Y-96074999D01*
X137460998Y-96100000D02*
X137150000Y-96410998D01*
X138759002Y-96100000D02*
X137460998Y-96100000D01*
X139239002Y-96580000D02*
X138759002Y-96100000D01*
X128425000Y-94805000D02*
X128425000Y-93217500D01*
X139610000Y-96580000D02*
X139239002Y-96580000D01*
X138184999Y-95005001D02*
X138610000Y-94580000D01*
X136434999Y-95005001D02*
X138184999Y-95005001D01*
X135690000Y-95750000D02*
X136434999Y-95005001D01*
X130350000Y-95750000D02*
X135690000Y-95750000D01*
X129075000Y-94475000D02*
X130350000Y-95750000D01*
X129075000Y-93217500D02*
X129075000Y-94475000D01*
D20*
X117216194Y-93051183D02*
X117275253Y-93057000D01*
X117275260Y-93057000D01*
X117294999Y-93058944D01*
X117314739Y-93057000D01*
X119451771Y-93057000D01*
X119450000Y-93073250D01*
X119608750Y-93232000D01*
X120695500Y-93232000D01*
X120695500Y-93183582D01*
X120949500Y-93183582D01*
X120949500Y-93232000D01*
X120969500Y-93232000D01*
X120969500Y-93363000D01*
X119694216Y-93363000D01*
X119667889Y-93352095D01*
X119546754Y-93328000D01*
X119423246Y-93328000D01*
X119302111Y-93352095D01*
X119275784Y-93363000D01*
X119240000Y-93363000D01*
X119215224Y-93365440D01*
X119191399Y-93372667D01*
X119172353Y-93382516D01*
X117742353Y-94282516D01*
X117722683Y-94297778D01*
X117706370Y-94316585D01*
X117694038Y-94338213D01*
X117686163Y-94361831D01*
X117683007Y-94391340D01*
X117733007Y-99131340D01*
X117735709Y-99156089D01*
X117743186Y-99179836D01*
X117755153Y-99201667D01*
X117771150Y-99220745D01*
X117790560Y-99236335D01*
X117812640Y-99247839D01*
X117836539Y-99254814D01*
X117860555Y-99256999D01*
X120023000Y-99247556D01*
X120023000Y-99647148D01*
X119970000Y-99641928D01*
X119505750Y-99645000D01*
X119347000Y-99803750D01*
X119347000Y-101153000D01*
X119367000Y-101153000D01*
X119367000Y-101407000D01*
X119347000Y-101407000D01*
X119347000Y-102756250D01*
X119505750Y-102915000D01*
X119970000Y-102918072D01*
X120023000Y-102912852D01*
X120023000Y-104091634D01*
X118814242Y-105909685D01*
X118810735Y-105915269D01*
X117597597Y-107963046D01*
X116004484Y-107964054D01*
X116020537Y-107944494D01*
X116079502Y-107834180D01*
X116115812Y-107714482D01*
X116128072Y-107590000D01*
X116125000Y-106375750D01*
X115966250Y-106217000D01*
X114817000Y-106217000D01*
X114817000Y-106237000D01*
X114563000Y-106237000D01*
X114563000Y-106217000D01*
X113413750Y-106217000D01*
X113255000Y-106375750D01*
X113251928Y-107590000D01*
X113264188Y-107714482D01*
X113300498Y-107834180D01*
X113359463Y-107944494D01*
X113376881Y-107965717D01*
X101997000Y-107972920D01*
X101997000Y-106796890D01*
X102388524Y-106796890D01*
X102433175Y-106944099D01*
X102558359Y-107206920D01*
X102732412Y-107440269D01*
X102948645Y-107635178D01*
X103198748Y-107784157D01*
X103473109Y-107881481D01*
X103703000Y-107760814D01*
X103703000Y-106567000D01*
X103957000Y-106567000D01*
X103957000Y-107760814D01*
X104186891Y-107881481D01*
X104461252Y-107784157D01*
X104711355Y-107635178D01*
X104927588Y-107440269D01*
X105100000Y-107209120D01*
X105272412Y-107440269D01*
X105488645Y-107635178D01*
X105738748Y-107784157D01*
X106013109Y-107881481D01*
X106243000Y-107760814D01*
X106243000Y-106567000D01*
X106497000Y-106567000D01*
X106497000Y-107760814D01*
X106726891Y-107881481D01*
X107001252Y-107784157D01*
X107251355Y-107635178D01*
X107467588Y-107440269D01*
X107641641Y-107206920D01*
X107766825Y-106944099D01*
X107811476Y-106796890D01*
X107690155Y-106567000D01*
X106497000Y-106567000D01*
X106243000Y-106567000D01*
X103957000Y-106567000D01*
X103703000Y-106567000D01*
X102509845Y-106567000D01*
X102388524Y-106796890D01*
X101997000Y-106796890D01*
X101997000Y-105502000D01*
X102685966Y-105502000D01*
X102558359Y-105673080D01*
X102433175Y-105935901D01*
X102388524Y-106083110D01*
X102509845Y-106313000D01*
X103703000Y-106313000D01*
X103703000Y-106293000D01*
X103957000Y-106293000D01*
X103957000Y-106313000D01*
X106243000Y-106313000D01*
X106243000Y-106293000D01*
X106497000Y-106293000D01*
X106497000Y-106313000D01*
X107690155Y-106313000D01*
X107811476Y-106083110D01*
X107766825Y-105935901D01*
X107641641Y-105673080D01*
X107473176Y-105447223D01*
X107494420Y-105435868D01*
X107555632Y-105385632D01*
X107564268Y-105375109D01*
X108889819Y-105377000D01*
X108914599Y-105374595D01*
X108938433Y-105367402D01*
X108960407Y-105355697D01*
X108981269Y-105338311D01*
X109705329Y-104590000D01*
X113251928Y-104590000D01*
X113255000Y-105804250D01*
X113413750Y-105963000D01*
X114563000Y-105963000D01*
X114563000Y-104113750D01*
X114817000Y-104113750D01*
X114817000Y-105963000D01*
X115966250Y-105963000D01*
X116125000Y-105804250D01*
X116128072Y-104590000D01*
X116115812Y-104465518D01*
X116079502Y-104345820D01*
X116020537Y-104235506D01*
X115941185Y-104138815D01*
X115844494Y-104059463D01*
X115734180Y-104000498D01*
X115614482Y-103964188D01*
X115490000Y-103951928D01*
X114975750Y-103955000D01*
X114817000Y-104113750D01*
X114563000Y-104113750D01*
X114404250Y-103955000D01*
X113890000Y-103951928D01*
X113765518Y-103964188D01*
X113645820Y-104000498D01*
X113535506Y-104059463D01*
X113438815Y-104138815D01*
X113359463Y-104235506D01*
X113300498Y-104345820D01*
X113264188Y-104465518D01*
X113251928Y-104590000D01*
X109705329Y-104590000D01*
X111033732Y-103217106D01*
X113637952Y-103222202D01*
X113658927Y-103261443D01*
X113730881Y-103349119D01*
X113818557Y-103421073D01*
X113918586Y-103474540D01*
X114027124Y-103507465D01*
X114140000Y-103518582D01*
X115240000Y-103518582D01*
X115352876Y-103507465D01*
X115461414Y-103474540D01*
X115561443Y-103421073D01*
X115649119Y-103349119D01*
X115721073Y-103261443D01*
X115739849Y-103226315D01*
X116089751Y-103227000D01*
X116114533Y-103224608D01*
X116138371Y-103217428D01*
X116160351Y-103205735D01*
X116179627Y-103189978D01*
X116195458Y-103170764D01*
X116207237Y-103148830D01*
X116214511Y-103125020D01*
X116217000Y-103100000D01*
X116217000Y-102317000D01*
X116291754Y-102317000D01*
X116412889Y-102292905D01*
X116444044Y-102280000D01*
X117831928Y-102280000D01*
X117844188Y-102404482D01*
X117880498Y-102524180D01*
X117939463Y-102634494D01*
X118018815Y-102731185D01*
X118115506Y-102810537D01*
X118225820Y-102869502D01*
X118345518Y-102905812D01*
X118470000Y-102918072D01*
X118934250Y-102915000D01*
X119093000Y-102756250D01*
X119093000Y-101407000D01*
X117993750Y-101407000D01*
X117835000Y-101565750D01*
X117831928Y-102280000D01*
X116444044Y-102280000D01*
X116526996Y-102245640D01*
X116629689Y-102177023D01*
X116717023Y-102089689D01*
X116785640Y-101986996D01*
X116832905Y-101872889D01*
X116857000Y-101751754D01*
X116857000Y-101628246D01*
X116832905Y-101507111D01*
X116785640Y-101393004D01*
X116717023Y-101290311D01*
X116629689Y-101202977D01*
X116526996Y-101134360D01*
X116412889Y-101087095D01*
X116291754Y-101063000D01*
X116217000Y-101063000D01*
X116217000Y-100280000D01*
X117831928Y-100280000D01*
X117835000Y-100994250D01*
X117993750Y-101153000D01*
X119093000Y-101153000D01*
X119093000Y-99803750D01*
X118934250Y-99645000D01*
X118470000Y-99641928D01*
X118345518Y-99654188D01*
X118225820Y-99690498D01*
X118115506Y-99749463D01*
X118018815Y-99828815D01*
X117939463Y-99925506D01*
X117880498Y-100035820D01*
X117844188Y-100155518D01*
X117831928Y-100280000D01*
X116217000Y-100280000D01*
X116217000Y-98960000D01*
X116216998Y-98959370D01*
X116190701Y-93656219D01*
X116219420Y-93640868D01*
X116280632Y-93590632D01*
X116293223Y-93575290D01*
X116570295Y-93298219D01*
X116585632Y-93285632D01*
X116635868Y-93224420D01*
X116673197Y-93154583D01*
X116696183Y-93078806D01*
X116700301Y-93037000D01*
X117169437Y-93037000D01*
X117216194Y-93051183D01*
G04 #@! TA.AperFunction,Conductor*
D21*
G36*
X117216194Y-93051183D02*
G01*
X117275253Y-93057000D01*
X117275260Y-93057000D01*
X117294999Y-93058944D01*
X117314739Y-93057000D01*
X119451771Y-93057000D01*
X119450000Y-93073250D01*
X119608750Y-93232000D01*
X120695500Y-93232000D01*
X120695500Y-93183582D01*
X120949500Y-93183582D01*
X120949500Y-93232000D01*
X120969500Y-93232000D01*
X120969500Y-93363000D01*
X119694216Y-93363000D01*
X119667889Y-93352095D01*
X119546754Y-93328000D01*
X119423246Y-93328000D01*
X119302111Y-93352095D01*
X119275784Y-93363000D01*
X119240000Y-93363000D01*
X119215224Y-93365440D01*
X119191399Y-93372667D01*
X119172353Y-93382516D01*
X117742353Y-94282516D01*
X117722683Y-94297778D01*
X117706370Y-94316585D01*
X117694038Y-94338213D01*
X117686163Y-94361831D01*
X117683007Y-94391340D01*
X117733007Y-99131340D01*
X117735709Y-99156089D01*
X117743186Y-99179836D01*
X117755153Y-99201667D01*
X117771150Y-99220745D01*
X117790560Y-99236335D01*
X117812640Y-99247839D01*
X117836539Y-99254814D01*
X117860555Y-99256999D01*
X120023000Y-99247556D01*
X120023000Y-99647148D01*
X119970000Y-99641928D01*
X119505750Y-99645000D01*
X119347000Y-99803750D01*
X119347000Y-101153000D01*
X119367000Y-101153000D01*
X119367000Y-101407000D01*
X119347000Y-101407000D01*
X119347000Y-102756250D01*
X119505750Y-102915000D01*
X119970000Y-102918072D01*
X120023000Y-102912852D01*
X120023000Y-104091634D01*
X118814242Y-105909685D01*
X118810735Y-105915269D01*
X117597597Y-107963046D01*
X116004484Y-107964054D01*
X116020537Y-107944494D01*
X116079502Y-107834180D01*
X116115812Y-107714482D01*
X116128072Y-107590000D01*
X116125000Y-106375750D01*
X115966250Y-106217000D01*
X114817000Y-106217000D01*
X114817000Y-106237000D01*
X114563000Y-106237000D01*
X114563000Y-106217000D01*
X113413750Y-106217000D01*
X113255000Y-106375750D01*
X113251928Y-107590000D01*
X113264188Y-107714482D01*
X113300498Y-107834180D01*
X113359463Y-107944494D01*
X113376881Y-107965717D01*
X101997000Y-107972920D01*
X101997000Y-106796890D01*
X102388524Y-106796890D01*
X102433175Y-106944099D01*
X102558359Y-107206920D01*
X102732412Y-107440269D01*
X102948645Y-107635178D01*
X103198748Y-107784157D01*
X103473109Y-107881481D01*
X103703000Y-107760814D01*
X103703000Y-106567000D01*
X103957000Y-106567000D01*
X103957000Y-107760814D01*
X104186891Y-107881481D01*
X104461252Y-107784157D01*
X104711355Y-107635178D01*
X104927588Y-107440269D01*
X105100000Y-107209120D01*
X105272412Y-107440269D01*
X105488645Y-107635178D01*
X105738748Y-107784157D01*
X106013109Y-107881481D01*
X106243000Y-107760814D01*
X106243000Y-106567000D01*
X106497000Y-106567000D01*
X106497000Y-107760814D01*
X106726891Y-107881481D01*
X107001252Y-107784157D01*
X107251355Y-107635178D01*
X107467588Y-107440269D01*
X107641641Y-107206920D01*
X107766825Y-106944099D01*
X107811476Y-106796890D01*
X107690155Y-106567000D01*
X106497000Y-106567000D01*
X106243000Y-106567000D01*
X103957000Y-106567000D01*
X103703000Y-106567000D01*
X102509845Y-106567000D01*
X102388524Y-106796890D01*
X101997000Y-106796890D01*
X101997000Y-105502000D01*
X102685966Y-105502000D01*
X102558359Y-105673080D01*
X102433175Y-105935901D01*
X102388524Y-106083110D01*
X102509845Y-106313000D01*
X103703000Y-106313000D01*
X103703000Y-106293000D01*
X103957000Y-106293000D01*
X103957000Y-106313000D01*
X106243000Y-106313000D01*
X106243000Y-106293000D01*
X106497000Y-106293000D01*
X106497000Y-106313000D01*
X107690155Y-106313000D01*
X107811476Y-106083110D01*
X107766825Y-105935901D01*
X107641641Y-105673080D01*
X107473176Y-105447223D01*
X107494420Y-105435868D01*
X107555632Y-105385632D01*
X107564268Y-105375109D01*
X108889819Y-105377000D01*
X108914599Y-105374595D01*
X108938433Y-105367402D01*
X108960407Y-105355697D01*
X108981269Y-105338311D01*
X109705329Y-104590000D01*
X113251928Y-104590000D01*
X113255000Y-105804250D01*
X113413750Y-105963000D01*
X114563000Y-105963000D01*
X114563000Y-104113750D01*
X114817000Y-104113750D01*
X114817000Y-105963000D01*
X115966250Y-105963000D01*
X116125000Y-105804250D01*
X116128072Y-104590000D01*
X116115812Y-104465518D01*
X116079502Y-104345820D01*
X116020537Y-104235506D01*
X115941185Y-104138815D01*
X115844494Y-104059463D01*
X115734180Y-104000498D01*
X115614482Y-103964188D01*
X115490000Y-103951928D01*
X114975750Y-103955000D01*
X114817000Y-104113750D01*
X114563000Y-104113750D01*
X114404250Y-103955000D01*
X113890000Y-103951928D01*
X113765518Y-103964188D01*
X113645820Y-104000498D01*
X113535506Y-104059463D01*
X113438815Y-104138815D01*
X113359463Y-104235506D01*
X113300498Y-104345820D01*
X113264188Y-104465518D01*
X113251928Y-104590000D01*
X109705329Y-104590000D01*
X111033732Y-103217106D01*
X113637952Y-103222202D01*
X113658927Y-103261443D01*
X113730881Y-103349119D01*
X113818557Y-103421073D01*
X113918586Y-103474540D01*
X114027124Y-103507465D01*
X114140000Y-103518582D01*
X115240000Y-103518582D01*
X115352876Y-103507465D01*
X115461414Y-103474540D01*
X115561443Y-103421073D01*
X115649119Y-103349119D01*
X115721073Y-103261443D01*
X115739849Y-103226315D01*
X116089751Y-103227000D01*
X116114533Y-103224608D01*
X116138371Y-103217428D01*
X116160351Y-103205735D01*
X116179627Y-103189978D01*
X116195458Y-103170764D01*
X116207237Y-103148830D01*
X116214511Y-103125020D01*
X116217000Y-103100000D01*
X116217000Y-102317000D01*
X116291754Y-102317000D01*
X116412889Y-102292905D01*
X116444044Y-102280000D01*
X117831928Y-102280000D01*
X117844188Y-102404482D01*
X117880498Y-102524180D01*
X117939463Y-102634494D01*
X118018815Y-102731185D01*
X118115506Y-102810537D01*
X118225820Y-102869502D01*
X118345518Y-102905812D01*
X118470000Y-102918072D01*
X118934250Y-102915000D01*
X119093000Y-102756250D01*
X119093000Y-101407000D01*
X117993750Y-101407000D01*
X117835000Y-101565750D01*
X117831928Y-102280000D01*
X116444044Y-102280000D01*
X116526996Y-102245640D01*
X116629689Y-102177023D01*
X116717023Y-102089689D01*
X116785640Y-101986996D01*
X116832905Y-101872889D01*
X116857000Y-101751754D01*
X116857000Y-101628246D01*
X116832905Y-101507111D01*
X116785640Y-101393004D01*
X116717023Y-101290311D01*
X116629689Y-101202977D01*
X116526996Y-101134360D01*
X116412889Y-101087095D01*
X116291754Y-101063000D01*
X116217000Y-101063000D01*
X116217000Y-100280000D01*
X117831928Y-100280000D01*
X117835000Y-100994250D01*
X117993750Y-101153000D01*
X119093000Y-101153000D01*
X119093000Y-99803750D01*
X118934250Y-99645000D01*
X118470000Y-99641928D01*
X118345518Y-99654188D01*
X118225820Y-99690498D01*
X118115506Y-99749463D01*
X118018815Y-99828815D01*
X117939463Y-99925506D01*
X117880498Y-100035820D01*
X117844188Y-100155518D01*
X117831928Y-100280000D01*
X116217000Y-100280000D01*
X116217000Y-98960000D01*
X116216998Y-98959370D01*
X116190701Y-93656219D01*
X116219420Y-93640868D01*
X116280632Y-93590632D01*
X116293223Y-93575290D01*
X116570295Y-93298219D01*
X116585632Y-93285632D01*
X116635868Y-93224420D01*
X116673197Y-93154583D01*
X116696183Y-93078806D01*
X116700301Y-93037000D01*
X117169437Y-93037000D01*
X117216194Y-93051183D01*
G37*
G04 #@! TD.AperFunction*
D20*
X124623000Y-99647148D02*
X124570000Y-99641928D01*
X124105750Y-99645000D01*
X123947000Y-99803750D01*
X123947000Y-101153000D01*
X125046250Y-101153000D01*
X125205000Y-100994250D01*
X125205431Y-100893945D01*
X127371781Y-103060295D01*
X127384368Y-103075632D01*
X127445580Y-103125868D01*
X127515417Y-103163197D01*
X127591194Y-103186183D01*
X127650253Y-103192000D01*
X127650260Y-103192000D01*
X127670000Y-103193944D01*
X127689739Y-103192000D01*
X129639486Y-103192000D01*
X128979710Y-103851777D01*
X128964368Y-103864368D01*
X128914132Y-103925581D01*
X128876803Y-103995418D01*
X128853817Y-104071195D01*
X128848000Y-104130254D01*
X128848000Y-104130261D01*
X128846056Y-104150000D01*
X128848000Y-104169740D01*
X128848000Y-104388258D01*
X128809119Y-104340881D01*
X128721443Y-104268927D01*
X128621414Y-104215460D01*
X128512876Y-104182535D01*
X128400000Y-104171418D01*
X127767121Y-104171418D01*
X127777000Y-104121754D01*
X127777000Y-103998246D01*
X127752905Y-103877111D01*
X127705640Y-103763004D01*
X127637023Y-103660311D01*
X127549689Y-103572977D01*
X127446996Y-103504360D01*
X127332889Y-103457095D01*
X127211754Y-103433000D01*
X127088246Y-103433000D01*
X126967111Y-103457095D01*
X126853004Y-103504360D01*
X126750311Y-103572977D01*
X126662977Y-103660311D01*
X126594360Y-103763004D01*
X126547095Y-103877111D01*
X126523000Y-103998246D01*
X126523000Y-104121754D01*
X126532879Y-104171418D01*
X125900000Y-104171418D01*
X125787124Y-104182535D01*
X125678586Y-104215460D01*
X125578557Y-104268927D01*
X125490881Y-104340881D01*
X125418927Y-104428557D01*
X125365460Y-104528586D01*
X125332535Y-104637124D01*
X125322170Y-104742361D01*
X125212889Y-104697095D01*
X125091754Y-104673000D01*
X124968246Y-104673000D01*
X124847111Y-104697095D01*
X124733004Y-104744360D01*
X124630311Y-104812977D01*
X124542977Y-104900311D01*
X124474360Y-105003004D01*
X124427095Y-105117111D01*
X124403000Y-105238246D01*
X124403000Y-105361754D01*
X124427095Y-105482889D01*
X124474360Y-105596996D01*
X124542977Y-105699689D01*
X124630311Y-105787023D01*
X124733004Y-105855640D01*
X124847111Y-105902905D01*
X124968246Y-105927000D01*
X125091754Y-105927000D01*
X125212889Y-105902905D01*
X125322170Y-105857639D01*
X125332535Y-105962876D01*
X125365460Y-106071414D01*
X125418927Y-106171443D01*
X125490881Y-106259119D01*
X125578557Y-106331073D01*
X125678586Y-106384540D01*
X125787124Y-106417465D01*
X125900000Y-106428582D01*
X126542824Y-106428582D01*
X126523000Y-106528246D01*
X126523000Y-106651754D01*
X126547095Y-106772889D01*
X126594360Y-106886996D01*
X126662977Y-106989689D01*
X126750311Y-107077023D01*
X126853004Y-107145640D01*
X126967111Y-107192905D01*
X127088246Y-107217000D01*
X127211754Y-107217000D01*
X127332889Y-107192905D01*
X127446996Y-107145640D01*
X127549689Y-107077023D01*
X127637023Y-106989689D01*
X127705640Y-106886996D01*
X127752905Y-106772889D01*
X127777000Y-106651754D01*
X127777000Y-106528246D01*
X127757176Y-106428582D01*
X128400000Y-106428582D01*
X128512876Y-106417465D01*
X128621414Y-106384540D01*
X128721443Y-106331073D01*
X128809119Y-106259119D01*
X128881073Y-106171443D01*
X128934540Y-106071414D01*
X128967465Y-105962876D01*
X128977046Y-105865598D01*
X129067111Y-105902905D01*
X129188246Y-105927000D01*
X129311754Y-105927000D01*
X129413082Y-105906845D01*
X129411928Y-106100000D01*
X129424188Y-106224482D01*
X129460498Y-106344180D01*
X129519463Y-106454494D01*
X129598815Y-106551185D01*
X129695506Y-106630537D01*
X129805820Y-106689502D01*
X129925518Y-106725812D01*
X130050000Y-106738072D01*
X131264250Y-106735000D01*
X131423000Y-106576250D01*
X131423000Y-105427000D01*
X131403000Y-105427000D01*
X131403000Y-105173000D01*
X131423000Y-105173000D01*
X131423000Y-104023750D01*
X131264250Y-103865000D01*
X130106443Y-103862071D01*
X130501515Y-103466999D01*
X132998486Y-103466999D01*
X133308001Y-103776515D01*
X133308001Y-103917886D01*
X133294180Y-103910498D01*
X133174482Y-103874188D01*
X133050000Y-103861928D01*
X131835750Y-103865000D01*
X131677000Y-104023750D01*
X131677000Y-105173000D01*
X131697000Y-105173000D01*
X131697000Y-105427000D01*
X131677000Y-105427000D01*
X131677000Y-106576250D01*
X131835750Y-106735000D01*
X133050000Y-106738072D01*
X133174482Y-106725812D01*
X133294180Y-106689502D01*
X133308000Y-106682115D01*
X133308000Y-108073270D01*
X133282179Y-108121578D01*
X133254904Y-108211493D01*
X133245694Y-108305001D01*
X133250422Y-108353001D01*
X123865592Y-108353001D01*
X123856999Y-106359453D01*
X123854452Y-106334687D01*
X123847122Y-106310894D01*
X123835292Y-106288988D01*
X123819415Y-106269811D01*
X123800102Y-106254100D01*
X123778095Y-106242459D01*
X123754239Y-106235335D01*
X123729436Y-106233001D01*
X119456714Y-106251991D01*
X120648454Y-104296081D01*
X120659262Y-104273653D01*
X120665487Y-104249548D01*
X120666999Y-104229506D01*
X120660614Y-102588532D01*
X120705897Y-102602268D01*
X120770000Y-102608582D01*
X120937197Y-102608582D01*
X120917095Y-102657111D01*
X120893000Y-102778246D01*
X120893000Y-102901754D01*
X120917095Y-103022889D01*
X120964360Y-103136996D01*
X121032977Y-103239689D01*
X121120311Y-103327023D01*
X121223004Y-103395640D01*
X121337111Y-103442905D01*
X121458246Y-103467000D01*
X121581754Y-103467000D01*
X121702889Y-103442905D01*
X121816996Y-103395640D01*
X121919689Y-103327023D01*
X122007023Y-103239689D01*
X122075640Y-103136996D01*
X122122905Y-103022889D01*
X122147000Y-102901754D01*
X122147000Y-102778246D01*
X122122905Y-102657111D01*
X122102803Y-102608582D01*
X122270000Y-102608582D01*
X122334103Y-102602268D01*
X122395743Y-102583570D01*
X122452550Y-102553206D01*
X122482761Y-102528413D01*
X122539463Y-102634494D01*
X122618815Y-102731185D01*
X122715506Y-102810537D01*
X122825820Y-102869502D01*
X122945518Y-102905812D01*
X123070000Y-102918072D01*
X123534250Y-102915000D01*
X123693000Y-102756250D01*
X123693000Y-101407000D01*
X123947000Y-101407000D01*
X123947000Y-102756250D01*
X124105750Y-102915000D01*
X124570000Y-102918072D01*
X124694482Y-102905812D01*
X124814180Y-102869502D01*
X124924494Y-102810537D01*
X125021185Y-102731185D01*
X125100537Y-102634494D01*
X125159502Y-102524180D01*
X125195812Y-102404482D01*
X125208072Y-102280000D01*
X125205000Y-101565750D01*
X125046250Y-101407000D01*
X123947000Y-101407000D01*
X123693000Y-101407000D01*
X123673000Y-101407000D01*
X123673000Y-101153000D01*
X123693000Y-101153000D01*
X123693000Y-99803750D01*
X123534250Y-99645000D01*
X123070000Y-99641928D01*
X122945518Y-99654188D01*
X122825820Y-99690498D01*
X122715506Y-99749463D01*
X122618815Y-99828815D01*
X122539463Y-99925506D01*
X122482761Y-100031587D01*
X122452550Y-100006794D01*
X122395743Y-99976430D01*
X122334103Y-99957732D01*
X122270000Y-99951418D01*
X122125187Y-99951418D01*
X122147000Y-99841754D01*
X122147000Y-99718246D01*
X122122905Y-99597111D01*
X122075640Y-99483004D01*
X122007023Y-99380311D01*
X121919689Y-99292977D01*
X121816996Y-99224360D01*
X121799228Y-99217000D01*
X124623000Y-99217000D01*
X124623000Y-99647148D01*
G04 #@! TA.AperFunction,Conductor*
D21*
G36*
X124623000Y-99647148D02*
G01*
X124570000Y-99641928D01*
X124105750Y-99645000D01*
X123947000Y-99803750D01*
X123947000Y-101153000D01*
X125046250Y-101153000D01*
X125205000Y-100994250D01*
X125205431Y-100893945D01*
X127371781Y-103060295D01*
X127384368Y-103075632D01*
X127445580Y-103125868D01*
X127515417Y-103163197D01*
X127591194Y-103186183D01*
X127650253Y-103192000D01*
X127650260Y-103192000D01*
X127670000Y-103193944D01*
X127689739Y-103192000D01*
X129639486Y-103192000D01*
X128979710Y-103851777D01*
X128964368Y-103864368D01*
X128914132Y-103925581D01*
X128876803Y-103995418D01*
X128853817Y-104071195D01*
X128848000Y-104130254D01*
X128848000Y-104130261D01*
X128846056Y-104150000D01*
X128848000Y-104169740D01*
X128848000Y-104388258D01*
X128809119Y-104340881D01*
X128721443Y-104268927D01*
X128621414Y-104215460D01*
X128512876Y-104182535D01*
X128400000Y-104171418D01*
X127767121Y-104171418D01*
X127777000Y-104121754D01*
X127777000Y-103998246D01*
X127752905Y-103877111D01*
X127705640Y-103763004D01*
X127637023Y-103660311D01*
X127549689Y-103572977D01*
X127446996Y-103504360D01*
X127332889Y-103457095D01*
X127211754Y-103433000D01*
X127088246Y-103433000D01*
X126967111Y-103457095D01*
X126853004Y-103504360D01*
X126750311Y-103572977D01*
X126662977Y-103660311D01*
X126594360Y-103763004D01*
X126547095Y-103877111D01*
X126523000Y-103998246D01*
X126523000Y-104121754D01*
X126532879Y-104171418D01*
X125900000Y-104171418D01*
X125787124Y-104182535D01*
X125678586Y-104215460D01*
X125578557Y-104268927D01*
X125490881Y-104340881D01*
X125418927Y-104428557D01*
X125365460Y-104528586D01*
X125332535Y-104637124D01*
X125322170Y-104742361D01*
X125212889Y-104697095D01*
X125091754Y-104673000D01*
X124968246Y-104673000D01*
X124847111Y-104697095D01*
X124733004Y-104744360D01*
X124630311Y-104812977D01*
X124542977Y-104900311D01*
X124474360Y-105003004D01*
X124427095Y-105117111D01*
X124403000Y-105238246D01*
X124403000Y-105361754D01*
X124427095Y-105482889D01*
X124474360Y-105596996D01*
X124542977Y-105699689D01*
X124630311Y-105787023D01*
X124733004Y-105855640D01*
X124847111Y-105902905D01*
X124968246Y-105927000D01*
X125091754Y-105927000D01*
X125212889Y-105902905D01*
X125322170Y-105857639D01*
X125332535Y-105962876D01*
X125365460Y-106071414D01*
X125418927Y-106171443D01*
X125490881Y-106259119D01*
X125578557Y-106331073D01*
X125678586Y-106384540D01*
X125787124Y-106417465D01*
X125900000Y-106428582D01*
X126542824Y-106428582D01*
X126523000Y-106528246D01*
X126523000Y-106651754D01*
X126547095Y-106772889D01*
X126594360Y-106886996D01*
X126662977Y-106989689D01*
X126750311Y-107077023D01*
X126853004Y-107145640D01*
X126967111Y-107192905D01*
X127088246Y-107217000D01*
X127211754Y-107217000D01*
X127332889Y-107192905D01*
X127446996Y-107145640D01*
X127549689Y-107077023D01*
X127637023Y-106989689D01*
X127705640Y-106886996D01*
X127752905Y-106772889D01*
X127777000Y-106651754D01*
X127777000Y-106528246D01*
X127757176Y-106428582D01*
X128400000Y-106428582D01*
X128512876Y-106417465D01*
X128621414Y-106384540D01*
X128721443Y-106331073D01*
X128809119Y-106259119D01*
X128881073Y-106171443D01*
X128934540Y-106071414D01*
X128967465Y-105962876D01*
X128977046Y-105865598D01*
X129067111Y-105902905D01*
X129188246Y-105927000D01*
X129311754Y-105927000D01*
X129413082Y-105906845D01*
X129411928Y-106100000D01*
X129424188Y-106224482D01*
X129460498Y-106344180D01*
X129519463Y-106454494D01*
X129598815Y-106551185D01*
X129695506Y-106630537D01*
X129805820Y-106689502D01*
X129925518Y-106725812D01*
X130050000Y-106738072D01*
X131264250Y-106735000D01*
X131423000Y-106576250D01*
X131423000Y-105427000D01*
X131403000Y-105427000D01*
X131403000Y-105173000D01*
X131423000Y-105173000D01*
X131423000Y-104023750D01*
X131264250Y-103865000D01*
X130106443Y-103862071D01*
X130501515Y-103466999D01*
X132998486Y-103466999D01*
X133308001Y-103776515D01*
X133308001Y-103917886D01*
X133294180Y-103910498D01*
X133174482Y-103874188D01*
X133050000Y-103861928D01*
X131835750Y-103865000D01*
X131677000Y-104023750D01*
X131677000Y-105173000D01*
X131697000Y-105173000D01*
X131697000Y-105427000D01*
X131677000Y-105427000D01*
X131677000Y-106576250D01*
X131835750Y-106735000D01*
X133050000Y-106738072D01*
X133174482Y-106725812D01*
X133294180Y-106689502D01*
X133308000Y-106682115D01*
X133308000Y-108073270D01*
X133282179Y-108121578D01*
X133254904Y-108211493D01*
X133245694Y-108305001D01*
X133250422Y-108353001D01*
X123865592Y-108353001D01*
X123856999Y-106359453D01*
X123854452Y-106334687D01*
X123847122Y-106310894D01*
X123835292Y-106288988D01*
X123819415Y-106269811D01*
X123800102Y-106254100D01*
X123778095Y-106242459D01*
X123754239Y-106235335D01*
X123729436Y-106233001D01*
X119456714Y-106251991D01*
X120648454Y-104296081D01*
X120659262Y-104273653D01*
X120665487Y-104249548D01*
X120666999Y-104229506D01*
X120660614Y-102588532D01*
X120705897Y-102602268D01*
X120770000Y-102608582D01*
X120937197Y-102608582D01*
X120917095Y-102657111D01*
X120893000Y-102778246D01*
X120893000Y-102901754D01*
X120917095Y-103022889D01*
X120964360Y-103136996D01*
X121032977Y-103239689D01*
X121120311Y-103327023D01*
X121223004Y-103395640D01*
X121337111Y-103442905D01*
X121458246Y-103467000D01*
X121581754Y-103467000D01*
X121702889Y-103442905D01*
X121816996Y-103395640D01*
X121919689Y-103327023D01*
X122007023Y-103239689D01*
X122075640Y-103136996D01*
X122122905Y-103022889D01*
X122147000Y-102901754D01*
X122147000Y-102778246D01*
X122122905Y-102657111D01*
X122102803Y-102608582D01*
X122270000Y-102608582D01*
X122334103Y-102602268D01*
X122395743Y-102583570D01*
X122452550Y-102553206D01*
X122482761Y-102528413D01*
X122539463Y-102634494D01*
X122618815Y-102731185D01*
X122715506Y-102810537D01*
X122825820Y-102869502D01*
X122945518Y-102905812D01*
X123070000Y-102918072D01*
X123534250Y-102915000D01*
X123693000Y-102756250D01*
X123693000Y-101407000D01*
X123947000Y-101407000D01*
X123947000Y-102756250D01*
X124105750Y-102915000D01*
X124570000Y-102918072D01*
X124694482Y-102905812D01*
X124814180Y-102869502D01*
X124924494Y-102810537D01*
X125021185Y-102731185D01*
X125100537Y-102634494D01*
X125159502Y-102524180D01*
X125195812Y-102404482D01*
X125208072Y-102280000D01*
X125205000Y-101565750D01*
X125046250Y-101407000D01*
X123947000Y-101407000D01*
X123693000Y-101407000D01*
X123673000Y-101407000D01*
X123673000Y-101153000D01*
X123693000Y-101153000D01*
X123693000Y-99803750D01*
X123534250Y-99645000D01*
X123070000Y-99641928D01*
X122945518Y-99654188D01*
X122825820Y-99690498D01*
X122715506Y-99749463D01*
X122618815Y-99828815D01*
X122539463Y-99925506D01*
X122482761Y-100031587D01*
X122452550Y-100006794D01*
X122395743Y-99976430D01*
X122334103Y-99957732D01*
X122270000Y-99951418D01*
X122125187Y-99951418D01*
X122147000Y-99841754D01*
X122147000Y-99718246D01*
X122122905Y-99597111D01*
X122075640Y-99483004D01*
X122007023Y-99380311D01*
X121919689Y-99292977D01*
X121816996Y-99224360D01*
X121799228Y-99217000D01*
X124623000Y-99217000D01*
X124623000Y-99647148D01*
G37*
G04 #@! TD.AperFunction*
D20*
X125645000Y-91064250D02*
X125803750Y-91223000D01*
X126433000Y-91223000D01*
X126433000Y-91203000D01*
X126687000Y-91203000D01*
X126687000Y-91223000D01*
X126707000Y-91223000D01*
X126707000Y-91477000D01*
X126687000Y-91477000D01*
X126687000Y-91497000D01*
X126433000Y-91497000D01*
X126433000Y-91477000D01*
X125803750Y-91477000D01*
X125645000Y-91635750D01*
X125641935Y-91657077D01*
X125653625Y-91781613D01*
X125689386Y-91901476D01*
X125747844Y-92012059D01*
X125826753Y-92109113D01*
X125838199Y-92118595D01*
X125804204Y-92133000D01*
X124871949Y-92133000D01*
X124870614Y-92128524D01*
X124812156Y-92017941D01*
X124733247Y-91920887D01*
X124636921Y-91841092D01*
X124526878Y-91781623D01*
X124407348Y-91744765D01*
X124285750Y-91735000D01*
X124127000Y-91893750D01*
X124127000Y-92553000D01*
X124147000Y-92553000D01*
X124147000Y-92807000D01*
X124127000Y-92807000D01*
X124127000Y-93813000D01*
X124147000Y-93813000D01*
X124147000Y-94067000D01*
X124127000Y-94067000D01*
X124127000Y-94087000D01*
X123873000Y-94087000D01*
X123873000Y-94067000D01*
X123853000Y-94067000D01*
X123853000Y-93813000D01*
X123873000Y-93813000D01*
X123873000Y-92807000D01*
X123853000Y-92807000D01*
X123853000Y-92553000D01*
X123873000Y-92553000D01*
X123873000Y-91893750D01*
X123714250Y-91735000D01*
X123592652Y-91744765D01*
X123473122Y-91781623D01*
X123363079Y-91841092D01*
X123266753Y-91920887D01*
X123187844Y-92017941D01*
X123175433Y-92041418D01*
X122976155Y-92041418D01*
X122974560Y-92025224D01*
X122967333Y-92001399D01*
X122955597Y-91979443D01*
X122939803Y-91960197D01*
X122920557Y-91944403D01*
X122898601Y-91932667D01*
X122874776Y-91925440D01*
X122850432Y-91923001D01*
X121548125Y-91918571D01*
X121562905Y-91882889D01*
X121587000Y-91761754D01*
X121587000Y-91638246D01*
X121562905Y-91517111D01*
X121515640Y-91403004D01*
X121447023Y-91300311D01*
X121359689Y-91212977D01*
X121256996Y-91144360D01*
X121142889Y-91097095D01*
X121021754Y-91073000D01*
X120903965Y-91073000D01*
X120878377Y-91052000D01*
X125643239Y-91052000D01*
X125645000Y-91064250D01*
G04 #@! TA.AperFunction,Conductor*
D21*
G36*
X125645000Y-91064250D02*
G01*
X125803750Y-91223000D01*
X126433000Y-91223000D01*
X126433000Y-91203000D01*
X126687000Y-91203000D01*
X126687000Y-91223000D01*
X126707000Y-91223000D01*
X126707000Y-91477000D01*
X126687000Y-91477000D01*
X126687000Y-91497000D01*
X126433000Y-91497000D01*
X126433000Y-91477000D01*
X125803750Y-91477000D01*
X125645000Y-91635750D01*
X125641935Y-91657077D01*
X125653625Y-91781613D01*
X125689386Y-91901476D01*
X125747844Y-92012059D01*
X125826753Y-92109113D01*
X125838199Y-92118595D01*
X125804204Y-92133000D01*
X124871949Y-92133000D01*
X124870614Y-92128524D01*
X124812156Y-92017941D01*
X124733247Y-91920887D01*
X124636921Y-91841092D01*
X124526878Y-91781623D01*
X124407348Y-91744765D01*
X124285750Y-91735000D01*
X124127000Y-91893750D01*
X124127000Y-92553000D01*
X124147000Y-92553000D01*
X124147000Y-92807000D01*
X124127000Y-92807000D01*
X124127000Y-93813000D01*
X124147000Y-93813000D01*
X124147000Y-94067000D01*
X124127000Y-94067000D01*
X124127000Y-94087000D01*
X123873000Y-94087000D01*
X123873000Y-94067000D01*
X123853000Y-94067000D01*
X123853000Y-93813000D01*
X123873000Y-93813000D01*
X123873000Y-92807000D01*
X123853000Y-92807000D01*
X123853000Y-92553000D01*
X123873000Y-92553000D01*
X123873000Y-91893750D01*
X123714250Y-91735000D01*
X123592652Y-91744765D01*
X123473122Y-91781623D01*
X123363079Y-91841092D01*
X123266753Y-91920887D01*
X123187844Y-92017941D01*
X123175433Y-92041418D01*
X122976155Y-92041418D01*
X122974560Y-92025224D01*
X122967333Y-92001399D01*
X122955597Y-91979443D01*
X122939803Y-91960197D01*
X122920557Y-91944403D01*
X122898601Y-91932667D01*
X122874776Y-91925440D01*
X122850432Y-91923001D01*
X121548125Y-91918571D01*
X121562905Y-91882889D01*
X121587000Y-91761754D01*
X121587000Y-91638246D01*
X121562905Y-91517111D01*
X121515640Y-91403004D01*
X121447023Y-91300311D01*
X121359689Y-91212977D01*
X121256996Y-91144360D01*
X121142889Y-91097095D01*
X121021754Y-91073000D01*
X120903965Y-91073000D01*
X120878377Y-91052000D01*
X125643239Y-91052000D01*
X125645000Y-91064250D01*
G37*
G04 #@! TD.AperFunction*
D20*
X118041935Y-91052923D02*
X118045000Y-91074250D01*
X118203750Y-91233000D01*
X118833000Y-91233000D01*
X118833000Y-91213000D01*
X119087000Y-91213000D01*
X119087000Y-91233000D01*
X119107000Y-91233000D01*
X119107000Y-91487000D01*
X119087000Y-91487000D01*
X119087000Y-91507000D01*
X118833000Y-91507000D01*
X118833000Y-91487000D01*
X118203750Y-91487000D01*
X118045000Y-91645750D01*
X118041935Y-91667077D01*
X118053625Y-91791613D01*
X118087992Y-91906803D01*
X117111997Y-91903483D01*
X116260513Y-91052000D01*
X118042022Y-91052000D01*
X118041935Y-91052923D01*
G04 #@! TA.AperFunction,Conductor*
D21*
G36*
X118041935Y-91052923D02*
G01*
X118045000Y-91074250D01*
X118203750Y-91233000D01*
X118833000Y-91233000D01*
X118833000Y-91213000D01*
X119087000Y-91213000D01*
X119087000Y-91233000D01*
X119107000Y-91233000D01*
X119107000Y-91487000D01*
X119087000Y-91487000D01*
X119087000Y-91507000D01*
X118833000Y-91507000D01*
X118833000Y-91487000D01*
X118203750Y-91487000D01*
X118045000Y-91645750D01*
X118041935Y-91667077D01*
X118053625Y-91791613D01*
X118087992Y-91906803D01*
X117111997Y-91903483D01*
X116260513Y-91052000D01*
X118042022Y-91052000D01*
X118041935Y-91052923D01*
G37*
G04 #@! TD.AperFunction*
M02*
