M48
INCH,TZ
T1C0.0118
T2C0.0394
T3C0.0866
%
G90
G05
T1
X44531Y-40035
X44703Y-38526
X45154Y-39236
X45760Y-40035
X46098Y-35980
X46409Y-35969
X46978Y-38526
X47041Y-36990
X47236Y-41693
X47622Y-36102
X47843Y-39283
X47843Y-40488
X48144Y-37246
X48480Y-37500
X48638Y-38661
X49150Y-42453
X49224Y-41457
X49449Y-35933
X49537Y-39447
X50059Y-40969
X50059Y-41965
X50305Y-37183
X50504Y-35965
X50886Y-41457
X51209Y-36185
X51585Y-38388
X51764Y-40764
X51795Y-42343
X51841Y-37179
X52096Y-37490
X52432Y-38954
X52811Y-37457
X52815Y-38205
X53256Y-36047
X53390Y-36622
X53492Y-37890
X54343Y-36047
X54344Y-36589
X62933Y-42220
X62961Y-40961
X64433Y-40425
T2
X40878Y-36906
X40878Y-37906
X40878Y-38906
X40878Y-39906
X40878Y-40906
X40878Y-41906
X41878Y-36906
X41878Y-37906
X41878Y-38906
X41878Y-39906
X41878Y-40906
X41878Y-41906
X54138Y-41039
X54138Y-42039
X55138Y-41039
X55138Y-42039
X56138Y-41039
X56138Y-42039
X57138Y-41039
X57138Y-42039
X58138Y-41039
X58138Y-42039
X59138Y-41039
X59138Y-42039
X61606Y-41000
X61606Y-42000
X61638Y-36941
X61638Y-37941
X61638Y-38941
X63866Y-37953
X63866Y-38953
X63878Y-40961
X63878Y-41961
T3
X65551Y-39370
T0
M30
