G04 #@! TF.GenerationSoftware,KiCad,Pcbnew,(5.1.10)-1*
G04 #@! TF.CreationDate,2021-08-03T19:00:01-05:00*
G04 #@! TF.ProjectId,spimux,7370696d-7578-42e6-9b69-6361645f7063,rev?*
G04 #@! TF.SameCoordinates,Original*
G04 #@! TF.FileFunction,Soldermask,Bot*
G04 #@! TF.FilePolarity,Negative*
%FSLAX46Y46*%
G04 Gerber Fmt 4.6, Leading zero omitted, Abs format (unit mm)*
G04 Created by KiCad (PCBNEW (5.1.10)-1) date 2021-08-03 19:00:01*
%MOMM*%
%LPD*%
G01*
G04 APERTURE LIST*
%ADD10C,0.010000*%
%ADD11C,3.800000*%
%ADD12O,1.700000X1.700000*%
%ADD13R,1.700000X1.700000*%
G04 APERTURE END LIST*
D10*
G36*
X151995485Y-97245310D02*
G01*
X151481716Y-97248253D01*
X151095440Y-97255019D01*
X150815739Y-97267127D01*
X150621693Y-97286101D01*
X150492383Y-97313460D01*
X150406890Y-97350727D01*
X150344295Y-97399423D01*
X150329333Y-97414000D01*
X150277448Y-97474085D01*
X150237383Y-97551680D01*
X150207618Y-97667706D01*
X150186630Y-97843079D01*
X150172899Y-98098721D01*
X150164903Y-98455549D01*
X150161120Y-98934484D01*
X150160030Y-99556443D01*
X150160000Y-99742333D01*
X150160643Y-100404515D01*
X150163587Y-100918284D01*
X150170352Y-101304560D01*
X150182461Y-101584261D01*
X150201434Y-101778307D01*
X150228794Y-101907617D01*
X150266061Y-101993110D01*
X150314756Y-102055705D01*
X150329333Y-102070667D01*
X150389419Y-102122552D01*
X150467014Y-102162617D01*
X150583039Y-102192382D01*
X150758413Y-102213370D01*
X151014055Y-102227101D01*
X151370883Y-102235097D01*
X151849817Y-102238880D01*
X152471776Y-102239970D01*
X152657667Y-102240000D01*
X153319848Y-102239357D01*
X153833618Y-102236413D01*
X154219893Y-102229648D01*
X154499595Y-102217539D01*
X154693641Y-102198566D01*
X154822951Y-102171206D01*
X154908444Y-102133939D01*
X154971038Y-102085244D01*
X154986000Y-102070667D01*
X155037886Y-102010581D01*
X155077950Y-101932986D01*
X155107716Y-101816961D01*
X155128703Y-101641587D01*
X155142435Y-101385945D01*
X155150431Y-101029117D01*
X155154213Y-100550183D01*
X155155303Y-99928224D01*
X155155333Y-99742333D01*
X155155161Y-99564391D01*
X154892676Y-99564391D01*
X154879350Y-100067728D01*
X154758710Y-100558021D01*
X154528494Y-101013049D01*
X154186437Y-101410592D01*
X153730277Y-101728428D01*
X153293215Y-101906892D01*
X153029786Y-101963933D01*
X152787098Y-101979007D01*
X152611558Y-101953785D01*
X152592594Y-101934250D01*
X152276667Y-101934250D01*
X152227105Y-101993263D01*
X152092150Y-101932464D01*
X151892395Y-101764105D01*
X151758768Y-101626167D01*
X151429528Y-101266333D01*
X151109955Y-101626167D01*
X150893142Y-101843318D01*
X150717384Y-101969271D01*
X150607597Y-101989451D01*
X150583333Y-101934250D01*
X150633660Y-101847365D01*
X150764952Y-101671855D01*
X150929884Y-101468583D01*
X151276435Y-101054667D01*
X150927446Y-100637837D01*
X150736330Y-100385071D01*
X150656232Y-100219579D01*
X150671195Y-100163692D01*
X150774708Y-100129149D01*
X150791449Y-100136022D01*
X150856483Y-100212409D01*
X150994922Y-100377845D01*
X151117842Y-100525562D01*
X151416719Y-100885458D01*
X151752006Y-100493206D01*
X151957389Y-100279780D01*
X152115842Y-100167212D01*
X152184418Y-100160981D01*
X152192884Y-100259812D01*
X152070356Y-100463656D01*
X151932555Y-100637837D01*
X151583565Y-101054667D01*
X151930116Y-101468583D01*
X152109417Y-101690253D01*
X152234628Y-101859410D01*
X152276667Y-101934250D01*
X152592594Y-101934250D01*
X152549574Y-101889938D01*
X152551821Y-101880205D01*
X152649795Y-101806562D01*
X152857891Y-101740652D01*
X152981971Y-101717925D01*
X153506891Y-101566417D01*
X153944611Y-101291257D01*
X154286605Y-100918739D01*
X154524348Y-100475157D01*
X154649313Y-99986806D01*
X154652977Y-99479980D01*
X154526812Y-98980974D01*
X154262295Y-98516082D01*
X154085455Y-98314545D01*
X153634772Y-97975426D01*
X153125358Y-97779956D01*
X152588642Y-97728455D01*
X152056058Y-97821240D01*
X151559037Y-98058628D01*
X151274610Y-98286124D01*
X150943455Y-98678087D01*
X150748233Y-99108827D01*
X150680257Y-99430741D01*
X150621126Y-99682284D01*
X150544010Y-99826666D01*
X150470474Y-99849280D01*
X150422084Y-99735525D01*
X150414000Y-99611045D01*
X150471861Y-99138688D01*
X150656613Y-98706268D01*
X150985013Y-98277986D01*
X151088023Y-98170874D01*
X151512990Y-97809996D01*
X151943798Y-97595023D01*
X152428738Y-97507932D01*
X152845819Y-97514836D01*
X153428837Y-97629792D01*
X153918122Y-97865031D01*
X154311413Y-98198331D01*
X154606444Y-98607472D01*
X154800953Y-99070232D01*
X154892676Y-99564391D01*
X155155161Y-99564391D01*
X155154690Y-99080152D01*
X155151747Y-98566382D01*
X155144981Y-98180107D01*
X155132873Y-97900405D01*
X155113899Y-97706359D01*
X155086540Y-97577049D01*
X155049273Y-97491556D01*
X155000577Y-97428962D01*
X154986000Y-97414000D01*
X154925915Y-97362114D01*
X154848320Y-97322050D01*
X154732294Y-97292284D01*
X154556921Y-97271297D01*
X154301279Y-97257565D01*
X153944451Y-97249569D01*
X153465516Y-97245787D01*
X152843557Y-97244697D01*
X152657667Y-97244667D01*
X151995485Y-97245310D01*
G37*
X151995485Y-97245310D02*
X151481716Y-97248253D01*
X151095440Y-97255019D01*
X150815739Y-97267127D01*
X150621693Y-97286101D01*
X150492383Y-97313460D01*
X150406890Y-97350727D01*
X150344295Y-97399423D01*
X150329333Y-97414000D01*
X150277448Y-97474085D01*
X150237383Y-97551680D01*
X150207618Y-97667706D01*
X150186630Y-97843079D01*
X150172899Y-98098721D01*
X150164903Y-98455549D01*
X150161120Y-98934484D01*
X150160030Y-99556443D01*
X150160000Y-99742333D01*
X150160643Y-100404515D01*
X150163587Y-100918284D01*
X150170352Y-101304560D01*
X150182461Y-101584261D01*
X150201434Y-101778307D01*
X150228794Y-101907617D01*
X150266061Y-101993110D01*
X150314756Y-102055705D01*
X150329333Y-102070667D01*
X150389419Y-102122552D01*
X150467014Y-102162617D01*
X150583039Y-102192382D01*
X150758413Y-102213370D01*
X151014055Y-102227101D01*
X151370883Y-102235097D01*
X151849817Y-102238880D01*
X152471776Y-102239970D01*
X152657667Y-102240000D01*
X153319848Y-102239357D01*
X153833618Y-102236413D01*
X154219893Y-102229648D01*
X154499595Y-102217539D01*
X154693641Y-102198566D01*
X154822951Y-102171206D01*
X154908444Y-102133939D01*
X154971038Y-102085244D01*
X154986000Y-102070667D01*
X155037886Y-102010581D01*
X155077950Y-101932986D01*
X155107716Y-101816961D01*
X155128703Y-101641587D01*
X155142435Y-101385945D01*
X155150431Y-101029117D01*
X155154213Y-100550183D01*
X155155303Y-99928224D01*
X155155333Y-99742333D01*
X155155161Y-99564391D01*
X154892676Y-99564391D01*
X154879350Y-100067728D01*
X154758710Y-100558021D01*
X154528494Y-101013049D01*
X154186437Y-101410592D01*
X153730277Y-101728428D01*
X153293215Y-101906892D01*
X153029786Y-101963933D01*
X152787098Y-101979007D01*
X152611558Y-101953785D01*
X152592594Y-101934250D01*
X152276667Y-101934250D01*
X152227105Y-101993263D01*
X152092150Y-101932464D01*
X151892395Y-101764105D01*
X151758768Y-101626167D01*
X151429528Y-101266333D01*
X151109955Y-101626167D01*
X150893142Y-101843318D01*
X150717384Y-101969271D01*
X150607597Y-101989451D01*
X150583333Y-101934250D01*
X150633660Y-101847365D01*
X150764952Y-101671855D01*
X150929884Y-101468583D01*
X151276435Y-101054667D01*
X150927446Y-100637837D01*
X150736330Y-100385071D01*
X150656232Y-100219579D01*
X150671195Y-100163692D01*
X150774708Y-100129149D01*
X150791449Y-100136022D01*
X150856483Y-100212409D01*
X150994922Y-100377845D01*
X151117842Y-100525562D01*
X151416719Y-100885458D01*
X151752006Y-100493206D01*
X151957389Y-100279780D01*
X152115842Y-100167212D01*
X152184418Y-100160981D01*
X152192884Y-100259812D01*
X152070356Y-100463656D01*
X151932555Y-100637837D01*
X151583565Y-101054667D01*
X151930116Y-101468583D01*
X152109417Y-101690253D01*
X152234628Y-101859410D01*
X152276667Y-101934250D01*
X152592594Y-101934250D01*
X152549574Y-101889938D01*
X152551821Y-101880205D01*
X152649795Y-101806562D01*
X152857891Y-101740652D01*
X152981971Y-101717925D01*
X153506891Y-101566417D01*
X153944611Y-101291257D01*
X154286605Y-100918739D01*
X154524348Y-100475157D01*
X154649313Y-99986806D01*
X154652977Y-99479980D01*
X154526812Y-98980974D01*
X154262295Y-98516082D01*
X154085455Y-98314545D01*
X153634772Y-97975426D01*
X153125358Y-97779956D01*
X152588642Y-97728455D01*
X152056058Y-97821240D01*
X151559037Y-98058628D01*
X151274610Y-98286124D01*
X150943455Y-98678087D01*
X150748233Y-99108827D01*
X150680257Y-99430741D01*
X150621126Y-99682284D01*
X150544010Y-99826666D01*
X150470474Y-99849280D01*
X150422084Y-99735525D01*
X150414000Y-99611045D01*
X150471861Y-99138688D01*
X150656613Y-98706268D01*
X150985013Y-98277986D01*
X151088023Y-98170874D01*
X151512990Y-97809996D01*
X151943798Y-97595023D01*
X152428738Y-97507932D01*
X152845819Y-97514836D01*
X153428837Y-97629792D01*
X153918122Y-97865031D01*
X154311413Y-98198331D01*
X154606444Y-98607472D01*
X154800953Y-99070232D01*
X154892676Y-99564391D01*
X155155161Y-99564391D01*
X155154690Y-99080152D01*
X155151747Y-98566382D01*
X155144981Y-98180107D01*
X155132873Y-97900405D01*
X155113899Y-97706359D01*
X155086540Y-97577049D01*
X155049273Y-97491556D01*
X155000577Y-97428962D01*
X154986000Y-97414000D01*
X154925915Y-97362114D01*
X154848320Y-97322050D01*
X154732294Y-97292284D01*
X154556921Y-97271297D01*
X154301279Y-97257565D01*
X153944451Y-97249569D01*
X153465516Y-97245787D01*
X152843557Y-97244697D01*
X152657667Y-97244667D01*
X151995485Y-97245310D01*
D11*
X166500000Y-100000000D03*
D12*
X137510000Y-106780000D03*
X137510000Y-104240000D03*
X140050000Y-106780000D03*
X140050000Y-104240000D03*
X142590000Y-106780000D03*
X142590000Y-104240000D03*
X145130000Y-106780000D03*
X145130000Y-104240000D03*
X147670000Y-106780000D03*
X147670000Y-104240000D03*
X150210000Y-106780000D03*
D13*
X150210000Y-104240000D03*
D12*
X156560000Y-98910000D03*
X156560000Y-96370000D03*
D13*
X156560000Y-93830000D03*
D12*
X162220000Y-98940000D03*
D13*
X162220000Y-96400000D03*
D12*
X103830000Y-106440000D03*
X106370000Y-106440000D03*
X103830000Y-103900000D03*
X106370000Y-103900000D03*
X103830000Y-101360000D03*
X106370000Y-101360000D03*
X103830000Y-98820000D03*
X106370000Y-98820000D03*
X103830000Y-96280000D03*
X106370000Y-96280000D03*
X103830000Y-93740000D03*
D13*
X106370000Y-93740000D03*
D12*
X162250000Y-106580000D03*
D13*
X162250000Y-104040000D03*
D12*
X156480000Y-106680000D03*
D13*
X156480000Y-104140000D03*
G36*
G01*
X137030000Y-95390000D02*
X137370000Y-95390000D01*
G75*
G02*
X137510000Y-95530000I0J-140000D01*
G01*
X137510000Y-95810000D01*
G75*
G02*
X137370000Y-95950000I-140000J0D01*
G01*
X137030000Y-95950000D01*
G75*
G02*
X136890000Y-95810000I0J140000D01*
G01*
X136890000Y-95530000D01*
G75*
G02*
X137030000Y-95390000I140000J0D01*
G01*
G37*
G36*
G01*
X137030000Y-94430000D02*
X137370000Y-94430000D01*
G75*
G02*
X137510000Y-94570000I0J-140000D01*
G01*
X137510000Y-94850000D01*
G75*
G02*
X137370000Y-94990000I-140000J0D01*
G01*
X137030000Y-94990000D01*
G75*
G02*
X136890000Y-94850000I0J140000D01*
G01*
X136890000Y-94570000D01*
G75*
G02*
X137030000Y-94430000I140000J0D01*
G01*
G37*
M02*
