G04 #@! TF.GenerationSoftware,KiCad,Pcbnew,(5.1.10)-1*
G04 #@! TF.CreationDate,2021-07-16T14:19:48-05:00*
G04 #@! TF.ProjectId,spimux,7370696d-7578-42e6-9b69-6361645f7063,rev?*
G04 #@! TF.SameCoordinates,Original*
G04 #@! TF.FileFunction,Legend,Top*
G04 #@! TF.FilePolarity,Positive*
%FSLAX46Y46*%
G04 Gerber Fmt 4.6, Leading zero omitted, Abs format (unit mm)*
G04 Created by KiCad (PCBNEW (5.1.10)-1) date 2021-07-16 14:19:48*
%MOMM*%
%LPD*%
G01*
G04 APERTURE LIST*
%ADD10C,0.150000*%
%ADD11C,0.120000*%
%ADD12C,0.400000*%
%ADD13C,0.200000*%
G04 APERTURE END LIST*
D10*
X102800000Y-97500000D02*
X106400000Y-97500000D01*
X103100000Y-107800000D02*
X107800000Y-107800000D01*
X103100000Y-105100000D02*
X107900000Y-105100000D01*
X102800000Y-100100000D02*
X106500000Y-100100000D01*
X102900000Y-102800000D02*
X105800000Y-102800000D01*
X105800000Y-102800000D02*
X108700000Y-101600000D01*
X102900000Y-95000000D02*
X108993774Y-94989264D01*
X106400000Y-97500000D02*
X108800000Y-97200000D01*
X106500000Y-100100000D02*
X108500000Y-99400000D01*
X107600000Y-105800000D02*
X110800000Y-105800000D01*
X107600000Y-107300000D02*
X107600000Y-105800000D01*
X110800000Y-107300000D02*
X107600000Y-107300000D01*
X110800000Y-105800000D02*
X110800000Y-107300000D01*
X107961904Y-106052380D02*
X108580952Y-106052380D01*
X108247619Y-106433333D01*
X108390476Y-106433333D01*
X108485714Y-106480952D01*
X108533333Y-106528571D01*
X108580952Y-106623809D01*
X108580952Y-106861904D01*
X108533333Y-106957142D01*
X108485714Y-107004761D01*
X108390476Y-107052380D01*
X108104761Y-107052380D01*
X108009523Y-107004761D01*
X107961904Y-106957142D01*
X108866666Y-106052380D02*
X109200000Y-107052380D01*
X109533333Y-106052380D01*
X109771428Y-106052380D02*
X110390476Y-106052380D01*
X110057142Y-106433333D01*
X110200000Y-106433333D01*
X110295238Y-106480952D01*
X110342857Y-106528571D01*
X110390476Y-106623809D01*
X110390476Y-106861904D01*
X110342857Y-106957142D01*
X110295238Y-107004761D01*
X110200000Y-107052380D01*
X109914285Y-107052380D01*
X109819047Y-107004761D01*
X109771428Y-106957142D01*
X108438095Y-103600000D02*
X108342857Y-103552380D01*
X108200000Y-103552380D01*
X108057142Y-103600000D01*
X107961904Y-103695238D01*
X107914285Y-103790476D01*
X107866666Y-103980952D01*
X107866666Y-104123809D01*
X107914285Y-104314285D01*
X107961904Y-104409523D01*
X108057142Y-104504761D01*
X108200000Y-104552380D01*
X108295238Y-104552380D01*
X108438095Y-104504761D01*
X108485714Y-104457142D01*
X108485714Y-104123809D01*
X108295238Y-104123809D01*
X108914285Y-104552380D02*
X108914285Y-103552380D01*
X109485714Y-104552380D01*
X109485714Y-103552380D01*
X109961904Y-104552380D02*
X109961904Y-103552380D01*
X110200000Y-103552380D01*
X110342857Y-103600000D01*
X110438095Y-103695238D01*
X110485714Y-103790476D01*
X110533333Y-103980952D01*
X110533333Y-104123809D01*
X110485714Y-104314285D01*
X110438095Y-104409523D01*
X110342857Y-104504761D01*
X110200000Y-104552380D01*
X109961904Y-104552380D01*
X107600000Y-104800000D02*
X107600000Y-103300000D01*
X110800000Y-104800000D02*
X107600000Y-104800000D01*
X110800000Y-103300000D02*
X110800000Y-104800000D01*
X107600000Y-103300000D02*
X110800000Y-103300000D01*
X111209523Y-100957142D02*
X111161904Y-101004761D01*
X111019047Y-101052380D01*
X110923809Y-101052380D01*
X110780952Y-101004761D01*
X110685714Y-100909523D01*
X110638095Y-100814285D01*
X110590476Y-100623809D01*
X110590476Y-100480952D01*
X110638095Y-100290476D01*
X110685714Y-100195238D01*
X110780952Y-100100000D01*
X110923809Y-100052380D01*
X111019047Y-100052380D01*
X111161904Y-100100000D01*
X111209523Y-100147619D01*
X111638095Y-101052380D02*
X111638095Y-100052380D01*
X112209523Y-101052380D02*
X111780952Y-100480952D01*
X112209523Y-100052380D02*
X111638095Y-100623809D01*
X108809523Y-100952380D02*
X108238095Y-100952380D01*
X108523809Y-100952380D02*
X108523809Y-99952380D01*
X108428571Y-100095238D01*
X108333333Y-100190476D01*
X108238095Y-100238095D01*
X109428571Y-99952380D02*
X109523809Y-99952380D01*
X109619047Y-100000000D01*
X109666666Y-100047619D01*
X109714285Y-100142857D01*
X109761904Y-100333333D01*
X109761904Y-100571428D01*
X109714285Y-100761904D01*
X109666666Y-100857142D01*
X109619047Y-100904761D01*
X109523809Y-100952380D01*
X109428571Y-100952380D01*
X109333333Y-100904761D01*
X109285714Y-100857142D01*
X109238095Y-100761904D01*
X109190476Y-100571428D01*
X109190476Y-100333333D01*
X109238095Y-100142857D01*
X109285714Y-100047619D01*
X109333333Y-100000000D01*
X109428571Y-99952380D01*
X112504511Y-100500000D02*
G75*
G03*
X112504511Y-100500000I-1110737J0D01*
G01*
X110104511Y-100500000D02*
G75*
G03*
X110104511Y-100500000I-1110737J0D01*
G01*
X110661904Y-98852380D02*
X110661904Y-97852380D01*
X110900000Y-97852380D01*
X111042857Y-97900000D01*
X111138095Y-97995238D01*
X111185714Y-98090476D01*
X111233333Y-98280952D01*
X111233333Y-98423809D01*
X111185714Y-98614285D01*
X111138095Y-98709523D01*
X111042857Y-98804761D01*
X110900000Y-98852380D01*
X110661904Y-98852380D01*
X112185714Y-98852380D02*
X111614285Y-98852380D01*
X111900000Y-98852380D02*
X111900000Y-97852380D01*
X111804761Y-97995238D01*
X111709523Y-98090476D01*
X111614285Y-98138095D01*
X112504511Y-98300000D02*
G75*
G03*
X112504511Y-98300000I-1110737J0D01*
G01*
X108261904Y-98852380D02*
X108261904Y-97852380D01*
X108500000Y-97852380D01*
X108642857Y-97900000D01*
X108738095Y-97995238D01*
X108785714Y-98090476D01*
X108833333Y-98280952D01*
X108833333Y-98423809D01*
X108785714Y-98614285D01*
X108738095Y-98709523D01*
X108642857Y-98804761D01*
X108500000Y-98852380D01*
X108261904Y-98852380D01*
X109166666Y-97852380D02*
X109785714Y-97852380D01*
X109452380Y-98233333D01*
X109595238Y-98233333D01*
X109690476Y-98280952D01*
X109738095Y-98328571D01*
X109785714Y-98423809D01*
X109785714Y-98661904D01*
X109738095Y-98757142D01*
X109690476Y-98804761D01*
X109595238Y-98852380D01*
X109309523Y-98852380D01*
X109214285Y-98804761D01*
X109166666Y-98757142D01*
X110104511Y-98300000D02*
G75*
G03*
X110104511Y-98300000I-1110737J0D01*
G01*
X110661904Y-96652380D02*
X110661904Y-95652380D01*
X110900000Y-95652380D01*
X111042857Y-95700000D01*
X111138095Y-95795238D01*
X111185714Y-95890476D01*
X111233333Y-96080952D01*
X111233333Y-96223809D01*
X111185714Y-96414285D01*
X111138095Y-96509523D01*
X111042857Y-96604761D01*
X110900000Y-96652380D01*
X110661904Y-96652380D01*
X111852380Y-95652380D02*
X111947619Y-95652380D01*
X112042857Y-95700000D01*
X112090476Y-95747619D01*
X112138095Y-95842857D01*
X112185714Y-96033333D01*
X112185714Y-96271428D01*
X112138095Y-96461904D01*
X112090476Y-96557142D01*
X112042857Y-96604761D01*
X111947619Y-96652380D01*
X111852380Y-96652380D01*
X111757142Y-96604761D01*
X111709523Y-96557142D01*
X111661904Y-96461904D01*
X111614285Y-96271428D01*
X111614285Y-96033333D01*
X111661904Y-95842857D01*
X111709523Y-95747619D01*
X111757142Y-95700000D01*
X111852380Y-95652380D01*
X112504511Y-96100000D02*
G75*
G03*
X112504511Y-96100000I-1110737J0D01*
G01*
X108261904Y-96652380D02*
X108261904Y-95652380D01*
X108500000Y-95652380D01*
X108642857Y-95700000D01*
X108738095Y-95795238D01*
X108785714Y-95890476D01*
X108833333Y-96080952D01*
X108833333Y-96223809D01*
X108785714Y-96414285D01*
X108738095Y-96509523D01*
X108642857Y-96604761D01*
X108500000Y-96652380D01*
X108261904Y-96652380D01*
X109214285Y-95747619D02*
X109261904Y-95700000D01*
X109357142Y-95652380D01*
X109595238Y-95652380D01*
X109690476Y-95700000D01*
X109738095Y-95747619D01*
X109785714Y-95842857D01*
X109785714Y-95938095D01*
X109738095Y-96080952D01*
X109166666Y-96652380D01*
X109785714Y-96652380D01*
X110104511Y-96100000D02*
G75*
G03*
X110104511Y-96100000I-1110737J0D01*
G01*
X108190476Y-93352380D02*
X108857142Y-94352380D01*
X108857142Y-93352380D02*
X108190476Y-94352380D01*
X109142857Y-93352380D02*
X109809523Y-93352380D01*
X109380952Y-94352380D01*
X110323809Y-93085000D02*
X111323809Y-93085000D01*
X111133333Y-94357142D02*
X111085714Y-94404761D01*
X110942857Y-94452380D01*
X110847619Y-94452380D01*
X110704761Y-94404761D01*
X110609523Y-94309523D01*
X110561904Y-94214285D01*
X110514285Y-94023809D01*
X110514285Y-93880952D01*
X110561904Y-93690476D01*
X110609523Y-93595238D01*
X110704761Y-93500000D01*
X110847619Y-93452380D01*
X110942857Y-93452380D01*
X111085714Y-93500000D01*
X111133333Y-93547619D01*
X111323809Y-93085000D02*
X112276190Y-93085000D01*
X111514285Y-94404761D02*
X111657142Y-94452380D01*
X111895238Y-94452380D01*
X111990476Y-94404761D01*
X112038095Y-94357142D01*
X112085714Y-94261904D01*
X112085714Y-94166666D01*
X112038095Y-94071428D01*
X111990476Y-94023809D01*
X111895238Y-93976190D01*
X111704761Y-93928571D01*
X111609523Y-93880952D01*
X111561904Y-93833333D01*
X111514285Y-93738095D01*
X111514285Y-93642857D01*
X111561904Y-93547619D01*
X111609523Y-93500000D01*
X111704761Y-93452380D01*
X111942857Y-93452380D01*
X112085714Y-93500000D01*
X112400000Y-92900000D02*
X110300000Y-92900000D01*
X112400000Y-94900000D02*
X112400000Y-92900000D01*
X110300000Y-94900000D02*
X112400000Y-94900000D01*
X110300000Y-92900000D02*
X110300000Y-94900000D01*
X110104511Y-93800000D02*
G75*
G03*
X110104511Y-93800000I-1110737J0D01*
G01*
D11*
X164000000Y-104800000D02*
X164000000Y-103100000D01*
X167900000Y-104800000D02*
X164100000Y-104800000D01*
X168000000Y-103100000D02*
X168000000Y-104800000D01*
X164100000Y-103100000D02*
X167900000Y-103100000D01*
D10*
X164261904Y-103452380D02*
X164261904Y-104261904D01*
X164309523Y-104357142D01*
X164357142Y-104404761D01*
X164452380Y-104452380D01*
X164642857Y-104452380D01*
X164738095Y-104404761D01*
X164785714Y-104357142D01*
X164833333Y-104261904D01*
X164833333Y-103452380D01*
X165261904Y-103547619D02*
X165309523Y-103500000D01*
X165404761Y-103452380D01*
X165642857Y-103452380D01*
X165738095Y-103500000D01*
X165785714Y-103547619D01*
X165833333Y-103642857D01*
X165833333Y-103738095D01*
X165785714Y-103880952D01*
X165214285Y-104452380D01*
X165833333Y-104452380D01*
X166261904Y-103928571D02*
X166595238Y-103928571D01*
X166738095Y-104452380D02*
X166261904Y-104452380D01*
X166261904Y-103452380D01*
X166738095Y-103452380D01*
X167166666Y-104452380D02*
X167166666Y-103452380D01*
X167738095Y-104452380D01*
X167738095Y-103452380D01*
D12*
X158600000Y-92900000D02*
X158600000Y-96400000D01*
D10*
X142921309Y-90561904D02*
X142921309Y-91133333D01*
X142873690Y-91247619D01*
X142778452Y-91323809D01*
X142635595Y-91361904D01*
X142540357Y-91361904D01*
X143921309Y-91361904D02*
X143349880Y-91361904D01*
X143635595Y-91361904D02*
X143635595Y-90561904D01*
X143540357Y-90676190D01*
X143445119Y-90752380D01*
X143349880Y-90790476D01*
X145111785Y-91361904D02*
X145111785Y-90561904D01*
X145445119Y-91133333D01*
X145778452Y-90561904D01*
X145778452Y-91361904D01*
X146683214Y-90828571D02*
X146683214Y-91361904D01*
X146254642Y-90828571D02*
X146254642Y-91247619D01*
X146302261Y-91323809D01*
X146397500Y-91361904D01*
X146540357Y-91361904D01*
X146635595Y-91323809D01*
X146683214Y-91285714D01*
X147064166Y-91361904D02*
X147587976Y-90828571D01*
X147064166Y-90828571D02*
X147587976Y-91361904D01*
X148730833Y-90561904D02*
X148730833Y-91209523D01*
X148778452Y-91285714D01*
X148826071Y-91323809D01*
X148921309Y-91361904D01*
X149111785Y-91361904D01*
X149207023Y-91323809D01*
X149254642Y-91285714D01*
X149302261Y-91209523D01*
X149302261Y-90561904D01*
X149683214Y-90561904D02*
X150302261Y-90561904D01*
X149968928Y-90866666D01*
X150111785Y-90866666D01*
X150207023Y-90904761D01*
X150254642Y-90942857D01*
X150302261Y-91019047D01*
X150302261Y-91209523D01*
X150254642Y-91285714D01*
X150207023Y-91323809D01*
X150111785Y-91361904D01*
X149826071Y-91361904D01*
X149730833Y-91323809D01*
X149683214Y-91285714D01*
X151492738Y-91361904D02*
X151492738Y-90561904D01*
X151730833Y-90561904D01*
X151873690Y-90600000D01*
X151968928Y-90676190D01*
X152016547Y-90752380D01*
X152064166Y-90904761D01*
X152064166Y-91019047D01*
X152016547Y-91171428D01*
X151968928Y-91247619D01*
X151873690Y-91323809D01*
X151730833Y-91361904D01*
X151492738Y-91361904D01*
X152492738Y-91361904D02*
X152492738Y-90828571D01*
X152492738Y-90561904D02*
X152445119Y-90600000D01*
X152492738Y-90638095D01*
X152540357Y-90600000D01*
X152492738Y-90561904D01*
X152492738Y-90638095D01*
X152921309Y-91323809D02*
X153016547Y-91361904D01*
X153207023Y-91361904D01*
X153302261Y-91323809D01*
X153349880Y-91247619D01*
X153349880Y-91209523D01*
X153302261Y-91133333D01*
X153207023Y-91095238D01*
X153064166Y-91095238D01*
X152968928Y-91057142D01*
X152921309Y-90980952D01*
X152921309Y-90942857D01*
X152968928Y-90866666D01*
X153064166Y-90828571D01*
X153207023Y-90828571D01*
X153302261Y-90866666D01*
X154207023Y-91361904D02*
X154207023Y-90942857D01*
X154159404Y-90866666D01*
X154064166Y-90828571D01*
X153873690Y-90828571D01*
X153778452Y-90866666D01*
X154207023Y-91323809D02*
X154111785Y-91361904D01*
X153873690Y-91361904D01*
X153778452Y-91323809D01*
X153730833Y-91247619D01*
X153730833Y-91171428D01*
X153778452Y-91095238D01*
X153873690Y-91057142D01*
X154111785Y-91057142D01*
X154207023Y-91019047D01*
X154683214Y-91361904D02*
X154683214Y-90561904D01*
X154683214Y-90866666D02*
X154778452Y-90828571D01*
X154968928Y-90828571D01*
X155064166Y-90866666D01*
X155111785Y-90904761D01*
X155159404Y-90980952D01*
X155159404Y-91209523D01*
X155111785Y-91285714D01*
X155064166Y-91323809D01*
X154968928Y-91361904D01*
X154778452Y-91361904D01*
X154683214Y-91323809D01*
X155730833Y-91361904D02*
X155635595Y-91323809D01*
X155587976Y-91247619D01*
X155587976Y-90561904D01*
X156492738Y-91323809D02*
X156397500Y-91361904D01*
X156207023Y-91361904D01*
X156111785Y-91323809D01*
X156064166Y-91247619D01*
X156064166Y-90942857D01*
X156111785Y-90866666D01*
X156207023Y-90828571D01*
X156397500Y-90828571D01*
X156492738Y-90866666D01*
X156540357Y-90942857D01*
X156540357Y-91019047D01*
X156064166Y-91095238D01*
X142921309Y-91911904D02*
X142921309Y-92483333D01*
X142873690Y-92597619D01*
X142778452Y-92673809D01*
X142635595Y-92711904D01*
X142540357Y-92711904D01*
X143349880Y-91988095D02*
X143397500Y-91950000D01*
X143492738Y-91911904D01*
X143730833Y-91911904D01*
X143826071Y-91950000D01*
X143873690Y-91988095D01*
X143921309Y-92064285D01*
X143921309Y-92140476D01*
X143873690Y-92254761D01*
X143302261Y-92711904D01*
X143921309Y-92711904D01*
X145111785Y-91911904D02*
X145111785Y-92559523D01*
X145159404Y-92635714D01*
X145207023Y-92673809D01*
X145302261Y-92711904D01*
X145492738Y-92711904D01*
X145587976Y-92673809D01*
X145635595Y-92635714D01*
X145683214Y-92559523D01*
X145683214Y-91911904D01*
X146111785Y-91988095D02*
X146159404Y-91950000D01*
X146254642Y-91911904D01*
X146492738Y-91911904D01*
X146587976Y-91950000D01*
X146635595Y-91988095D01*
X146683214Y-92064285D01*
X146683214Y-92140476D01*
X146635595Y-92254761D01*
X146064166Y-92711904D01*
X146683214Y-92711904D01*
X147873690Y-92711904D02*
X147873690Y-91911904D01*
X148111785Y-91911904D01*
X148254642Y-91950000D01*
X148349880Y-92026190D01*
X148397500Y-92102380D01*
X148445119Y-92254761D01*
X148445119Y-92369047D01*
X148397500Y-92521428D01*
X148349880Y-92597619D01*
X148254642Y-92673809D01*
X148111785Y-92711904D01*
X147873690Y-92711904D01*
X148873690Y-92711904D02*
X148873690Y-92178571D01*
X148873690Y-91911904D02*
X148826071Y-91950000D01*
X148873690Y-91988095D01*
X148921309Y-91950000D01*
X148873690Y-91911904D01*
X148873690Y-91988095D01*
X149302261Y-92673809D02*
X149397500Y-92711904D01*
X149587976Y-92711904D01*
X149683214Y-92673809D01*
X149730833Y-92597619D01*
X149730833Y-92559523D01*
X149683214Y-92483333D01*
X149587976Y-92445238D01*
X149445119Y-92445238D01*
X149349880Y-92407142D01*
X149302261Y-92330952D01*
X149302261Y-92292857D01*
X149349880Y-92216666D01*
X149445119Y-92178571D01*
X149587976Y-92178571D01*
X149683214Y-92216666D01*
X150587976Y-92711904D02*
X150587976Y-92292857D01*
X150540357Y-92216666D01*
X150445119Y-92178571D01*
X150254642Y-92178571D01*
X150159404Y-92216666D01*
X150587976Y-92673809D02*
X150492738Y-92711904D01*
X150254642Y-92711904D01*
X150159404Y-92673809D01*
X150111785Y-92597619D01*
X150111785Y-92521428D01*
X150159404Y-92445238D01*
X150254642Y-92407142D01*
X150492738Y-92407142D01*
X150587976Y-92369047D01*
X151064166Y-92711904D02*
X151064166Y-91911904D01*
X151064166Y-92216666D02*
X151159404Y-92178571D01*
X151349880Y-92178571D01*
X151445119Y-92216666D01*
X151492738Y-92254761D01*
X151540357Y-92330952D01*
X151540357Y-92559523D01*
X151492738Y-92635714D01*
X151445119Y-92673809D01*
X151349880Y-92711904D01*
X151159404Y-92711904D01*
X151064166Y-92673809D01*
X152111785Y-92711904D02*
X152016547Y-92673809D01*
X151968928Y-92597619D01*
X151968928Y-91911904D01*
X152873690Y-92673809D02*
X152778452Y-92711904D01*
X152587976Y-92711904D01*
X152492738Y-92673809D01*
X152445119Y-92597619D01*
X152445119Y-92292857D01*
X152492738Y-92216666D01*
X152587976Y-92178571D01*
X152778452Y-92178571D01*
X152873690Y-92216666D01*
X152921309Y-92292857D01*
X152921309Y-92369047D01*
X152445119Y-92445238D01*
X142921309Y-93261904D02*
X142921309Y-93833333D01*
X142873690Y-93947619D01*
X142778452Y-94023809D01*
X142635595Y-94061904D01*
X142540357Y-94061904D01*
X143826071Y-93261904D02*
X143635595Y-93261904D01*
X143540357Y-93300000D01*
X143492738Y-93338095D01*
X143397500Y-93452380D01*
X143349880Y-93604761D01*
X143349880Y-93909523D01*
X143397500Y-93985714D01*
X143445119Y-94023809D01*
X143540357Y-94061904D01*
X143730833Y-94061904D01*
X143826071Y-94023809D01*
X143873690Y-93985714D01*
X143921309Y-93909523D01*
X143921309Y-93719047D01*
X143873690Y-93642857D01*
X143826071Y-93604761D01*
X143730833Y-93566666D01*
X143540357Y-93566666D01*
X143445119Y-93604761D01*
X143397500Y-93642857D01*
X143349880Y-93719047D01*
X145064166Y-93338095D02*
X145111785Y-93300000D01*
X145207023Y-93261904D01*
X145445119Y-93261904D01*
X145540357Y-93300000D01*
X145587976Y-93338095D01*
X145635595Y-93414285D01*
X145635595Y-93490476D01*
X145587976Y-93604761D01*
X145016547Y-94061904D01*
X145635595Y-94061904D01*
X146064166Y-93757142D02*
X146826071Y-93757142D01*
X146445119Y-94061904D02*
X146445119Y-93452380D01*
X147207023Y-93261904D02*
X147826071Y-93261904D01*
X147492738Y-93566666D01*
X147635595Y-93566666D01*
X147730833Y-93604761D01*
X147778452Y-93642857D01*
X147826071Y-93719047D01*
X147826071Y-93909523D01*
X147778452Y-93985714D01*
X147730833Y-94023809D01*
X147635595Y-94061904D01*
X147349880Y-94061904D01*
X147254642Y-94023809D01*
X147207023Y-93985714D01*
X148254642Y-93985714D02*
X148302261Y-94023809D01*
X148254642Y-94061904D01*
X148207023Y-94023809D01*
X148254642Y-93985714D01*
X148254642Y-94061904D01*
X148254642Y-93566666D02*
X148302261Y-93604761D01*
X148254642Y-93642857D01*
X148207023Y-93604761D01*
X148254642Y-93566666D01*
X148254642Y-93642857D01*
X149778452Y-93261904D02*
X149778452Y-93833333D01*
X149730833Y-93947619D01*
X149635595Y-94023809D01*
X149492738Y-94061904D01*
X149397500Y-94061904D01*
X150730833Y-93261904D02*
X150254642Y-93261904D01*
X150207023Y-93642857D01*
X150254642Y-93604761D01*
X150349880Y-93566666D01*
X150587976Y-93566666D01*
X150683214Y-93604761D01*
X150730833Y-93642857D01*
X150778452Y-93719047D01*
X150778452Y-93909523D01*
X150730833Y-93985714D01*
X150683214Y-94023809D01*
X150587976Y-94061904D01*
X150349880Y-94061904D01*
X150254642Y-94023809D01*
X150207023Y-93985714D01*
X151968928Y-94061904D02*
X151968928Y-93261904D01*
X152302261Y-93833333D01*
X152635595Y-93261904D01*
X152635595Y-94061904D01*
X153540357Y-93528571D02*
X153540357Y-94061904D01*
X153111785Y-93528571D02*
X153111785Y-93947619D01*
X153159404Y-94023809D01*
X153254642Y-94061904D01*
X153397500Y-94061904D01*
X153492738Y-94023809D01*
X153540357Y-93985714D01*
X153921309Y-94061904D02*
X154445119Y-93528571D01*
X153921309Y-93528571D02*
X154445119Y-94061904D01*
X142921309Y-94611904D02*
X142921309Y-95183333D01*
X142873690Y-95297619D01*
X142778452Y-95373809D01*
X142635595Y-95411904D01*
X142540357Y-95411904D01*
X143826071Y-94611904D02*
X143635595Y-94611904D01*
X143540357Y-94650000D01*
X143492738Y-94688095D01*
X143397500Y-94802380D01*
X143349880Y-94954761D01*
X143349880Y-95259523D01*
X143397500Y-95335714D01*
X143445119Y-95373809D01*
X143540357Y-95411904D01*
X143730833Y-95411904D01*
X143826071Y-95373809D01*
X143873690Y-95335714D01*
X143921309Y-95259523D01*
X143921309Y-95069047D01*
X143873690Y-94992857D01*
X143826071Y-94954761D01*
X143730833Y-94916666D01*
X143540357Y-94916666D01*
X143445119Y-94954761D01*
X143397500Y-94992857D01*
X143349880Y-95069047D01*
X145635595Y-95411904D02*
X145064166Y-95411904D01*
X145349880Y-95411904D02*
X145349880Y-94611904D01*
X145254642Y-94726190D01*
X145159404Y-94802380D01*
X145064166Y-94840476D01*
X146064166Y-95107142D02*
X146826071Y-95107142D01*
X146445119Y-95411904D02*
X146445119Y-94802380D01*
X147254642Y-94688095D02*
X147302261Y-94650000D01*
X147397500Y-94611904D01*
X147635595Y-94611904D01*
X147730833Y-94650000D01*
X147778452Y-94688095D01*
X147826071Y-94764285D01*
X147826071Y-94840476D01*
X147778452Y-94954761D01*
X147207023Y-95411904D01*
X147826071Y-95411904D01*
X148254642Y-95335714D02*
X148302261Y-95373809D01*
X148254642Y-95411904D01*
X148207023Y-95373809D01*
X148254642Y-95335714D01*
X148254642Y-95411904D01*
X148254642Y-94916666D02*
X148302261Y-94954761D01*
X148254642Y-94992857D01*
X148207023Y-94954761D01*
X148254642Y-94916666D01*
X148254642Y-94992857D01*
X149445119Y-95373809D02*
X149587976Y-95411904D01*
X149826071Y-95411904D01*
X149921309Y-95373809D01*
X149968928Y-95335714D01*
X150016547Y-95259523D01*
X150016547Y-95183333D01*
X149968928Y-95107142D01*
X149921309Y-95069047D01*
X149826071Y-95030952D01*
X149635595Y-94992857D01*
X149540357Y-94954761D01*
X149492738Y-94916666D01*
X149445119Y-94840476D01*
X149445119Y-94764285D01*
X149492738Y-94688095D01*
X149540357Y-94650000D01*
X149635595Y-94611904D01*
X149873690Y-94611904D01*
X150016547Y-94650000D01*
X150445119Y-95411904D02*
X150445119Y-94611904D01*
X150826071Y-94611904D01*
X150921309Y-94650000D01*
X150968928Y-94688095D01*
X151016547Y-94764285D01*
X151016547Y-94878571D01*
X150968928Y-94954761D01*
X150921309Y-94992857D01*
X150826071Y-95030952D01*
X150445119Y-95030952D01*
X152207023Y-95411904D02*
X152207023Y-94611904D01*
X152540357Y-95183333D01*
X152873690Y-94611904D01*
X152873690Y-95411904D01*
X153778452Y-94878571D02*
X153778452Y-95411904D01*
X153349880Y-94878571D02*
X153349880Y-95297619D01*
X153397500Y-95373809D01*
X153492738Y-95411904D01*
X153635595Y-95411904D01*
X153730833Y-95373809D01*
X153778452Y-95335714D01*
X154159404Y-95411904D02*
X154683214Y-94878571D01*
X154159404Y-94878571D02*
X154683214Y-95411904D01*
X142921309Y-95961904D02*
X142921309Y-96533333D01*
X142873690Y-96647619D01*
X142778452Y-96723809D01*
X142635595Y-96761904D01*
X142540357Y-96761904D01*
X143873690Y-95961904D02*
X143397500Y-95961904D01*
X143349880Y-96342857D01*
X143397500Y-96304761D01*
X143492738Y-96266666D01*
X143730833Y-96266666D01*
X143826071Y-96304761D01*
X143873690Y-96342857D01*
X143921309Y-96419047D01*
X143921309Y-96609523D01*
X143873690Y-96685714D01*
X143826071Y-96723809D01*
X143730833Y-96761904D01*
X143492738Y-96761904D01*
X143397500Y-96723809D01*
X143349880Y-96685714D01*
X145445119Y-96342857D02*
X145111785Y-96342857D01*
X145111785Y-96761904D02*
X145111785Y-95961904D01*
X145587976Y-95961904D01*
X146111785Y-96761904D02*
X146016547Y-96723809D01*
X145968928Y-96685714D01*
X145921309Y-96609523D01*
X145921309Y-96380952D01*
X145968928Y-96304761D01*
X146016547Y-96266666D01*
X146111785Y-96228571D01*
X146254642Y-96228571D01*
X146349880Y-96266666D01*
X146397500Y-96304761D01*
X146445119Y-96380952D01*
X146445119Y-96609523D01*
X146397500Y-96685714D01*
X146349880Y-96723809D01*
X146254642Y-96761904D01*
X146111785Y-96761904D01*
X146873690Y-96761904D02*
X146873690Y-96228571D01*
X146873690Y-96380952D02*
X146921309Y-96304761D01*
X146968928Y-96266666D01*
X147064166Y-96228571D01*
X147159404Y-96228571D01*
X147921309Y-96723809D02*
X147826071Y-96761904D01*
X147635595Y-96761904D01*
X147540357Y-96723809D01*
X147492738Y-96685714D01*
X147445119Y-96609523D01*
X147445119Y-96380952D01*
X147492738Y-96304761D01*
X147540357Y-96266666D01*
X147635595Y-96228571D01*
X147826071Y-96228571D01*
X147921309Y-96266666D01*
X148730833Y-96723809D02*
X148635595Y-96761904D01*
X148445119Y-96761904D01*
X148349880Y-96723809D01*
X148302261Y-96647619D01*
X148302261Y-96342857D01*
X148349880Y-96266666D01*
X148445119Y-96228571D01*
X148635595Y-96228571D01*
X148730833Y-96266666D01*
X148778452Y-96342857D01*
X148778452Y-96419047D01*
X148302261Y-96495238D01*
X149921309Y-96533333D02*
X150397500Y-96533333D01*
X149826071Y-96761904D02*
X150159404Y-95961904D01*
X150492738Y-96761904D01*
X150826071Y-96761904D02*
X150826071Y-95961904D01*
X151159404Y-96533333D01*
X151492738Y-95961904D01*
X151492738Y-96761904D01*
X151968928Y-96761904D02*
X151968928Y-95961904D01*
X152207023Y-95961904D01*
X152349880Y-96000000D01*
X152445119Y-96076190D01*
X152492738Y-96152380D01*
X152540357Y-96304761D01*
X152540357Y-96419047D01*
X152492738Y-96571428D01*
X152445119Y-96647619D01*
X152349880Y-96723809D01*
X152207023Y-96761904D01*
X151968928Y-96761904D01*
X159819047Y-92327380D02*
X159819047Y-91327380D01*
X159819047Y-91803571D02*
X160390476Y-91803571D01*
X160390476Y-92327380D02*
X160390476Y-91327380D01*
X161009523Y-92327380D02*
X160914285Y-92279761D01*
X160866666Y-92232142D01*
X160819047Y-92136904D01*
X160819047Y-91851190D01*
X160866666Y-91755952D01*
X160914285Y-91708333D01*
X161009523Y-91660714D01*
X161152380Y-91660714D01*
X161247619Y-91708333D01*
X161295238Y-91755952D01*
X161342857Y-91851190D01*
X161342857Y-92136904D01*
X161295238Y-92232142D01*
X161247619Y-92279761D01*
X161152380Y-92327380D01*
X161009523Y-92327380D01*
X161914285Y-92327380D02*
X161819047Y-92279761D01*
X161771428Y-92184523D01*
X161771428Y-91327380D01*
X162723809Y-92327380D02*
X162723809Y-91327380D01*
X162723809Y-92279761D02*
X162628571Y-92327380D01*
X162438095Y-92327380D01*
X162342857Y-92279761D01*
X162295238Y-92232142D01*
X162247619Y-92136904D01*
X162247619Y-91851190D01*
X162295238Y-91755952D01*
X162342857Y-91708333D01*
X162438095Y-91660714D01*
X162628571Y-91660714D01*
X162723809Y-91708333D01*
X163961904Y-92327380D02*
X163961904Y-91660714D01*
X163961904Y-91755952D02*
X164009523Y-91708333D01*
X164104761Y-91660714D01*
X164247619Y-91660714D01*
X164342857Y-91708333D01*
X164390476Y-91803571D01*
X164390476Y-92327380D01*
X164390476Y-91803571D02*
X164438095Y-91708333D01*
X164533333Y-91660714D01*
X164676190Y-91660714D01*
X164771428Y-91708333D01*
X164819047Y-91803571D01*
X164819047Y-92327380D01*
X165200000Y-91660714D02*
X165438095Y-92327380D01*
X165676190Y-91660714D02*
X165438095Y-92327380D01*
X165342857Y-92565476D01*
X165295238Y-92613095D01*
X165200000Y-92660714D01*
X166819047Y-92327380D02*
X166819047Y-91327380D01*
X166819047Y-91708333D02*
X166914285Y-91660714D01*
X167104761Y-91660714D01*
X167200000Y-91708333D01*
X167247619Y-91755952D01*
X167295238Y-91851190D01*
X167295238Y-92136904D01*
X167247619Y-92232142D01*
X167200000Y-92279761D01*
X167104761Y-92327380D01*
X166914285Y-92327380D01*
X166819047Y-92279761D01*
X168104761Y-92279761D02*
X168009523Y-92327380D01*
X167819047Y-92327380D01*
X167723809Y-92279761D01*
X167676190Y-92184523D01*
X167676190Y-91803571D01*
X167723809Y-91708333D01*
X167819047Y-91660714D01*
X168009523Y-91660714D01*
X168104761Y-91708333D01*
X168152380Y-91803571D01*
X168152380Y-91898809D01*
X167676190Y-91994047D01*
X168961904Y-92279761D02*
X168866666Y-92327380D01*
X168676190Y-92327380D01*
X168580952Y-92279761D01*
X168533333Y-92184523D01*
X168533333Y-91803571D01*
X168580952Y-91708333D01*
X168676190Y-91660714D01*
X168866666Y-91660714D01*
X168961904Y-91708333D01*
X169009523Y-91803571D01*
X169009523Y-91898809D01*
X168533333Y-91994047D01*
X169438095Y-92327380D02*
X169438095Y-91660714D01*
X169438095Y-91851190D02*
X169485714Y-91755952D01*
X169533333Y-91708333D01*
X169628571Y-91660714D01*
X169723809Y-91660714D01*
X161128571Y-93977380D02*
X161128571Y-92977380D01*
X162795238Y-93310714D02*
X162795238Y-94120238D01*
X162747619Y-94215476D01*
X162700000Y-94263095D01*
X162604761Y-94310714D01*
X162461904Y-94310714D01*
X162366666Y-94263095D01*
X162795238Y-93929761D02*
X162700000Y-93977380D01*
X162509523Y-93977380D01*
X162414285Y-93929761D01*
X162366666Y-93882142D01*
X162319047Y-93786904D01*
X162319047Y-93501190D01*
X162366666Y-93405952D01*
X162414285Y-93358333D01*
X162509523Y-93310714D01*
X162700000Y-93310714D01*
X162795238Y-93358333D01*
X163414285Y-93977380D02*
X163319047Y-93929761D01*
X163271428Y-93882142D01*
X163223809Y-93786904D01*
X163223809Y-93501190D01*
X163271428Y-93405952D01*
X163319047Y-93358333D01*
X163414285Y-93310714D01*
X163557142Y-93310714D01*
X163652380Y-93358333D01*
X163700000Y-93405952D01*
X163747619Y-93501190D01*
X163747619Y-93786904D01*
X163700000Y-93882142D01*
X163652380Y-93929761D01*
X163557142Y-93977380D01*
X163414285Y-93977380D01*
X164033333Y-93310714D02*
X164414285Y-93310714D01*
X164176190Y-92977380D02*
X164176190Y-93834523D01*
X164223809Y-93929761D01*
X164319047Y-93977380D01*
X164414285Y-93977380D01*
X165366666Y-93310714D02*
X165747619Y-93310714D01*
X165509523Y-92977380D02*
X165509523Y-93834523D01*
X165557142Y-93929761D01*
X165652380Y-93977380D01*
X165747619Y-93977380D01*
X166080952Y-93977380D02*
X166080952Y-92977380D01*
X166509523Y-93977380D02*
X166509523Y-93453571D01*
X166461904Y-93358333D01*
X166366666Y-93310714D01*
X166223809Y-93310714D01*
X166128571Y-93358333D01*
X166080952Y-93405952D01*
X166985714Y-93977380D02*
X166985714Y-93310714D01*
X166985714Y-92977380D02*
X166938095Y-93025000D01*
X166985714Y-93072619D01*
X167033333Y-93025000D01*
X166985714Y-92977380D01*
X166985714Y-93072619D01*
X167414285Y-93929761D02*
X167509523Y-93977380D01*
X167700000Y-93977380D01*
X167795238Y-93929761D01*
X167842857Y-93834523D01*
X167842857Y-93786904D01*
X167795238Y-93691666D01*
X167700000Y-93644047D01*
X167557142Y-93644047D01*
X167461904Y-93596428D01*
X167414285Y-93501190D01*
X167414285Y-93453571D01*
X167461904Y-93358333D01*
X167557142Y-93310714D01*
X167700000Y-93310714D01*
X167795238Y-93358333D01*
X168271428Y-93882142D02*
X168319047Y-93929761D01*
X168271428Y-93977380D01*
X168223809Y-93929761D01*
X168271428Y-93882142D01*
X168271428Y-93977380D01*
X168271428Y-93596428D02*
X168223809Y-93025000D01*
X168271428Y-92977380D01*
X168319047Y-93025000D01*
X168271428Y-93596428D01*
X168271428Y-92977380D01*
X134571428Y-101866666D02*
X135047619Y-101866666D01*
X134476190Y-102152380D02*
X134809523Y-101152380D01*
X135142857Y-102152380D01*
X135476190Y-102152380D02*
X135476190Y-101152380D01*
X135809523Y-101866666D01*
X136142857Y-101152380D01*
X136142857Y-102152380D01*
X136619047Y-102152380D02*
X136619047Y-101152380D01*
X136857142Y-101152380D01*
X137000000Y-101200000D01*
X137095238Y-101295238D01*
X137142857Y-101390476D01*
X137190476Y-101580952D01*
X137190476Y-101723809D01*
X137142857Y-101914285D01*
X137095238Y-102009523D01*
X137000000Y-102104761D01*
X136857142Y-102152380D01*
X136619047Y-102152380D01*
X139047619Y-102247619D02*
X138952380Y-102200000D01*
X138857142Y-102104761D01*
X138714285Y-101961904D01*
X138619047Y-101914285D01*
X138523809Y-101914285D01*
X138571428Y-102152380D02*
X138476190Y-102104761D01*
X138380952Y-102009523D01*
X138333333Y-101819047D01*
X138333333Y-101485714D01*
X138380952Y-101295238D01*
X138476190Y-101200000D01*
X138571428Y-101152380D01*
X138761904Y-101152380D01*
X138857142Y-101200000D01*
X138952380Y-101295238D01*
X139000000Y-101485714D01*
X139000000Y-101819047D01*
X138952380Y-102009523D01*
X138857142Y-102104761D01*
X138761904Y-102152380D01*
X138571428Y-102152380D01*
X139380952Y-102104761D02*
X139523809Y-102152380D01*
X139761904Y-102152380D01*
X139857142Y-102104761D01*
X139904761Y-102057142D01*
X139952380Y-101961904D01*
X139952380Y-101866666D01*
X139904761Y-101771428D01*
X139857142Y-101723809D01*
X139761904Y-101676190D01*
X139571428Y-101628571D01*
X139476190Y-101580952D01*
X139428571Y-101533333D01*
X139380952Y-101438095D01*
X139380952Y-101342857D01*
X139428571Y-101247619D01*
X139476190Y-101200000D01*
X139571428Y-101152380D01*
X139809523Y-101152380D01*
X139952380Y-101200000D01*
X140380952Y-102152380D02*
X140380952Y-101152380D01*
X140761904Y-101152380D01*
X140857142Y-101200000D01*
X140904761Y-101247619D01*
X140952380Y-101342857D01*
X140952380Y-101485714D01*
X140904761Y-101580952D01*
X140857142Y-101628571D01*
X140761904Y-101676190D01*
X140380952Y-101676190D01*
X141380952Y-102152380D02*
X141380952Y-101152380D01*
X154100000Y-98200000D02*
X152100000Y-98200000D01*
X154100000Y-100200000D02*
X154100000Y-98200000D01*
X152100000Y-100200000D02*
X154100000Y-100200000D01*
X152100000Y-98200000D02*
X152100000Y-100200000D01*
X154100000Y-101200000D02*
G75*
G03*
X154100000Y-101200000I-1000000J0D01*
G01*
X144100000Y-99200000D02*
G75*
G03*
X144100000Y-99200000I-1000000J0D01*
G01*
X146100000Y-99200000D02*
G75*
G03*
X146100000Y-99200000I-1000000J0D01*
G01*
X144100000Y-101200000D02*
G75*
G03*
X144100000Y-101200000I-1000000J0D01*
G01*
X146100000Y-101200000D02*
G75*
G03*
X146100000Y-101200000I-1000000J0D01*
G01*
X148100000Y-101200000D02*
G75*
G03*
X148100000Y-101200000I-1000000J0D01*
G01*
X150100000Y-101200000D02*
G75*
G03*
X150100000Y-101200000I-1000000J0D01*
G01*
X152100000Y-101200000D02*
G75*
G03*
X152100000Y-101200000I-1000000J0D01*
G01*
X152100000Y-99200000D02*
G75*
G03*
X152100000Y-99200000I-1000000J0D01*
G01*
X150100000Y-99200000D02*
G75*
G03*
X150100000Y-99200000I-1000000J0D01*
G01*
X148100000Y-99200000D02*
G75*
G03*
X148100000Y-99200000I-1000000J0D01*
G01*
X142980952Y-100700000D02*
X142885714Y-100652380D01*
X142742857Y-100652380D01*
X142600000Y-100700000D01*
X142504761Y-100795238D01*
X142457142Y-100890476D01*
X142409523Y-101080952D01*
X142409523Y-101223809D01*
X142457142Y-101414285D01*
X142504761Y-101509523D01*
X142600000Y-101604761D01*
X142742857Y-101652380D01*
X142838095Y-101652380D01*
X142980952Y-101604761D01*
X143028571Y-101557142D01*
X143028571Y-101223809D01*
X142838095Y-101223809D01*
X144361904Y-99652380D02*
X144361904Y-98652380D01*
X144600000Y-98652380D01*
X144742857Y-98700000D01*
X144838095Y-98795238D01*
X144885714Y-98890476D01*
X144933333Y-99080952D01*
X144933333Y-99223809D01*
X144885714Y-99414285D01*
X144838095Y-99509523D01*
X144742857Y-99604761D01*
X144600000Y-99652380D01*
X144361904Y-99652380D01*
X145266666Y-98652380D02*
X145885714Y-98652380D01*
X145552380Y-99033333D01*
X145695238Y-99033333D01*
X145790476Y-99080952D01*
X145838095Y-99128571D01*
X145885714Y-99223809D01*
X145885714Y-99461904D01*
X145838095Y-99557142D01*
X145790476Y-99604761D01*
X145695238Y-99652380D01*
X145409523Y-99652380D01*
X145314285Y-99604761D01*
X145266666Y-99557142D01*
X146361904Y-101652380D02*
X146361904Y-100652380D01*
X146600000Y-100652380D01*
X146742857Y-100700000D01*
X146838095Y-100795238D01*
X146885714Y-100890476D01*
X146933333Y-101080952D01*
X146933333Y-101223809D01*
X146885714Y-101414285D01*
X146838095Y-101509523D01*
X146742857Y-101604761D01*
X146600000Y-101652380D01*
X146361904Y-101652380D01*
X147314285Y-100747619D02*
X147361904Y-100700000D01*
X147457142Y-100652380D01*
X147695238Y-100652380D01*
X147790476Y-100700000D01*
X147838095Y-100747619D01*
X147885714Y-100842857D01*
X147885714Y-100938095D01*
X147838095Y-101080952D01*
X147266666Y-101652380D01*
X147885714Y-101652380D01*
X148980952Y-100700000D02*
X148885714Y-100652380D01*
X148742857Y-100652380D01*
X148600000Y-100700000D01*
X148504761Y-100795238D01*
X148457142Y-100890476D01*
X148409523Y-101080952D01*
X148409523Y-101223809D01*
X148457142Y-101414285D01*
X148504761Y-101509523D01*
X148600000Y-101604761D01*
X148742857Y-101652380D01*
X148838095Y-101652380D01*
X148980952Y-101604761D01*
X149028571Y-101557142D01*
X149028571Y-101223809D01*
X148838095Y-101223809D01*
X150361904Y-99652380D02*
X150361904Y-98652380D01*
X150600000Y-98652380D01*
X150742857Y-98700000D01*
X150838095Y-98795238D01*
X150885714Y-98890476D01*
X150933333Y-99080952D01*
X150933333Y-99223809D01*
X150885714Y-99414285D01*
X150838095Y-99509523D01*
X150742857Y-99604761D01*
X150600000Y-99652380D01*
X150361904Y-99652380D01*
X151885714Y-99652380D02*
X151314285Y-99652380D01*
X151600000Y-99652380D02*
X151600000Y-98652380D01*
X151504761Y-98795238D01*
X151409523Y-98890476D01*
X151314285Y-98938095D01*
X150909523Y-101557142D02*
X150861904Y-101604761D01*
X150719047Y-101652380D01*
X150623809Y-101652380D01*
X150480952Y-101604761D01*
X150385714Y-101509523D01*
X150338095Y-101414285D01*
X150290476Y-101223809D01*
X150290476Y-101080952D01*
X150338095Y-100890476D01*
X150385714Y-100795238D01*
X150480952Y-100700000D01*
X150623809Y-100652380D01*
X150719047Y-100652380D01*
X150861904Y-100700000D01*
X150909523Y-100747619D01*
X151338095Y-101652380D02*
X151338095Y-100652380D01*
X151909523Y-101652380D02*
X151480952Y-101080952D01*
X151909523Y-100652380D02*
X151338095Y-101223809D01*
X152361904Y-101652380D02*
X152361904Y-100652380D01*
X152600000Y-100652380D01*
X152742857Y-100700000D01*
X152838095Y-100795238D01*
X152885714Y-100890476D01*
X152933333Y-101080952D01*
X152933333Y-101223809D01*
X152885714Y-101414285D01*
X152838095Y-101509523D01*
X152742857Y-101604761D01*
X152600000Y-101652380D01*
X152361904Y-101652380D01*
X153552380Y-100652380D02*
X153647619Y-100652380D01*
X153742857Y-100700000D01*
X153790476Y-100747619D01*
X153838095Y-100842857D01*
X153885714Y-101033333D01*
X153885714Y-101271428D01*
X153838095Y-101461904D01*
X153790476Y-101557142D01*
X153742857Y-101604761D01*
X153647619Y-101652380D01*
X153552380Y-101652380D01*
X153457142Y-101604761D01*
X153409523Y-101557142D01*
X153361904Y-101461904D01*
X153314285Y-101271428D01*
X153314285Y-101033333D01*
X153361904Y-100842857D01*
X153409523Y-100747619D01*
X153457142Y-100700000D01*
X153552380Y-100652380D01*
X152933333Y-99557142D02*
X152885714Y-99604761D01*
X152742857Y-99652380D01*
X152647619Y-99652380D01*
X152504761Y-99604761D01*
X152409523Y-99509523D01*
X152361904Y-99414285D01*
X152314285Y-99223809D01*
X152314285Y-99080952D01*
X152361904Y-98890476D01*
X152409523Y-98795238D01*
X152504761Y-98700000D01*
X152647619Y-98652380D01*
X152742857Y-98652380D01*
X152885714Y-98700000D01*
X152933333Y-98747619D01*
X153314285Y-99604761D02*
X153457142Y-99652380D01*
X153695238Y-99652380D01*
X153790476Y-99604761D01*
X153838095Y-99557142D01*
X153885714Y-99461904D01*
X153885714Y-99366666D01*
X153838095Y-99271428D01*
X153790476Y-99223809D01*
X153695238Y-99176190D01*
X153504761Y-99128571D01*
X153409523Y-99080952D01*
X153361904Y-99033333D01*
X153314285Y-98938095D01*
X153314285Y-98842857D01*
X153361904Y-98747619D01*
X153409523Y-98700000D01*
X153504761Y-98652380D01*
X153742857Y-98652380D01*
X153885714Y-98700000D01*
X102225238Y-91714761D02*
X102368095Y-91762380D01*
X102606190Y-91762380D01*
X102701428Y-91714761D01*
X102749047Y-91667142D01*
X102796666Y-91571904D01*
X102796666Y-91476666D01*
X102749047Y-91381428D01*
X102701428Y-91333809D01*
X102606190Y-91286190D01*
X102415714Y-91238571D01*
X102320476Y-91190952D01*
X102272857Y-91143333D01*
X102225238Y-91048095D01*
X102225238Y-90952857D01*
X102272857Y-90857619D01*
X102320476Y-90810000D01*
X102415714Y-90762380D01*
X102653809Y-90762380D01*
X102796666Y-90810000D01*
X103225238Y-91762380D02*
X103225238Y-90762380D01*
X103606190Y-90762380D01*
X103701428Y-90810000D01*
X103749047Y-90857619D01*
X103796666Y-90952857D01*
X103796666Y-91095714D01*
X103749047Y-91190952D01*
X103701428Y-91238571D01*
X103606190Y-91286190D01*
X103225238Y-91286190D01*
X105653809Y-91857619D02*
X105558571Y-91810000D01*
X105463333Y-91714761D01*
X105320476Y-91571904D01*
X105225238Y-91524285D01*
X105130000Y-91524285D01*
X105177619Y-91762380D02*
X105082380Y-91714761D01*
X104987142Y-91619523D01*
X104939523Y-91429047D01*
X104939523Y-91095714D01*
X104987142Y-90905238D01*
X105082380Y-90810000D01*
X105177619Y-90762380D01*
X105368095Y-90762380D01*
X105463333Y-90810000D01*
X105558571Y-90905238D01*
X105606190Y-91095714D01*
X105606190Y-91429047D01*
X105558571Y-91619523D01*
X105463333Y-91714761D01*
X105368095Y-91762380D01*
X105177619Y-91762380D01*
X105987142Y-91714761D02*
X106130000Y-91762380D01*
X106368095Y-91762380D01*
X106463333Y-91714761D01*
X106510952Y-91667142D01*
X106558571Y-91571904D01*
X106558571Y-91476666D01*
X106510952Y-91381428D01*
X106463333Y-91333809D01*
X106368095Y-91286190D01*
X106177619Y-91238571D01*
X106082380Y-91190952D01*
X106034761Y-91143333D01*
X105987142Y-91048095D01*
X105987142Y-90952857D01*
X106034761Y-90857619D01*
X106082380Y-90810000D01*
X106177619Y-90762380D01*
X106415714Y-90762380D01*
X106558571Y-90810000D01*
X106987142Y-91762380D02*
X106987142Y-90762380D01*
X107368095Y-90762380D01*
X107463333Y-90810000D01*
X107510952Y-90857619D01*
X107558571Y-90952857D01*
X107558571Y-91095714D01*
X107510952Y-91190952D01*
X107463333Y-91238571D01*
X107368095Y-91286190D01*
X106987142Y-91286190D01*
X107987142Y-91762380D02*
X107987142Y-90762380D01*
D11*
X129080000Y-90970000D02*
X129290000Y-91170000D01*
X129080000Y-90970000D02*
X129280000Y-90740000D01*
X130660000Y-90970000D02*
X129080000Y-90970000D01*
X119547836Y-91720000D02*
X119332164Y-91720000D01*
X119547836Y-91000000D02*
X119332164Y-91000000D01*
X151540000Y-102910000D02*
X151540000Y-104240000D01*
X150210000Y-102910000D02*
X151540000Y-102910000D01*
X151540000Y-105510000D02*
X151540000Y-108110000D01*
X148940000Y-105510000D02*
X151540000Y-105510000D01*
X148940000Y-102910000D02*
X148940000Y-105510000D01*
X151540000Y-108110000D02*
X136180000Y-108110000D01*
X148940000Y-102910000D02*
X136180000Y-102910000D01*
X136180000Y-102910000D02*
X136180000Y-108110000D01*
D13*
X135710000Y-98580000D02*
G75*
G03*
X135710000Y-98580000I-100000J0D01*
G01*
D11*
X136610000Y-98700000D02*
X136990000Y-98700000D01*
X135490000Y-97580000D02*
X136610000Y-98700000D01*
X135490000Y-97200000D02*
X135490000Y-97580000D01*
X141730000Y-98700000D02*
X140230000Y-98700000D01*
X141730000Y-97200000D02*
X141730000Y-98700000D01*
X135490000Y-92460000D02*
X136990000Y-92460000D01*
X135490000Y-93960000D02*
X135490000Y-92460000D01*
X141730000Y-92460000D02*
X140230000Y-92460000D01*
X141730000Y-93960000D02*
X141730000Y-92460000D01*
X135490000Y-92460000D02*
X136990000Y-92460000D01*
X135490000Y-93960000D02*
X135490000Y-92460000D01*
X135490000Y-92460000D02*
X136990000Y-92460000D01*
X135490000Y-93960000D02*
X135490000Y-92460000D01*
X132785000Y-96080000D02*
X132785000Y-92480000D01*
X132785000Y-96080000D02*
X132785000Y-98280000D01*
X124715000Y-96080000D02*
X124715000Y-93880000D01*
X124715000Y-96080000D02*
X124715000Y-98280000D01*
X117960000Y-92195000D02*
X114360000Y-92195000D01*
X117960000Y-92195000D02*
X120160000Y-92195000D01*
X117960000Y-98965000D02*
X115760000Y-98965000D01*
X117960000Y-98965000D02*
X120160000Y-98965000D01*
X124930000Y-100330000D02*
X124930000Y-106340000D01*
X118110000Y-102580000D02*
X118110000Y-106340000D01*
X124930000Y-106340000D02*
X123670000Y-106340000D01*
X118110000Y-106340000D02*
X119370000Y-106340000D01*
X136803641Y-91180000D02*
X136496359Y-91180000D01*
X136803641Y-91940000D02*
X136496359Y-91940000D01*
X139276359Y-91950000D02*
X139583641Y-91950000D01*
X139276359Y-91190000D02*
X139583641Y-91190000D01*
X162626359Y-102060000D02*
X162933641Y-102060000D01*
X162626359Y-101300000D02*
X162933641Y-101300000D01*
X159390000Y-103683641D02*
X159390000Y-103376359D01*
X158630000Y-103683641D02*
X158630000Y-103376359D01*
X158660000Y-106576359D02*
X158660000Y-106883641D01*
X159420000Y-106576359D02*
X159420000Y-106883641D01*
X155230000Y-92500000D02*
X156560000Y-92500000D01*
X155230000Y-93830000D02*
X155230000Y-92500000D01*
X155230000Y-95100000D02*
X157890000Y-95100000D01*
X157890000Y-95100000D02*
X157890000Y-100240000D01*
X155230000Y-95100000D02*
X155230000Y-100240000D01*
X155230000Y-100240000D02*
X157890000Y-100240000D01*
X160890000Y-95070000D02*
X162220000Y-95070000D01*
X160890000Y-96400000D02*
X160890000Y-95070000D01*
X160890000Y-97670000D02*
X163550000Y-97670000D01*
X163550000Y-97670000D02*
X163550000Y-100270000D01*
X160890000Y-97670000D02*
X160890000Y-100270000D01*
X160890000Y-100270000D02*
X163550000Y-100270000D01*
X102390000Y-92410000D02*
X102390000Y-107770000D01*
X102390000Y-107770000D02*
X99730000Y-107770000D01*
X99730000Y-107770000D02*
X99730000Y-92410000D01*
X99730000Y-92410000D02*
X102390000Y-92410000D01*
X99730000Y-93360000D02*
X93730000Y-93360000D01*
X93730000Y-93360000D02*
X93730000Y-94120000D01*
X93730000Y-94120000D02*
X99730000Y-94120000D01*
X99730000Y-93420000D02*
X93730000Y-93420000D01*
X99730000Y-93540000D02*
X93730000Y-93540000D01*
X99730000Y-93660000D02*
X93730000Y-93660000D01*
X99730000Y-93780000D02*
X93730000Y-93780000D01*
X99730000Y-93900000D02*
X93730000Y-93900000D01*
X99730000Y-94020000D02*
X93730000Y-94020000D01*
X102787071Y-93360000D02*
X102390000Y-93360000D01*
X102787071Y-94120000D02*
X102390000Y-94120000D01*
X105260000Y-93360000D02*
X104872929Y-93360000D01*
X105260000Y-94120000D02*
X104872929Y-94120000D01*
X102390000Y-95010000D02*
X99730000Y-95010000D01*
X99730000Y-95900000D02*
X93730000Y-95900000D01*
X93730000Y-95900000D02*
X93730000Y-96660000D01*
X93730000Y-96660000D02*
X99730000Y-96660000D01*
X102787071Y-95900000D02*
X102390000Y-95900000D01*
X102787071Y-96660000D02*
X102390000Y-96660000D01*
X105327071Y-95900000D02*
X104872929Y-95900000D01*
X105327071Y-96660000D02*
X104872929Y-96660000D01*
X102390000Y-97550000D02*
X99730000Y-97550000D01*
X99730000Y-98440000D02*
X93730000Y-98440000D01*
X93730000Y-98440000D02*
X93730000Y-99200000D01*
X93730000Y-99200000D02*
X99730000Y-99200000D01*
X102787071Y-98440000D02*
X102390000Y-98440000D01*
X102787071Y-99200000D02*
X102390000Y-99200000D01*
X105327071Y-98440000D02*
X104872929Y-98440000D01*
X105327071Y-99200000D02*
X104872929Y-99200000D01*
X104168000Y-100090000D02*
X101508000Y-100090000D01*
X99730000Y-100980000D02*
X93730000Y-100980000D01*
X93730000Y-100980000D02*
X93730000Y-101740000D01*
X93730000Y-101740000D02*
X99730000Y-101740000D01*
X102787071Y-100980000D02*
X102390000Y-100980000D01*
X102787071Y-101740000D02*
X102390000Y-101740000D01*
X105327071Y-100980000D02*
X104872929Y-100980000D01*
X105327071Y-101740000D02*
X104872929Y-101740000D01*
X102390000Y-102630000D02*
X99730000Y-102630000D01*
X99730000Y-103520000D02*
X93730000Y-103520000D01*
X93730000Y-103520000D02*
X93730000Y-104280000D01*
X93730000Y-104280000D02*
X99730000Y-104280000D01*
X102787071Y-103520000D02*
X102390000Y-103520000D01*
X102787071Y-104280000D02*
X102390000Y-104280000D01*
X105327071Y-103520000D02*
X104872929Y-103520000D01*
X105327071Y-104280000D02*
X104872929Y-104280000D01*
X102390000Y-105170000D02*
X99730000Y-105170000D01*
X99730000Y-106060000D02*
X93730000Y-106060000D01*
X93730000Y-106060000D02*
X93730000Y-106820000D01*
X93730000Y-106820000D02*
X99730000Y-106820000D01*
X102787071Y-106060000D02*
X102390000Y-106060000D01*
X102787071Y-106820000D02*
X102390000Y-106820000D01*
X105327071Y-106060000D02*
X104872929Y-106060000D01*
X105327071Y-106820000D02*
X104872929Y-106820000D01*
X107640000Y-93740000D02*
X107640000Y-92470000D01*
X107640000Y-92470000D02*
X106370000Y-92470000D01*
X160920000Y-102710000D02*
X162250000Y-102710000D01*
X160920000Y-104040000D02*
X160920000Y-102710000D01*
X160920000Y-105310000D02*
X163580000Y-105310000D01*
X163580000Y-105310000D02*
X163580000Y-107910000D01*
X160920000Y-105310000D02*
X160920000Y-107910000D01*
X160920000Y-107910000D02*
X163580000Y-107910000D01*
X155150000Y-102810000D02*
X156480000Y-102810000D01*
X155150000Y-104140000D02*
X155150000Y-102810000D01*
X155150000Y-105410000D02*
X157810000Y-105410000D01*
X157810000Y-105410000D02*
X157810000Y-108010000D01*
X155150000Y-105410000D02*
X155150000Y-108010000D01*
X155150000Y-108010000D02*
X157810000Y-108010000D01*
X127147836Y-90990000D02*
X126932164Y-90990000D01*
X127147836Y-91710000D02*
X126932164Y-91710000D01*
X123412164Y-94300000D02*
X123627836Y-94300000D01*
X123412164Y-93580000D02*
X123627836Y-93580000D01*
X123412164Y-93040000D02*
X123627836Y-93040000D01*
X123412164Y-92320000D02*
X123627836Y-92320000D01*
X126037500Y-103302500D02*
X126037500Y-103927500D01*
X125725000Y-103615000D02*
X126350000Y-103615000D01*
X126590000Y-106995563D02*
X127654437Y-108060000D01*
X126590000Y-103604437D02*
X127654437Y-102540000D01*
X126590000Y-103604437D02*
X126590000Y-104240000D01*
X126590000Y-106995563D02*
X126590000Y-106360000D01*
X127654437Y-108060000D02*
X132110000Y-108060000D01*
X127654437Y-102540000D02*
X132110000Y-102540000D01*
X132110000Y-102540000D02*
X132110000Y-104240000D01*
X132110000Y-108060000D02*
X132110000Y-106360000D01*
X112692500Y-107202500D02*
X113317500Y-107202500D01*
X113005000Y-107515000D02*
X113005000Y-106890000D01*
X116385563Y-106650000D02*
X117450000Y-105585563D01*
X112994437Y-106650000D02*
X111930000Y-105585563D01*
X112994437Y-106650000D02*
X113630000Y-106650000D01*
X116385563Y-106650000D02*
X115750000Y-106650000D01*
X117450000Y-105585563D02*
X117450000Y-101130000D01*
X111930000Y-105585563D02*
X111930000Y-101130000D01*
X111930000Y-101130000D02*
X113630000Y-101130000D01*
X117450000Y-101130000D02*
X115750000Y-101130000D01*
D10*
X119273333Y-92877142D02*
X119225714Y-92924761D01*
X119082857Y-92972380D01*
X118987619Y-92972380D01*
X118844761Y-92924761D01*
X118749523Y-92829523D01*
X118701904Y-92734285D01*
X118654285Y-92543809D01*
X118654285Y-92400952D01*
X118701904Y-92210476D01*
X118749523Y-92115238D01*
X118844761Y-92020000D01*
X118987619Y-91972380D01*
X119082857Y-91972380D01*
X119225714Y-92020000D01*
X119273333Y-92067619D01*
X120178095Y-91972380D02*
X119701904Y-91972380D01*
X119654285Y-92448571D01*
X119701904Y-92400952D01*
X119797142Y-92353333D01*
X120035238Y-92353333D01*
X120130476Y-92400952D01*
X120178095Y-92448571D01*
X120225714Y-92543809D01*
X120225714Y-92781904D01*
X120178095Y-92877142D01*
X120130476Y-92924761D01*
X120035238Y-92972380D01*
X119797142Y-92972380D01*
X119701904Y-92924761D01*
X119654285Y-92877142D01*
X134476666Y-103072380D02*
X134476666Y-103786666D01*
X134429047Y-103929523D01*
X134333809Y-104024761D01*
X134190952Y-104072380D01*
X134095714Y-104072380D01*
X135381428Y-103405714D02*
X135381428Y-104072380D01*
X135143333Y-103024761D02*
X134905238Y-103739047D01*
X135524285Y-103739047D01*
X137938095Y-99152380D02*
X137938095Y-99961904D01*
X137985714Y-100057142D01*
X138033333Y-100104761D01*
X138128571Y-100152380D01*
X138319047Y-100152380D01*
X138414285Y-100104761D01*
X138461904Y-100057142D01*
X138509523Y-99961904D01*
X138509523Y-99152380D01*
X139414285Y-99485714D02*
X139414285Y-100152380D01*
X139176190Y-99104761D02*
X138938095Y-99819047D01*
X139557142Y-99819047D01*
X133158095Y-98882380D02*
X133158095Y-99691904D01*
X133205714Y-99787142D01*
X133253333Y-99834761D01*
X133348571Y-99882380D01*
X133539047Y-99882380D01*
X133634285Y-99834761D01*
X133681904Y-99787142D01*
X133729523Y-99691904D01*
X133729523Y-98882380D01*
X134110476Y-98882380D02*
X134729523Y-98882380D01*
X134396190Y-99263333D01*
X134539047Y-99263333D01*
X134634285Y-99310952D01*
X134681904Y-99358571D01*
X134729523Y-99453809D01*
X134729523Y-99691904D01*
X134681904Y-99787142D01*
X134634285Y-99834761D01*
X134539047Y-99882380D01*
X134253333Y-99882380D01*
X134158095Y-99834761D01*
X134110476Y-99787142D01*
X114058095Y-90872380D02*
X114058095Y-91681904D01*
X114105714Y-91777142D01*
X114153333Y-91824761D01*
X114248571Y-91872380D01*
X114439047Y-91872380D01*
X114534285Y-91824761D01*
X114581904Y-91777142D01*
X114629523Y-91681904D01*
X114629523Y-90872380D01*
X115058095Y-90967619D02*
X115105714Y-90920000D01*
X115200952Y-90872380D01*
X115439047Y-90872380D01*
X115534285Y-90920000D01*
X115581904Y-90967619D01*
X115629523Y-91062857D01*
X115629523Y-91158095D01*
X115581904Y-91300952D01*
X115010476Y-91872380D01*
X115629523Y-91872380D01*
X117548095Y-107122380D02*
X117548095Y-107931904D01*
X117595714Y-108027142D01*
X117643333Y-108074761D01*
X117738571Y-108122380D01*
X117929047Y-108122380D01*
X118024285Y-108074761D01*
X118071904Y-108027142D01*
X118119523Y-107931904D01*
X118119523Y-107122380D01*
X119119523Y-108122380D02*
X118548095Y-108122380D01*
X118833809Y-108122380D02*
X118833809Y-107122380D01*
X118738571Y-107265238D01*
X118643333Y-107360476D01*
X118548095Y-107408095D01*
X133713333Y-92082380D02*
X133380000Y-91606190D01*
X133141904Y-92082380D02*
X133141904Y-91082380D01*
X133522857Y-91082380D01*
X133618095Y-91130000D01*
X133665714Y-91177619D01*
X133713333Y-91272857D01*
X133713333Y-91415714D01*
X133665714Y-91510952D01*
X133618095Y-91558571D01*
X133522857Y-91606190D01*
X133141904Y-91606190D01*
X134618095Y-91082380D02*
X134141904Y-91082380D01*
X134094285Y-91558571D01*
X134141904Y-91510952D01*
X134237142Y-91463333D01*
X134475238Y-91463333D01*
X134570476Y-91510952D01*
X134618095Y-91558571D01*
X134665714Y-91653809D01*
X134665714Y-91891904D01*
X134618095Y-91987142D01*
X134570476Y-92034761D01*
X134475238Y-92082380D01*
X134237142Y-92082380D01*
X134141904Y-92034761D01*
X134094285Y-91987142D01*
X141133333Y-91952380D02*
X140800000Y-91476190D01*
X140561904Y-91952380D02*
X140561904Y-90952380D01*
X140942857Y-90952380D01*
X141038095Y-91000000D01*
X141085714Y-91047619D01*
X141133333Y-91142857D01*
X141133333Y-91285714D01*
X141085714Y-91380952D01*
X141038095Y-91428571D01*
X140942857Y-91476190D01*
X140561904Y-91476190D01*
X141990476Y-91285714D02*
X141990476Y-91952380D01*
X141752380Y-90904761D02*
X141514285Y-91619047D01*
X142133333Y-91619047D01*
X160533333Y-102052380D02*
X160200000Y-101576190D01*
X159961904Y-102052380D02*
X159961904Y-101052380D01*
X160342857Y-101052380D01*
X160438095Y-101100000D01*
X160485714Y-101147619D01*
X160533333Y-101242857D01*
X160533333Y-101385714D01*
X160485714Y-101480952D01*
X160438095Y-101528571D01*
X160342857Y-101576190D01*
X159961904Y-101576190D01*
X160866666Y-101052380D02*
X161485714Y-101052380D01*
X161152380Y-101433333D01*
X161295238Y-101433333D01*
X161390476Y-101480952D01*
X161438095Y-101528571D01*
X161485714Y-101623809D01*
X161485714Y-101861904D01*
X161438095Y-101957142D01*
X161390476Y-102004761D01*
X161295238Y-102052380D01*
X161009523Y-102052380D01*
X160914285Y-102004761D01*
X160866666Y-101957142D01*
X157033333Y-101952380D02*
X156700000Y-101476190D01*
X156461904Y-101952380D02*
X156461904Y-100952380D01*
X156842857Y-100952380D01*
X156938095Y-101000000D01*
X156985714Y-101047619D01*
X157033333Y-101142857D01*
X157033333Y-101285714D01*
X156985714Y-101380952D01*
X156938095Y-101428571D01*
X156842857Y-101476190D01*
X156461904Y-101476190D01*
X157414285Y-101047619D02*
X157461904Y-101000000D01*
X157557142Y-100952380D01*
X157795238Y-100952380D01*
X157890476Y-101000000D01*
X157938095Y-101047619D01*
X157985714Y-101142857D01*
X157985714Y-101238095D01*
X157938095Y-101380952D01*
X157366666Y-101952380D01*
X157985714Y-101952380D01*
X159133333Y-108852380D02*
X158800000Y-108376190D01*
X158561904Y-108852380D02*
X158561904Y-107852380D01*
X158942857Y-107852380D01*
X159038095Y-107900000D01*
X159085714Y-107947619D01*
X159133333Y-108042857D01*
X159133333Y-108185714D01*
X159085714Y-108280952D01*
X159038095Y-108328571D01*
X158942857Y-108376190D01*
X158561904Y-108376190D01*
X160085714Y-108852380D02*
X159514285Y-108852380D01*
X159800000Y-108852380D02*
X159800000Y-107852380D01*
X159704761Y-107995238D01*
X159609523Y-108090476D01*
X159514285Y-108138095D01*
X157666666Y-90752380D02*
X157666666Y-91466666D01*
X157619047Y-91609523D01*
X157523809Y-91704761D01*
X157380952Y-91752380D01*
X157285714Y-91752380D01*
X158571428Y-90752380D02*
X158380952Y-90752380D01*
X158285714Y-90800000D01*
X158238095Y-90847619D01*
X158142857Y-90990476D01*
X158095238Y-91180952D01*
X158095238Y-91561904D01*
X158142857Y-91657142D01*
X158190476Y-91704761D01*
X158285714Y-91752380D01*
X158476190Y-91752380D01*
X158571428Y-91704761D01*
X158619047Y-91657142D01*
X158666666Y-91561904D01*
X158666666Y-91323809D01*
X158619047Y-91228571D01*
X158571428Y-91180952D01*
X158476190Y-91133333D01*
X158285714Y-91133333D01*
X158190476Y-91180952D01*
X158142857Y-91228571D01*
X158095238Y-91323809D01*
X164566666Y-95952380D02*
X164566666Y-96666666D01*
X164519047Y-96809523D01*
X164423809Y-96904761D01*
X164280952Y-96952380D01*
X164185714Y-96952380D01*
X165519047Y-95952380D02*
X165042857Y-95952380D01*
X164995238Y-96428571D01*
X165042857Y-96380952D01*
X165138095Y-96333333D01*
X165376190Y-96333333D01*
X165471428Y-96380952D01*
X165519047Y-96428571D01*
X165566666Y-96523809D01*
X165566666Y-96761904D01*
X165519047Y-96857142D01*
X165471428Y-96904761D01*
X165376190Y-96952380D01*
X165138095Y-96952380D01*
X165042857Y-96904761D01*
X164995238Y-96857142D01*
X104426666Y-108352380D02*
X104426666Y-109066666D01*
X104379047Y-109209523D01*
X104283809Y-109304761D01*
X104140952Y-109352380D01*
X104045714Y-109352380D01*
X104807619Y-108352380D02*
X105426666Y-108352380D01*
X105093333Y-108733333D01*
X105236190Y-108733333D01*
X105331428Y-108780952D01*
X105379047Y-108828571D01*
X105426666Y-108923809D01*
X105426666Y-109161904D01*
X105379047Y-109257142D01*
X105331428Y-109304761D01*
X105236190Y-109352380D01*
X104950476Y-109352380D01*
X104855238Y-109304761D01*
X104807619Y-109257142D01*
X164666666Y-107152380D02*
X164666666Y-107866666D01*
X164619047Y-108009523D01*
X164523809Y-108104761D01*
X164380952Y-108152380D01*
X164285714Y-108152380D01*
X165095238Y-107247619D02*
X165142857Y-107200000D01*
X165238095Y-107152380D01*
X165476190Y-107152380D01*
X165571428Y-107200000D01*
X165619047Y-107247619D01*
X165666666Y-107342857D01*
X165666666Y-107438095D01*
X165619047Y-107580952D01*
X165047619Y-108152380D01*
X165666666Y-108152380D01*
X153466666Y-102552380D02*
X153466666Y-103266666D01*
X153419047Y-103409523D01*
X153323809Y-103504761D01*
X153180952Y-103552380D01*
X153085714Y-103552380D01*
X154466666Y-103552380D02*
X153895238Y-103552380D01*
X154180952Y-103552380D02*
X154180952Y-102552380D01*
X154085714Y-102695238D01*
X153990476Y-102790476D01*
X153895238Y-102838095D01*
X131473333Y-91957142D02*
X131425714Y-92004761D01*
X131282857Y-92052380D01*
X131187619Y-92052380D01*
X131044761Y-92004761D01*
X130949523Y-91909523D01*
X130901904Y-91814285D01*
X130854285Y-91623809D01*
X130854285Y-91480952D01*
X130901904Y-91290476D01*
X130949523Y-91195238D01*
X131044761Y-91100000D01*
X131187619Y-91052380D01*
X131282857Y-91052380D01*
X131425714Y-91100000D01*
X131473333Y-91147619D01*
X132330476Y-91052380D02*
X132140000Y-91052380D01*
X132044761Y-91100000D01*
X131997142Y-91147619D01*
X131901904Y-91290476D01*
X131854285Y-91480952D01*
X131854285Y-91861904D01*
X131901904Y-91957142D01*
X131949523Y-92004761D01*
X132044761Y-92052380D01*
X132235238Y-92052380D01*
X132330476Y-92004761D01*
X132378095Y-91957142D01*
X132425714Y-91861904D01*
X132425714Y-91623809D01*
X132378095Y-91528571D01*
X132330476Y-91480952D01*
X132235238Y-91433333D01*
X132044761Y-91433333D01*
X131949523Y-91480952D01*
X131901904Y-91528571D01*
X131854285Y-91623809D01*
X123443333Y-96557142D02*
X123395714Y-96604761D01*
X123252857Y-96652380D01*
X123157619Y-96652380D01*
X123014761Y-96604761D01*
X122919523Y-96509523D01*
X122871904Y-96414285D01*
X122824285Y-96223809D01*
X122824285Y-96080952D01*
X122871904Y-95890476D01*
X122919523Y-95795238D01*
X123014761Y-95700000D01*
X123157619Y-95652380D01*
X123252857Y-95652380D01*
X123395714Y-95700000D01*
X123443333Y-95747619D01*
X124300476Y-95985714D02*
X124300476Y-96652380D01*
X124062380Y-95604761D02*
X123824285Y-96319047D01*
X124443333Y-96319047D01*
X123393333Y-91907142D02*
X123345714Y-91954761D01*
X123202857Y-92002380D01*
X123107619Y-92002380D01*
X122964761Y-91954761D01*
X122869523Y-91859523D01*
X122821904Y-91764285D01*
X122774285Y-91573809D01*
X122774285Y-91430952D01*
X122821904Y-91240476D01*
X122869523Y-91145238D01*
X122964761Y-91050000D01*
X123107619Y-91002380D01*
X123202857Y-91002380D01*
X123345714Y-91050000D01*
X123393333Y-91097619D01*
X123726666Y-91002380D02*
X124345714Y-91002380D01*
X124012380Y-91383333D01*
X124155238Y-91383333D01*
X124250476Y-91430952D01*
X124298095Y-91478571D01*
X124345714Y-91573809D01*
X124345714Y-91811904D01*
X124298095Y-91907142D01*
X124250476Y-91954761D01*
X124155238Y-92002380D01*
X123869523Y-92002380D01*
X123774285Y-91954761D01*
X123726666Y-91907142D01*
X129183333Y-101957142D02*
X129135714Y-102004761D01*
X128992857Y-102052380D01*
X128897619Y-102052380D01*
X128754761Y-102004761D01*
X128659523Y-101909523D01*
X128611904Y-101814285D01*
X128564285Y-101623809D01*
X128564285Y-101480952D01*
X128611904Y-101290476D01*
X128659523Y-101195238D01*
X128754761Y-101100000D01*
X128897619Y-101052380D01*
X128992857Y-101052380D01*
X129135714Y-101100000D01*
X129183333Y-101147619D01*
X129564285Y-101147619D02*
X129611904Y-101100000D01*
X129707142Y-101052380D01*
X129945238Y-101052380D01*
X130040476Y-101100000D01*
X130088095Y-101147619D01*
X130135714Y-101242857D01*
X130135714Y-101338095D01*
X130088095Y-101480952D01*
X129516666Y-102052380D01*
X130135714Y-102052380D01*
X111933333Y-108457142D02*
X111885714Y-108504761D01*
X111742857Y-108552380D01*
X111647619Y-108552380D01*
X111504761Y-108504761D01*
X111409523Y-108409523D01*
X111361904Y-108314285D01*
X111314285Y-108123809D01*
X111314285Y-107980952D01*
X111361904Y-107790476D01*
X111409523Y-107695238D01*
X111504761Y-107600000D01*
X111647619Y-107552380D01*
X111742857Y-107552380D01*
X111885714Y-107600000D01*
X111933333Y-107647619D01*
X112885714Y-108552380D02*
X112314285Y-108552380D01*
X112600000Y-108552380D02*
X112600000Y-107552380D01*
X112504761Y-107695238D01*
X112409523Y-107790476D01*
X112314285Y-107838095D01*
M02*
