G04 #@! TF.GenerationSoftware,KiCad,Pcbnew,(5.1.10)-1*
G04 #@! TF.CreationDate,2021-07-16T14:19:48-05:00*
G04 #@! TF.ProjectId,spimux,7370696d-7578-42e6-9b69-6361645f7063,rev?*
G04 #@! TF.SameCoordinates,Original*
G04 #@! TF.FileFunction,Copper,L2,Bot*
G04 #@! TF.FilePolarity,Positive*
%FSLAX46Y46*%
G04 Gerber Fmt 4.6, Leading zero omitted, Abs format (unit mm)*
G04 Created by KiCad (PCBNEW (5.1.10)-1) date 2021-07-16 14:19:48*
%MOMM*%
%LPD*%
G01*
G04 APERTURE LIST*
G04 #@! TA.AperFunction,EtchedComponent*
%ADD10C,0.010000*%
G04 #@! TD*
G04 #@! TA.AperFunction,ComponentPad*
%ADD11C,3.800000*%
G04 #@! TD*
G04 #@! TA.AperFunction,ComponentPad*
%ADD12O,1.700000X1.700000*%
G04 #@! TD*
G04 #@! TA.AperFunction,ComponentPad*
%ADD13R,1.700000X1.700000*%
G04 #@! TD*
G04 #@! TA.AperFunction,ViaPad*
%ADD14C,0.600000*%
G04 #@! TD*
G04 #@! TA.AperFunction,Conductor*
%ADD15C,0.150000*%
G04 #@! TD*
G04 #@! TA.AperFunction,Conductor*
%ADD16C,0.300000*%
G04 #@! TD*
G04 #@! TA.AperFunction,Conductor*
%ADD17C,0.500000*%
G04 #@! TD*
G04 #@! TA.AperFunction,Conductor*
%ADD18C,0.254000*%
G04 #@! TD*
G04 #@! TA.AperFunction,Conductor*
%ADD19C,0.100000*%
G04 #@! TD*
G04 APERTURE END LIST*
D10*
G36*
X151995485Y-97245310D02*
G01*
X151481716Y-97248253D01*
X151095440Y-97255019D01*
X150815739Y-97267127D01*
X150621693Y-97286101D01*
X150492383Y-97313460D01*
X150406890Y-97350727D01*
X150344295Y-97399423D01*
X150329333Y-97414000D01*
X150277448Y-97474085D01*
X150237383Y-97551680D01*
X150207618Y-97667706D01*
X150186630Y-97843079D01*
X150172899Y-98098721D01*
X150164903Y-98455549D01*
X150161120Y-98934484D01*
X150160030Y-99556443D01*
X150160000Y-99742333D01*
X150160643Y-100404515D01*
X150163587Y-100918284D01*
X150170352Y-101304560D01*
X150182461Y-101584261D01*
X150201434Y-101778307D01*
X150228794Y-101907617D01*
X150266061Y-101993110D01*
X150314756Y-102055705D01*
X150329333Y-102070667D01*
X150389419Y-102122552D01*
X150467014Y-102162617D01*
X150583039Y-102192382D01*
X150758413Y-102213370D01*
X151014055Y-102227101D01*
X151370883Y-102235097D01*
X151849817Y-102238880D01*
X152471776Y-102239970D01*
X152657667Y-102240000D01*
X153319848Y-102239357D01*
X153833618Y-102236413D01*
X154219893Y-102229648D01*
X154499595Y-102217539D01*
X154693641Y-102198566D01*
X154822951Y-102171206D01*
X154908444Y-102133939D01*
X154971038Y-102085244D01*
X154986000Y-102070667D01*
X155037886Y-102010581D01*
X155077950Y-101932986D01*
X155107716Y-101816961D01*
X155128703Y-101641587D01*
X155142435Y-101385945D01*
X155150431Y-101029117D01*
X155154213Y-100550183D01*
X155155303Y-99928224D01*
X155155333Y-99742333D01*
X155155161Y-99564391D01*
X154892676Y-99564391D01*
X154879350Y-100067728D01*
X154758710Y-100558021D01*
X154528494Y-101013049D01*
X154186437Y-101410592D01*
X153730277Y-101728428D01*
X153293215Y-101906892D01*
X153029786Y-101963933D01*
X152787098Y-101979007D01*
X152611558Y-101953785D01*
X152592594Y-101934250D01*
X152276667Y-101934250D01*
X152227105Y-101993263D01*
X152092150Y-101932464D01*
X151892395Y-101764105D01*
X151758768Y-101626167D01*
X151429528Y-101266333D01*
X151109955Y-101626167D01*
X150893142Y-101843318D01*
X150717384Y-101969271D01*
X150607597Y-101989451D01*
X150583333Y-101934250D01*
X150633660Y-101847365D01*
X150764952Y-101671855D01*
X150929884Y-101468583D01*
X151276435Y-101054667D01*
X150927446Y-100637837D01*
X150736330Y-100385071D01*
X150656232Y-100219579D01*
X150671195Y-100163692D01*
X150774708Y-100129149D01*
X150791449Y-100136022D01*
X150856483Y-100212409D01*
X150994922Y-100377845D01*
X151117842Y-100525562D01*
X151416719Y-100885458D01*
X151752006Y-100493206D01*
X151957389Y-100279780D01*
X152115842Y-100167212D01*
X152184418Y-100160981D01*
X152192884Y-100259812D01*
X152070356Y-100463656D01*
X151932555Y-100637837D01*
X151583565Y-101054667D01*
X151930116Y-101468583D01*
X152109417Y-101690253D01*
X152234628Y-101859410D01*
X152276667Y-101934250D01*
X152592594Y-101934250D01*
X152549574Y-101889938D01*
X152551821Y-101880205D01*
X152649795Y-101806562D01*
X152857891Y-101740652D01*
X152981971Y-101717925D01*
X153506891Y-101566417D01*
X153944611Y-101291257D01*
X154286605Y-100918739D01*
X154524348Y-100475157D01*
X154649313Y-99986806D01*
X154652977Y-99479980D01*
X154526812Y-98980974D01*
X154262295Y-98516082D01*
X154085455Y-98314545D01*
X153634772Y-97975426D01*
X153125358Y-97779956D01*
X152588642Y-97728455D01*
X152056058Y-97821240D01*
X151559037Y-98058628D01*
X151274610Y-98286124D01*
X150943455Y-98678087D01*
X150748233Y-99108827D01*
X150680257Y-99430741D01*
X150621126Y-99682284D01*
X150544010Y-99826666D01*
X150470474Y-99849280D01*
X150422084Y-99735525D01*
X150414000Y-99611045D01*
X150471861Y-99138688D01*
X150656613Y-98706268D01*
X150985013Y-98277986D01*
X151088023Y-98170874D01*
X151512990Y-97809996D01*
X151943798Y-97595023D01*
X152428738Y-97507932D01*
X152845819Y-97514836D01*
X153428837Y-97629792D01*
X153918122Y-97865031D01*
X154311413Y-98198331D01*
X154606444Y-98607472D01*
X154800953Y-99070232D01*
X154892676Y-99564391D01*
X155155161Y-99564391D01*
X155154690Y-99080152D01*
X155151747Y-98566382D01*
X155144981Y-98180107D01*
X155132873Y-97900405D01*
X155113899Y-97706359D01*
X155086540Y-97577049D01*
X155049273Y-97491556D01*
X155000577Y-97428962D01*
X154986000Y-97414000D01*
X154925915Y-97362114D01*
X154848320Y-97322050D01*
X154732294Y-97292284D01*
X154556921Y-97271297D01*
X154301279Y-97257565D01*
X153944451Y-97249569D01*
X153465516Y-97245787D01*
X152843557Y-97244697D01*
X152657667Y-97244667D01*
X151995485Y-97245310D01*
G37*
X151995485Y-97245310D02*
X151481716Y-97248253D01*
X151095440Y-97255019D01*
X150815739Y-97267127D01*
X150621693Y-97286101D01*
X150492383Y-97313460D01*
X150406890Y-97350727D01*
X150344295Y-97399423D01*
X150329333Y-97414000D01*
X150277448Y-97474085D01*
X150237383Y-97551680D01*
X150207618Y-97667706D01*
X150186630Y-97843079D01*
X150172899Y-98098721D01*
X150164903Y-98455549D01*
X150161120Y-98934484D01*
X150160030Y-99556443D01*
X150160000Y-99742333D01*
X150160643Y-100404515D01*
X150163587Y-100918284D01*
X150170352Y-101304560D01*
X150182461Y-101584261D01*
X150201434Y-101778307D01*
X150228794Y-101907617D01*
X150266061Y-101993110D01*
X150314756Y-102055705D01*
X150329333Y-102070667D01*
X150389419Y-102122552D01*
X150467014Y-102162617D01*
X150583039Y-102192382D01*
X150758413Y-102213370D01*
X151014055Y-102227101D01*
X151370883Y-102235097D01*
X151849817Y-102238880D01*
X152471776Y-102239970D01*
X152657667Y-102240000D01*
X153319848Y-102239357D01*
X153833618Y-102236413D01*
X154219893Y-102229648D01*
X154499595Y-102217539D01*
X154693641Y-102198566D01*
X154822951Y-102171206D01*
X154908444Y-102133939D01*
X154971038Y-102085244D01*
X154986000Y-102070667D01*
X155037886Y-102010581D01*
X155077950Y-101932986D01*
X155107716Y-101816961D01*
X155128703Y-101641587D01*
X155142435Y-101385945D01*
X155150431Y-101029117D01*
X155154213Y-100550183D01*
X155155303Y-99928224D01*
X155155333Y-99742333D01*
X155155161Y-99564391D01*
X154892676Y-99564391D01*
X154879350Y-100067728D01*
X154758710Y-100558021D01*
X154528494Y-101013049D01*
X154186437Y-101410592D01*
X153730277Y-101728428D01*
X153293215Y-101906892D01*
X153029786Y-101963933D01*
X152787098Y-101979007D01*
X152611558Y-101953785D01*
X152592594Y-101934250D01*
X152276667Y-101934250D01*
X152227105Y-101993263D01*
X152092150Y-101932464D01*
X151892395Y-101764105D01*
X151758768Y-101626167D01*
X151429528Y-101266333D01*
X151109955Y-101626167D01*
X150893142Y-101843318D01*
X150717384Y-101969271D01*
X150607597Y-101989451D01*
X150583333Y-101934250D01*
X150633660Y-101847365D01*
X150764952Y-101671855D01*
X150929884Y-101468583D01*
X151276435Y-101054667D01*
X150927446Y-100637837D01*
X150736330Y-100385071D01*
X150656232Y-100219579D01*
X150671195Y-100163692D01*
X150774708Y-100129149D01*
X150791449Y-100136022D01*
X150856483Y-100212409D01*
X150994922Y-100377845D01*
X151117842Y-100525562D01*
X151416719Y-100885458D01*
X151752006Y-100493206D01*
X151957389Y-100279780D01*
X152115842Y-100167212D01*
X152184418Y-100160981D01*
X152192884Y-100259812D01*
X152070356Y-100463656D01*
X151932555Y-100637837D01*
X151583565Y-101054667D01*
X151930116Y-101468583D01*
X152109417Y-101690253D01*
X152234628Y-101859410D01*
X152276667Y-101934250D01*
X152592594Y-101934250D01*
X152549574Y-101889938D01*
X152551821Y-101880205D01*
X152649795Y-101806562D01*
X152857891Y-101740652D01*
X152981971Y-101717925D01*
X153506891Y-101566417D01*
X153944611Y-101291257D01*
X154286605Y-100918739D01*
X154524348Y-100475157D01*
X154649313Y-99986806D01*
X154652977Y-99479980D01*
X154526812Y-98980974D01*
X154262295Y-98516082D01*
X154085455Y-98314545D01*
X153634772Y-97975426D01*
X153125358Y-97779956D01*
X152588642Y-97728455D01*
X152056058Y-97821240D01*
X151559037Y-98058628D01*
X151274610Y-98286124D01*
X150943455Y-98678087D01*
X150748233Y-99108827D01*
X150680257Y-99430741D01*
X150621126Y-99682284D01*
X150544010Y-99826666D01*
X150470474Y-99849280D01*
X150422084Y-99735525D01*
X150414000Y-99611045D01*
X150471861Y-99138688D01*
X150656613Y-98706268D01*
X150985013Y-98277986D01*
X151088023Y-98170874D01*
X151512990Y-97809996D01*
X151943798Y-97595023D01*
X152428738Y-97507932D01*
X152845819Y-97514836D01*
X153428837Y-97629792D01*
X153918122Y-97865031D01*
X154311413Y-98198331D01*
X154606444Y-98607472D01*
X154800953Y-99070232D01*
X154892676Y-99564391D01*
X155155161Y-99564391D01*
X155154690Y-99080152D01*
X155151747Y-98566382D01*
X155144981Y-98180107D01*
X155132873Y-97900405D01*
X155113899Y-97706359D01*
X155086540Y-97577049D01*
X155049273Y-97491556D01*
X155000577Y-97428962D01*
X154986000Y-97414000D01*
X154925915Y-97362114D01*
X154848320Y-97322050D01*
X154732294Y-97292284D01*
X154556921Y-97271297D01*
X154301279Y-97257565D01*
X153944451Y-97249569D01*
X153465516Y-97245787D01*
X152843557Y-97244697D01*
X152657667Y-97244667D01*
X151995485Y-97245310D01*
D11*
X166500000Y-100000000D03*
D12*
X137510000Y-106780000D03*
X137510000Y-104240000D03*
X140050000Y-106780000D03*
X140050000Y-104240000D03*
X142590000Y-106780000D03*
X142590000Y-104240000D03*
X145130000Y-106780000D03*
X145130000Y-104240000D03*
X147670000Y-106780000D03*
X147670000Y-104240000D03*
X150210000Y-106780000D03*
D13*
X150210000Y-104240000D03*
D12*
X156560000Y-98910000D03*
X156560000Y-96370000D03*
D13*
X156560000Y-93830000D03*
D12*
X162220000Y-98940000D03*
D13*
X162220000Y-96400000D03*
D12*
X103830000Y-106440000D03*
X106370000Y-106440000D03*
X103830000Y-103900000D03*
X106370000Y-103900000D03*
X103830000Y-101360000D03*
X106370000Y-101360000D03*
X103830000Y-98820000D03*
X106370000Y-98820000D03*
X103830000Y-96280000D03*
X106370000Y-96280000D03*
X103830000Y-93740000D03*
D13*
X106370000Y-93740000D03*
D12*
X162250000Y-106580000D03*
D13*
X162250000Y-104040000D03*
D12*
X156480000Y-106680000D03*
D13*
X156480000Y-104140000D03*
D14*
X130070000Y-91910000D03*
X113545000Y-97855000D03*
X135870000Y-96240000D03*
X113110000Y-101690000D03*
X114690000Y-99660000D03*
X116230000Y-101690000D03*
X131480000Y-103540000D03*
X131560000Y-107550000D03*
X124840000Y-107830000D03*
X119980000Y-105900000D03*
X117090000Y-91390000D03*
X117880000Y-91360000D03*
X159850000Y-107240000D03*
X163660000Y-102680000D03*
X125600000Y-91270000D03*
X138030000Y-91560000D03*
X138035001Y-92935010D03*
X127775000Y-94445000D03*
X128280000Y-91350000D03*
X119485000Y-93955000D03*
X121520000Y-99780000D03*
X121520000Y-102840000D03*
X127150000Y-104060000D03*
X129250000Y-105300000D03*
X127150000Y-106590000D03*
X125030000Y-105300000D03*
X159920000Y-104040000D03*
X120960000Y-91700000D03*
X134150000Y-97040000D03*
X133177500Y-98942500D03*
X125825000Y-100195000D03*
X134140000Y-95140000D03*
X135270000Y-91560000D03*
X123540000Y-98200000D03*
X135610000Y-93020000D03*
X122285000Y-94605000D03*
X131675000Y-94435000D03*
X123140000Y-95250000D03*
X132325000Y-95225000D03*
X119325000Y-97855000D03*
X131025000Y-97505000D03*
D15*
X125600000Y-91270000D02*
X125600000Y-90910000D01*
X125600000Y-90910000D02*
X125770000Y-90740000D01*
X128900000Y-90740000D02*
X130070000Y-91910000D01*
X125770000Y-90740000D02*
X128900000Y-90740000D01*
D16*
X124840000Y-91270000D02*
X125600000Y-91270000D01*
X124454999Y-90884999D02*
X124840000Y-91270000D01*
X118355001Y-90884999D02*
X124454999Y-90884999D01*
X117880000Y-91360000D02*
X118355001Y-90884999D01*
D15*
X163930000Y-102680000D02*
X163660000Y-102680000D01*
X166500000Y-100110000D02*
X163930000Y-102680000D01*
X138035001Y-91565001D02*
X138030000Y-91560000D01*
D17*
X138035001Y-91565001D02*
X138035001Y-92935010D01*
D15*
X156580000Y-104040000D02*
X156480000Y-104140000D01*
X159920000Y-104040000D02*
X156580000Y-104040000D01*
X138750000Y-102940000D02*
X140050000Y-104240000D01*
X134470000Y-102940000D02*
X138750000Y-102940000D01*
X134150000Y-102620000D02*
X134470000Y-102940000D01*
X134150000Y-97040000D02*
X134150000Y-102620000D01*
X156590000Y-98940000D02*
X156560000Y-98910000D01*
X162220000Y-98940000D02*
X156590000Y-98940000D01*
X125825000Y-100195000D02*
X133015000Y-100195000D01*
X133177500Y-100032500D02*
X133177500Y-98942500D01*
X133015000Y-100195000D02*
X133177500Y-100032500D01*
X135280000Y-91570000D02*
X135270000Y-91560000D01*
X133410000Y-95870000D02*
X134140000Y-95140000D01*
X131640000Y-95870000D02*
X133410000Y-95870000D01*
X129310000Y-98200000D02*
X131640000Y-95870000D01*
X123540000Y-98200000D02*
X129310000Y-98200000D01*
X135270000Y-91560000D02*
X135270000Y-92680000D01*
X135270000Y-92680000D02*
X135610000Y-93020000D01*
X135610000Y-93020000D02*
X135610000Y-93020000D01*
X131189999Y-94920001D02*
X131675000Y-94435000D01*
X123770001Y-94920001D02*
X131189999Y-94920001D01*
X123455000Y-94605000D02*
X123770001Y-94920001D01*
X122285000Y-94605000D02*
X123455000Y-94605000D01*
X132300000Y-95250000D02*
X132325000Y-95225000D01*
X123140000Y-95250000D02*
X132300000Y-95250000D01*
X130675000Y-97855000D02*
X131025000Y-97505000D01*
X129660000Y-98870000D02*
X130675000Y-97855000D01*
X120340000Y-98870000D02*
X129660000Y-98870000D01*
X119325000Y-97855000D02*
X120340000Y-98870000D01*
D18*
X139393346Y-90736876D02*
X139403000Y-94270347D01*
X139403009Y-94271530D01*
X139411460Y-94973000D01*
X134746065Y-94973000D01*
X134742905Y-94957111D01*
X134695640Y-94843004D01*
X134627023Y-94740311D01*
X134539689Y-94652977D01*
X134436996Y-94584360D01*
X134322889Y-94537095D01*
X134201754Y-94513000D01*
X134078246Y-94513000D01*
X133957111Y-94537095D01*
X133843004Y-94584360D01*
X133740311Y-94652977D01*
X133652977Y-94740311D01*
X133584360Y-94843004D01*
X133537095Y-94957111D01*
X133533935Y-94973000D01*
X132899278Y-94973000D01*
X132880640Y-94928004D01*
X132812023Y-94825311D01*
X132724689Y-94737977D01*
X132621996Y-94669360D01*
X132507889Y-94622095D01*
X132386754Y-94598000D01*
X132281861Y-94598000D01*
X132302000Y-94496754D01*
X132302000Y-94373246D01*
X132277905Y-94252111D01*
X132230640Y-94138004D01*
X132162023Y-94035311D01*
X132074689Y-93947977D01*
X131971996Y-93879360D01*
X131857889Y-93832095D01*
X131736754Y-93808000D01*
X131613246Y-93808000D01*
X131492111Y-93832095D01*
X131378004Y-93879360D01*
X131275311Y-93947977D01*
X131187977Y-94035311D01*
X131119360Y-94138004D01*
X131072095Y-94252111D01*
X131048000Y-94373246D01*
X131048000Y-94493487D01*
X131023486Y-94518001D01*
X123936515Y-94518001D01*
X123753223Y-94334710D01*
X123740632Y-94319368D01*
X123679420Y-94269132D01*
X123609583Y-94231803D01*
X123533806Y-94208817D01*
X123474747Y-94203000D01*
X123474739Y-94203000D01*
X123455000Y-94201056D01*
X123435261Y-94203000D01*
X122769712Y-94203000D01*
X122684689Y-94117977D01*
X122581996Y-94049360D01*
X122467889Y-94002095D01*
X122346754Y-93978000D01*
X122223246Y-93978000D01*
X122102111Y-94002095D01*
X121988004Y-94049360D01*
X121885311Y-94117977D01*
X121797977Y-94205311D01*
X121729360Y-94308004D01*
X121682095Y-94422111D01*
X121658000Y-94543246D01*
X121658000Y-94666754D01*
X121682095Y-94787889D01*
X121729360Y-94901996D01*
X121770546Y-94963635D01*
X121440244Y-94963000D01*
X121415463Y-94965393D01*
X121391625Y-94972574D01*
X121369646Y-94984268D01*
X121350370Y-95000025D01*
X121334539Y-95019240D01*
X121322761Y-95041174D01*
X121315488Y-95064984D01*
X121313000Y-95090000D01*
X121313000Y-98468000D01*
X120506514Y-98468000D01*
X119952000Y-97913487D01*
X119952000Y-97793246D01*
X119927905Y-97672111D01*
X119880640Y-97558004D01*
X119812023Y-97455311D01*
X119724689Y-97367977D01*
X119621996Y-97299360D01*
X119507889Y-97252095D01*
X119386754Y-97228000D01*
X119263246Y-97228000D01*
X119142111Y-97252095D01*
X119028004Y-97299360D01*
X118925311Y-97367977D01*
X118837977Y-97455311D01*
X118769360Y-97558004D01*
X118722095Y-97672111D01*
X118698000Y-97793246D01*
X118698000Y-97916754D01*
X118722095Y-98037889D01*
X118769360Y-98151996D01*
X118837977Y-98254689D01*
X118925311Y-98342023D01*
X119028004Y-98410640D01*
X119142111Y-98457905D01*
X119263246Y-98482000D01*
X119383487Y-98482000D01*
X120041781Y-99140295D01*
X120054368Y-99155632D01*
X120115580Y-99205868D01*
X120185417Y-99243197D01*
X120261194Y-99266183D01*
X120320253Y-99272000D01*
X120320260Y-99272000D01*
X120340000Y-99273944D01*
X120359739Y-99272000D01*
X122743417Y-99272000D01*
X122753000Y-103450291D01*
X122755497Y-103475062D01*
X122762779Y-103498870D01*
X122774565Y-103520799D01*
X122790404Y-103540008D01*
X122809685Y-103555758D01*
X122831668Y-103567444D01*
X122855509Y-103574616D01*
X122880215Y-103577000D01*
X128800215Y-103567000D01*
X129843000Y-103567000D01*
X129843000Y-107113000D01*
X124648160Y-107113000D01*
X124656995Y-106141154D01*
X124654780Y-106116357D01*
X124647770Y-106092468D01*
X124636234Y-106070405D01*
X124620615Y-106051018D01*
X124601514Y-106035049D01*
X124579665Y-106023114D01*
X124555908Y-106015671D01*
X124530581Y-106013001D01*
X120600384Y-105995014D01*
X120607000Y-105961754D01*
X120607000Y-105838246D01*
X120582905Y-105717111D01*
X120535640Y-105603004D01*
X120467023Y-105500311D01*
X120379689Y-105412977D01*
X120276996Y-105344360D01*
X120162889Y-105297095D01*
X120041754Y-105273000D01*
X119918246Y-105273000D01*
X119797111Y-105297095D01*
X119683004Y-105344360D01*
X119596506Y-105402156D01*
X118698943Y-104539337D01*
X116926809Y-102767203D01*
X116897126Y-94584506D01*
X118801335Y-91361999D01*
X124257420Y-91361999D01*
X124486149Y-91590729D01*
X124501079Y-91608921D01*
X124519270Y-91623850D01*
X124519272Y-91623852D01*
X124537492Y-91638805D01*
X124573711Y-91668529D01*
X124656577Y-91712822D01*
X124746492Y-91740097D01*
X124816577Y-91747000D01*
X124816585Y-91747000D01*
X124840000Y-91749306D01*
X124863415Y-91747000D01*
X125190288Y-91747000D01*
X125200311Y-91757023D01*
X125303004Y-91825640D01*
X125417111Y-91872905D01*
X125538246Y-91897000D01*
X125661754Y-91897000D01*
X125782889Y-91872905D01*
X125896996Y-91825640D01*
X125999689Y-91757023D01*
X126087023Y-91669689D01*
X126155640Y-91566996D01*
X126202905Y-91452889D01*
X126227000Y-91331754D01*
X126227000Y-91208246D01*
X126213823Y-91142000D01*
X128733487Y-91142000D01*
X129443000Y-91851514D01*
X129443000Y-91971754D01*
X129467095Y-92092889D01*
X129514360Y-92206996D01*
X129582977Y-92309689D01*
X129670311Y-92397023D01*
X129773004Y-92465640D01*
X129887111Y-92512905D01*
X130008246Y-92537000D01*
X130131754Y-92537000D01*
X130252889Y-92512905D01*
X130366996Y-92465640D01*
X130469689Y-92397023D01*
X130557023Y-92309689D01*
X130625640Y-92206996D01*
X130672905Y-92092889D01*
X130697000Y-91971754D01*
X130697000Y-91848246D01*
X130672905Y-91727111D01*
X130625640Y-91613004D01*
X130557023Y-91510311D01*
X130544958Y-91498246D01*
X134643000Y-91498246D01*
X134643000Y-91621754D01*
X134667095Y-91742889D01*
X134714360Y-91856996D01*
X134782977Y-91959689D01*
X134868000Y-92044712D01*
X134868001Y-92660251D01*
X134866056Y-92680000D01*
X134873817Y-92758805D01*
X134884973Y-92795580D01*
X134896804Y-92834583D01*
X134934133Y-92904420D01*
X134983000Y-92963964D01*
X134983000Y-93081754D01*
X135007095Y-93202889D01*
X135054360Y-93316996D01*
X135122977Y-93419689D01*
X135210311Y-93507023D01*
X135313004Y-93575640D01*
X135427111Y-93622905D01*
X135548246Y-93647000D01*
X135671754Y-93647000D01*
X135792889Y-93622905D01*
X135906996Y-93575640D01*
X136009689Y-93507023D01*
X136097023Y-93419689D01*
X136165640Y-93316996D01*
X136212905Y-93202889D01*
X136237000Y-93081754D01*
X136237000Y-92958246D01*
X136212905Y-92837111D01*
X136165640Y-92723004D01*
X136097023Y-92620311D01*
X136009689Y-92532977D01*
X135906996Y-92464360D01*
X135792889Y-92417095D01*
X135672000Y-92393049D01*
X135672000Y-92044712D01*
X135757023Y-91959689D01*
X135825640Y-91856996D01*
X135872905Y-91742889D01*
X135897000Y-91621754D01*
X135897000Y-91498246D01*
X135872905Y-91377111D01*
X135825640Y-91263004D01*
X135757023Y-91160311D01*
X135669689Y-91072977D01*
X135566996Y-91004360D01*
X135452889Y-90957095D01*
X135331754Y-90933000D01*
X135208246Y-90933000D01*
X135087111Y-90957095D01*
X134973004Y-91004360D01*
X134870311Y-91072977D01*
X134782977Y-91160311D01*
X134714360Y-91263004D01*
X134667095Y-91377111D01*
X134643000Y-91498246D01*
X130544958Y-91498246D01*
X130469689Y-91422977D01*
X130366996Y-91354360D01*
X130252889Y-91307095D01*
X130131754Y-91283000D01*
X130011514Y-91283000D01*
X129455651Y-90727138D01*
X139393346Y-90736876D01*
G04 #@! TA.AperFunction,Conductor*
D19*
G36*
X139393346Y-90736876D02*
G01*
X139403000Y-94270347D01*
X139403009Y-94271530D01*
X139411460Y-94973000D01*
X134746065Y-94973000D01*
X134742905Y-94957111D01*
X134695640Y-94843004D01*
X134627023Y-94740311D01*
X134539689Y-94652977D01*
X134436996Y-94584360D01*
X134322889Y-94537095D01*
X134201754Y-94513000D01*
X134078246Y-94513000D01*
X133957111Y-94537095D01*
X133843004Y-94584360D01*
X133740311Y-94652977D01*
X133652977Y-94740311D01*
X133584360Y-94843004D01*
X133537095Y-94957111D01*
X133533935Y-94973000D01*
X132899278Y-94973000D01*
X132880640Y-94928004D01*
X132812023Y-94825311D01*
X132724689Y-94737977D01*
X132621996Y-94669360D01*
X132507889Y-94622095D01*
X132386754Y-94598000D01*
X132281861Y-94598000D01*
X132302000Y-94496754D01*
X132302000Y-94373246D01*
X132277905Y-94252111D01*
X132230640Y-94138004D01*
X132162023Y-94035311D01*
X132074689Y-93947977D01*
X131971996Y-93879360D01*
X131857889Y-93832095D01*
X131736754Y-93808000D01*
X131613246Y-93808000D01*
X131492111Y-93832095D01*
X131378004Y-93879360D01*
X131275311Y-93947977D01*
X131187977Y-94035311D01*
X131119360Y-94138004D01*
X131072095Y-94252111D01*
X131048000Y-94373246D01*
X131048000Y-94493487D01*
X131023486Y-94518001D01*
X123936515Y-94518001D01*
X123753223Y-94334710D01*
X123740632Y-94319368D01*
X123679420Y-94269132D01*
X123609583Y-94231803D01*
X123533806Y-94208817D01*
X123474747Y-94203000D01*
X123474739Y-94203000D01*
X123455000Y-94201056D01*
X123435261Y-94203000D01*
X122769712Y-94203000D01*
X122684689Y-94117977D01*
X122581996Y-94049360D01*
X122467889Y-94002095D01*
X122346754Y-93978000D01*
X122223246Y-93978000D01*
X122102111Y-94002095D01*
X121988004Y-94049360D01*
X121885311Y-94117977D01*
X121797977Y-94205311D01*
X121729360Y-94308004D01*
X121682095Y-94422111D01*
X121658000Y-94543246D01*
X121658000Y-94666754D01*
X121682095Y-94787889D01*
X121729360Y-94901996D01*
X121770546Y-94963635D01*
X121440244Y-94963000D01*
X121415463Y-94965393D01*
X121391625Y-94972574D01*
X121369646Y-94984268D01*
X121350370Y-95000025D01*
X121334539Y-95019240D01*
X121322761Y-95041174D01*
X121315488Y-95064984D01*
X121313000Y-95090000D01*
X121313000Y-98468000D01*
X120506514Y-98468000D01*
X119952000Y-97913487D01*
X119952000Y-97793246D01*
X119927905Y-97672111D01*
X119880640Y-97558004D01*
X119812023Y-97455311D01*
X119724689Y-97367977D01*
X119621996Y-97299360D01*
X119507889Y-97252095D01*
X119386754Y-97228000D01*
X119263246Y-97228000D01*
X119142111Y-97252095D01*
X119028004Y-97299360D01*
X118925311Y-97367977D01*
X118837977Y-97455311D01*
X118769360Y-97558004D01*
X118722095Y-97672111D01*
X118698000Y-97793246D01*
X118698000Y-97916754D01*
X118722095Y-98037889D01*
X118769360Y-98151996D01*
X118837977Y-98254689D01*
X118925311Y-98342023D01*
X119028004Y-98410640D01*
X119142111Y-98457905D01*
X119263246Y-98482000D01*
X119383487Y-98482000D01*
X120041781Y-99140295D01*
X120054368Y-99155632D01*
X120115580Y-99205868D01*
X120185417Y-99243197D01*
X120261194Y-99266183D01*
X120320253Y-99272000D01*
X120320260Y-99272000D01*
X120340000Y-99273944D01*
X120359739Y-99272000D01*
X122743417Y-99272000D01*
X122753000Y-103450291D01*
X122755497Y-103475062D01*
X122762779Y-103498870D01*
X122774565Y-103520799D01*
X122790404Y-103540008D01*
X122809685Y-103555758D01*
X122831668Y-103567444D01*
X122855509Y-103574616D01*
X122880215Y-103577000D01*
X128800215Y-103567000D01*
X129843000Y-103567000D01*
X129843000Y-107113000D01*
X124648160Y-107113000D01*
X124656995Y-106141154D01*
X124654780Y-106116357D01*
X124647770Y-106092468D01*
X124636234Y-106070405D01*
X124620615Y-106051018D01*
X124601514Y-106035049D01*
X124579665Y-106023114D01*
X124555908Y-106015671D01*
X124530581Y-106013001D01*
X120600384Y-105995014D01*
X120607000Y-105961754D01*
X120607000Y-105838246D01*
X120582905Y-105717111D01*
X120535640Y-105603004D01*
X120467023Y-105500311D01*
X120379689Y-105412977D01*
X120276996Y-105344360D01*
X120162889Y-105297095D01*
X120041754Y-105273000D01*
X119918246Y-105273000D01*
X119797111Y-105297095D01*
X119683004Y-105344360D01*
X119596506Y-105402156D01*
X118698943Y-104539337D01*
X116926809Y-102767203D01*
X116897126Y-94584506D01*
X118801335Y-91361999D01*
X124257420Y-91361999D01*
X124486149Y-91590729D01*
X124501079Y-91608921D01*
X124519270Y-91623850D01*
X124519272Y-91623852D01*
X124537492Y-91638805D01*
X124573711Y-91668529D01*
X124656577Y-91712822D01*
X124746492Y-91740097D01*
X124816577Y-91747000D01*
X124816585Y-91747000D01*
X124840000Y-91749306D01*
X124863415Y-91747000D01*
X125190288Y-91747000D01*
X125200311Y-91757023D01*
X125303004Y-91825640D01*
X125417111Y-91872905D01*
X125538246Y-91897000D01*
X125661754Y-91897000D01*
X125782889Y-91872905D01*
X125896996Y-91825640D01*
X125999689Y-91757023D01*
X126087023Y-91669689D01*
X126155640Y-91566996D01*
X126202905Y-91452889D01*
X126227000Y-91331754D01*
X126227000Y-91208246D01*
X126213823Y-91142000D01*
X128733487Y-91142000D01*
X129443000Y-91851514D01*
X129443000Y-91971754D01*
X129467095Y-92092889D01*
X129514360Y-92206996D01*
X129582977Y-92309689D01*
X129670311Y-92397023D01*
X129773004Y-92465640D01*
X129887111Y-92512905D01*
X130008246Y-92537000D01*
X130131754Y-92537000D01*
X130252889Y-92512905D01*
X130366996Y-92465640D01*
X130469689Y-92397023D01*
X130557023Y-92309689D01*
X130625640Y-92206996D01*
X130672905Y-92092889D01*
X130697000Y-91971754D01*
X130697000Y-91848246D01*
X130672905Y-91727111D01*
X130625640Y-91613004D01*
X130557023Y-91510311D01*
X130544958Y-91498246D01*
X134643000Y-91498246D01*
X134643000Y-91621754D01*
X134667095Y-91742889D01*
X134714360Y-91856996D01*
X134782977Y-91959689D01*
X134868000Y-92044712D01*
X134868001Y-92660251D01*
X134866056Y-92680000D01*
X134873817Y-92758805D01*
X134884973Y-92795580D01*
X134896804Y-92834583D01*
X134934133Y-92904420D01*
X134983000Y-92963964D01*
X134983000Y-93081754D01*
X135007095Y-93202889D01*
X135054360Y-93316996D01*
X135122977Y-93419689D01*
X135210311Y-93507023D01*
X135313004Y-93575640D01*
X135427111Y-93622905D01*
X135548246Y-93647000D01*
X135671754Y-93647000D01*
X135792889Y-93622905D01*
X135906996Y-93575640D01*
X136009689Y-93507023D01*
X136097023Y-93419689D01*
X136165640Y-93316996D01*
X136212905Y-93202889D01*
X136237000Y-93081754D01*
X136237000Y-92958246D01*
X136212905Y-92837111D01*
X136165640Y-92723004D01*
X136097023Y-92620311D01*
X136009689Y-92532977D01*
X135906996Y-92464360D01*
X135792889Y-92417095D01*
X135672000Y-92393049D01*
X135672000Y-92044712D01*
X135757023Y-91959689D01*
X135825640Y-91856996D01*
X135872905Y-91742889D01*
X135897000Y-91621754D01*
X135897000Y-91498246D01*
X135872905Y-91377111D01*
X135825640Y-91263004D01*
X135757023Y-91160311D01*
X135669689Y-91072977D01*
X135566996Y-91004360D01*
X135452889Y-90957095D01*
X135331754Y-90933000D01*
X135208246Y-90933000D01*
X135087111Y-90957095D01*
X134973004Y-91004360D01*
X134870311Y-91072977D01*
X134782977Y-91160311D01*
X134714360Y-91263004D01*
X134667095Y-91377111D01*
X134643000Y-91498246D01*
X130544958Y-91498246D01*
X130469689Y-91422977D01*
X130366996Y-91354360D01*
X130252889Y-91307095D01*
X130131754Y-91283000D01*
X130011514Y-91283000D01*
X129455651Y-90727138D01*
X139393346Y-90736876D01*
G37*
G04 #@! TD.AperFunction*
D18*
X118663814Y-90702306D02*
X116488477Y-94383646D01*
X116467439Y-94425959D01*
X116449054Y-94487369D01*
X116443002Y-94551186D01*
X116473002Y-102821186D01*
X116479283Y-102883795D01*
X116497891Y-102945137D01*
X116528109Y-103001671D01*
X116568776Y-103051224D01*
X118378776Y-104861224D01*
X118383384Y-104865742D01*
X119933384Y-106355742D01*
X119977086Y-106391056D01*
X120033481Y-106421533D01*
X120094738Y-106440421D01*
X120158503Y-106446997D01*
X124200028Y-106465494D01*
X124193014Y-107237027D01*
X124199283Y-107303795D01*
X124217891Y-107365137D01*
X124248109Y-107421671D01*
X124288776Y-107471224D01*
X124338329Y-107511891D01*
X124394863Y-107542109D01*
X124456205Y-107560717D01*
X124520000Y-107567000D01*
X129970000Y-107567000D01*
X130033795Y-107560717D01*
X130095137Y-107542109D01*
X130151671Y-107511891D01*
X130201224Y-107471224D01*
X130241891Y-107421671D01*
X130272109Y-107365137D01*
X130290717Y-107303795D01*
X130297000Y-107240000D01*
X130297000Y-107136891D01*
X136068519Y-107136891D01*
X136165843Y-107411252D01*
X136314822Y-107661355D01*
X136509731Y-107877588D01*
X136743080Y-108051641D01*
X137005901Y-108176825D01*
X137153110Y-108221476D01*
X137383000Y-108100155D01*
X137383000Y-106907000D01*
X136189186Y-106907000D01*
X136068519Y-107136891D01*
X130297000Y-107136891D01*
X130297000Y-103440000D01*
X130290717Y-103376205D01*
X130272109Y-103314863D01*
X130241891Y-103258329D01*
X130201224Y-103208776D01*
X130151671Y-103168109D01*
X130095137Y-103137891D01*
X130033795Y-103119283D01*
X129970000Y-103113000D01*
X128799448Y-103113000D01*
X123206249Y-103122448D01*
X123199394Y-100133246D01*
X125198000Y-100133246D01*
X125198000Y-100256754D01*
X125222095Y-100377889D01*
X125269360Y-100491996D01*
X125337977Y-100594689D01*
X125425311Y-100682023D01*
X125528004Y-100750640D01*
X125642111Y-100797905D01*
X125763246Y-100822000D01*
X125886754Y-100822000D01*
X126007889Y-100797905D01*
X126121996Y-100750640D01*
X126224689Y-100682023D01*
X126309712Y-100597000D01*
X132995261Y-100597000D01*
X133015000Y-100598944D01*
X133034739Y-100597000D01*
X133034747Y-100597000D01*
X133093806Y-100591183D01*
X133169583Y-100568197D01*
X133239420Y-100530868D01*
X133300632Y-100480632D01*
X133313223Y-100465290D01*
X133447791Y-100330722D01*
X133463132Y-100318132D01*
X133513368Y-100256920D01*
X133540554Y-100206059D01*
X133550697Y-100187084D01*
X133573683Y-100111306D01*
X133576190Y-100085853D01*
X133579500Y-100052247D01*
X133579500Y-100052240D01*
X133581444Y-100032500D01*
X133579500Y-100012761D01*
X133579500Y-99427212D01*
X133664523Y-99342189D01*
X133733140Y-99239496D01*
X133748000Y-99203620D01*
X133748001Y-102600251D01*
X133746056Y-102620000D01*
X133753817Y-102698805D01*
X133758906Y-102715580D01*
X133776804Y-102774583D01*
X133814133Y-102844420D01*
X133827900Y-102861195D01*
X133846448Y-102883795D01*
X133864369Y-102905632D01*
X133879705Y-102918218D01*
X134171777Y-103210290D01*
X134184368Y-103225632D01*
X134245580Y-103275868D01*
X134315417Y-103313197D01*
X134391194Y-103336183D01*
X134450253Y-103342000D01*
X134450260Y-103342000D01*
X134469999Y-103343944D01*
X134489739Y-103342000D01*
X136743470Y-103342000D01*
X136595764Y-103489706D01*
X136466956Y-103682481D01*
X136378231Y-103896682D01*
X136333000Y-104124076D01*
X136333000Y-104355924D01*
X136378231Y-104583318D01*
X136466956Y-104797519D01*
X136595764Y-104990294D01*
X136759706Y-105154236D01*
X136952481Y-105283044D01*
X137114612Y-105350201D01*
X137005901Y-105383175D01*
X136743080Y-105508359D01*
X136509731Y-105682412D01*
X136314822Y-105898645D01*
X136165843Y-106148748D01*
X136068519Y-106423109D01*
X136189186Y-106653000D01*
X137383000Y-106653000D01*
X137383000Y-106633000D01*
X137637000Y-106633000D01*
X137637000Y-106653000D01*
X137657000Y-106653000D01*
X137657000Y-106907000D01*
X137637000Y-106907000D01*
X137637000Y-108100155D01*
X137866890Y-108221476D01*
X138014099Y-108176825D01*
X138276920Y-108051641D01*
X138510269Y-107877588D01*
X138705178Y-107661355D01*
X138854157Y-107411252D01*
X138938736Y-107172821D01*
X139006956Y-107337519D01*
X139135764Y-107530294D01*
X139299706Y-107694236D01*
X139492481Y-107823044D01*
X139706682Y-107911769D01*
X139934076Y-107957000D01*
X140165924Y-107957000D01*
X140393318Y-107911769D01*
X140607519Y-107823044D01*
X140800294Y-107694236D01*
X140964236Y-107530294D01*
X141093044Y-107337519D01*
X141181769Y-107123318D01*
X141227000Y-106895924D01*
X141227000Y-106664076D01*
X141413000Y-106664076D01*
X141413000Y-106895924D01*
X141458231Y-107123318D01*
X141546956Y-107337519D01*
X141675764Y-107530294D01*
X141839706Y-107694236D01*
X142032481Y-107823044D01*
X142246682Y-107911769D01*
X142474076Y-107957000D01*
X142705924Y-107957000D01*
X142933318Y-107911769D01*
X143147519Y-107823044D01*
X143340294Y-107694236D01*
X143504236Y-107530294D01*
X143633044Y-107337519D01*
X143701264Y-107172821D01*
X143785843Y-107411252D01*
X143934822Y-107661355D01*
X144129731Y-107877588D01*
X144363080Y-108051641D01*
X144625901Y-108176825D01*
X144773110Y-108221476D01*
X145003000Y-108100155D01*
X145003000Y-106907000D01*
X144983000Y-106907000D01*
X144983000Y-106653000D01*
X145003000Y-106653000D01*
X145003000Y-106633000D01*
X145257000Y-106633000D01*
X145257000Y-106653000D01*
X145277000Y-106653000D01*
X145277000Y-106907000D01*
X145257000Y-106907000D01*
X145257000Y-108100155D01*
X145486890Y-108221476D01*
X145634099Y-108176825D01*
X145896920Y-108051641D01*
X146130269Y-107877588D01*
X146325178Y-107661355D01*
X146474157Y-107411252D01*
X146558736Y-107172821D01*
X146626956Y-107337519D01*
X146755764Y-107530294D01*
X146919706Y-107694236D01*
X147112481Y-107823044D01*
X147326682Y-107911769D01*
X147554076Y-107957000D01*
X147785924Y-107957000D01*
X148013318Y-107911769D01*
X148227519Y-107823044D01*
X148420294Y-107694236D01*
X148584236Y-107530294D01*
X148713044Y-107337519D01*
X148801769Y-107123318D01*
X148847000Y-106895924D01*
X148847000Y-106664076D01*
X149033000Y-106664076D01*
X149033000Y-106895924D01*
X149078231Y-107123318D01*
X149166956Y-107337519D01*
X149295764Y-107530294D01*
X149459706Y-107694236D01*
X149652481Y-107823044D01*
X149866682Y-107911769D01*
X150094076Y-107957000D01*
X150325924Y-107957000D01*
X150553318Y-107911769D01*
X150767519Y-107823044D01*
X150960294Y-107694236D01*
X151124236Y-107530294D01*
X151253044Y-107337519D01*
X151341769Y-107123318D01*
X151387000Y-106895924D01*
X151387000Y-106664076D01*
X151367109Y-106564076D01*
X155303000Y-106564076D01*
X155303000Y-106795924D01*
X155348231Y-107023318D01*
X155436956Y-107237519D01*
X155565764Y-107430294D01*
X155729706Y-107594236D01*
X155922481Y-107723044D01*
X156136682Y-107811769D01*
X156364076Y-107857000D01*
X156595924Y-107857000D01*
X156823318Y-107811769D01*
X157037519Y-107723044D01*
X157230294Y-107594236D01*
X157394236Y-107430294D01*
X157523044Y-107237519D01*
X157611769Y-107023318D01*
X157628960Y-106936890D01*
X160808524Y-106936890D01*
X160853175Y-107084099D01*
X160978359Y-107346920D01*
X161152412Y-107580269D01*
X161368645Y-107775178D01*
X161618748Y-107924157D01*
X161893109Y-108021481D01*
X162123000Y-107900814D01*
X162123000Y-106707000D01*
X162377000Y-106707000D01*
X162377000Y-107900814D01*
X162606891Y-108021481D01*
X162881252Y-107924157D01*
X163131355Y-107775178D01*
X163347588Y-107580269D01*
X163521641Y-107346920D01*
X163646825Y-107084099D01*
X163691476Y-106936890D01*
X163570155Y-106707000D01*
X162377000Y-106707000D01*
X162123000Y-106707000D01*
X160929845Y-106707000D01*
X160808524Y-106936890D01*
X157628960Y-106936890D01*
X157657000Y-106795924D01*
X157657000Y-106564076D01*
X157611769Y-106336682D01*
X157564726Y-106223110D01*
X160808524Y-106223110D01*
X160929845Y-106453000D01*
X162123000Y-106453000D01*
X162123000Y-106433000D01*
X162377000Y-106433000D01*
X162377000Y-106453000D01*
X163570155Y-106453000D01*
X163691476Y-106223110D01*
X163646825Y-106075901D01*
X163521641Y-105813080D01*
X163347588Y-105579731D01*
X163131355Y-105384822D01*
X162881252Y-105235843D01*
X162832592Y-105218582D01*
X163100000Y-105218582D01*
X163164103Y-105212268D01*
X163225743Y-105193570D01*
X163282550Y-105163206D01*
X163332343Y-105122343D01*
X163373206Y-105072550D01*
X163403570Y-105015743D01*
X163422268Y-104954103D01*
X163428582Y-104890000D01*
X163428582Y-103190000D01*
X163422268Y-103125897D01*
X163403570Y-103064257D01*
X163373206Y-103007450D01*
X163332343Y-102957657D01*
X163282550Y-102916794D01*
X163225743Y-102886430D01*
X163164103Y-102867732D01*
X163100000Y-102861418D01*
X161400000Y-102861418D01*
X161335897Y-102867732D01*
X161274257Y-102886430D01*
X161217450Y-102916794D01*
X161167657Y-102957657D01*
X161126794Y-103007450D01*
X161096430Y-103064257D01*
X161077732Y-103125897D01*
X161071418Y-103190000D01*
X161071418Y-104890000D01*
X161077732Y-104954103D01*
X161096430Y-105015743D01*
X161126794Y-105072550D01*
X161167657Y-105122343D01*
X161217450Y-105163206D01*
X161274257Y-105193570D01*
X161335897Y-105212268D01*
X161400000Y-105218582D01*
X161667408Y-105218582D01*
X161618748Y-105235843D01*
X161368645Y-105384822D01*
X161152412Y-105579731D01*
X160978359Y-105813080D01*
X160853175Y-106075901D01*
X160808524Y-106223110D01*
X157564726Y-106223110D01*
X157523044Y-106122481D01*
X157394236Y-105929706D01*
X157230294Y-105765764D01*
X157037519Y-105636956D01*
X156823318Y-105548231D01*
X156595924Y-105503000D01*
X156364076Y-105503000D01*
X156136682Y-105548231D01*
X155922481Y-105636956D01*
X155729706Y-105765764D01*
X155565764Y-105929706D01*
X155436956Y-106122481D01*
X155348231Y-106336682D01*
X155303000Y-106564076D01*
X151367109Y-106564076D01*
X151341769Y-106436682D01*
X151253044Y-106222481D01*
X151124236Y-106029706D01*
X150960294Y-105865764D01*
X150767519Y-105736956D01*
X150553318Y-105648231D01*
X150325924Y-105603000D01*
X150094076Y-105603000D01*
X149866682Y-105648231D01*
X149652481Y-105736956D01*
X149459706Y-105865764D01*
X149295764Y-106029706D01*
X149166956Y-106222481D01*
X149078231Y-106436682D01*
X149033000Y-106664076D01*
X148847000Y-106664076D01*
X148801769Y-106436682D01*
X148713044Y-106222481D01*
X148584236Y-106029706D01*
X148420294Y-105865764D01*
X148227519Y-105736956D01*
X148013318Y-105648231D01*
X147785924Y-105603000D01*
X147554076Y-105603000D01*
X147326682Y-105648231D01*
X147112481Y-105736956D01*
X146919706Y-105865764D01*
X146755764Y-106029706D01*
X146626956Y-106222481D01*
X146558736Y-106387179D01*
X146474157Y-106148748D01*
X146325178Y-105898645D01*
X146130269Y-105682412D01*
X145896920Y-105508359D01*
X145634099Y-105383175D01*
X145525388Y-105350201D01*
X145687519Y-105283044D01*
X145880294Y-105154236D01*
X146044236Y-104990294D01*
X146173044Y-104797519D01*
X146261769Y-104583318D01*
X146307000Y-104355924D01*
X146307000Y-104124076D01*
X146493000Y-104124076D01*
X146493000Y-104355924D01*
X146538231Y-104583318D01*
X146626956Y-104797519D01*
X146755764Y-104990294D01*
X146919706Y-105154236D01*
X147112481Y-105283044D01*
X147326682Y-105371769D01*
X147554076Y-105417000D01*
X147785924Y-105417000D01*
X148013318Y-105371769D01*
X148227519Y-105283044D01*
X148420294Y-105154236D01*
X148584236Y-104990294D01*
X148713044Y-104797519D01*
X148801769Y-104583318D01*
X148847000Y-104355924D01*
X148847000Y-104124076D01*
X148801769Y-103896682D01*
X148713044Y-103682481D01*
X148584236Y-103489706D01*
X148484530Y-103390000D01*
X149031418Y-103390000D01*
X149031418Y-105090000D01*
X149037732Y-105154103D01*
X149056430Y-105215743D01*
X149086794Y-105272550D01*
X149127657Y-105322343D01*
X149177450Y-105363206D01*
X149234257Y-105393570D01*
X149295897Y-105412268D01*
X149360000Y-105418582D01*
X151060000Y-105418582D01*
X151124103Y-105412268D01*
X151185743Y-105393570D01*
X151242550Y-105363206D01*
X151292343Y-105322343D01*
X151333206Y-105272550D01*
X151363570Y-105215743D01*
X151382268Y-105154103D01*
X151388582Y-105090000D01*
X151388582Y-103390000D01*
X151382268Y-103325897D01*
X151371379Y-103290000D01*
X155301418Y-103290000D01*
X155301418Y-104990000D01*
X155307732Y-105054103D01*
X155326430Y-105115743D01*
X155356794Y-105172550D01*
X155397657Y-105222343D01*
X155447450Y-105263206D01*
X155504257Y-105293570D01*
X155565897Y-105312268D01*
X155630000Y-105318582D01*
X157330000Y-105318582D01*
X157394103Y-105312268D01*
X157455743Y-105293570D01*
X157512550Y-105263206D01*
X157562343Y-105222343D01*
X157603206Y-105172550D01*
X157633570Y-105115743D01*
X157652268Y-105054103D01*
X157658582Y-104990000D01*
X157658582Y-104442000D01*
X159435288Y-104442000D01*
X159520311Y-104527023D01*
X159623004Y-104595640D01*
X159737111Y-104642905D01*
X159858246Y-104667000D01*
X159981754Y-104667000D01*
X160102889Y-104642905D01*
X160216996Y-104595640D01*
X160319689Y-104527023D01*
X160407023Y-104439689D01*
X160475640Y-104336996D01*
X160522905Y-104222889D01*
X160547000Y-104101754D01*
X160547000Y-103978246D01*
X160522905Y-103857111D01*
X160475640Y-103743004D01*
X160407023Y-103640311D01*
X160319689Y-103552977D01*
X160216996Y-103484360D01*
X160102889Y-103437095D01*
X159981754Y-103413000D01*
X159858246Y-103413000D01*
X159737111Y-103437095D01*
X159623004Y-103484360D01*
X159520311Y-103552977D01*
X159435288Y-103638000D01*
X157658582Y-103638000D01*
X157658582Y-103290000D01*
X157652268Y-103225897D01*
X157633570Y-103164257D01*
X157603206Y-103107450D01*
X157562343Y-103057657D01*
X157512550Y-103016794D01*
X157455743Y-102986430D01*
X157394103Y-102967732D01*
X157330000Y-102961418D01*
X155630000Y-102961418D01*
X155565897Y-102967732D01*
X155504257Y-102986430D01*
X155447450Y-103016794D01*
X155397657Y-103057657D01*
X155356794Y-103107450D01*
X155326430Y-103164257D01*
X155307732Y-103225897D01*
X155301418Y-103290000D01*
X151371379Y-103290000D01*
X151363570Y-103264257D01*
X151333206Y-103207450D01*
X151292343Y-103157657D01*
X151242550Y-103116794D01*
X151185743Y-103086430D01*
X151124103Y-103067732D01*
X151060000Y-103061418D01*
X149360000Y-103061418D01*
X149295897Y-103067732D01*
X149234257Y-103086430D01*
X149177450Y-103116794D01*
X149127657Y-103157657D01*
X149086794Y-103207450D01*
X149056430Y-103264257D01*
X149037732Y-103325897D01*
X149031418Y-103390000D01*
X148484530Y-103390000D01*
X148420294Y-103325764D01*
X148227519Y-103196956D01*
X148013318Y-103108231D01*
X147785924Y-103063000D01*
X147554076Y-103063000D01*
X147326682Y-103108231D01*
X147112481Y-103196956D01*
X146919706Y-103325764D01*
X146755764Y-103489706D01*
X146626956Y-103682481D01*
X146538231Y-103896682D01*
X146493000Y-104124076D01*
X146307000Y-104124076D01*
X146261769Y-103896682D01*
X146173044Y-103682481D01*
X146044236Y-103489706D01*
X145880294Y-103325764D01*
X145687519Y-103196956D01*
X145473318Y-103108231D01*
X145245924Y-103063000D01*
X145014076Y-103063000D01*
X144786682Y-103108231D01*
X144572481Y-103196956D01*
X144379706Y-103325764D01*
X144215764Y-103489706D01*
X144086956Y-103682481D01*
X143998231Y-103896682D01*
X143953000Y-104124076D01*
X143953000Y-104355924D01*
X143998231Y-104583318D01*
X144086956Y-104797519D01*
X144215764Y-104990294D01*
X144379706Y-105154236D01*
X144572481Y-105283044D01*
X144734612Y-105350201D01*
X144625901Y-105383175D01*
X144363080Y-105508359D01*
X144129731Y-105682412D01*
X143934822Y-105898645D01*
X143785843Y-106148748D01*
X143701264Y-106387179D01*
X143633044Y-106222481D01*
X143504236Y-106029706D01*
X143340294Y-105865764D01*
X143147519Y-105736956D01*
X142933318Y-105648231D01*
X142705924Y-105603000D01*
X142474076Y-105603000D01*
X142246682Y-105648231D01*
X142032481Y-105736956D01*
X141839706Y-105865764D01*
X141675764Y-106029706D01*
X141546956Y-106222481D01*
X141458231Y-106436682D01*
X141413000Y-106664076D01*
X141227000Y-106664076D01*
X141181769Y-106436682D01*
X141093044Y-106222481D01*
X140964236Y-106029706D01*
X140800294Y-105865764D01*
X140607519Y-105736956D01*
X140393318Y-105648231D01*
X140165924Y-105603000D01*
X139934076Y-105603000D01*
X139706682Y-105648231D01*
X139492481Y-105736956D01*
X139299706Y-105865764D01*
X139135764Y-106029706D01*
X139006956Y-106222481D01*
X138938736Y-106387179D01*
X138854157Y-106148748D01*
X138705178Y-105898645D01*
X138510269Y-105682412D01*
X138276920Y-105508359D01*
X138014099Y-105383175D01*
X137905388Y-105350201D01*
X138067519Y-105283044D01*
X138260294Y-105154236D01*
X138424236Y-104990294D01*
X138553044Y-104797519D01*
X138641769Y-104583318D01*
X138687000Y-104355924D01*
X138687000Y-104124076D01*
X138641769Y-103896682D01*
X138553044Y-103682481D01*
X138424236Y-103489706D01*
X138276530Y-103342000D01*
X138583487Y-103342000D01*
X138982649Y-103741163D01*
X138918231Y-103896682D01*
X138873000Y-104124076D01*
X138873000Y-104355924D01*
X138918231Y-104583318D01*
X139006956Y-104797519D01*
X139135764Y-104990294D01*
X139299706Y-105154236D01*
X139492481Y-105283044D01*
X139706682Y-105371769D01*
X139934076Y-105417000D01*
X140165924Y-105417000D01*
X140393318Y-105371769D01*
X140607519Y-105283044D01*
X140800294Y-105154236D01*
X140964236Y-104990294D01*
X141093044Y-104797519D01*
X141181769Y-104583318D01*
X141227000Y-104355924D01*
X141227000Y-104124076D01*
X141413000Y-104124076D01*
X141413000Y-104355924D01*
X141458231Y-104583318D01*
X141546956Y-104797519D01*
X141675764Y-104990294D01*
X141839706Y-105154236D01*
X142032481Y-105283044D01*
X142246682Y-105371769D01*
X142474076Y-105417000D01*
X142705924Y-105417000D01*
X142933318Y-105371769D01*
X143147519Y-105283044D01*
X143340294Y-105154236D01*
X143504236Y-104990294D01*
X143633044Y-104797519D01*
X143721769Y-104583318D01*
X143767000Y-104355924D01*
X143767000Y-104124076D01*
X143721769Y-103896682D01*
X143633044Y-103682481D01*
X143504236Y-103489706D01*
X143340294Y-103325764D01*
X143147519Y-103196956D01*
X142933318Y-103108231D01*
X142705924Y-103063000D01*
X142474076Y-103063000D01*
X142246682Y-103108231D01*
X142032481Y-103196956D01*
X141839706Y-103325764D01*
X141675764Y-103489706D01*
X141546956Y-103682481D01*
X141458231Y-103896682D01*
X141413000Y-104124076D01*
X141227000Y-104124076D01*
X141181769Y-103896682D01*
X141093044Y-103682481D01*
X140964236Y-103489706D01*
X140800294Y-103325764D01*
X140607519Y-103196956D01*
X140393318Y-103108231D01*
X140165924Y-103063000D01*
X139934076Y-103063000D01*
X139706682Y-103108231D01*
X139551163Y-103172649D01*
X139048223Y-102669710D01*
X139035632Y-102654368D01*
X138974420Y-102604132D01*
X138904583Y-102566803D01*
X138828806Y-102543817D01*
X138769747Y-102538000D01*
X138769739Y-102538000D01*
X138750000Y-102536056D01*
X138730261Y-102538000D01*
X134636513Y-102538000D01*
X134552000Y-102453487D01*
X134552000Y-99742279D01*
X149828000Y-99742279D01*
X149828002Y-99742301D01*
X149828000Y-99742655D01*
X149828643Y-100404837D01*
X149828650Y-100404907D01*
X149828648Y-100406417D01*
X149831592Y-100920186D01*
X149831597Y-100920236D01*
X149831638Y-100924098D01*
X149838403Y-101310373D01*
X149838629Y-101312323D01*
X149838494Y-101314288D01*
X149838663Y-101318920D01*
X149850772Y-101598621D01*
X149851713Y-101605247D01*
X149851617Y-101611952D01*
X149852037Y-101616568D01*
X149871010Y-101810614D01*
X149874138Y-101826432D01*
X149875697Y-101842490D01*
X149876625Y-101847032D01*
X149903985Y-101976342D01*
X149913395Y-102006100D01*
X149922629Y-102036020D01*
X149923497Y-102038049D01*
X149923520Y-102038122D01*
X149923557Y-102038189D01*
X149924452Y-102040282D01*
X149961719Y-102125774D01*
X149965014Y-102131681D01*
X149967359Y-102138027D01*
X149980768Y-102159926D01*
X149993283Y-102182362D01*
X149997665Y-102187519D01*
X150001196Y-102193286D01*
X150004016Y-102196964D01*
X150052711Y-102259559D01*
X150063826Y-102271280D01*
X150073745Y-102284043D01*
X150076957Y-102287385D01*
X150091534Y-102302347D01*
X150100707Y-102310084D01*
X150108862Y-102318894D01*
X150112349Y-102321948D01*
X150172435Y-102373833D01*
X150176004Y-102376351D01*
X150179096Y-102379434D01*
X150202439Y-102395007D01*
X150225375Y-102411193D01*
X150229365Y-102412971D01*
X150232998Y-102415394D01*
X150237102Y-102417549D01*
X150314697Y-102457614D01*
X150317182Y-102458603D01*
X150319455Y-102460023D01*
X150347297Y-102470593D01*
X150374896Y-102481581D01*
X150377524Y-102482069D01*
X150380033Y-102483021D01*
X150384514Y-102484203D01*
X150500539Y-102513968D01*
X150519904Y-102516962D01*
X150538990Y-102521447D01*
X150543588Y-102522030D01*
X150718962Y-102543018D01*
X150727526Y-102543201D01*
X150735980Y-102544612D01*
X150740606Y-102544892D01*
X150996248Y-102558623D01*
X150999124Y-102558496D01*
X151001984Y-102558882D01*
X151006617Y-102559018D01*
X151363446Y-102567014D01*
X151363536Y-102567007D01*
X151363626Y-102567018D01*
X151368261Y-102567087D01*
X151847195Y-102570870D01*
X151847282Y-102570862D01*
X151849235Y-102570879D01*
X152471194Y-102571969D01*
X152471221Y-102571966D01*
X152471722Y-102571970D01*
X152657613Y-102572000D01*
X152657635Y-102571998D01*
X152657989Y-102572000D01*
X153320170Y-102571357D01*
X153320240Y-102571350D01*
X153321750Y-102571352D01*
X153835520Y-102568408D01*
X153835570Y-102568403D01*
X153839432Y-102568362D01*
X154225706Y-102561597D01*
X154227656Y-102561371D01*
X154229621Y-102561506D01*
X154234253Y-102561337D01*
X154513955Y-102549228D01*
X154520581Y-102548287D01*
X154527286Y-102548383D01*
X154531902Y-102547963D01*
X154725948Y-102528990D01*
X154741766Y-102525862D01*
X154757824Y-102524303D01*
X154762366Y-102523375D01*
X154891676Y-102496015D01*
X154921434Y-102486605D01*
X154951354Y-102477371D01*
X154953383Y-102476503D01*
X154953456Y-102476480D01*
X154953523Y-102476443D01*
X154955616Y-102475548D01*
X155041108Y-102438281D01*
X155047015Y-102434986D01*
X155053364Y-102432640D01*
X155075271Y-102419225D01*
X155097696Y-102406717D01*
X155102852Y-102402336D01*
X155108622Y-102398803D01*
X155112300Y-102395982D01*
X155174895Y-102347287D01*
X155186615Y-102336173D01*
X155199376Y-102326255D01*
X155202718Y-102323043D01*
X155217680Y-102308466D01*
X155225417Y-102299293D01*
X155234225Y-102291140D01*
X155237279Y-102287653D01*
X155289164Y-102227567D01*
X155291682Y-102223999D01*
X155294770Y-102220901D01*
X155310352Y-102197545D01*
X155326525Y-102174628D01*
X155328303Y-102170638D01*
X155330730Y-102166999D01*
X155332885Y-102162895D01*
X155372949Y-102085300D01*
X155373938Y-102082815D01*
X155375355Y-102080547D01*
X155385912Y-102052739D01*
X155396916Y-102025100D01*
X155397404Y-102022470D01*
X155398353Y-102019970D01*
X155399536Y-102015488D01*
X155429302Y-101899464D01*
X155432298Y-101880084D01*
X155436781Y-101861008D01*
X155437364Y-101856410D01*
X155446944Y-101776349D01*
X164903256Y-101776349D01*
X165107362Y-102132867D01*
X165550223Y-102363575D01*
X166029583Y-102503452D01*
X166527021Y-102547123D01*
X167023422Y-102492909D01*
X167499707Y-102342894D01*
X167892638Y-102132867D01*
X168096744Y-101776349D01*
X166500000Y-100179605D01*
X164903256Y-101776349D01*
X155446944Y-101776349D01*
X155458351Y-101681036D01*
X155458534Y-101672471D01*
X155459944Y-101664022D01*
X155460225Y-101659395D01*
X155473957Y-101403753D01*
X155473830Y-101400876D01*
X155474216Y-101398016D01*
X155474352Y-101393383D01*
X155482348Y-101036554D01*
X155482341Y-101036463D01*
X155482352Y-101036373D01*
X155482421Y-101031739D01*
X155486203Y-100552805D01*
X155486195Y-100552718D01*
X155486212Y-100550765D01*
X155487302Y-99928806D01*
X155487299Y-99928779D01*
X155487303Y-99928278D01*
X155487333Y-99742387D01*
X155487331Y-99742365D01*
X155487333Y-99742012D01*
X155487161Y-99564070D01*
X155487161Y-99564068D01*
X155486997Y-99395191D01*
X155516956Y-99467519D01*
X155645764Y-99660294D01*
X155809706Y-99824236D01*
X156002481Y-99953044D01*
X156216682Y-100041769D01*
X156444076Y-100087000D01*
X156675924Y-100087000D01*
X156903318Y-100041769D01*
X157117519Y-99953044D01*
X157310294Y-99824236D01*
X157474236Y-99660294D01*
X157603044Y-99467519D01*
X157655036Y-99342000D01*
X161112538Y-99342000D01*
X161176956Y-99497519D01*
X161305764Y-99690294D01*
X161469706Y-99854236D01*
X161662481Y-99983044D01*
X161876682Y-100071769D01*
X162104076Y-100117000D01*
X162335924Y-100117000D01*
X162563318Y-100071769D01*
X162671349Y-100027021D01*
X163952877Y-100027021D01*
X164007091Y-100523422D01*
X164157106Y-100999707D01*
X164367133Y-101392638D01*
X164723651Y-101596744D01*
X166320395Y-100000000D01*
X166679605Y-100000000D01*
X168276349Y-101596744D01*
X168632867Y-101392638D01*
X168863575Y-100949777D01*
X169003452Y-100470417D01*
X169047123Y-99972979D01*
X168992909Y-99476578D01*
X168842894Y-99000293D01*
X168632867Y-98607362D01*
X168276349Y-98403256D01*
X166679605Y-100000000D01*
X166320395Y-100000000D01*
X164723651Y-98403256D01*
X164367133Y-98607362D01*
X164136425Y-99050223D01*
X163996548Y-99529583D01*
X163952877Y-100027021D01*
X162671349Y-100027021D01*
X162777519Y-99983044D01*
X162970294Y-99854236D01*
X163134236Y-99690294D01*
X163263044Y-99497519D01*
X163351769Y-99283318D01*
X163397000Y-99055924D01*
X163397000Y-98824076D01*
X163351769Y-98596682D01*
X163263044Y-98382481D01*
X163156918Y-98223651D01*
X164903256Y-98223651D01*
X166500000Y-99820395D01*
X168096744Y-98223651D01*
X167892638Y-97867133D01*
X167449777Y-97636425D01*
X166970417Y-97496548D01*
X166472979Y-97452877D01*
X165976578Y-97507091D01*
X165500293Y-97657106D01*
X165107362Y-97867133D01*
X164903256Y-98223651D01*
X163156918Y-98223651D01*
X163134236Y-98189706D01*
X162970294Y-98025764D01*
X162777519Y-97896956D01*
X162563318Y-97808231D01*
X162335924Y-97763000D01*
X162104076Y-97763000D01*
X161876682Y-97808231D01*
X161662481Y-97896956D01*
X161469706Y-98025764D01*
X161305764Y-98189706D01*
X161176956Y-98382481D01*
X161112538Y-98538000D01*
X157679889Y-98538000D01*
X157603044Y-98352481D01*
X157474236Y-98159706D01*
X157310294Y-97995764D01*
X157117519Y-97866956D01*
X156903318Y-97778231D01*
X156675924Y-97733000D01*
X156444076Y-97733000D01*
X156216682Y-97778231D01*
X156002481Y-97866956D01*
X155809706Y-97995764D01*
X155645764Y-98159706D01*
X155516956Y-98352481D01*
X155481548Y-98437962D01*
X155476930Y-98174293D01*
X155476704Y-98172344D01*
X155476839Y-98170381D01*
X155476670Y-98165749D01*
X155464562Y-97886047D01*
X155463621Y-97879415D01*
X155463716Y-97872711D01*
X155463297Y-97868095D01*
X155444323Y-97674050D01*
X155441196Y-97658235D01*
X155439637Y-97642178D01*
X155438709Y-97637637D01*
X155411350Y-97508327D01*
X155401944Y-97478580D01*
X155392705Y-97448645D01*
X155391838Y-97446618D01*
X155391815Y-97446546D01*
X155391779Y-97446480D01*
X155390882Y-97444384D01*
X155353615Y-97358891D01*
X155350320Y-97352983D01*
X155347973Y-97346633D01*
X155334557Y-97324725D01*
X155322051Y-97302304D01*
X155317670Y-97297148D01*
X155314135Y-97291375D01*
X155311314Y-97287697D01*
X155262618Y-97225103D01*
X155251506Y-97213386D01*
X155241588Y-97200624D01*
X155238376Y-97197282D01*
X155223799Y-97182320D01*
X155214629Y-97174585D01*
X155206475Y-97165776D01*
X155202988Y-97162723D01*
X155142903Y-97110837D01*
X155139331Y-97108316D01*
X155136235Y-97105230D01*
X155112889Y-97089655D01*
X155089964Y-97073476D01*
X155085972Y-97071698D01*
X155082333Y-97069270D01*
X155078230Y-97067115D01*
X155000634Y-97027051D01*
X154998147Y-97026061D01*
X154995880Y-97024645D01*
X154968064Y-97014085D01*
X154940434Y-97003085D01*
X154937807Y-97002598D01*
X154935303Y-97001647D01*
X154930821Y-97000464D01*
X154814796Y-96970698D01*
X154795419Y-96967702D01*
X154776341Y-96963219D01*
X154771743Y-96962636D01*
X154596370Y-96941649D01*
X154587805Y-96941466D01*
X154579356Y-96940056D01*
X154574729Y-96939775D01*
X154319087Y-96926043D01*
X154316210Y-96926170D01*
X154313350Y-96925784D01*
X154308717Y-96925648D01*
X153951889Y-96917652D01*
X153951798Y-96917659D01*
X153951707Y-96917648D01*
X153947073Y-96917579D01*
X153468138Y-96913797D01*
X153468051Y-96913805D01*
X153466098Y-96913788D01*
X152844139Y-96912698D01*
X152844112Y-96912701D01*
X152843611Y-96912697D01*
X152657721Y-96912667D01*
X152657699Y-96912669D01*
X152657344Y-96912667D01*
X151995163Y-96913310D01*
X151995093Y-96913317D01*
X151993583Y-96913315D01*
X151479814Y-96916258D01*
X151479764Y-96916263D01*
X151475901Y-96916304D01*
X151089626Y-96923070D01*
X151087677Y-96923296D01*
X151085714Y-96923161D01*
X151081082Y-96923330D01*
X150801380Y-96935438D01*
X150794748Y-96936379D01*
X150788045Y-96936284D01*
X150783429Y-96936703D01*
X150589384Y-96955677D01*
X150573569Y-96958804D01*
X150557512Y-96960363D01*
X150552971Y-96961291D01*
X150423661Y-96988650D01*
X150393914Y-96998056D01*
X150363979Y-97007295D01*
X150361952Y-97008162D01*
X150361880Y-97008185D01*
X150361814Y-97008221D01*
X150359718Y-97009118D01*
X150274225Y-97046385D01*
X150268317Y-97049681D01*
X150261970Y-97052026D01*
X150240070Y-97065436D01*
X150217638Y-97077949D01*
X150212481Y-97082331D01*
X150206711Y-97085864D01*
X150203033Y-97088684D01*
X150140438Y-97137380D01*
X150128718Y-97148494D01*
X150115957Y-97158412D01*
X150112615Y-97161624D01*
X150097653Y-97176201D01*
X150089916Y-97185374D01*
X150081108Y-97193527D01*
X150078054Y-97197014D01*
X150026169Y-97257099D01*
X150023651Y-97260668D01*
X150020566Y-97263762D01*
X150004983Y-97287121D01*
X149988809Y-97310039D01*
X149987033Y-97314027D01*
X149984606Y-97317664D01*
X149982451Y-97321768D01*
X149942386Y-97399363D01*
X149941397Y-97401847D01*
X149939976Y-97404122D01*
X149929400Y-97431981D01*
X149918419Y-97459562D01*
X149917932Y-97462190D01*
X149916979Y-97464699D01*
X149915796Y-97469181D01*
X149886031Y-97585207D01*
X149883036Y-97604579D01*
X149878553Y-97623657D01*
X149877970Y-97628255D01*
X149856982Y-97803628D01*
X149856799Y-97812192D01*
X149855388Y-97820646D01*
X149855108Y-97825273D01*
X149841377Y-98080914D01*
X149841504Y-98083790D01*
X149841118Y-98086650D01*
X149840982Y-98091283D01*
X149832986Y-98448111D01*
X149832993Y-98448202D01*
X149832982Y-98448292D01*
X149832913Y-98452927D01*
X149829130Y-98931862D01*
X149829138Y-98931949D01*
X149829121Y-98933902D01*
X149828031Y-99555861D01*
X149828034Y-99555888D01*
X149828030Y-99556389D01*
X149828000Y-99742279D01*
X134552000Y-99742279D01*
X134552000Y-97524712D01*
X134637023Y-97439689D01*
X134705640Y-97336996D01*
X134752905Y-97222889D01*
X134777000Y-97101754D01*
X134777000Y-96978246D01*
X134752905Y-96857111D01*
X134705640Y-96743004D01*
X134637023Y-96640311D01*
X134549689Y-96552977D01*
X134446996Y-96484360D01*
X134332889Y-96437095D01*
X134211754Y-96413000D01*
X134088246Y-96413000D01*
X133967111Y-96437095D01*
X133853004Y-96484360D01*
X133750311Y-96552977D01*
X133662977Y-96640311D01*
X133594360Y-96743004D01*
X133547095Y-96857111D01*
X133523000Y-96978246D01*
X133523000Y-97101754D01*
X133547095Y-97222889D01*
X133594360Y-97336996D01*
X133662977Y-97439689D01*
X133748000Y-97524712D01*
X133748000Y-98681380D01*
X133733140Y-98645504D01*
X133664523Y-98542811D01*
X133577189Y-98455477D01*
X133474496Y-98386860D01*
X133360389Y-98339595D01*
X133239254Y-98315500D01*
X133115746Y-98315500D01*
X132994611Y-98339595D01*
X132880504Y-98386860D01*
X132777811Y-98455477D01*
X132690477Y-98542811D01*
X132621860Y-98645504D01*
X132574595Y-98759611D01*
X132550500Y-98880746D01*
X132550500Y-99004254D01*
X132574595Y-99125389D01*
X132621860Y-99239496D01*
X132690477Y-99342189D01*
X132775501Y-99427213D01*
X132775500Y-99793000D01*
X126309712Y-99793000D01*
X126224689Y-99707977D01*
X126121996Y-99639360D01*
X126007889Y-99592095D01*
X125886754Y-99568000D01*
X125763246Y-99568000D01*
X125642111Y-99592095D01*
X125528004Y-99639360D01*
X125425311Y-99707977D01*
X125337977Y-99795311D01*
X125269360Y-99898004D01*
X125222095Y-100012111D01*
X125198000Y-100133246D01*
X123199394Y-100133246D01*
X123197418Y-99272000D01*
X129640261Y-99272000D01*
X129660000Y-99273944D01*
X129679739Y-99272000D01*
X129679747Y-99272000D01*
X129738806Y-99266183D01*
X129814583Y-99243197D01*
X129884420Y-99205868D01*
X129945632Y-99155632D01*
X129958223Y-99140290D01*
X130966514Y-98132000D01*
X131086754Y-98132000D01*
X131207889Y-98107905D01*
X131321996Y-98060640D01*
X131424689Y-97992023D01*
X131512023Y-97904689D01*
X131580640Y-97801996D01*
X131627905Y-97687889D01*
X131652000Y-97566754D01*
X131652000Y-97443246D01*
X131627905Y-97322111D01*
X131580640Y-97208004D01*
X131512023Y-97105311D01*
X131424689Y-97017977D01*
X131321996Y-96949360D01*
X131207889Y-96902095D01*
X131181640Y-96896874D01*
X131806514Y-96272000D01*
X133390261Y-96272000D01*
X133410000Y-96273944D01*
X133429739Y-96272000D01*
X133429747Y-96272000D01*
X133488806Y-96266183D01*
X133528718Y-96254076D01*
X155383000Y-96254076D01*
X155383000Y-96485924D01*
X155428231Y-96713318D01*
X155516956Y-96927519D01*
X155645764Y-97120294D01*
X155809706Y-97284236D01*
X156002481Y-97413044D01*
X156216682Y-97501769D01*
X156444076Y-97547000D01*
X156675924Y-97547000D01*
X156903318Y-97501769D01*
X157117519Y-97413044D01*
X157310294Y-97284236D01*
X157474236Y-97120294D01*
X157603044Y-96927519D01*
X157691769Y-96713318D01*
X157737000Y-96485924D01*
X157737000Y-96254076D01*
X157691769Y-96026682D01*
X157603044Y-95812481D01*
X157474236Y-95619706D01*
X157404530Y-95550000D01*
X161041418Y-95550000D01*
X161041418Y-97250000D01*
X161047732Y-97314103D01*
X161066430Y-97375743D01*
X161096794Y-97432550D01*
X161137657Y-97482343D01*
X161187450Y-97523206D01*
X161244257Y-97553570D01*
X161305897Y-97572268D01*
X161370000Y-97578582D01*
X163070000Y-97578582D01*
X163134103Y-97572268D01*
X163195743Y-97553570D01*
X163252550Y-97523206D01*
X163302343Y-97482343D01*
X163343206Y-97432550D01*
X163373570Y-97375743D01*
X163392268Y-97314103D01*
X163398582Y-97250000D01*
X163398582Y-95550000D01*
X163392268Y-95485897D01*
X163373570Y-95424257D01*
X163343206Y-95367450D01*
X163302343Y-95317657D01*
X163252550Y-95276794D01*
X163195743Y-95246430D01*
X163134103Y-95227732D01*
X163070000Y-95221418D01*
X161370000Y-95221418D01*
X161305897Y-95227732D01*
X161244257Y-95246430D01*
X161187450Y-95276794D01*
X161137657Y-95317657D01*
X161096794Y-95367450D01*
X161066430Y-95424257D01*
X161047732Y-95485897D01*
X161041418Y-95550000D01*
X157404530Y-95550000D01*
X157310294Y-95455764D01*
X157117519Y-95326956D01*
X156903318Y-95238231D01*
X156675924Y-95193000D01*
X156444076Y-95193000D01*
X156216682Y-95238231D01*
X156002481Y-95326956D01*
X155809706Y-95455764D01*
X155645764Y-95619706D01*
X155516956Y-95812481D01*
X155428231Y-96026682D01*
X155383000Y-96254076D01*
X133528718Y-96254076D01*
X133564583Y-96243197D01*
X133634420Y-96205868D01*
X133695632Y-96155632D01*
X133708223Y-96140290D01*
X134081514Y-95767000D01*
X134201754Y-95767000D01*
X134322889Y-95742905D01*
X134436996Y-95695640D01*
X134539689Y-95627023D01*
X134627023Y-95539689D01*
X134695640Y-95436996D01*
X134699781Y-95427000D01*
X139540000Y-95427000D01*
X139607654Y-95419925D01*
X139668768Y-95400579D01*
X139724934Y-95369682D01*
X139773993Y-95328422D01*
X139814059Y-95278383D01*
X139843594Y-95221489D01*
X139861462Y-95159926D01*
X139866976Y-95096061D01*
X139856995Y-94267637D01*
X139853477Y-92980000D01*
X155381418Y-92980000D01*
X155381418Y-94680000D01*
X155387732Y-94744103D01*
X155406430Y-94805743D01*
X155436794Y-94862550D01*
X155477657Y-94912343D01*
X155527450Y-94953206D01*
X155584257Y-94983570D01*
X155645897Y-95002268D01*
X155710000Y-95008582D01*
X157410000Y-95008582D01*
X157474103Y-95002268D01*
X157535743Y-94983570D01*
X157592550Y-94953206D01*
X157642343Y-94912343D01*
X157683206Y-94862550D01*
X157713570Y-94805743D01*
X157732268Y-94744103D01*
X157738582Y-94680000D01*
X157738582Y-92980000D01*
X157732268Y-92915897D01*
X157713570Y-92854257D01*
X157683206Y-92797450D01*
X157642343Y-92747657D01*
X157592550Y-92706794D01*
X157535743Y-92676430D01*
X157474103Y-92657732D01*
X157410000Y-92651418D01*
X155710000Y-92651418D01*
X155645897Y-92657732D01*
X155584257Y-92676430D01*
X155527450Y-92706794D01*
X155477657Y-92747657D01*
X155436794Y-92797450D01*
X155406430Y-92854257D01*
X155387732Y-92915897D01*
X155381418Y-92980000D01*
X139853477Y-92980000D01*
X139847270Y-90708453D01*
X169173069Y-90716963D01*
X169182931Y-108973037D01*
X100526863Y-108992963D01*
X100521752Y-104256890D01*
X102388524Y-104256890D01*
X102433175Y-104404099D01*
X102558359Y-104666920D01*
X102732412Y-104900269D01*
X102948645Y-105095178D01*
X103198748Y-105244157D01*
X103437179Y-105328736D01*
X103272481Y-105396956D01*
X103079706Y-105525764D01*
X102915764Y-105689706D01*
X102786956Y-105882481D01*
X102698231Y-106096682D01*
X102653000Y-106324076D01*
X102653000Y-106555924D01*
X102698231Y-106783318D01*
X102786956Y-106997519D01*
X102915764Y-107190294D01*
X103079706Y-107354236D01*
X103272481Y-107483044D01*
X103486682Y-107571769D01*
X103714076Y-107617000D01*
X103945924Y-107617000D01*
X104173318Y-107571769D01*
X104387519Y-107483044D01*
X104580294Y-107354236D01*
X104744236Y-107190294D01*
X104873044Y-106997519D01*
X104961769Y-106783318D01*
X105007000Y-106555924D01*
X105007000Y-106324076D01*
X104961769Y-106096682D01*
X104873044Y-105882481D01*
X104744236Y-105689706D01*
X104580294Y-105525764D01*
X104387519Y-105396956D01*
X104222821Y-105328736D01*
X104461252Y-105244157D01*
X104711355Y-105095178D01*
X104927588Y-104900269D01*
X105100000Y-104669120D01*
X105272412Y-104900269D01*
X105488645Y-105095178D01*
X105738748Y-105244157D01*
X105977179Y-105328736D01*
X105812481Y-105396956D01*
X105619706Y-105525764D01*
X105455764Y-105689706D01*
X105326956Y-105882481D01*
X105238231Y-106096682D01*
X105193000Y-106324076D01*
X105193000Y-106555924D01*
X105238231Y-106783318D01*
X105326956Y-106997519D01*
X105455764Y-107190294D01*
X105619706Y-107354236D01*
X105812481Y-107483044D01*
X106026682Y-107571769D01*
X106254076Y-107617000D01*
X106485924Y-107617000D01*
X106713318Y-107571769D01*
X106927519Y-107483044D01*
X107120294Y-107354236D01*
X107284236Y-107190294D01*
X107413044Y-106997519D01*
X107501769Y-106783318D01*
X107547000Y-106555924D01*
X107547000Y-106324076D01*
X107501769Y-106096682D01*
X107413044Y-105882481D01*
X107284236Y-105689706D01*
X107120294Y-105525764D01*
X106927519Y-105396956D01*
X106762821Y-105328736D01*
X107001252Y-105244157D01*
X107251355Y-105095178D01*
X107467588Y-104900269D01*
X107641641Y-104666920D01*
X107766825Y-104404099D01*
X107811476Y-104256890D01*
X107690155Y-104027000D01*
X106497000Y-104027000D01*
X106497000Y-104047000D01*
X106243000Y-104047000D01*
X106243000Y-104027000D01*
X103957000Y-104027000D01*
X103957000Y-104047000D01*
X103703000Y-104047000D01*
X103703000Y-104027000D01*
X102509845Y-104027000D01*
X102388524Y-104256890D01*
X100521752Y-104256890D01*
X100520982Y-103543110D01*
X102388524Y-103543110D01*
X102509845Y-103773000D01*
X103703000Y-103773000D01*
X103703000Y-103753000D01*
X103957000Y-103753000D01*
X103957000Y-103773000D01*
X106243000Y-103773000D01*
X106243000Y-103753000D01*
X106497000Y-103753000D01*
X106497000Y-103773000D01*
X107690155Y-103773000D01*
X107811476Y-103543110D01*
X107766825Y-103395901D01*
X107641641Y-103133080D01*
X107467588Y-102899731D01*
X107251355Y-102704822D01*
X107001252Y-102555843D01*
X106762821Y-102471264D01*
X106927519Y-102403044D01*
X107120294Y-102274236D01*
X107284236Y-102110294D01*
X107413044Y-101917519D01*
X107501769Y-101703318D01*
X107547000Y-101475924D01*
X107547000Y-101244076D01*
X107501769Y-101016682D01*
X107413044Y-100802481D01*
X107284236Y-100609706D01*
X107120294Y-100445764D01*
X106927519Y-100316956D01*
X106713318Y-100228231D01*
X106485924Y-100183000D01*
X106254076Y-100183000D01*
X106026682Y-100228231D01*
X105812481Y-100316956D01*
X105619706Y-100445764D01*
X105455764Y-100609706D01*
X105326956Y-100802481D01*
X105238231Y-101016682D01*
X105193000Y-101244076D01*
X105193000Y-101475924D01*
X105238231Y-101703318D01*
X105326956Y-101917519D01*
X105455764Y-102110294D01*
X105619706Y-102274236D01*
X105812481Y-102403044D01*
X105977179Y-102471264D01*
X105738748Y-102555843D01*
X105488645Y-102704822D01*
X105272412Y-102899731D01*
X105100000Y-103130880D01*
X104927588Y-102899731D01*
X104711355Y-102704822D01*
X104461252Y-102555843D01*
X104222821Y-102471264D01*
X104387519Y-102403044D01*
X104580294Y-102274236D01*
X104744236Y-102110294D01*
X104873044Y-101917519D01*
X104961769Y-101703318D01*
X105007000Y-101475924D01*
X105007000Y-101244076D01*
X104961769Y-101016682D01*
X104873044Y-100802481D01*
X104744236Y-100609706D01*
X104580294Y-100445764D01*
X104387519Y-100316956D01*
X104173318Y-100228231D01*
X103945924Y-100183000D01*
X103714076Y-100183000D01*
X103486682Y-100228231D01*
X103272481Y-100316956D01*
X103079706Y-100445764D01*
X102915764Y-100609706D01*
X102786956Y-100802481D01*
X102698231Y-101016682D01*
X102653000Y-101244076D01*
X102653000Y-101475924D01*
X102698231Y-101703318D01*
X102786956Y-101917519D01*
X102915764Y-102110294D01*
X103079706Y-102274236D01*
X103272481Y-102403044D01*
X103437179Y-102471264D01*
X103198748Y-102555843D01*
X102948645Y-102704822D01*
X102732412Y-102899731D01*
X102558359Y-103133080D01*
X102433175Y-103395901D01*
X102388524Y-103543110D01*
X100520982Y-103543110D01*
X100515759Y-98704076D01*
X102653000Y-98704076D01*
X102653000Y-98935924D01*
X102698231Y-99163318D01*
X102786956Y-99377519D01*
X102915764Y-99570294D01*
X103079706Y-99734236D01*
X103272481Y-99863044D01*
X103486682Y-99951769D01*
X103714076Y-99997000D01*
X103945924Y-99997000D01*
X104173318Y-99951769D01*
X104387519Y-99863044D01*
X104580294Y-99734236D01*
X104744236Y-99570294D01*
X104873044Y-99377519D01*
X104961769Y-99163318D01*
X105007000Y-98935924D01*
X105007000Y-98704076D01*
X105193000Y-98704076D01*
X105193000Y-98935924D01*
X105238231Y-99163318D01*
X105326956Y-99377519D01*
X105455764Y-99570294D01*
X105619706Y-99734236D01*
X105812481Y-99863044D01*
X106026682Y-99951769D01*
X106254076Y-99997000D01*
X106485924Y-99997000D01*
X106713318Y-99951769D01*
X106927519Y-99863044D01*
X107120294Y-99734236D01*
X107284236Y-99570294D01*
X107413044Y-99377519D01*
X107501769Y-99163318D01*
X107547000Y-98935924D01*
X107547000Y-98704076D01*
X107501769Y-98476682D01*
X107413044Y-98262481D01*
X107284236Y-98069706D01*
X107120294Y-97905764D01*
X106927519Y-97776956D01*
X106713318Y-97688231D01*
X106485924Y-97643000D01*
X106254076Y-97643000D01*
X106026682Y-97688231D01*
X105812481Y-97776956D01*
X105619706Y-97905764D01*
X105455764Y-98069706D01*
X105326956Y-98262481D01*
X105238231Y-98476682D01*
X105193000Y-98704076D01*
X105007000Y-98704076D01*
X104961769Y-98476682D01*
X104873044Y-98262481D01*
X104744236Y-98069706D01*
X104580294Y-97905764D01*
X104387519Y-97776956D01*
X104173318Y-97688231D01*
X103945924Y-97643000D01*
X103714076Y-97643000D01*
X103486682Y-97688231D01*
X103272481Y-97776956D01*
X103079706Y-97905764D01*
X102915764Y-98069706D01*
X102786956Y-98262481D01*
X102698231Y-98476682D01*
X102653000Y-98704076D01*
X100515759Y-98704076D01*
X100513018Y-96164076D01*
X102653000Y-96164076D01*
X102653000Y-96395924D01*
X102698231Y-96623318D01*
X102786956Y-96837519D01*
X102915764Y-97030294D01*
X103079706Y-97194236D01*
X103272481Y-97323044D01*
X103486682Y-97411769D01*
X103714076Y-97457000D01*
X103945924Y-97457000D01*
X104173318Y-97411769D01*
X104387519Y-97323044D01*
X104580294Y-97194236D01*
X104744236Y-97030294D01*
X104873044Y-96837519D01*
X104961769Y-96623318D01*
X105007000Y-96395924D01*
X105007000Y-96164076D01*
X105193000Y-96164076D01*
X105193000Y-96395924D01*
X105238231Y-96623318D01*
X105326956Y-96837519D01*
X105455764Y-97030294D01*
X105619706Y-97194236D01*
X105812481Y-97323044D01*
X106026682Y-97411769D01*
X106254076Y-97457000D01*
X106485924Y-97457000D01*
X106713318Y-97411769D01*
X106927519Y-97323044D01*
X107120294Y-97194236D01*
X107284236Y-97030294D01*
X107413044Y-96837519D01*
X107501769Y-96623318D01*
X107547000Y-96395924D01*
X107547000Y-96164076D01*
X107501769Y-95936682D01*
X107413044Y-95722481D01*
X107284236Y-95529706D01*
X107120294Y-95365764D01*
X106927519Y-95236956D01*
X106713318Y-95148231D01*
X106485924Y-95103000D01*
X106254076Y-95103000D01*
X106026682Y-95148231D01*
X105812481Y-95236956D01*
X105619706Y-95365764D01*
X105455764Y-95529706D01*
X105326956Y-95722481D01*
X105238231Y-95936682D01*
X105193000Y-96164076D01*
X105007000Y-96164076D01*
X104961769Y-95936682D01*
X104873044Y-95722481D01*
X104744236Y-95529706D01*
X104580294Y-95365764D01*
X104387519Y-95236956D01*
X104173318Y-95148231D01*
X103945924Y-95103000D01*
X103714076Y-95103000D01*
X103486682Y-95148231D01*
X103272481Y-95236956D01*
X103079706Y-95365764D01*
X102915764Y-95529706D01*
X102786956Y-95722481D01*
X102698231Y-95936682D01*
X102653000Y-96164076D01*
X100513018Y-96164076D01*
X100510276Y-93624076D01*
X102653000Y-93624076D01*
X102653000Y-93855924D01*
X102698231Y-94083318D01*
X102786956Y-94297519D01*
X102915764Y-94490294D01*
X103079706Y-94654236D01*
X103272481Y-94783044D01*
X103486682Y-94871769D01*
X103714076Y-94917000D01*
X103945924Y-94917000D01*
X104173318Y-94871769D01*
X104387519Y-94783044D01*
X104580294Y-94654236D01*
X104744236Y-94490294D01*
X104873044Y-94297519D01*
X104961769Y-94083318D01*
X105007000Y-93855924D01*
X105007000Y-93624076D01*
X104961769Y-93396682D01*
X104873044Y-93182481D01*
X104744236Y-92989706D01*
X104644530Y-92890000D01*
X105191418Y-92890000D01*
X105191418Y-94590000D01*
X105197732Y-94654103D01*
X105216430Y-94715743D01*
X105246794Y-94772550D01*
X105287657Y-94822343D01*
X105337450Y-94863206D01*
X105394257Y-94893570D01*
X105455897Y-94912268D01*
X105520000Y-94918582D01*
X107220000Y-94918582D01*
X107284103Y-94912268D01*
X107345743Y-94893570D01*
X107402550Y-94863206D01*
X107452343Y-94822343D01*
X107493206Y-94772550D01*
X107523570Y-94715743D01*
X107542268Y-94654103D01*
X107548582Y-94590000D01*
X107548582Y-92890000D01*
X107542268Y-92825897D01*
X107523570Y-92764257D01*
X107493206Y-92707450D01*
X107452343Y-92657657D01*
X107402550Y-92616794D01*
X107345743Y-92586430D01*
X107284103Y-92567732D01*
X107220000Y-92561418D01*
X105520000Y-92561418D01*
X105455897Y-92567732D01*
X105394257Y-92586430D01*
X105337450Y-92616794D01*
X105287657Y-92657657D01*
X105246794Y-92707450D01*
X105216430Y-92764257D01*
X105197732Y-92825897D01*
X105191418Y-92890000D01*
X104644530Y-92890000D01*
X104580294Y-92825764D01*
X104387519Y-92696956D01*
X104173318Y-92608231D01*
X103945924Y-92563000D01*
X103714076Y-92563000D01*
X103486682Y-92608231D01*
X103272481Y-92696956D01*
X103079706Y-92825764D01*
X102915764Y-92989706D01*
X102786956Y-93182481D01*
X102698231Y-93396682D01*
X102653000Y-93624076D01*
X100510276Y-93624076D01*
X100507116Y-90697037D01*
X118663814Y-90702306D01*
G04 #@! TA.AperFunction,Conductor*
D19*
G36*
X118663814Y-90702306D02*
G01*
X116488477Y-94383646D01*
X116467439Y-94425959D01*
X116449054Y-94487369D01*
X116443002Y-94551186D01*
X116473002Y-102821186D01*
X116479283Y-102883795D01*
X116497891Y-102945137D01*
X116528109Y-103001671D01*
X116568776Y-103051224D01*
X118378776Y-104861224D01*
X118383384Y-104865742D01*
X119933384Y-106355742D01*
X119977086Y-106391056D01*
X120033481Y-106421533D01*
X120094738Y-106440421D01*
X120158503Y-106446997D01*
X124200028Y-106465494D01*
X124193014Y-107237027D01*
X124199283Y-107303795D01*
X124217891Y-107365137D01*
X124248109Y-107421671D01*
X124288776Y-107471224D01*
X124338329Y-107511891D01*
X124394863Y-107542109D01*
X124456205Y-107560717D01*
X124520000Y-107567000D01*
X129970000Y-107567000D01*
X130033795Y-107560717D01*
X130095137Y-107542109D01*
X130151671Y-107511891D01*
X130201224Y-107471224D01*
X130241891Y-107421671D01*
X130272109Y-107365137D01*
X130290717Y-107303795D01*
X130297000Y-107240000D01*
X130297000Y-107136891D01*
X136068519Y-107136891D01*
X136165843Y-107411252D01*
X136314822Y-107661355D01*
X136509731Y-107877588D01*
X136743080Y-108051641D01*
X137005901Y-108176825D01*
X137153110Y-108221476D01*
X137383000Y-108100155D01*
X137383000Y-106907000D01*
X136189186Y-106907000D01*
X136068519Y-107136891D01*
X130297000Y-107136891D01*
X130297000Y-103440000D01*
X130290717Y-103376205D01*
X130272109Y-103314863D01*
X130241891Y-103258329D01*
X130201224Y-103208776D01*
X130151671Y-103168109D01*
X130095137Y-103137891D01*
X130033795Y-103119283D01*
X129970000Y-103113000D01*
X128799448Y-103113000D01*
X123206249Y-103122448D01*
X123199394Y-100133246D01*
X125198000Y-100133246D01*
X125198000Y-100256754D01*
X125222095Y-100377889D01*
X125269360Y-100491996D01*
X125337977Y-100594689D01*
X125425311Y-100682023D01*
X125528004Y-100750640D01*
X125642111Y-100797905D01*
X125763246Y-100822000D01*
X125886754Y-100822000D01*
X126007889Y-100797905D01*
X126121996Y-100750640D01*
X126224689Y-100682023D01*
X126309712Y-100597000D01*
X132995261Y-100597000D01*
X133015000Y-100598944D01*
X133034739Y-100597000D01*
X133034747Y-100597000D01*
X133093806Y-100591183D01*
X133169583Y-100568197D01*
X133239420Y-100530868D01*
X133300632Y-100480632D01*
X133313223Y-100465290D01*
X133447791Y-100330722D01*
X133463132Y-100318132D01*
X133513368Y-100256920D01*
X133540554Y-100206059D01*
X133550697Y-100187084D01*
X133573683Y-100111306D01*
X133576190Y-100085853D01*
X133579500Y-100052247D01*
X133579500Y-100052240D01*
X133581444Y-100032500D01*
X133579500Y-100012761D01*
X133579500Y-99427212D01*
X133664523Y-99342189D01*
X133733140Y-99239496D01*
X133748000Y-99203620D01*
X133748001Y-102600251D01*
X133746056Y-102620000D01*
X133753817Y-102698805D01*
X133758906Y-102715580D01*
X133776804Y-102774583D01*
X133814133Y-102844420D01*
X133827900Y-102861195D01*
X133846448Y-102883795D01*
X133864369Y-102905632D01*
X133879705Y-102918218D01*
X134171777Y-103210290D01*
X134184368Y-103225632D01*
X134245580Y-103275868D01*
X134315417Y-103313197D01*
X134391194Y-103336183D01*
X134450253Y-103342000D01*
X134450260Y-103342000D01*
X134469999Y-103343944D01*
X134489739Y-103342000D01*
X136743470Y-103342000D01*
X136595764Y-103489706D01*
X136466956Y-103682481D01*
X136378231Y-103896682D01*
X136333000Y-104124076D01*
X136333000Y-104355924D01*
X136378231Y-104583318D01*
X136466956Y-104797519D01*
X136595764Y-104990294D01*
X136759706Y-105154236D01*
X136952481Y-105283044D01*
X137114612Y-105350201D01*
X137005901Y-105383175D01*
X136743080Y-105508359D01*
X136509731Y-105682412D01*
X136314822Y-105898645D01*
X136165843Y-106148748D01*
X136068519Y-106423109D01*
X136189186Y-106653000D01*
X137383000Y-106653000D01*
X137383000Y-106633000D01*
X137637000Y-106633000D01*
X137637000Y-106653000D01*
X137657000Y-106653000D01*
X137657000Y-106907000D01*
X137637000Y-106907000D01*
X137637000Y-108100155D01*
X137866890Y-108221476D01*
X138014099Y-108176825D01*
X138276920Y-108051641D01*
X138510269Y-107877588D01*
X138705178Y-107661355D01*
X138854157Y-107411252D01*
X138938736Y-107172821D01*
X139006956Y-107337519D01*
X139135764Y-107530294D01*
X139299706Y-107694236D01*
X139492481Y-107823044D01*
X139706682Y-107911769D01*
X139934076Y-107957000D01*
X140165924Y-107957000D01*
X140393318Y-107911769D01*
X140607519Y-107823044D01*
X140800294Y-107694236D01*
X140964236Y-107530294D01*
X141093044Y-107337519D01*
X141181769Y-107123318D01*
X141227000Y-106895924D01*
X141227000Y-106664076D01*
X141413000Y-106664076D01*
X141413000Y-106895924D01*
X141458231Y-107123318D01*
X141546956Y-107337519D01*
X141675764Y-107530294D01*
X141839706Y-107694236D01*
X142032481Y-107823044D01*
X142246682Y-107911769D01*
X142474076Y-107957000D01*
X142705924Y-107957000D01*
X142933318Y-107911769D01*
X143147519Y-107823044D01*
X143340294Y-107694236D01*
X143504236Y-107530294D01*
X143633044Y-107337519D01*
X143701264Y-107172821D01*
X143785843Y-107411252D01*
X143934822Y-107661355D01*
X144129731Y-107877588D01*
X144363080Y-108051641D01*
X144625901Y-108176825D01*
X144773110Y-108221476D01*
X145003000Y-108100155D01*
X145003000Y-106907000D01*
X144983000Y-106907000D01*
X144983000Y-106653000D01*
X145003000Y-106653000D01*
X145003000Y-106633000D01*
X145257000Y-106633000D01*
X145257000Y-106653000D01*
X145277000Y-106653000D01*
X145277000Y-106907000D01*
X145257000Y-106907000D01*
X145257000Y-108100155D01*
X145486890Y-108221476D01*
X145634099Y-108176825D01*
X145896920Y-108051641D01*
X146130269Y-107877588D01*
X146325178Y-107661355D01*
X146474157Y-107411252D01*
X146558736Y-107172821D01*
X146626956Y-107337519D01*
X146755764Y-107530294D01*
X146919706Y-107694236D01*
X147112481Y-107823044D01*
X147326682Y-107911769D01*
X147554076Y-107957000D01*
X147785924Y-107957000D01*
X148013318Y-107911769D01*
X148227519Y-107823044D01*
X148420294Y-107694236D01*
X148584236Y-107530294D01*
X148713044Y-107337519D01*
X148801769Y-107123318D01*
X148847000Y-106895924D01*
X148847000Y-106664076D01*
X149033000Y-106664076D01*
X149033000Y-106895924D01*
X149078231Y-107123318D01*
X149166956Y-107337519D01*
X149295764Y-107530294D01*
X149459706Y-107694236D01*
X149652481Y-107823044D01*
X149866682Y-107911769D01*
X150094076Y-107957000D01*
X150325924Y-107957000D01*
X150553318Y-107911769D01*
X150767519Y-107823044D01*
X150960294Y-107694236D01*
X151124236Y-107530294D01*
X151253044Y-107337519D01*
X151341769Y-107123318D01*
X151387000Y-106895924D01*
X151387000Y-106664076D01*
X151367109Y-106564076D01*
X155303000Y-106564076D01*
X155303000Y-106795924D01*
X155348231Y-107023318D01*
X155436956Y-107237519D01*
X155565764Y-107430294D01*
X155729706Y-107594236D01*
X155922481Y-107723044D01*
X156136682Y-107811769D01*
X156364076Y-107857000D01*
X156595924Y-107857000D01*
X156823318Y-107811769D01*
X157037519Y-107723044D01*
X157230294Y-107594236D01*
X157394236Y-107430294D01*
X157523044Y-107237519D01*
X157611769Y-107023318D01*
X157628960Y-106936890D01*
X160808524Y-106936890D01*
X160853175Y-107084099D01*
X160978359Y-107346920D01*
X161152412Y-107580269D01*
X161368645Y-107775178D01*
X161618748Y-107924157D01*
X161893109Y-108021481D01*
X162123000Y-107900814D01*
X162123000Y-106707000D01*
X162377000Y-106707000D01*
X162377000Y-107900814D01*
X162606891Y-108021481D01*
X162881252Y-107924157D01*
X163131355Y-107775178D01*
X163347588Y-107580269D01*
X163521641Y-107346920D01*
X163646825Y-107084099D01*
X163691476Y-106936890D01*
X163570155Y-106707000D01*
X162377000Y-106707000D01*
X162123000Y-106707000D01*
X160929845Y-106707000D01*
X160808524Y-106936890D01*
X157628960Y-106936890D01*
X157657000Y-106795924D01*
X157657000Y-106564076D01*
X157611769Y-106336682D01*
X157564726Y-106223110D01*
X160808524Y-106223110D01*
X160929845Y-106453000D01*
X162123000Y-106453000D01*
X162123000Y-106433000D01*
X162377000Y-106433000D01*
X162377000Y-106453000D01*
X163570155Y-106453000D01*
X163691476Y-106223110D01*
X163646825Y-106075901D01*
X163521641Y-105813080D01*
X163347588Y-105579731D01*
X163131355Y-105384822D01*
X162881252Y-105235843D01*
X162832592Y-105218582D01*
X163100000Y-105218582D01*
X163164103Y-105212268D01*
X163225743Y-105193570D01*
X163282550Y-105163206D01*
X163332343Y-105122343D01*
X163373206Y-105072550D01*
X163403570Y-105015743D01*
X163422268Y-104954103D01*
X163428582Y-104890000D01*
X163428582Y-103190000D01*
X163422268Y-103125897D01*
X163403570Y-103064257D01*
X163373206Y-103007450D01*
X163332343Y-102957657D01*
X163282550Y-102916794D01*
X163225743Y-102886430D01*
X163164103Y-102867732D01*
X163100000Y-102861418D01*
X161400000Y-102861418D01*
X161335897Y-102867732D01*
X161274257Y-102886430D01*
X161217450Y-102916794D01*
X161167657Y-102957657D01*
X161126794Y-103007450D01*
X161096430Y-103064257D01*
X161077732Y-103125897D01*
X161071418Y-103190000D01*
X161071418Y-104890000D01*
X161077732Y-104954103D01*
X161096430Y-105015743D01*
X161126794Y-105072550D01*
X161167657Y-105122343D01*
X161217450Y-105163206D01*
X161274257Y-105193570D01*
X161335897Y-105212268D01*
X161400000Y-105218582D01*
X161667408Y-105218582D01*
X161618748Y-105235843D01*
X161368645Y-105384822D01*
X161152412Y-105579731D01*
X160978359Y-105813080D01*
X160853175Y-106075901D01*
X160808524Y-106223110D01*
X157564726Y-106223110D01*
X157523044Y-106122481D01*
X157394236Y-105929706D01*
X157230294Y-105765764D01*
X157037519Y-105636956D01*
X156823318Y-105548231D01*
X156595924Y-105503000D01*
X156364076Y-105503000D01*
X156136682Y-105548231D01*
X155922481Y-105636956D01*
X155729706Y-105765764D01*
X155565764Y-105929706D01*
X155436956Y-106122481D01*
X155348231Y-106336682D01*
X155303000Y-106564076D01*
X151367109Y-106564076D01*
X151341769Y-106436682D01*
X151253044Y-106222481D01*
X151124236Y-106029706D01*
X150960294Y-105865764D01*
X150767519Y-105736956D01*
X150553318Y-105648231D01*
X150325924Y-105603000D01*
X150094076Y-105603000D01*
X149866682Y-105648231D01*
X149652481Y-105736956D01*
X149459706Y-105865764D01*
X149295764Y-106029706D01*
X149166956Y-106222481D01*
X149078231Y-106436682D01*
X149033000Y-106664076D01*
X148847000Y-106664076D01*
X148801769Y-106436682D01*
X148713044Y-106222481D01*
X148584236Y-106029706D01*
X148420294Y-105865764D01*
X148227519Y-105736956D01*
X148013318Y-105648231D01*
X147785924Y-105603000D01*
X147554076Y-105603000D01*
X147326682Y-105648231D01*
X147112481Y-105736956D01*
X146919706Y-105865764D01*
X146755764Y-106029706D01*
X146626956Y-106222481D01*
X146558736Y-106387179D01*
X146474157Y-106148748D01*
X146325178Y-105898645D01*
X146130269Y-105682412D01*
X145896920Y-105508359D01*
X145634099Y-105383175D01*
X145525388Y-105350201D01*
X145687519Y-105283044D01*
X145880294Y-105154236D01*
X146044236Y-104990294D01*
X146173044Y-104797519D01*
X146261769Y-104583318D01*
X146307000Y-104355924D01*
X146307000Y-104124076D01*
X146493000Y-104124076D01*
X146493000Y-104355924D01*
X146538231Y-104583318D01*
X146626956Y-104797519D01*
X146755764Y-104990294D01*
X146919706Y-105154236D01*
X147112481Y-105283044D01*
X147326682Y-105371769D01*
X147554076Y-105417000D01*
X147785924Y-105417000D01*
X148013318Y-105371769D01*
X148227519Y-105283044D01*
X148420294Y-105154236D01*
X148584236Y-104990294D01*
X148713044Y-104797519D01*
X148801769Y-104583318D01*
X148847000Y-104355924D01*
X148847000Y-104124076D01*
X148801769Y-103896682D01*
X148713044Y-103682481D01*
X148584236Y-103489706D01*
X148484530Y-103390000D01*
X149031418Y-103390000D01*
X149031418Y-105090000D01*
X149037732Y-105154103D01*
X149056430Y-105215743D01*
X149086794Y-105272550D01*
X149127657Y-105322343D01*
X149177450Y-105363206D01*
X149234257Y-105393570D01*
X149295897Y-105412268D01*
X149360000Y-105418582D01*
X151060000Y-105418582D01*
X151124103Y-105412268D01*
X151185743Y-105393570D01*
X151242550Y-105363206D01*
X151292343Y-105322343D01*
X151333206Y-105272550D01*
X151363570Y-105215743D01*
X151382268Y-105154103D01*
X151388582Y-105090000D01*
X151388582Y-103390000D01*
X151382268Y-103325897D01*
X151371379Y-103290000D01*
X155301418Y-103290000D01*
X155301418Y-104990000D01*
X155307732Y-105054103D01*
X155326430Y-105115743D01*
X155356794Y-105172550D01*
X155397657Y-105222343D01*
X155447450Y-105263206D01*
X155504257Y-105293570D01*
X155565897Y-105312268D01*
X155630000Y-105318582D01*
X157330000Y-105318582D01*
X157394103Y-105312268D01*
X157455743Y-105293570D01*
X157512550Y-105263206D01*
X157562343Y-105222343D01*
X157603206Y-105172550D01*
X157633570Y-105115743D01*
X157652268Y-105054103D01*
X157658582Y-104990000D01*
X157658582Y-104442000D01*
X159435288Y-104442000D01*
X159520311Y-104527023D01*
X159623004Y-104595640D01*
X159737111Y-104642905D01*
X159858246Y-104667000D01*
X159981754Y-104667000D01*
X160102889Y-104642905D01*
X160216996Y-104595640D01*
X160319689Y-104527023D01*
X160407023Y-104439689D01*
X160475640Y-104336996D01*
X160522905Y-104222889D01*
X160547000Y-104101754D01*
X160547000Y-103978246D01*
X160522905Y-103857111D01*
X160475640Y-103743004D01*
X160407023Y-103640311D01*
X160319689Y-103552977D01*
X160216996Y-103484360D01*
X160102889Y-103437095D01*
X159981754Y-103413000D01*
X159858246Y-103413000D01*
X159737111Y-103437095D01*
X159623004Y-103484360D01*
X159520311Y-103552977D01*
X159435288Y-103638000D01*
X157658582Y-103638000D01*
X157658582Y-103290000D01*
X157652268Y-103225897D01*
X157633570Y-103164257D01*
X157603206Y-103107450D01*
X157562343Y-103057657D01*
X157512550Y-103016794D01*
X157455743Y-102986430D01*
X157394103Y-102967732D01*
X157330000Y-102961418D01*
X155630000Y-102961418D01*
X155565897Y-102967732D01*
X155504257Y-102986430D01*
X155447450Y-103016794D01*
X155397657Y-103057657D01*
X155356794Y-103107450D01*
X155326430Y-103164257D01*
X155307732Y-103225897D01*
X155301418Y-103290000D01*
X151371379Y-103290000D01*
X151363570Y-103264257D01*
X151333206Y-103207450D01*
X151292343Y-103157657D01*
X151242550Y-103116794D01*
X151185743Y-103086430D01*
X151124103Y-103067732D01*
X151060000Y-103061418D01*
X149360000Y-103061418D01*
X149295897Y-103067732D01*
X149234257Y-103086430D01*
X149177450Y-103116794D01*
X149127657Y-103157657D01*
X149086794Y-103207450D01*
X149056430Y-103264257D01*
X149037732Y-103325897D01*
X149031418Y-103390000D01*
X148484530Y-103390000D01*
X148420294Y-103325764D01*
X148227519Y-103196956D01*
X148013318Y-103108231D01*
X147785924Y-103063000D01*
X147554076Y-103063000D01*
X147326682Y-103108231D01*
X147112481Y-103196956D01*
X146919706Y-103325764D01*
X146755764Y-103489706D01*
X146626956Y-103682481D01*
X146538231Y-103896682D01*
X146493000Y-104124076D01*
X146307000Y-104124076D01*
X146261769Y-103896682D01*
X146173044Y-103682481D01*
X146044236Y-103489706D01*
X145880294Y-103325764D01*
X145687519Y-103196956D01*
X145473318Y-103108231D01*
X145245924Y-103063000D01*
X145014076Y-103063000D01*
X144786682Y-103108231D01*
X144572481Y-103196956D01*
X144379706Y-103325764D01*
X144215764Y-103489706D01*
X144086956Y-103682481D01*
X143998231Y-103896682D01*
X143953000Y-104124076D01*
X143953000Y-104355924D01*
X143998231Y-104583318D01*
X144086956Y-104797519D01*
X144215764Y-104990294D01*
X144379706Y-105154236D01*
X144572481Y-105283044D01*
X144734612Y-105350201D01*
X144625901Y-105383175D01*
X144363080Y-105508359D01*
X144129731Y-105682412D01*
X143934822Y-105898645D01*
X143785843Y-106148748D01*
X143701264Y-106387179D01*
X143633044Y-106222481D01*
X143504236Y-106029706D01*
X143340294Y-105865764D01*
X143147519Y-105736956D01*
X142933318Y-105648231D01*
X142705924Y-105603000D01*
X142474076Y-105603000D01*
X142246682Y-105648231D01*
X142032481Y-105736956D01*
X141839706Y-105865764D01*
X141675764Y-106029706D01*
X141546956Y-106222481D01*
X141458231Y-106436682D01*
X141413000Y-106664076D01*
X141227000Y-106664076D01*
X141181769Y-106436682D01*
X141093044Y-106222481D01*
X140964236Y-106029706D01*
X140800294Y-105865764D01*
X140607519Y-105736956D01*
X140393318Y-105648231D01*
X140165924Y-105603000D01*
X139934076Y-105603000D01*
X139706682Y-105648231D01*
X139492481Y-105736956D01*
X139299706Y-105865764D01*
X139135764Y-106029706D01*
X139006956Y-106222481D01*
X138938736Y-106387179D01*
X138854157Y-106148748D01*
X138705178Y-105898645D01*
X138510269Y-105682412D01*
X138276920Y-105508359D01*
X138014099Y-105383175D01*
X137905388Y-105350201D01*
X138067519Y-105283044D01*
X138260294Y-105154236D01*
X138424236Y-104990294D01*
X138553044Y-104797519D01*
X138641769Y-104583318D01*
X138687000Y-104355924D01*
X138687000Y-104124076D01*
X138641769Y-103896682D01*
X138553044Y-103682481D01*
X138424236Y-103489706D01*
X138276530Y-103342000D01*
X138583487Y-103342000D01*
X138982649Y-103741163D01*
X138918231Y-103896682D01*
X138873000Y-104124076D01*
X138873000Y-104355924D01*
X138918231Y-104583318D01*
X139006956Y-104797519D01*
X139135764Y-104990294D01*
X139299706Y-105154236D01*
X139492481Y-105283044D01*
X139706682Y-105371769D01*
X139934076Y-105417000D01*
X140165924Y-105417000D01*
X140393318Y-105371769D01*
X140607519Y-105283044D01*
X140800294Y-105154236D01*
X140964236Y-104990294D01*
X141093044Y-104797519D01*
X141181769Y-104583318D01*
X141227000Y-104355924D01*
X141227000Y-104124076D01*
X141413000Y-104124076D01*
X141413000Y-104355924D01*
X141458231Y-104583318D01*
X141546956Y-104797519D01*
X141675764Y-104990294D01*
X141839706Y-105154236D01*
X142032481Y-105283044D01*
X142246682Y-105371769D01*
X142474076Y-105417000D01*
X142705924Y-105417000D01*
X142933318Y-105371769D01*
X143147519Y-105283044D01*
X143340294Y-105154236D01*
X143504236Y-104990294D01*
X143633044Y-104797519D01*
X143721769Y-104583318D01*
X143767000Y-104355924D01*
X143767000Y-104124076D01*
X143721769Y-103896682D01*
X143633044Y-103682481D01*
X143504236Y-103489706D01*
X143340294Y-103325764D01*
X143147519Y-103196956D01*
X142933318Y-103108231D01*
X142705924Y-103063000D01*
X142474076Y-103063000D01*
X142246682Y-103108231D01*
X142032481Y-103196956D01*
X141839706Y-103325764D01*
X141675764Y-103489706D01*
X141546956Y-103682481D01*
X141458231Y-103896682D01*
X141413000Y-104124076D01*
X141227000Y-104124076D01*
X141181769Y-103896682D01*
X141093044Y-103682481D01*
X140964236Y-103489706D01*
X140800294Y-103325764D01*
X140607519Y-103196956D01*
X140393318Y-103108231D01*
X140165924Y-103063000D01*
X139934076Y-103063000D01*
X139706682Y-103108231D01*
X139551163Y-103172649D01*
X139048223Y-102669710D01*
X139035632Y-102654368D01*
X138974420Y-102604132D01*
X138904583Y-102566803D01*
X138828806Y-102543817D01*
X138769747Y-102538000D01*
X138769739Y-102538000D01*
X138750000Y-102536056D01*
X138730261Y-102538000D01*
X134636513Y-102538000D01*
X134552000Y-102453487D01*
X134552000Y-99742279D01*
X149828000Y-99742279D01*
X149828002Y-99742301D01*
X149828000Y-99742655D01*
X149828643Y-100404837D01*
X149828650Y-100404907D01*
X149828648Y-100406417D01*
X149831592Y-100920186D01*
X149831597Y-100920236D01*
X149831638Y-100924098D01*
X149838403Y-101310373D01*
X149838629Y-101312323D01*
X149838494Y-101314288D01*
X149838663Y-101318920D01*
X149850772Y-101598621D01*
X149851713Y-101605247D01*
X149851617Y-101611952D01*
X149852037Y-101616568D01*
X149871010Y-101810614D01*
X149874138Y-101826432D01*
X149875697Y-101842490D01*
X149876625Y-101847032D01*
X149903985Y-101976342D01*
X149913395Y-102006100D01*
X149922629Y-102036020D01*
X149923497Y-102038049D01*
X149923520Y-102038122D01*
X149923557Y-102038189D01*
X149924452Y-102040282D01*
X149961719Y-102125774D01*
X149965014Y-102131681D01*
X149967359Y-102138027D01*
X149980768Y-102159926D01*
X149993283Y-102182362D01*
X149997665Y-102187519D01*
X150001196Y-102193286D01*
X150004016Y-102196964D01*
X150052711Y-102259559D01*
X150063826Y-102271280D01*
X150073745Y-102284043D01*
X150076957Y-102287385D01*
X150091534Y-102302347D01*
X150100707Y-102310084D01*
X150108862Y-102318894D01*
X150112349Y-102321948D01*
X150172435Y-102373833D01*
X150176004Y-102376351D01*
X150179096Y-102379434D01*
X150202439Y-102395007D01*
X150225375Y-102411193D01*
X150229365Y-102412971D01*
X150232998Y-102415394D01*
X150237102Y-102417549D01*
X150314697Y-102457614D01*
X150317182Y-102458603D01*
X150319455Y-102460023D01*
X150347297Y-102470593D01*
X150374896Y-102481581D01*
X150377524Y-102482069D01*
X150380033Y-102483021D01*
X150384514Y-102484203D01*
X150500539Y-102513968D01*
X150519904Y-102516962D01*
X150538990Y-102521447D01*
X150543588Y-102522030D01*
X150718962Y-102543018D01*
X150727526Y-102543201D01*
X150735980Y-102544612D01*
X150740606Y-102544892D01*
X150996248Y-102558623D01*
X150999124Y-102558496D01*
X151001984Y-102558882D01*
X151006617Y-102559018D01*
X151363446Y-102567014D01*
X151363536Y-102567007D01*
X151363626Y-102567018D01*
X151368261Y-102567087D01*
X151847195Y-102570870D01*
X151847282Y-102570862D01*
X151849235Y-102570879D01*
X152471194Y-102571969D01*
X152471221Y-102571966D01*
X152471722Y-102571970D01*
X152657613Y-102572000D01*
X152657635Y-102571998D01*
X152657989Y-102572000D01*
X153320170Y-102571357D01*
X153320240Y-102571350D01*
X153321750Y-102571352D01*
X153835520Y-102568408D01*
X153835570Y-102568403D01*
X153839432Y-102568362D01*
X154225706Y-102561597D01*
X154227656Y-102561371D01*
X154229621Y-102561506D01*
X154234253Y-102561337D01*
X154513955Y-102549228D01*
X154520581Y-102548287D01*
X154527286Y-102548383D01*
X154531902Y-102547963D01*
X154725948Y-102528990D01*
X154741766Y-102525862D01*
X154757824Y-102524303D01*
X154762366Y-102523375D01*
X154891676Y-102496015D01*
X154921434Y-102486605D01*
X154951354Y-102477371D01*
X154953383Y-102476503D01*
X154953456Y-102476480D01*
X154953523Y-102476443D01*
X154955616Y-102475548D01*
X155041108Y-102438281D01*
X155047015Y-102434986D01*
X155053364Y-102432640D01*
X155075271Y-102419225D01*
X155097696Y-102406717D01*
X155102852Y-102402336D01*
X155108622Y-102398803D01*
X155112300Y-102395982D01*
X155174895Y-102347287D01*
X155186615Y-102336173D01*
X155199376Y-102326255D01*
X155202718Y-102323043D01*
X155217680Y-102308466D01*
X155225417Y-102299293D01*
X155234225Y-102291140D01*
X155237279Y-102287653D01*
X155289164Y-102227567D01*
X155291682Y-102223999D01*
X155294770Y-102220901D01*
X155310352Y-102197545D01*
X155326525Y-102174628D01*
X155328303Y-102170638D01*
X155330730Y-102166999D01*
X155332885Y-102162895D01*
X155372949Y-102085300D01*
X155373938Y-102082815D01*
X155375355Y-102080547D01*
X155385912Y-102052739D01*
X155396916Y-102025100D01*
X155397404Y-102022470D01*
X155398353Y-102019970D01*
X155399536Y-102015488D01*
X155429302Y-101899464D01*
X155432298Y-101880084D01*
X155436781Y-101861008D01*
X155437364Y-101856410D01*
X155446944Y-101776349D01*
X164903256Y-101776349D01*
X165107362Y-102132867D01*
X165550223Y-102363575D01*
X166029583Y-102503452D01*
X166527021Y-102547123D01*
X167023422Y-102492909D01*
X167499707Y-102342894D01*
X167892638Y-102132867D01*
X168096744Y-101776349D01*
X166500000Y-100179605D01*
X164903256Y-101776349D01*
X155446944Y-101776349D01*
X155458351Y-101681036D01*
X155458534Y-101672471D01*
X155459944Y-101664022D01*
X155460225Y-101659395D01*
X155473957Y-101403753D01*
X155473830Y-101400876D01*
X155474216Y-101398016D01*
X155474352Y-101393383D01*
X155482348Y-101036554D01*
X155482341Y-101036463D01*
X155482352Y-101036373D01*
X155482421Y-101031739D01*
X155486203Y-100552805D01*
X155486195Y-100552718D01*
X155486212Y-100550765D01*
X155487302Y-99928806D01*
X155487299Y-99928779D01*
X155487303Y-99928278D01*
X155487333Y-99742387D01*
X155487331Y-99742365D01*
X155487333Y-99742012D01*
X155487161Y-99564070D01*
X155487161Y-99564068D01*
X155486997Y-99395191D01*
X155516956Y-99467519D01*
X155645764Y-99660294D01*
X155809706Y-99824236D01*
X156002481Y-99953044D01*
X156216682Y-100041769D01*
X156444076Y-100087000D01*
X156675924Y-100087000D01*
X156903318Y-100041769D01*
X157117519Y-99953044D01*
X157310294Y-99824236D01*
X157474236Y-99660294D01*
X157603044Y-99467519D01*
X157655036Y-99342000D01*
X161112538Y-99342000D01*
X161176956Y-99497519D01*
X161305764Y-99690294D01*
X161469706Y-99854236D01*
X161662481Y-99983044D01*
X161876682Y-100071769D01*
X162104076Y-100117000D01*
X162335924Y-100117000D01*
X162563318Y-100071769D01*
X162671349Y-100027021D01*
X163952877Y-100027021D01*
X164007091Y-100523422D01*
X164157106Y-100999707D01*
X164367133Y-101392638D01*
X164723651Y-101596744D01*
X166320395Y-100000000D01*
X166679605Y-100000000D01*
X168276349Y-101596744D01*
X168632867Y-101392638D01*
X168863575Y-100949777D01*
X169003452Y-100470417D01*
X169047123Y-99972979D01*
X168992909Y-99476578D01*
X168842894Y-99000293D01*
X168632867Y-98607362D01*
X168276349Y-98403256D01*
X166679605Y-100000000D01*
X166320395Y-100000000D01*
X164723651Y-98403256D01*
X164367133Y-98607362D01*
X164136425Y-99050223D01*
X163996548Y-99529583D01*
X163952877Y-100027021D01*
X162671349Y-100027021D01*
X162777519Y-99983044D01*
X162970294Y-99854236D01*
X163134236Y-99690294D01*
X163263044Y-99497519D01*
X163351769Y-99283318D01*
X163397000Y-99055924D01*
X163397000Y-98824076D01*
X163351769Y-98596682D01*
X163263044Y-98382481D01*
X163156918Y-98223651D01*
X164903256Y-98223651D01*
X166500000Y-99820395D01*
X168096744Y-98223651D01*
X167892638Y-97867133D01*
X167449777Y-97636425D01*
X166970417Y-97496548D01*
X166472979Y-97452877D01*
X165976578Y-97507091D01*
X165500293Y-97657106D01*
X165107362Y-97867133D01*
X164903256Y-98223651D01*
X163156918Y-98223651D01*
X163134236Y-98189706D01*
X162970294Y-98025764D01*
X162777519Y-97896956D01*
X162563318Y-97808231D01*
X162335924Y-97763000D01*
X162104076Y-97763000D01*
X161876682Y-97808231D01*
X161662481Y-97896956D01*
X161469706Y-98025764D01*
X161305764Y-98189706D01*
X161176956Y-98382481D01*
X161112538Y-98538000D01*
X157679889Y-98538000D01*
X157603044Y-98352481D01*
X157474236Y-98159706D01*
X157310294Y-97995764D01*
X157117519Y-97866956D01*
X156903318Y-97778231D01*
X156675924Y-97733000D01*
X156444076Y-97733000D01*
X156216682Y-97778231D01*
X156002481Y-97866956D01*
X155809706Y-97995764D01*
X155645764Y-98159706D01*
X155516956Y-98352481D01*
X155481548Y-98437962D01*
X155476930Y-98174293D01*
X155476704Y-98172344D01*
X155476839Y-98170381D01*
X155476670Y-98165749D01*
X155464562Y-97886047D01*
X155463621Y-97879415D01*
X155463716Y-97872711D01*
X155463297Y-97868095D01*
X155444323Y-97674050D01*
X155441196Y-97658235D01*
X155439637Y-97642178D01*
X155438709Y-97637637D01*
X155411350Y-97508327D01*
X155401944Y-97478580D01*
X155392705Y-97448645D01*
X155391838Y-97446618D01*
X155391815Y-97446546D01*
X155391779Y-97446480D01*
X155390882Y-97444384D01*
X155353615Y-97358891D01*
X155350320Y-97352983D01*
X155347973Y-97346633D01*
X155334557Y-97324725D01*
X155322051Y-97302304D01*
X155317670Y-97297148D01*
X155314135Y-97291375D01*
X155311314Y-97287697D01*
X155262618Y-97225103D01*
X155251506Y-97213386D01*
X155241588Y-97200624D01*
X155238376Y-97197282D01*
X155223799Y-97182320D01*
X155214629Y-97174585D01*
X155206475Y-97165776D01*
X155202988Y-97162723D01*
X155142903Y-97110837D01*
X155139331Y-97108316D01*
X155136235Y-97105230D01*
X155112889Y-97089655D01*
X155089964Y-97073476D01*
X155085972Y-97071698D01*
X155082333Y-97069270D01*
X155078230Y-97067115D01*
X155000634Y-97027051D01*
X154998147Y-97026061D01*
X154995880Y-97024645D01*
X154968064Y-97014085D01*
X154940434Y-97003085D01*
X154937807Y-97002598D01*
X154935303Y-97001647D01*
X154930821Y-97000464D01*
X154814796Y-96970698D01*
X154795419Y-96967702D01*
X154776341Y-96963219D01*
X154771743Y-96962636D01*
X154596370Y-96941649D01*
X154587805Y-96941466D01*
X154579356Y-96940056D01*
X154574729Y-96939775D01*
X154319087Y-96926043D01*
X154316210Y-96926170D01*
X154313350Y-96925784D01*
X154308717Y-96925648D01*
X153951889Y-96917652D01*
X153951798Y-96917659D01*
X153951707Y-96917648D01*
X153947073Y-96917579D01*
X153468138Y-96913797D01*
X153468051Y-96913805D01*
X153466098Y-96913788D01*
X152844139Y-96912698D01*
X152844112Y-96912701D01*
X152843611Y-96912697D01*
X152657721Y-96912667D01*
X152657699Y-96912669D01*
X152657344Y-96912667D01*
X151995163Y-96913310D01*
X151995093Y-96913317D01*
X151993583Y-96913315D01*
X151479814Y-96916258D01*
X151479764Y-96916263D01*
X151475901Y-96916304D01*
X151089626Y-96923070D01*
X151087677Y-96923296D01*
X151085714Y-96923161D01*
X151081082Y-96923330D01*
X150801380Y-96935438D01*
X150794748Y-96936379D01*
X150788045Y-96936284D01*
X150783429Y-96936703D01*
X150589384Y-96955677D01*
X150573569Y-96958804D01*
X150557512Y-96960363D01*
X150552971Y-96961291D01*
X150423661Y-96988650D01*
X150393914Y-96998056D01*
X150363979Y-97007295D01*
X150361952Y-97008162D01*
X150361880Y-97008185D01*
X150361814Y-97008221D01*
X150359718Y-97009118D01*
X150274225Y-97046385D01*
X150268317Y-97049681D01*
X150261970Y-97052026D01*
X150240070Y-97065436D01*
X150217638Y-97077949D01*
X150212481Y-97082331D01*
X150206711Y-97085864D01*
X150203033Y-97088684D01*
X150140438Y-97137380D01*
X150128718Y-97148494D01*
X150115957Y-97158412D01*
X150112615Y-97161624D01*
X150097653Y-97176201D01*
X150089916Y-97185374D01*
X150081108Y-97193527D01*
X150078054Y-97197014D01*
X150026169Y-97257099D01*
X150023651Y-97260668D01*
X150020566Y-97263762D01*
X150004983Y-97287121D01*
X149988809Y-97310039D01*
X149987033Y-97314027D01*
X149984606Y-97317664D01*
X149982451Y-97321768D01*
X149942386Y-97399363D01*
X149941397Y-97401847D01*
X149939976Y-97404122D01*
X149929400Y-97431981D01*
X149918419Y-97459562D01*
X149917932Y-97462190D01*
X149916979Y-97464699D01*
X149915796Y-97469181D01*
X149886031Y-97585207D01*
X149883036Y-97604579D01*
X149878553Y-97623657D01*
X149877970Y-97628255D01*
X149856982Y-97803628D01*
X149856799Y-97812192D01*
X149855388Y-97820646D01*
X149855108Y-97825273D01*
X149841377Y-98080914D01*
X149841504Y-98083790D01*
X149841118Y-98086650D01*
X149840982Y-98091283D01*
X149832986Y-98448111D01*
X149832993Y-98448202D01*
X149832982Y-98448292D01*
X149832913Y-98452927D01*
X149829130Y-98931862D01*
X149829138Y-98931949D01*
X149829121Y-98933902D01*
X149828031Y-99555861D01*
X149828034Y-99555888D01*
X149828030Y-99556389D01*
X149828000Y-99742279D01*
X134552000Y-99742279D01*
X134552000Y-97524712D01*
X134637023Y-97439689D01*
X134705640Y-97336996D01*
X134752905Y-97222889D01*
X134777000Y-97101754D01*
X134777000Y-96978246D01*
X134752905Y-96857111D01*
X134705640Y-96743004D01*
X134637023Y-96640311D01*
X134549689Y-96552977D01*
X134446996Y-96484360D01*
X134332889Y-96437095D01*
X134211754Y-96413000D01*
X134088246Y-96413000D01*
X133967111Y-96437095D01*
X133853004Y-96484360D01*
X133750311Y-96552977D01*
X133662977Y-96640311D01*
X133594360Y-96743004D01*
X133547095Y-96857111D01*
X133523000Y-96978246D01*
X133523000Y-97101754D01*
X133547095Y-97222889D01*
X133594360Y-97336996D01*
X133662977Y-97439689D01*
X133748000Y-97524712D01*
X133748000Y-98681380D01*
X133733140Y-98645504D01*
X133664523Y-98542811D01*
X133577189Y-98455477D01*
X133474496Y-98386860D01*
X133360389Y-98339595D01*
X133239254Y-98315500D01*
X133115746Y-98315500D01*
X132994611Y-98339595D01*
X132880504Y-98386860D01*
X132777811Y-98455477D01*
X132690477Y-98542811D01*
X132621860Y-98645504D01*
X132574595Y-98759611D01*
X132550500Y-98880746D01*
X132550500Y-99004254D01*
X132574595Y-99125389D01*
X132621860Y-99239496D01*
X132690477Y-99342189D01*
X132775501Y-99427213D01*
X132775500Y-99793000D01*
X126309712Y-99793000D01*
X126224689Y-99707977D01*
X126121996Y-99639360D01*
X126007889Y-99592095D01*
X125886754Y-99568000D01*
X125763246Y-99568000D01*
X125642111Y-99592095D01*
X125528004Y-99639360D01*
X125425311Y-99707977D01*
X125337977Y-99795311D01*
X125269360Y-99898004D01*
X125222095Y-100012111D01*
X125198000Y-100133246D01*
X123199394Y-100133246D01*
X123197418Y-99272000D01*
X129640261Y-99272000D01*
X129660000Y-99273944D01*
X129679739Y-99272000D01*
X129679747Y-99272000D01*
X129738806Y-99266183D01*
X129814583Y-99243197D01*
X129884420Y-99205868D01*
X129945632Y-99155632D01*
X129958223Y-99140290D01*
X130966514Y-98132000D01*
X131086754Y-98132000D01*
X131207889Y-98107905D01*
X131321996Y-98060640D01*
X131424689Y-97992023D01*
X131512023Y-97904689D01*
X131580640Y-97801996D01*
X131627905Y-97687889D01*
X131652000Y-97566754D01*
X131652000Y-97443246D01*
X131627905Y-97322111D01*
X131580640Y-97208004D01*
X131512023Y-97105311D01*
X131424689Y-97017977D01*
X131321996Y-96949360D01*
X131207889Y-96902095D01*
X131181640Y-96896874D01*
X131806514Y-96272000D01*
X133390261Y-96272000D01*
X133410000Y-96273944D01*
X133429739Y-96272000D01*
X133429747Y-96272000D01*
X133488806Y-96266183D01*
X133528718Y-96254076D01*
X155383000Y-96254076D01*
X155383000Y-96485924D01*
X155428231Y-96713318D01*
X155516956Y-96927519D01*
X155645764Y-97120294D01*
X155809706Y-97284236D01*
X156002481Y-97413044D01*
X156216682Y-97501769D01*
X156444076Y-97547000D01*
X156675924Y-97547000D01*
X156903318Y-97501769D01*
X157117519Y-97413044D01*
X157310294Y-97284236D01*
X157474236Y-97120294D01*
X157603044Y-96927519D01*
X157691769Y-96713318D01*
X157737000Y-96485924D01*
X157737000Y-96254076D01*
X157691769Y-96026682D01*
X157603044Y-95812481D01*
X157474236Y-95619706D01*
X157404530Y-95550000D01*
X161041418Y-95550000D01*
X161041418Y-97250000D01*
X161047732Y-97314103D01*
X161066430Y-97375743D01*
X161096794Y-97432550D01*
X161137657Y-97482343D01*
X161187450Y-97523206D01*
X161244257Y-97553570D01*
X161305897Y-97572268D01*
X161370000Y-97578582D01*
X163070000Y-97578582D01*
X163134103Y-97572268D01*
X163195743Y-97553570D01*
X163252550Y-97523206D01*
X163302343Y-97482343D01*
X163343206Y-97432550D01*
X163373570Y-97375743D01*
X163392268Y-97314103D01*
X163398582Y-97250000D01*
X163398582Y-95550000D01*
X163392268Y-95485897D01*
X163373570Y-95424257D01*
X163343206Y-95367450D01*
X163302343Y-95317657D01*
X163252550Y-95276794D01*
X163195743Y-95246430D01*
X163134103Y-95227732D01*
X163070000Y-95221418D01*
X161370000Y-95221418D01*
X161305897Y-95227732D01*
X161244257Y-95246430D01*
X161187450Y-95276794D01*
X161137657Y-95317657D01*
X161096794Y-95367450D01*
X161066430Y-95424257D01*
X161047732Y-95485897D01*
X161041418Y-95550000D01*
X157404530Y-95550000D01*
X157310294Y-95455764D01*
X157117519Y-95326956D01*
X156903318Y-95238231D01*
X156675924Y-95193000D01*
X156444076Y-95193000D01*
X156216682Y-95238231D01*
X156002481Y-95326956D01*
X155809706Y-95455764D01*
X155645764Y-95619706D01*
X155516956Y-95812481D01*
X155428231Y-96026682D01*
X155383000Y-96254076D01*
X133528718Y-96254076D01*
X133564583Y-96243197D01*
X133634420Y-96205868D01*
X133695632Y-96155632D01*
X133708223Y-96140290D01*
X134081514Y-95767000D01*
X134201754Y-95767000D01*
X134322889Y-95742905D01*
X134436996Y-95695640D01*
X134539689Y-95627023D01*
X134627023Y-95539689D01*
X134695640Y-95436996D01*
X134699781Y-95427000D01*
X139540000Y-95427000D01*
X139607654Y-95419925D01*
X139668768Y-95400579D01*
X139724934Y-95369682D01*
X139773993Y-95328422D01*
X139814059Y-95278383D01*
X139843594Y-95221489D01*
X139861462Y-95159926D01*
X139866976Y-95096061D01*
X139856995Y-94267637D01*
X139853477Y-92980000D01*
X155381418Y-92980000D01*
X155381418Y-94680000D01*
X155387732Y-94744103D01*
X155406430Y-94805743D01*
X155436794Y-94862550D01*
X155477657Y-94912343D01*
X155527450Y-94953206D01*
X155584257Y-94983570D01*
X155645897Y-95002268D01*
X155710000Y-95008582D01*
X157410000Y-95008582D01*
X157474103Y-95002268D01*
X157535743Y-94983570D01*
X157592550Y-94953206D01*
X157642343Y-94912343D01*
X157683206Y-94862550D01*
X157713570Y-94805743D01*
X157732268Y-94744103D01*
X157738582Y-94680000D01*
X157738582Y-92980000D01*
X157732268Y-92915897D01*
X157713570Y-92854257D01*
X157683206Y-92797450D01*
X157642343Y-92747657D01*
X157592550Y-92706794D01*
X157535743Y-92676430D01*
X157474103Y-92657732D01*
X157410000Y-92651418D01*
X155710000Y-92651418D01*
X155645897Y-92657732D01*
X155584257Y-92676430D01*
X155527450Y-92706794D01*
X155477657Y-92747657D01*
X155436794Y-92797450D01*
X155406430Y-92854257D01*
X155387732Y-92915897D01*
X155381418Y-92980000D01*
X139853477Y-92980000D01*
X139847270Y-90708453D01*
X169173069Y-90716963D01*
X169182931Y-108973037D01*
X100526863Y-108992963D01*
X100521752Y-104256890D01*
X102388524Y-104256890D01*
X102433175Y-104404099D01*
X102558359Y-104666920D01*
X102732412Y-104900269D01*
X102948645Y-105095178D01*
X103198748Y-105244157D01*
X103437179Y-105328736D01*
X103272481Y-105396956D01*
X103079706Y-105525764D01*
X102915764Y-105689706D01*
X102786956Y-105882481D01*
X102698231Y-106096682D01*
X102653000Y-106324076D01*
X102653000Y-106555924D01*
X102698231Y-106783318D01*
X102786956Y-106997519D01*
X102915764Y-107190294D01*
X103079706Y-107354236D01*
X103272481Y-107483044D01*
X103486682Y-107571769D01*
X103714076Y-107617000D01*
X103945924Y-107617000D01*
X104173318Y-107571769D01*
X104387519Y-107483044D01*
X104580294Y-107354236D01*
X104744236Y-107190294D01*
X104873044Y-106997519D01*
X104961769Y-106783318D01*
X105007000Y-106555924D01*
X105007000Y-106324076D01*
X104961769Y-106096682D01*
X104873044Y-105882481D01*
X104744236Y-105689706D01*
X104580294Y-105525764D01*
X104387519Y-105396956D01*
X104222821Y-105328736D01*
X104461252Y-105244157D01*
X104711355Y-105095178D01*
X104927588Y-104900269D01*
X105100000Y-104669120D01*
X105272412Y-104900269D01*
X105488645Y-105095178D01*
X105738748Y-105244157D01*
X105977179Y-105328736D01*
X105812481Y-105396956D01*
X105619706Y-105525764D01*
X105455764Y-105689706D01*
X105326956Y-105882481D01*
X105238231Y-106096682D01*
X105193000Y-106324076D01*
X105193000Y-106555924D01*
X105238231Y-106783318D01*
X105326956Y-106997519D01*
X105455764Y-107190294D01*
X105619706Y-107354236D01*
X105812481Y-107483044D01*
X106026682Y-107571769D01*
X106254076Y-107617000D01*
X106485924Y-107617000D01*
X106713318Y-107571769D01*
X106927519Y-107483044D01*
X107120294Y-107354236D01*
X107284236Y-107190294D01*
X107413044Y-106997519D01*
X107501769Y-106783318D01*
X107547000Y-106555924D01*
X107547000Y-106324076D01*
X107501769Y-106096682D01*
X107413044Y-105882481D01*
X107284236Y-105689706D01*
X107120294Y-105525764D01*
X106927519Y-105396956D01*
X106762821Y-105328736D01*
X107001252Y-105244157D01*
X107251355Y-105095178D01*
X107467588Y-104900269D01*
X107641641Y-104666920D01*
X107766825Y-104404099D01*
X107811476Y-104256890D01*
X107690155Y-104027000D01*
X106497000Y-104027000D01*
X106497000Y-104047000D01*
X106243000Y-104047000D01*
X106243000Y-104027000D01*
X103957000Y-104027000D01*
X103957000Y-104047000D01*
X103703000Y-104047000D01*
X103703000Y-104027000D01*
X102509845Y-104027000D01*
X102388524Y-104256890D01*
X100521752Y-104256890D01*
X100520982Y-103543110D01*
X102388524Y-103543110D01*
X102509845Y-103773000D01*
X103703000Y-103773000D01*
X103703000Y-103753000D01*
X103957000Y-103753000D01*
X103957000Y-103773000D01*
X106243000Y-103773000D01*
X106243000Y-103753000D01*
X106497000Y-103753000D01*
X106497000Y-103773000D01*
X107690155Y-103773000D01*
X107811476Y-103543110D01*
X107766825Y-103395901D01*
X107641641Y-103133080D01*
X107467588Y-102899731D01*
X107251355Y-102704822D01*
X107001252Y-102555843D01*
X106762821Y-102471264D01*
X106927519Y-102403044D01*
X107120294Y-102274236D01*
X107284236Y-102110294D01*
X107413044Y-101917519D01*
X107501769Y-101703318D01*
X107547000Y-101475924D01*
X107547000Y-101244076D01*
X107501769Y-101016682D01*
X107413044Y-100802481D01*
X107284236Y-100609706D01*
X107120294Y-100445764D01*
X106927519Y-100316956D01*
X106713318Y-100228231D01*
X106485924Y-100183000D01*
X106254076Y-100183000D01*
X106026682Y-100228231D01*
X105812481Y-100316956D01*
X105619706Y-100445764D01*
X105455764Y-100609706D01*
X105326956Y-100802481D01*
X105238231Y-101016682D01*
X105193000Y-101244076D01*
X105193000Y-101475924D01*
X105238231Y-101703318D01*
X105326956Y-101917519D01*
X105455764Y-102110294D01*
X105619706Y-102274236D01*
X105812481Y-102403044D01*
X105977179Y-102471264D01*
X105738748Y-102555843D01*
X105488645Y-102704822D01*
X105272412Y-102899731D01*
X105100000Y-103130880D01*
X104927588Y-102899731D01*
X104711355Y-102704822D01*
X104461252Y-102555843D01*
X104222821Y-102471264D01*
X104387519Y-102403044D01*
X104580294Y-102274236D01*
X104744236Y-102110294D01*
X104873044Y-101917519D01*
X104961769Y-101703318D01*
X105007000Y-101475924D01*
X105007000Y-101244076D01*
X104961769Y-101016682D01*
X104873044Y-100802481D01*
X104744236Y-100609706D01*
X104580294Y-100445764D01*
X104387519Y-100316956D01*
X104173318Y-100228231D01*
X103945924Y-100183000D01*
X103714076Y-100183000D01*
X103486682Y-100228231D01*
X103272481Y-100316956D01*
X103079706Y-100445764D01*
X102915764Y-100609706D01*
X102786956Y-100802481D01*
X102698231Y-101016682D01*
X102653000Y-101244076D01*
X102653000Y-101475924D01*
X102698231Y-101703318D01*
X102786956Y-101917519D01*
X102915764Y-102110294D01*
X103079706Y-102274236D01*
X103272481Y-102403044D01*
X103437179Y-102471264D01*
X103198748Y-102555843D01*
X102948645Y-102704822D01*
X102732412Y-102899731D01*
X102558359Y-103133080D01*
X102433175Y-103395901D01*
X102388524Y-103543110D01*
X100520982Y-103543110D01*
X100515759Y-98704076D01*
X102653000Y-98704076D01*
X102653000Y-98935924D01*
X102698231Y-99163318D01*
X102786956Y-99377519D01*
X102915764Y-99570294D01*
X103079706Y-99734236D01*
X103272481Y-99863044D01*
X103486682Y-99951769D01*
X103714076Y-99997000D01*
X103945924Y-99997000D01*
X104173318Y-99951769D01*
X104387519Y-99863044D01*
X104580294Y-99734236D01*
X104744236Y-99570294D01*
X104873044Y-99377519D01*
X104961769Y-99163318D01*
X105007000Y-98935924D01*
X105007000Y-98704076D01*
X105193000Y-98704076D01*
X105193000Y-98935924D01*
X105238231Y-99163318D01*
X105326956Y-99377519D01*
X105455764Y-99570294D01*
X105619706Y-99734236D01*
X105812481Y-99863044D01*
X106026682Y-99951769D01*
X106254076Y-99997000D01*
X106485924Y-99997000D01*
X106713318Y-99951769D01*
X106927519Y-99863044D01*
X107120294Y-99734236D01*
X107284236Y-99570294D01*
X107413044Y-99377519D01*
X107501769Y-99163318D01*
X107547000Y-98935924D01*
X107547000Y-98704076D01*
X107501769Y-98476682D01*
X107413044Y-98262481D01*
X107284236Y-98069706D01*
X107120294Y-97905764D01*
X106927519Y-97776956D01*
X106713318Y-97688231D01*
X106485924Y-97643000D01*
X106254076Y-97643000D01*
X106026682Y-97688231D01*
X105812481Y-97776956D01*
X105619706Y-97905764D01*
X105455764Y-98069706D01*
X105326956Y-98262481D01*
X105238231Y-98476682D01*
X105193000Y-98704076D01*
X105007000Y-98704076D01*
X104961769Y-98476682D01*
X104873044Y-98262481D01*
X104744236Y-98069706D01*
X104580294Y-97905764D01*
X104387519Y-97776956D01*
X104173318Y-97688231D01*
X103945924Y-97643000D01*
X103714076Y-97643000D01*
X103486682Y-97688231D01*
X103272481Y-97776956D01*
X103079706Y-97905764D01*
X102915764Y-98069706D01*
X102786956Y-98262481D01*
X102698231Y-98476682D01*
X102653000Y-98704076D01*
X100515759Y-98704076D01*
X100513018Y-96164076D01*
X102653000Y-96164076D01*
X102653000Y-96395924D01*
X102698231Y-96623318D01*
X102786956Y-96837519D01*
X102915764Y-97030294D01*
X103079706Y-97194236D01*
X103272481Y-97323044D01*
X103486682Y-97411769D01*
X103714076Y-97457000D01*
X103945924Y-97457000D01*
X104173318Y-97411769D01*
X104387519Y-97323044D01*
X104580294Y-97194236D01*
X104744236Y-97030294D01*
X104873044Y-96837519D01*
X104961769Y-96623318D01*
X105007000Y-96395924D01*
X105007000Y-96164076D01*
X105193000Y-96164076D01*
X105193000Y-96395924D01*
X105238231Y-96623318D01*
X105326956Y-96837519D01*
X105455764Y-97030294D01*
X105619706Y-97194236D01*
X105812481Y-97323044D01*
X106026682Y-97411769D01*
X106254076Y-97457000D01*
X106485924Y-97457000D01*
X106713318Y-97411769D01*
X106927519Y-97323044D01*
X107120294Y-97194236D01*
X107284236Y-97030294D01*
X107413044Y-96837519D01*
X107501769Y-96623318D01*
X107547000Y-96395924D01*
X107547000Y-96164076D01*
X107501769Y-95936682D01*
X107413044Y-95722481D01*
X107284236Y-95529706D01*
X107120294Y-95365764D01*
X106927519Y-95236956D01*
X106713318Y-95148231D01*
X106485924Y-95103000D01*
X106254076Y-95103000D01*
X106026682Y-95148231D01*
X105812481Y-95236956D01*
X105619706Y-95365764D01*
X105455764Y-95529706D01*
X105326956Y-95722481D01*
X105238231Y-95936682D01*
X105193000Y-96164076D01*
X105007000Y-96164076D01*
X104961769Y-95936682D01*
X104873044Y-95722481D01*
X104744236Y-95529706D01*
X104580294Y-95365764D01*
X104387519Y-95236956D01*
X104173318Y-95148231D01*
X103945924Y-95103000D01*
X103714076Y-95103000D01*
X103486682Y-95148231D01*
X103272481Y-95236956D01*
X103079706Y-95365764D01*
X102915764Y-95529706D01*
X102786956Y-95722481D01*
X102698231Y-95936682D01*
X102653000Y-96164076D01*
X100513018Y-96164076D01*
X100510276Y-93624076D01*
X102653000Y-93624076D01*
X102653000Y-93855924D01*
X102698231Y-94083318D01*
X102786956Y-94297519D01*
X102915764Y-94490294D01*
X103079706Y-94654236D01*
X103272481Y-94783044D01*
X103486682Y-94871769D01*
X103714076Y-94917000D01*
X103945924Y-94917000D01*
X104173318Y-94871769D01*
X104387519Y-94783044D01*
X104580294Y-94654236D01*
X104744236Y-94490294D01*
X104873044Y-94297519D01*
X104961769Y-94083318D01*
X105007000Y-93855924D01*
X105007000Y-93624076D01*
X104961769Y-93396682D01*
X104873044Y-93182481D01*
X104744236Y-92989706D01*
X104644530Y-92890000D01*
X105191418Y-92890000D01*
X105191418Y-94590000D01*
X105197732Y-94654103D01*
X105216430Y-94715743D01*
X105246794Y-94772550D01*
X105287657Y-94822343D01*
X105337450Y-94863206D01*
X105394257Y-94893570D01*
X105455897Y-94912268D01*
X105520000Y-94918582D01*
X107220000Y-94918582D01*
X107284103Y-94912268D01*
X107345743Y-94893570D01*
X107402550Y-94863206D01*
X107452343Y-94822343D01*
X107493206Y-94772550D01*
X107523570Y-94715743D01*
X107542268Y-94654103D01*
X107548582Y-94590000D01*
X107548582Y-92890000D01*
X107542268Y-92825897D01*
X107523570Y-92764257D01*
X107493206Y-92707450D01*
X107452343Y-92657657D01*
X107402550Y-92616794D01*
X107345743Y-92586430D01*
X107284103Y-92567732D01*
X107220000Y-92561418D01*
X105520000Y-92561418D01*
X105455897Y-92567732D01*
X105394257Y-92586430D01*
X105337450Y-92616794D01*
X105287657Y-92657657D01*
X105246794Y-92707450D01*
X105216430Y-92764257D01*
X105197732Y-92825897D01*
X105191418Y-92890000D01*
X104644530Y-92890000D01*
X104580294Y-92825764D01*
X104387519Y-92696956D01*
X104173318Y-92608231D01*
X103945924Y-92563000D01*
X103714076Y-92563000D01*
X103486682Y-92608231D01*
X103272481Y-92696956D01*
X103079706Y-92825764D01*
X102915764Y-92989706D01*
X102786956Y-93182481D01*
X102698231Y-93396682D01*
X102653000Y-93624076D01*
X100510276Y-93624076D01*
X100507116Y-90697037D01*
X118663814Y-90702306D01*
G37*
G04 #@! TD.AperFunction*
M02*
