G04 #@! TF.GenerationSoftware,KiCad,Pcbnew,(5.1.10)-1*
G04 #@! TF.CreationDate,2021-07-30T20:35:32-05:00*
G04 #@! TF.ProjectId,dimmlet,64696d6d-6c65-4742-9e6b-696361645f70,rev?*
G04 #@! TF.SameCoordinates,Original*
G04 #@! TF.FileFunction,Soldermask,Bot*
G04 #@! TF.FilePolarity,Negative*
%FSLAX46Y46*%
G04 Gerber Fmt 4.6, Leading zero omitted, Abs format (unit mm)*
G04 Created by KiCad (PCBNEW (5.1.10)-1) date 2021-07-30 20:35:32*
%MOMM*%
%LPD*%
G01*
G04 APERTURE LIST*
%ADD10C,0.010000*%
%ADD11O,1.700000X1.700000*%
%ADD12R,1.700000X1.700000*%
%ADD13C,3.800000*%
%ADD14O,1.752600X3.048000*%
%ADD15C,2.997200*%
%ADD16C,1.244600*%
G04 APERTURE END LIST*
D10*
G36*
X235745310Y-70704515D02*
G01*
X235748253Y-71218284D01*
X235755019Y-71604560D01*
X235767127Y-71884261D01*
X235786101Y-72078307D01*
X235813460Y-72207617D01*
X235850727Y-72293110D01*
X235899423Y-72355705D01*
X235914000Y-72370667D01*
X235974085Y-72422552D01*
X236051680Y-72462617D01*
X236167706Y-72492382D01*
X236343079Y-72513370D01*
X236598721Y-72527101D01*
X236955549Y-72535097D01*
X237434484Y-72538880D01*
X238056443Y-72539970D01*
X238242333Y-72540000D01*
X238904515Y-72539357D01*
X239418284Y-72536413D01*
X239804560Y-72529648D01*
X240084261Y-72517539D01*
X240278307Y-72498566D01*
X240407617Y-72471206D01*
X240493110Y-72433939D01*
X240555705Y-72385244D01*
X240570667Y-72370667D01*
X240622552Y-72310581D01*
X240662617Y-72232986D01*
X240692382Y-72116961D01*
X240713370Y-71941587D01*
X240727101Y-71685945D01*
X240735097Y-71329117D01*
X240738880Y-70850183D01*
X240739970Y-70228224D01*
X240740000Y-70042333D01*
X240739357Y-69380152D01*
X240736413Y-68866382D01*
X240729648Y-68480107D01*
X240717539Y-68200405D01*
X240698566Y-68006359D01*
X240671206Y-67877049D01*
X240633939Y-67791556D01*
X240585244Y-67728962D01*
X240570667Y-67714000D01*
X240510581Y-67662114D01*
X240432986Y-67622050D01*
X240316961Y-67592284D01*
X240141587Y-67571297D01*
X239885945Y-67557565D01*
X239529117Y-67549569D01*
X239050183Y-67545787D01*
X238428224Y-67544697D01*
X238242333Y-67544667D01*
X238064391Y-67544839D01*
X238064391Y-67807324D01*
X238567728Y-67820650D01*
X239058021Y-67941290D01*
X239513049Y-68171506D01*
X239910592Y-68513563D01*
X240228428Y-68969723D01*
X240406892Y-69406785D01*
X240463933Y-69670214D01*
X240479007Y-69912902D01*
X240453785Y-70088442D01*
X240434250Y-70107406D01*
X240434250Y-70423333D01*
X240493263Y-70472895D01*
X240432464Y-70607850D01*
X240264105Y-70807605D01*
X240126167Y-70941232D01*
X239766333Y-71270472D01*
X240126167Y-71590045D01*
X240343318Y-71806858D01*
X240469271Y-71982616D01*
X240489451Y-72092403D01*
X240434250Y-72116667D01*
X240347365Y-72066340D01*
X240171855Y-71935048D01*
X239968583Y-71770116D01*
X239554667Y-71423565D01*
X239137837Y-71772554D01*
X238885071Y-71963670D01*
X238719579Y-72043768D01*
X238663692Y-72028805D01*
X238629149Y-71925292D01*
X238636022Y-71908551D01*
X238712409Y-71843517D01*
X238877845Y-71705078D01*
X239025562Y-71582158D01*
X239385458Y-71283281D01*
X238993206Y-70947994D01*
X238779780Y-70742611D01*
X238667212Y-70584158D01*
X238660981Y-70515582D01*
X238759812Y-70507116D01*
X238963656Y-70629644D01*
X239137837Y-70767445D01*
X239554667Y-71116435D01*
X239968583Y-70769884D01*
X240190253Y-70590583D01*
X240359410Y-70465372D01*
X240434250Y-70423333D01*
X240434250Y-70107406D01*
X240389938Y-70150426D01*
X240380205Y-70148179D01*
X240306562Y-70050205D01*
X240240652Y-69842109D01*
X240217925Y-69718029D01*
X240066417Y-69193109D01*
X239791257Y-68755389D01*
X239418739Y-68413395D01*
X238975157Y-68175652D01*
X238486806Y-68050687D01*
X237979980Y-68047023D01*
X237480974Y-68173188D01*
X237016082Y-68437705D01*
X236814545Y-68614545D01*
X236475426Y-69065228D01*
X236279956Y-69574642D01*
X236228455Y-70111358D01*
X236321240Y-70643942D01*
X236558628Y-71140963D01*
X236786124Y-71425390D01*
X237178087Y-71756545D01*
X237608827Y-71951767D01*
X237930741Y-72019743D01*
X238182284Y-72078874D01*
X238326666Y-72155990D01*
X238349280Y-72229526D01*
X238235525Y-72277916D01*
X238111045Y-72286000D01*
X237638688Y-72228139D01*
X237206268Y-72043387D01*
X236777986Y-71714987D01*
X236670874Y-71611977D01*
X236309996Y-71187010D01*
X236095023Y-70756202D01*
X236007932Y-70271262D01*
X236014836Y-69854181D01*
X236129792Y-69271163D01*
X236365031Y-68781878D01*
X236698331Y-68388587D01*
X237107472Y-68093556D01*
X237570232Y-67899047D01*
X238064391Y-67807324D01*
X238064391Y-67544839D01*
X237580152Y-67545310D01*
X237066382Y-67548253D01*
X236680107Y-67555019D01*
X236400405Y-67567127D01*
X236206359Y-67586101D01*
X236077049Y-67613460D01*
X235991556Y-67650727D01*
X235928962Y-67699423D01*
X235914000Y-67714000D01*
X235862114Y-67774085D01*
X235822050Y-67851680D01*
X235792284Y-67967706D01*
X235771297Y-68143079D01*
X235757565Y-68398721D01*
X235749569Y-68755549D01*
X235745787Y-69234484D01*
X235744697Y-69856443D01*
X235744667Y-70042333D01*
X235745310Y-70704515D01*
G37*
X235745310Y-70704515D02*
X235748253Y-71218284D01*
X235755019Y-71604560D01*
X235767127Y-71884261D01*
X235786101Y-72078307D01*
X235813460Y-72207617D01*
X235850727Y-72293110D01*
X235899423Y-72355705D01*
X235914000Y-72370667D01*
X235974085Y-72422552D01*
X236051680Y-72462617D01*
X236167706Y-72492382D01*
X236343079Y-72513370D01*
X236598721Y-72527101D01*
X236955549Y-72535097D01*
X237434484Y-72538880D01*
X238056443Y-72539970D01*
X238242333Y-72540000D01*
X238904515Y-72539357D01*
X239418284Y-72536413D01*
X239804560Y-72529648D01*
X240084261Y-72517539D01*
X240278307Y-72498566D01*
X240407617Y-72471206D01*
X240493110Y-72433939D01*
X240555705Y-72385244D01*
X240570667Y-72370667D01*
X240622552Y-72310581D01*
X240662617Y-72232986D01*
X240692382Y-72116961D01*
X240713370Y-71941587D01*
X240727101Y-71685945D01*
X240735097Y-71329117D01*
X240738880Y-70850183D01*
X240739970Y-70228224D01*
X240740000Y-70042333D01*
X240739357Y-69380152D01*
X240736413Y-68866382D01*
X240729648Y-68480107D01*
X240717539Y-68200405D01*
X240698566Y-68006359D01*
X240671206Y-67877049D01*
X240633939Y-67791556D01*
X240585244Y-67728962D01*
X240570667Y-67714000D01*
X240510581Y-67662114D01*
X240432986Y-67622050D01*
X240316961Y-67592284D01*
X240141587Y-67571297D01*
X239885945Y-67557565D01*
X239529117Y-67549569D01*
X239050183Y-67545787D01*
X238428224Y-67544697D01*
X238242333Y-67544667D01*
X238064391Y-67544839D01*
X238064391Y-67807324D01*
X238567728Y-67820650D01*
X239058021Y-67941290D01*
X239513049Y-68171506D01*
X239910592Y-68513563D01*
X240228428Y-68969723D01*
X240406892Y-69406785D01*
X240463933Y-69670214D01*
X240479007Y-69912902D01*
X240453785Y-70088442D01*
X240434250Y-70107406D01*
X240434250Y-70423333D01*
X240493263Y-70472895D01*
X240432464Y-70607850D01*
X240264105Y-70807605D01*
X240126167Y-70941232D01*
X239766333Y-71270472D01*
X240126167Y-71590045D01*
X240343318Y-71806858D01*
X240469271Y-71982616D01*
X240489451Y-72092403D01*
X240434250Y-72116667D01*
X240347365Y-72066340D01*
X240171855Y-71935048D01*
X239968583Y-71770116D01*
X239554667Y-71423565D01*
X239137837Y-71772554D01*
X238885071Y-71963670D01*
X238719579Y-72043768D01*
X238663692Y-72028805D01*
X238629149Y-71925292D01*
X238636022Y-71908551D01*
X238712409Y-71843517D01*
X238877845Y-71705078D01*
X239025562Y-71582158D01*
X239385458Y-71283281D01*
X238993206Y-70947994D01*
X238779780Y-70742611D01*
X238667212Y-70584158D01*
X238660981Y-70515582D01*
X238759812Y-70507116D01*
X238963656Y-70629644D01*
X239137837Y-70767445D01*
X239554667Y-71116435D01*
X239968583Y-70769884D01*
X240190253Y-70590583D01*
X240359410Y-70465372D01*
X240434250Y-70423333D01*
X240434250Y-70107406D01*
X240389938Y-70150426D01*
X240380205Y-70148179D01*
X240306562Y-70050205D01*
X240240652Y-69842109D01*
X240217925Y-69718029D01*
X240066417Y-69193109D01*
X239791257Y-68755389D01*
X239418739Y-68413395D01*
X238975157Y-68175652D01*
X238486806Y-68050687D01*
X237979980Y-68047023D01*
X237480974Y-68173188D01*
X237016082Y-68437705D01*
X236814545Y-68614545D01*
X236475426Y-69065228D01*
X236279956Y-69574642D01*
X236228455Y-70111358D01*
X236321240Y-70643942D01*
X236558628Y-71140963D01*
X236786124Y-71425390D01*
X237178087Y-71756545D01*
X237608827Y-71951767D01*
X237930741Y-72019743D01*
X238182284Y-72078874D01*
X238326666Y-72155990D01*
X238349280Y-72229526D01*
X238235525Y-72277916D01*
X238111045Y-72286000D01*
X237638688Y-72228139D01*
X237206268Y-72043387D01*
X236777986Y-71714987D01*
X236670874Y-71611977D01*
X236309996Y-71187010D01*
X236095023Y-70756202D01*
X236007932Y-70271262D01*
X236014836Y-69854181D01*
X236129792Y-69271163D01*
X236365031Y-68781878D01*
X236698331Y-68388587D01*
X237107472Y-68093556D01*
X237570232Y-67899047D01*
X238064391Y-67807324D01*
X238064391Y-67544839D01*
X237580152Y-67545310D01*
X237066382Y-67548253D01*
X236680107Y-67555019D01*
X236400405Y-67567127D01*
X236206359Y-67586101D01*
X236077049Y-67613460D01*
X235991556Y-67650727D01*
X235928962Y-67699423D01*
X235914000Y-67714000D01*
X235862114Y-67774085D01*
X235822050Y-67851680D01*
X235792284Y-67967706D01*
X235771297Y-68143079D01*
X235757565Y-68398721D01*
X235749569Y-68755549D01*
X235745787Y-69234484D01*
X235744697Y-69856443D01*
X235744667Y-70042333D01*
X235745310Y-70704515D01*
D11*
X73100000Y-65300000D03*
D12*
X73100000Y-62760000D03*
D11*
X80100000Y-65300000D03*
D12*
X80100000Y-62760000D03*
D11*
X73200000Y-76740000D03*
D12*
X73200000Y-74200000D03*
D11*
X80100000Y-76740000D03*
D12*
X80100000Y-74200000D03*
D13*
X86100000Y-70200000D03*
X250000000Y-70000000D03*
D14*
X159800018Y-74899339D03*
D15*
X96400005Y-74899314D03*
X234350021Y-74899314D03*
D16*
X102050004Y-77600002D03*
X102900005Y-76000000D03*
X103750006Y-77600002D03*
X104600004Y-76000000D03*
X105450005Y-77600002D03*
X106300006Y-76000000D03*
X107150004Y-77600002D03*
X108000005Y-76000000D03*
X108850006Y-77600002D03*
X109700004Y-76000000D03*
X110550005Y-77600002D03*
X111400006Y-76000000D03*
X112250004Y-77600002D03*
X113100005Y-76000000D03*
X113950006Y-77600002D03*
X114800006Y-76000000D03*
X115650005Y-77600002D03*
X116500005Y-76000000D03*
X117350006Y-77600002D03*
X118200005Y-76000000D03*
X119050005Y-77600002D03*
X119900006Y-76000000D03*
X120750005Y-77600002D03*
X121600005Y-76000000D03*
X122450006Y-77600002D03*
X123300005Y-76000000D03*
X124150005Y-77600002D03*
X125000006Y-76000000D03*
X125850007Y-77600002D03*
X126700005Y-76000000D03*
X127550006Y-77600002D03*
X128400007Y-76000000D03*
X129250005Y-77600002D03*
X130100006Y-76000000D03*
X130950007Y-77600002D03*
X131800005Y-76000000D03*
X132650006Y-77600002D03*
X133500007Y-76000000D03*
X134350005Y-77600002D03*
X135200006Y-76000000D03*
X136050007Y-77600002D03*
X136900005Y-76000000D03*
X137750006Y-77600002D03*
X138600007Y-76000000D03*
X139450008Y-77600002D03*
X140300006Y-76000000D03*
X141150007Y-77600002D03*
X142000008Y-76000000D03*
X142850006Y-77600002D03*
X143700007Y-76000000D03*
X144550008Y-77600002D03*
X145400006Y-76000000D03*
X146250007Y-77600002D03*
X147100008Y-76000000D03*
X147950006Y-77600002D03*
X148800007Y-76000000D03*
X149650008Y-77600002D03*
X150500009Y-76000000D03*
X151350007Y-77600002D03*
X152200008Y-76000000D03*
X153050009Y-77600002D03*
X153900007Y-76000000D03*
X154750008Y-77600002D03*
X155600009Y-76000000D03*
X156450007Y-77600002D03*
X157300008Y-76000000D03*
X158150009Y-77600002D03*
X164099997Y-76000000D03*
X164949997Y-77600002D03*
X165799998Y-76000000D03*
X166649999Y-77600002D03*
X167499997Y-76000000D03*
X168349998Y-77600002D03*
X169199999Y-76000000D03*
X170049997Y-77600002D03*
X170899998Y-76000000D03*
X171749999Y-77600002D03*
X172599997Y-76000000D03*
X173449998Y-77600002D03*
X174299999Y-76000000D03*
X175149997Y-77600002D03*
X175999998Y-76000000D03*
X176849999Y-77600002D03*
X177700000Y-76000000D03*
X178549998Y-77600002D03*
X179399999Y-76000000D03*
X180250000Y-77600002D03*
X181099998Y-76000000D03*
X181949999Y-77600002D03*
X182800000Y-76000000D03*
X183649998Y-77600002D03*
X184499999Y-76000000D03*
X185350000Y-77600002D03*
X186199998Y-76000000D03*
X187049999Y-77600002D03*
X187900000Y-76000000D03*
X188749998Y-77600002D03*
X189599999Y-76000000D03*
X190450000Y-77600002D03*
X191300001Y-76000000D03*
X192149999Y-77600002D03*
X193000000Y-76000000D03*
X193850001Y-77600002D03*
X194699999Y-76000000D03*
X195550000Y-77600002D03*
X196400001Y-76000000D03*
X197249999Y-77600002D03*
X198100000Y-76000000D03*
X198950001Y-77600002D03*
X199799999Y-76000000D03*
X200650000Y-77600002D03*
X201500001Y-76000000D03*
X202350001Y-77600002D03*
X203200000Y-76000000D03*
X204050001Y-77600002D03*
X204900001Y-76000000D03*
X205750000Y-77600002D03*
X206600001Y-76000000D03*
X207450001Y-77600002D03*
X208300000Y-76000000D03*
X209150001Y-77600002D03*
X210000001Y-76000000D03*
X210850000Y-77600002D03*
X211700001Y-76000000D03*
X212550001Y-77600002D03*
X213400002Y-76000000D03*
X214250000Y-77600002D03*
X215100001Y-76000000D03*
X215950002Y-77600002D03*
X216800000Y-76000000D03*
X217650001Y-77600002D03*
X218500002Y-76000000D03*
X219350000Y-77600002D03*
X220200001Y-76000000D03*
X221050002Y-77600002D03*
X221900000Y-76000000D03*
X222750001Y-77600002D03*
X223600002Y-76000000D03*
X224450003Y-77600002D03*
X225300001Y-76000000D03*
X226150002Y-77600002D03*
X227000003Y-76000000D03*
X227850001Y-77600002D03*
X228700002Y-76000000D03*
X102050004Y-73800002D03*
X102900005Y-72200002D03*
X103750006Y-73800002D03*
X104600004Y-72200002D03*
X105450005Y-73800002D03*
X106300006Y-72200002D03*
X107150004Y-73800002D03*
X108000005Y-72200002D03*
X108850006Y-73800002D03*
X109700004Y-72200002D03*
X110550005Y-73800002D03*
X111400006Y-72200002D03*
X112250004Y-73800002D03*
X113100005Y-72200002D03*
X113950006Y-73800002D03*
X114800006Y-72200002D03*
X115650005Y-73800002D03*
X116500005Y-72200002D03*
X117350006Y-73800002D03*
X118200005Y-72200002D03*
X119050005Y-73800002D03*
X119900006Y-72200002D03*
X120750005Y-73800002D03*
X121600005Y-72200002D03*
X122450006Y-73800002D03*
X123300005Y-72200002D03*
X124150005Y-73800002D03*
X125000006Y-72200002D03*
X125850007Y-73800002D03*
X126700005Y-72200002D03*
X127550006Y-73800002D03*
X128400007Y-72200002D03*
X129250005Y-73800002D03*
X130100006Y-72200002D03*
X130950007Y-73800002D03*
X131800005Y-72200002D03*
X132650006Y-73800002D03*
X133500007Y-72200002D03*
X134350005Y-73800002D03*
X135200006Y-72200002D03*
X136050007Y-73800002D03*
X136900005Y-72200002D03*
X137750006Y-73800002D03*
X138600007Y-72200002D03*
X139450008Y-73800002D03*
X140300006Y-72200002D03*
X141150007Y-73800002D03*
X142000008Y-72200002D03*
X142850006Y-73800002D03*
X143700007Y-72200002D03*
X144550008Y-73800002D03*
X145400006Y-72200002D03*
X146250007Y-73800002D03*
X147100008Y-72200002D03*
X147950006Y-73800002D03*
X148800007Y-72200002D03*
X149650008Y-73800002D03*
X150500009Y-72200002D03*
X151350007Y-73800002D03*
X152200008Y-72200002D03*
X153050009Y-73800002D03*
X153900007Y-72200002D03*
X154750008Y-73800002D03*
X155600009Y-72200002D03*
X156450007Y-73800002D03*
X157300008Y-72200002D03*
X158150009Y-73800002D03*
X164099997Y-72200002D03*
X164949997Y-73800002D03*
X165799998Y-72200002D03*
X166649999Y-73800002D03*
X167499997Y-72200002D03*
X168349998Y-73800002D03*
X169199999Y-72200002D03*
X170049997Y-73800002D03*
X170899998Y-72200002D03*
X171749999Y-73800002D03*
X172599997Y-72200002D03*
X173449998Y-73800002D03*
X174299999Y-72200002D03*
X175149997Y-73800002D03*
X175999998Y-72200002D03*
X176849999Y-73800002D03*
X177700000Y-72200002D03*
X178549998Y-73800002D03*
X179399999Y-72200002D03*
X180250000Y-73800002D03*
X181099998Y-72200002D03*
X181949999Y-73800002D03*
X182800000Y-72200002D03*
X183649998Y-73800002D03*
X184499999Y-72200002D03*
X185350000Y-73800002D03*
X186199998Y-72200002D03*
X187049999Y-73800002D03*
X187900000Y-72200002D03*
X188749998Y-73800002D03*
X189599999Y-72200002D03*
X190450000Y-73800002D03*
X191300001Y-72200002D03*
X192149999Y-73800002D03*
X193000000Y-72200002D03*
X193850001Y-73800002D03*
X194699999Y-72200002D03*
X195550000Y-73800002D03*
X196400001Y-72200002D03*
X197249999Y-73800002D03*
X198100000Y-72200002D03*
X198950001Y-73800002D03*
X199799999Y-72200002D03*
X200650000Y-73800002D03*
X201500001Y-72200002D03*
X202350001Y-73800002D03*
X203200000Y-72200002D03*
X204050001Y-73800002D03*
X204900001Y-72200002D03*
X205750000Y-73800002D03*
X206600001Y-72200002D03*
X207450001Y-73800002D03*
X208300000Y-72200002D03*
X209150001Y-73800002D03*
X210000001Y-72200002D03*
X210850000Y-73800002D03*
X211700001Y-72200002D03*
X212550001Y-73800002D03*
X213400002Y-72200002D03*
X214250000Y-73800002D03*
X215100001Y-72200002D03*
X215950002Y-73800002D03*
X216800000Y-72200002D03*
X217650001Y-73800002D03*
X218500002Y-72200002D03*
X219350000Y-73800002D03*
X220200001Y-72200002D03*
X221050002Y-73800002D03*
X221900000Y-72200002D03*
X222750001Y-73800002D03*
X223600002Y-72200002D03*
X224450003Y-73800002D03*
X225300001Y-72200002D03*
X226150002Y-73800002D03*
X227000003Y-72200002D03*
X227850001Y-73800002D03*
X228700002Y-72200002D03*
D14*
X159649992Y-65699338D03*
D15*
X96249979Y-65699313D03*
X234199995Y-65699313D03*
D16*
X101899978Y-68400001D03*
X102749979Y-66799999D03*
X103599980Y-68400001D03*
X104449978Y-66799999D03*
X105299979Y-68400001D03*
X106149980Y-66799999D03*
X106999978Y-68400001D03*
X107849979Y-66799999D03*
X108699980Y-68400001D03*
X109549978Y-66799999D03*
X110399979Y-68400001D03*
X111249980Y-66799999D03*
X112099978Y-68400001D03*
X112949979Y-66799999D03*
X113799980Y-68400001D03*
X114649980Y-66799999D03*
X115499979Y-68400001D03*
X116349979Y-66799999D03*
X117199980Y-68400001D03*
X118049979Y-66799999D03*
X118899979Y-68400001D03*
X119749980Y-66799999D03*
X120599979Y-68400001D03*
X121449979Y-66799999D03*
X122299980Y-68400001D03*
X123149979Y-66799999D03*
X123999979Y-68400001D03*
X124849980Y-66799999D03*
X125699981Y-68400001D03*
X126549979Y-66799999D03*
X127399980Y-68400001D03*
X128249981Y-66799999D03*
X129099979Y-68400001D03*
X129949980Y-66799999D03*
X130799981Y-68400001D03*
X131649979Y-66799999D03*
X132499980Y-68400001D03*
X133349981Y-66799999D03*
X134199979Y-68400001D03*
X135049980Y-66799999D03*
X135899981Y-68400001D03*
X136749979Y-66799999D03*
X137599980Y-68400001D03*
X138449981Y-66799999D03*
X139299982Y-68400001D03*
X140149980Y-66799999D03*
X140999981Y-68400001D03*
X141849982Y-66799999D03*
X142699980Y-68400001D03*
X143549981Y-66799999D03*
X144399982Y-68400001D03*
X145249980Y-66799999D03*
X146099981Y-68400001D03*
X146949982Y-66799999D03*
X147799980Y-68400001D03*
X148649981Y-66799999D03*
X149499982Y-68400001D03*
X150349983Y-66799999D03*
X151199981Y-68400001D03*
X152049982Y-66799999D03*
X152899983Y-68400001D03*
X153749981Y-66799999D03*
X154599982Y-68400001D03*
X155449983Y-66799999D03*
X156299981Y-68400001D03*
X157149982Y-66799999D03*
X157999983Y-68400001D03*
X163949971Y-66799999D03*
X164799971Y-68400001D03*
X165649972Y-66799999D03*
X166499973Y-68400001D03*
X167349971Y-66799999D03*
X168199972Y-68400001D03*
X169049973Y-66799999D03*
X169899971Y-68400001D03*
X170749972Y-66799999D03*
X171599973Y-68400001D03*
X172449971Y-66799999D03*
X173299972Y-68400001D03*
X174149973Y-66799999D03*
X174999971Y-68400001D03*
X175849972Y-66799999D03*
X176699973Y-68400001D03*
X177549974Y-66799999D03*
X178399972Y-68400001D03*
X179249973Y-66799999D03*
X180099974Y-68400001D03*
X180949972Y-66799999D03*
X181799973Y-68400001D03*
X182649974Y-66799999D03*
X183499972Y-68400001D03*
X184349973Y-66799999D03*
X185199974Y-68400001D03*
X186049972Y-66799999D03*
X186899973Y-68400001D03*
X187749974Y-66799999D03*
X188599972Y-68400001D03*
X189449973Y-66799999D03*
X190299974Y-68400001D03*
X191149975Y-66799999D03*
X191999973Y-68400001D03*
X192849974Y-66799999D03*
X193699975Y-68400001D03*
X194549973Y-66799999D03*
X195399974Y-68400001D03*
X196249975Y-66799999D03*
X197099973Y-68400001D03*
X197949974Y-66799999D03*
X198799975Y-68400001D03*
X199649973Y-66799999D03*
X200499974Y-68400001D03*
X201349975Y-66799999D03*
X202199975Y-68400001D03*
X203049974Y-66799999D03*
X203899975Y-68400001D03*
X204749975Y-66799999D03*
X205599974Y-68400001D03*
X206449975Y-66799999D03*
X207299975Y-68400001D03*
X208149974Y-66799999D03*
X208999975Y-68400001D03*
X209849975Y-66799999D03*
X210699974Y-68400001D03*
X211549975Y-66799999D03*
X212399975Y-68400001D03*
X213249976Y-66799999D03*
X214099974Y-68400001D03*
X214949975Y-66799999D03*
X215799976Y-68400001D03*
X216649974Y-66799999D03*
X217499975Y-68400001D03*
X218349976Y-66799999D03*
X219199974Y-68400001D03*
X220049975Y-66799999D03*
X220899976Y-68400001D03*
X221749974Y-66799999D03*
X222599975Y-68400001D03*
X223449976Y-66799999D03*
X224299977Y-68400001D03*
X225149975Y-66799999D03*
X225999976Y-68400001D03*
X226849977Y-66799999D03*
X227699975Y-68400001D03*
X228549976Y-66799999D03*
X101899978Y-64600001D03*
X102749979Y-63000001D03*
X103599980Y-64600001D03*
X104449978Y-63000001D03*
X105299979Y-64600001D03*
X106149980Y-63000001D03*
X106999978Y-64600001D03*
X107849979Y-63000001D03*
X108699980Y-64600001D03*
X109549978Y-63000001D03*
X110399979Y-64600001D03*
X111249980Y-63000001D03*
X112099978Y-64600001D03*
X112949979Y-63000001D03*
X113799980Y-64600001D03*
X114649980Y-63000001D03*
X115499979Y-64600001D03*
X116349979Y-63000001D03*
X117199980Y-64600001D03*
X118049979Y-63000001D03*
X118899979Y-64600001D03*
X119749980Y-63000001D03*
X120599979Y-64600001D03*
X121449979Y-63000001D03*
X122299980Y-64600001D03*
X123149979Y-63000001D03*
X123999979Y-64600001D03*
X124849980Y-63000001D03*
X125699981Y-64600001D03*
X126549979Y-63000001D03*
X127399980Y-64600001D03*
X128249981Y-63000001D03*
X129099979Y-64600001D03*
X129949980Y-63000001D03*
X130799981Y-64600001D03*
X131649979Y-63000001D03*
X132499980Y-64600001D03*
X133349981Y-63000001D03*
X134199979Y-64600001D03*
X135049980Y-63000001D03*
X135899981Y-64600001D03*
X136749979Y-63000001D03*
X137599980Y-64600001D03*
X138449981Y-63000001D03*
X139299982Y-64600001D03*
X140149980Y-63000001D03*
X140999981Y-64600001D03*
X141849982Y-63000001D03*
X142699980Y-64600001D03*
X143549981Y-63000001D03*
X144399982Y-64600001D03*
X145249980Y-63000001D03*
X146099981Y-64600001D03*
X146949982Y-63000001D03*
X147799980Y-64600001D03*
X148649981Y-63000001D03*
X149499982Y-64600001D03*
X150349983Y-63000001D03*
X151199981Y-64600001D03*
X152049982Y-63000001D03*
X152899983Y-64600001D03*
X153749981Y-63000001D03*
X154599982Y-64600001D03*
X155449983Y-63000001D03*
X156299981Y-64600001D03*
X157149982Y-63000001D03*
X157999983Y-64600001D03*
X163949971Y-63000001D03*
X164799971Y-64600001D03*
X165649972Y-63000001D03*
X166499973Y-64600001D03*
X167349971Y-63000001D03*
X168199972Y-64600001D03*
X169049973Y-63000001D03*
X169899971Y-64600001D03*
X170749972Y-63000001D03*
X171599973Y-64600001D03*
X172449971Y-63000001D03*
X173299972Y-64600001D03*
X174149973Y-63000001D03*
X174999971Y-64600001D03*
X175849972Y-63000001D03*
X176699973Y-64600001D03*
X177549974Y-63000001D03*
X178399972Y-64600001D03*
X179249973Y-63000001D03*
X180099974Y-64600001D03*
X180949972Y-63000001D03*
X181799973Y-64600001D03*
X182649974Y-63000001D03*
X183499972Y-64600001D03*
X184349973Y-63000001D03*
X185199974Y-64600001D03*
X186049972Y-63000001D03*
X186899973Y-64600001D03*
X187749974Y-63000001D03*
X188599972Y-64600001D03*
X189449973Y-63000001D03*
X190299974Y-64600001D03*
X191149975Y-63000001D03*
X191999973Y-64600001D03*
X192849974Y-63000001D03*
X193699975Y-64600001D03*
X194549973Y-63000001D03*
X195399974Y-64600001D03*
X196249975Y-63000001D03*
X197099973Y-64600001D03*
X197949974Y-63000001D03*
X198799975Y-64600001D03*
X199649973Y-63000001D03*
X200499974Y-64600001D03*
X201349975Y-63000001D03*
X202199975Y-64600001D03*
X203049974Y-63000001D03*
X203899975Y-64600001D03*
X204749975Y-63000001D03*
X205599974Y-64600001D03*
X206449975Y-63000001D03*
X207299975Y-64600001D03*
X208149974Y-63000001D03*
X208999975Y-64600001D03*
X209849975Y-63000001D03*
X210699974Y-64600001D03*
X211549975Y-63000001D03*
X212399975Y-64600001D03*
X213249976Y-63000001D03*
X214099974Y-64600001D03*
X214949975Y-63000001D03*
X215799976Y-64600001D03*
X216649974Y-63000001D03*
X217499975Y-64600001D03*
X218349976Y-63000001D03*
X219199974Y-64600001D03*
X220049975Y-63000001D03*
X220899976Y-64600001D03*
X221749974Y-63000001D03*
X222599975Y-64600001D03*
X223449976Y-63000001D03*
X224299977Y-64600001D03*
X225149975Y-63000001D03*
X225999976Y-64600001D03*
X226849977Y-63000001D03*
X227699975Y-64600001D03*
X228549976Y-63000001D03*
D11*
X54620000Y-76400000D03*
X54620000Y-73860000D03*
X54620000Y-71320000D03*
X54620000Y-68780000D03*
X54620000Y-66240000D03*
D12*
X54620000Y-63700000D03*
M02*
