G04 #@! TF.GenerationSoftware,KiCad,Pcbnew,(5.1.10)-1*
G04 #@! TF.CreationDate,2021-07-30T20:35:32-05:00*
G04 #@! TF.ProjectId,dimmlet,64696d6d-6c65-4742-9e6b-696361645f70,rev?*
G04 #@! TF.SameCoordinates,Original*
G04 #@! TF.FileFunction,Soldermask,Top*
G04 #@! TF.FilePolarity,Negative*
%FSLAX46Y46*%
G04 Gerber Fmt 4.6, Leading zero omitted, Abs format (unit mm)*
G04 Created by KiCad (PCBNEW (5.1.10)-1) date 2021-07-30 20:35:32*
%MOMM*%
%LPD*%
G01*
G04 APERTURE LIST*
%ADD10R,0.650000X0.400000*%
%ADD11R,0.750000X0.250000*%
%ADD12O,1.700000X1.700000*%
%ADD13R,1.700000X1.700000*%
%ADD14C,3.800000*%
%ADD15O,1.752600X3.048000*%
%ADD16C,2.997200*%
%ADD17C,1.244600*%
G04 APERTURE END LIST*
D10*
X62400000Y-75100000D03*
X62400000Y-76400000D03*
X60500000Y-75750000D03*
X60500000Y-76400000D03*
X60500000Y-75100000D03*
D11*
X65350000Y-71350000D03*
X65350000Y-70850000D03*
X65350000Y-70350000D03*
X65350000Y-69850000D03*
X68450000Y-69850000D03*
X68450000Y-70350000D03*
X68450000Y-70850000D03*
X68450000Y-71350000D03*
G36*
G01*
X64055000Y-74332500D02*
X63745000Y-74332500D01*
G75*
G02*
X63590000Y-74177500I0J155000D01*
G01*
X63590000Y-73752500D01*
G75*
G02*
X63745000Y-73597500I155000J0D01*
G01*
X64055000Y-73597500D01*
G75*
G02*
X64210000Y-73752500I0J-155000D01*
G01*
X64210000Y-74177500D01*
G75*
G02*
X64055000Y-74332500I-155000J0D01*
G01*
G37*
G36*
G01*
X64055000Y-75467500D02*
X63745000Y-75467500D01*
G75*
G02*
X63590000Y-75312500I0J155000D01*
G01*
X63590000Y-74887500D01*
G75*
G02*
X63745000Y-74732500I155000J0D01*
G01*
X64055000Y-74732500D01*
G75*
G02*
X64210000Y-74887500I0J-155000D01*
G01*
X64210000Y-75312500D01*
G75*
G02*
X64055000Y-75467500I-155000J0D01*
G01*
G37*
G36*
G01*
X70832500Y-70755000D02*
X70832500Y-70445000D01*
G75*
G02*
X70987500Y-70290000I155000J0D01*
G01*
X71412500Y-70290000D01*
G75*
G02*
X71567500Y-70445000I0J-155000D01*
G01*
X71567500Y-70755000D01*
G75*
G02*
X71412500Y-70910000I-155000J0D01*
G01*
X70987500Y-70910000D01*
G75*
G02*
X70832500Y-70755000I0J155000D01*
G01*
G37*
G36*
G01*
X69697500Y-70755000D02*
X69697500Y-70445000D01*
G75*
G02*
X69852500Y-70290000I155000J0D01*
G01*
X70277500Y-70290000D01*
G75*
G02*
X70432500Y-70445000I0J-155000D01*
G01*
X70432500Y-70755000D01*
G75*
G02*
X70277500Y-70910000I-155000J0D01*
G01*
X69852500Y-70910000D01*
G75*
G02*
X69697500Y-70755000I0J155000D01*
G01*
G37*
G36*
G01*
X63055000Y-69700000D02*
X62745000Y-69700000D01*
G75*
G02*
X62590000Y-69545000I0J155000D01*
G01*
X62590000Y-69120000D01*
G75*
G02*
X62745000Y-68965000I155000J0D01*
G01*
X63055000Y-68965000D01*
G75*
G02*
X63210000Y-69120000I0J-155000D01*
G01*
X63210000Y-69545000D01*
G75*
G02*
X63055000Y-69700000I-155000J0D01*
G01*
G37*
G36*
G01*
X63055000Y-70835000D02*
X62745000Y-70835000D01*
G75*
G02*
X62590000Y-70680000I0J155000D01*
G01*
X62590000Y-70255000D01*
G75*
G02*
X62745000Y-70100000I155000J0D01*
G01*
X63055000Y-70100000D01*
G75*
G02*
X63210000Y-70255000I0J-155000D01*
G01*
X63210000Y-70680000D01*
G75*
G02*
X63055000Y-70835000I-155000J0D01*
G01*
G37*
G36*
G01*
X59667500Y-73545000D02*
X59667500Y-73855000D01*
G75*
G02*
X59512500Y-74010000I-155000J0D01*
G01*
X59087500Y-74010000D01*
G75*
G02*
X58932500Y-73855000I0J155000D01*
G01*
X58932500Y-73545000D01*
G75*
G02*
X59087500Y-73390000I155000J0D01*
G01*
X59512500Y-73390000D01*
G75*
G02*
X59667500Y-73545000I0J-155000D01*
G01*
G37*
G36*
G01*
X60802500Y-73545000D02*
X60802500Y-73855000D01*
G75*
G02*
X60647500Y-74010000I-155000J0D01*
G01*
X60222500Y-74010000D01*
G75*
G02*
X60067500Y-73855000I0J155000D01*
G01*
X60067500Y-73545000D01*
G75*
G02*
X60222500Y-73390000I155000J0D01*
G01*
X60647500Y-73390000D01*
G75*
G02*
X60802500Y-73545000I0J-155000D01*
G01*
G37*
G36*
G01*
X106032500Y-70155000D02*
X106032500Y-69845000D01*
G75*
G02*
X106187500Y-69690000I155000J0D01*
G01*
X106612500Y-69690000D01*
G75*
G02*
X106767500Y-69845000I0J-155000D01*
G01*
X106767500Y-70155000D01*
G75*
G02*
X106612500Y-70310000I-155000J0D01*
G01*
X106187500Y-70310000D01*
G75*
G02*
X106032500Y-70155000I0J155000D01*
G01*
G37*
G36*
G01*
X104897500Y-70155000D02*
X104897500Y-69845000D01*
G75*
G02*
X105052500Y-69690000I155000J0D01*
G01*
X105477500Y-69690000D01*
G75*
G02*
X105632500Y-69845000I0J-155000D01*
G01*
X105632500Y-70155000D01*
G75*
G02*
X105477500Y-70310000I-155000J0D01*
G01*
X105052500Y-70310000D01*
G75*
G02*
X104897500Y-70155000I0J155000D01*
G01*
G37*
G36*
G01*
X106232500Y-79255000D02*
X106232500Y-78945000D01*
G75*
G02*
X106387500Y-78790000I155000J0D01*
G01*
X106812500Y-78790000D01*
G75*
G02*
X106967500Y-78945000I0J-155000D01*
G01*
X106967500Y-79255000D01*
G75*
G02*
X106812500Y-79410000I-155000J0D01*
G01*
X106387500Y-79410000D01*
G75*
G02*
X106232500Y-79255000I0J155000D01*
G01*
G37*
G36*
G01*
X105097500Y-79255000D02*
X105097500Y-78945000D01*
G75*
G02*
X105252500Y-78790000I155000J0D01*
G01*
X105677500Y-78790000D01*
G75*
G02*
X105832500Y-78945000I0J-155000D01*
G01*
X105832500Y-79255000D01*
G75*
G02*
X105677500Y-79410000I-155000J0D01*
G01*
X105252500Y-79410000D01*
G75*
G02*
X105097500Y-79255000I0J155000D01*
G01*
G37*
D12*
X73100000Y-65300000D03*
D13*
X73100000Y-62760000D03*
D12*
X80100000Y-65300000D03*
D13*
X80100000Y-62760000D03*
D12*
X73200000Y-76740000D03*
D13*
X73200000Y-74200000D03*
D12*
X80100000Y-76740000D03*
D13*
X80100000Y-74200000D03*
G36*
G01*
X75760000Y-63057500D02*
X75440000Y-63057500D01*
G75*
G02*
X75280000Y-62897500I0J160000D01*
G01*
X75280000Y-62502500D01*
G75*
G02*
X75440000Y-62342500I160000J0D01*
G01*
X75760000Y-62342500D01*
G75*
G02*
X75920000Y-62502500I0J-160000D01*
G01*
X75920000Y-62897500D01*
G75*
G02*
X75760000Y-63057500I-160000J0D01*
G01*
G37*
G36*
G01*
X75760000Y-64252500D02*
X75440000Y-64252500D01*
G75*
G02*
X75280000Y-64092500I0J160000D01*
G01*
X75280000Y-63697500D01*
G75*
G02*
X75440000Y-63537500I160000J0D01*
G01*
X75760000Y-63537500D01*
G75*
G02*
X75920000Y-63697500I0J-160000D01*
G01*
X75920000Y-64092500D01*
G75*
G02*
X75760000Y-64252500I-160000J0D01*
G01*
G37*
G36*
G01*
X82760000Y-63157500D02*
X82440000Y-63157500D01*
G75*
G02*
X82280000Y-62997500I0J160000D01*
G01*
X82280000Y-62602500D01*
G75*
G02*
X82440000Y-62442500I160000J0D01*
G01*
X82760000Y-62442500D01*
G75*
G02*
X82920000Y-62602500I0J-160000D01*
G01*
X82920000Y-62997500D01*
G75*
G02*
X82760000Y-63157500I-160000J0D01*
G01*
G37*
G36*
G01*
X82760000Y-64352500D02*
X82440000Y-64352500D01*
G75*
G02*
X82280000Y-64192500I0J160000D01*
G01*
X82280000Y-63797500D01*
G75*
G02*
X82440000Y-63637500I160000J0D01*
G01*
X82760000Y-63637500D01*
G75*
G02*
X82920000Y-63797500I0J-160000D01*
G01*
X82920000Y-64192500D01*
G75*
G02*
X82760000Y-64352500I-160000J0D01*
G01*
G37*
G36*
G01*
X75860000Y-74557500D02*
X75540000Y-74557500D01*
G75*
G02*
X75380000Y-74397500I0J160000D01*
G01*
X75380000Y-74002500D01*
G75*
G02*
X75540000Y-73842500I160000J0D01*
G01*
X75860000Y-73842500D01*
G75*
G02*
X76020000Y-74002500I0J-160000D01*
G01*
X76020000Y-74397500D01*
G75*
G02*
X75860000Y-74557500I-160000J0D01*
G01*
G37*
G36*
G01*
X75860000Y-75752500D02*
X75540000Y-75752500D01*
G75*
G02*
X75380000Y-75592500I0J160000D01*
G01*
X75380000Y-75197500D01*
G75*
G02*
X75540000Y-75037500I160000J0D01*
G01*
X75860000Y-75037500D01*
G75*
G02*
X76020000Y-75197500I0J-160000D01*
G01*
X76020000Y-75592500D01*
G75*
G02*
X75860000Y-75752500I-160000J0D01*
G01*
G37*
G36*
G01*
X82440000Y-73842500D02*
X82760000Y-73842500D01*
G75*
G02*
X82920000Y-74002500I0J-160000D01*
G01*
X82920000Y-74397500D01*
G75*
G02*
X82760000Y-74557500I-160000J0D01*
G01*
X82440000Y-74557500D01*
G75*
G02*
X82280000Y-74397500I0J160000D01*
G01*
X82280000Y-74002500D01*
G75*
G02*
X82440000Y-73842500I160000J0D01*
G01*
G37*
G36*
G01*
X82440000Y-72647500D02*
X82760000Y-72647500D01*
G75*
G02*
X82920000Y-72807500I0J-160000D01*
G01*
X82920000Y-73202500D01*
G75*
G02*
X82760000Y-73362500I-160000J0D01*
G01*
X82440000Y-73362500D01*
G75*
G02*
X82280000Y-73202500I0J160000D01*
G01*
X82280000Y-72807500D01*
G75*
G02*
X82440000Y-72647500I160000J0D01*
G01*
G37*
D14*
X86100000Y-70200000D03*
X250000000Y-70000000D03*
D15*
X159800018Y-74899339D03*
D16*
X96400005Y-74899314D03*
X234350021Y-74899314D03*
D17*
X102050004Y-77600002D03*
X102900005Y-76000000D03*
X103750006Y-77600002D03*
X104600004Y-76000000D03*
X105450005Y-77600002D03*
X106300006Y-76000000D03*
X107150004Y-77600002D03*
X108000005Y-76000000D03*
X108850006Y-77600002D03*
X109700004Y-76000000D03*
X110550005Y-77600002D03*
X111400006Y-76000000D03*
X112250004Y-77600002D03*
X113100005Y-76000000D03*
X113950006Y-77600002D03*
X114800006Y-76000000D03*
X115650005Y-77600002D03*
X116500005Y-76000000D03*
X117350006Y-77600002D03*
X118200005Y-76000000D03*
X119050005Y-77600002D03*
X119900006Y-76000000D03*
X120750005Y-77600002D03*
X121600005Y-76000000D03*
X122450006Y-77600002D03*
X123300005Y-76000000D03*
X124150005Y-77600002D03*
X125000006Y-76000000D03*
X125850007Y-77600002D03*
X126700005Y-76000000D03*
X127550006Y-77600002D03*
X128400007Y-76000000D03*
X129250005Y-77600002D03*
X130100006Y-76000000D03*
X130950007Y-77600002D03*
X131800005Y-76000000D03*
X132650006Y-77600002D03*
X133500007Y-76000000D03*
X134350005Y-77600002D03*
X135200006Y-76000000D03*
X136050007Y-77600002D03*
X136900005Y-76000000D03*
X137750006Y-77600002D03*
X138600007Y-76000000D03*
X139450008Y-77600002D03*
X140300006Y-76000000D03*
X141150007Y-77600002D03*
X142000008Y-76000000D03*
X142850006Y-77600002D03*
X143700007Y-76000000D03*
X144550008Y-77600002D03*
X145400006Y-76000000D03*
X146250007Y-77600002D03*
X147100008Y-76000000D03*
X147950006Y-77600002D03*
X148800007Y-76000000D03*
X149650008Y-77600002D03*
X150500009Y-76000000D03*
X151350007Y-77600002D03*
X152200008Y-76000000D03*
X153050009Y-77600002D03*
X153900007Y-76000000D03*
X154750008Y-77600002D03*
X155600009Y-76000000D03*
X156450007Y-77600002D03*
X157300008Y-76000000D03*
X158150009Y-77600002D03*
X164099997Y-76000000D03*
X164949997Y-77600002D03*
X165799998Y-76000000D03*
X166649999Y-77600002D03*
X167499997Y-76000000D03*
X168349998Y-77600002D03*
X169199999Y-76000000D03*
X170049997Y-77600002D03*
X170899998Y-76000000D03*
X171749999Y-77600002D03*
X172599997Y-76000000D03*
X173449998Y-77600002D03*
X174299999Y-76000000D03*
X175149997Y-77600002D03*
X175999998Y-76000000D03*
X176849999Y-77600002D03*
X177700000Y-76000000D03*
X178549998Y-77600002D03*
X179399999Y-76000000D03*
X180250000Y-77600002D03*
X181099998Y-76000000D03*
X181949999Y-77600002D03*
X182800000Y-76000000D03*
X183649998Y-77600002D03*
X184499999Y-76000000D03*
X185350000Y-77600002D03*
X186199998Y-76000000D03*
X187049999Y-77600002D03*
X187900000Y-76000000D03*
X188749998Y-77600002D03*
X189599999Y-76000000D03*
X190450000Y-77600002D03*
X191300001Y-76000000D03*
X192149999Y-77600002D03*
X193000000Y-76000000D03*
X193850001Y-77600002D03*
X194699999Y-76000000D03*
X195550000Y-77600002D03*
X196400001Y-76000000D03*
X197249999Y-77600002D03*
X198100000Y-76000000D03*
X198950001Y-77600002D03*
X199799999Y-76000000D03*
X200650000Y-77600002D03*
X201500001Y-76000000D03*
X202350001Y-77600002D03*
X203200000Y-76000000D03*
X204050001Y-77600002D03*
X204900001Y-76000000D03*
X205750000Y-77600002D03*
X206600001Y-76000000D03*
X207450001Y-77600002D03*
X208300000Y-76000000D03*
X209150001Y-77600002D03*
X210000001Y-76000000D03*
X210850000Y-77600002D03*
X211700001Y-76000000D03*
X212550001Y-77600002D03*
X213400002Y-76000000D03*
X214250000Y-77600002D03*
X215100001Y-76000000D03*
X215950002Y-77600002D03*
X216800000Y-76000000D03*
X217650001Y-77600002D03*
X218500002Y-76000000D03*
X219350000Y-77600002D03*
X220200001Y-76000000D03*
X221050002Y-77600002D03*
X221900000Y-76000000D03*
X222750001Y-77600002D03*
X223600002Y-76000000D03*
X224450003Y-77600002D03*
X225300001Y-76000000D03*
X226150002Y-77600002D03*
X227000003Y-76000000D03*
X227850001Y-77600002D03*
X228700002Y-76000000D03*
X102050004Y-73800002D03*
X102900005Y-72200002D03*
X103750006Y-73800002D03*
X104600004Y-72200002D03*
X105450005Y-73800002D03*
X106300006Y-72200002D03*
X107150004Y-73800002D03*
X108000005Y-72200002D03*
X108850006Y-73800002D03*
X109700004Y-72200002D03*
X110550005Y-73800002D03*
X111400006Y-72200002D03*
X112250004Y-73800002D03*
X113100005Y-72200002D03*
X113950006Y-73800002D03*
X114800006Y-72200002D03*
X115650005Y-73800002D03*
X116500005Y-72200002D03*
X117350006Y-73800002D03*
X118200005Y-72200002D03*
X119050005Y-73800002D03*
X119900006Y-72200002D03*
X120750005Y-73800002D03*
X121600005Y-72200002D03*
X122450006Y-73800002D03*
X123300005Y-72200002D03*
X124150005Y-73800002D03*
X125000006Y-72200002D03*
X125850007Y-73800002D03*
X126700005Y-72200002D03*
X127550006Y-73800002D03*
X128400007Y-72200002D03*
X129250005Y-73800002D03*
X130100006Y-72200002D03*
X130950007Y-73800002D03*
X131800005Y-72200002D03*
X132650006Y-73800002D03*
X133500007Y-72200002D03*
X134350005Y-73800002D03*
X135200006Y-72200002D03*
X136050007Y-73800002D03*
X136900005Y-72200002D03*
X137750006Y-73800002D03*
X138600007Y-72200002D03*
X139450008Y-73800002D03*
X140300006Y-72200002D03*
X141150007Y-73800002D03*
X142000008Y-72200002D03*
X142850006Y-73800002D03*
X143700007Y-72200002D03*
X144550008Y-73800002D03*
X145400006Y-72200002D03*
X146250007Y-73800002D03*
X147100008Y-72200002D03*
X147950006Y-73800002D03*
X148800007Y-72200002D03*
X149650008Y-73800002D03*
X150500009Y-72200002D03*
X151350007Y-73800002D03*
X152200008Y-72200002D03*
X153050009Y-73800002D03*
X153900007Y-72200002D03*
X154750008Y-73800002D03*
X155600009Y-72200002D03*
X156450007Y-73800002D03*
X157300008Y-72200002D03*
X158150009Y-73800002D03*
X164099997Y-72200002D03*
X164949997Y-73800002D03*
X165799998Y-72200002D03*
X166649999Y-73800002D03*
X167499997Y-72200002D03*
X168349998Y-73800002D03*
X169199999Y-72200002D03*
X170049997Y-73800002D03*
X170899998Y-72200002D03*
X171749999Y-73800002D03*
X172599997Y-72200002D03*
X173449998Y-73800002D03*
X174299999Y-72200002D03*
X175149997Y-73800002D03*
X175999998Y-72200002D03*
X176849999Y-73800002D03*
X177700000Y-72200002D03*
X178549998Y-73800002D03*
X179399999Y-72200002D03*
X180250000Y-73800002D03*
X181099998Y-72200002D03*
X181949999Y-73800002D03*
X182800000Y-72200002D03*
X183649998Y-73800002D03*
X184499999Y-72200002D03*
X185350000Y-73800002D03*
X186199998Y-72200002D03*
X187049999Y-73800002D03*
X187900000Y-72200002D03*
X188749998Y-73800002D03*
X189599999Y-72200002D03*
X190450000Y-73800002D03*
X191300001Y-72200002D03*
X192149999Y-73800002D03*
X193000000Y-72200002D03*
X193850001Y-73800002D03*
X194699999Y-72200002D03*
X195550000Y-73800002D03*
X196400001Y-72200002D03*
X197249999Y-73800002D03*
X198100000Y-72200002D03*
X198950001Y-73800002D03*
X199799999Y-72200002D03*
X200650000Y-73800002D03*
X201500001Y-72200002D03*
X202350001Y-73800002D03*
X203200000Y-72200002D03*
X204050001Y-73800002D03*
X204900001Y-72200002D03*
X205750000Y-73800002D03*
X206600001Y-72200002D03*
X207450001Y-73800002D03*
X208300000Y-72200002D03*
X209150001Y-73800002D03*
X210000001Y-72200002D03*
X210850000Y-73800002D03*
X211700001Y-72200002D03*
X212550001Y-73800002D03*
X213400002Y-72200002D03*
X214250000Y-73800002D03*
X215100001Y-72200002D03*
X215950002Y-73800002D03*
X216800000Y-72200002D03*
X217650001Y-73800002D03*
X218500002Y-72200002D03*
X219350000Y-73800002D03*
X220200001Y-72200002D03*
X221050002Y-73800002D03*
X221900000Y-72200002D03*
X222750001Y-73800002D03*
X223600002Y-72200002D03*
X224450003Y-73800002D03*
X225300001Y-72200002D03*
X226150002Y-73800002D03*
X227000003Y-72200002D03*
X227850001Y-73800002D03*
X228700002Y-72200002D03*
D15*
X159649992Y-65699338D03*
D16*
X96249979Y-65699313D03*
X234199995Y-65699313D03*
D17*
X101899978Y-68400001D03*
X102749979Y-66799999D03*
X103599980Y-68400001D03*
X104449978Y-66799999D03*
X105299979Y-68400001D03*
X106149980Y-66799999D03*
X106999978Y-68400001D03*
X107849979Y-66799999D03*
X108699980Y-68400001D03*
X109549978Y-66799999D03*
X110399979Y-68400001D03*
X111249980Y-66799999D03*
X112099978Y-68400001D03*
X112949979Y-66799999D03*
X113799980Y-68400001D03*
X114649980Y-66799999D03*
X115499979Y-68400001D03*
X116349979Y-66799999D03*
X117199980Y-68400001D03*
X118049979Y-66799999D03*
X118899979Y-68400001D03*
X119749980Y-66799999D03*
X120599979Y-68400001D03*
X121449979Y-66799999D03*
X122299980Y-68400001D03*
X123149979Y-66799999D03*
X123999979Y-68400001D03*
X124849980Y-66799999D03*
X125699981Y-68400001D03*
X126549979Y-66799999D03*
X127399980Y-68400001D03*
X128249981Y-66799999D03*
X129099979Y-68400001D03*
X129949980Y-66799999D03*
X130799981Y-68400001D03*
X131649979Y-66799999D03*
X132499980Y-68400001D03*
X133349981Y-66799999D03*
X134199979Y-68400001D03*
X135049980Y-66799999D03*
X135899981Y-68400001D03*
X136749979Y-66799999D03*
X137599980Y-68400001D03*
X138449981Y-66799999D03*
X139299982Y-68400001D03*
X140149980Y-66799999D03*
X140999981Y-68400001D03*
X141849982Y-66799999D03*
X142699980Y-68400001D03*
X143549981Y-66799999D03*
X144399982Y-68400001D03*
X145249980Y-66799999D03*
X146099981Y-68400001D03*
X146949982Y-66799999D03*
X147799980Y-68400001D03*
X148649981Y-66799999D03*
X149499982Y-68400001D03*
X150349983Y-66799999D03*
X151199981Y-68400001D03*
X152049982Y-66799999D03*
X152899983Y-68400001D03*
X153749981Y-66799999D03*
X154599982Y-68400001D03*
X155449983Y-66799999D03*
X156299981Y-68400001D03*
X157149982Y-66799999D03*
X157999983Y-68400001D03*
X163949971Y-66799999D03*
X164799971Y-68400001D03*
X165649972Y-66799999D03*
X166499973Y-68400001D03*
X167349971Y-66799999D03*
X168199972Y-68400001D03*
X169049973Y-66799999D03*
X169899971Y-68400001D03*
X170749972Y-66799999D03*
X171599973Y-68400001D03*
X172449971Y-66799999D03*
X173299972Y-68400001D03*
X174149973Y-66799999D03*
X174999971Y-68400001D03*
X175849972Y-66799999D03*
X176699973Y-68400001D03*
X177549974Y-66799999D03*
X178399972Y-68400001D03*
X179249973Y-66799999D03*
X180099974Y-68400001D03*
X180949972Y-66799999D03*
X181799973Y-68400001D03*
X182649974Y-66799999D03*
X183499972Y-68400001D03*
X184349973Y-66799999D03*
X185199974Y-68400001D03*
X186049972Y-66799999D03*
X186899973Y-68400001D03*
X187749974Y-66799999D03*
X188599972Y-68400001D03*
X189449973Y-66799999D03*
X190299974Y-68400001D03*
X191149975Y-66799999D03*
X191999973Y-68400001D03*
X192849974Y-66799999D03*
X193699975Y-68400001D03*
X194549973Y-66799999D03*
X195399974Y-68400001D03*
X196249975Y-66799999D03*
X197099973Y-68400001D03*
X197949974Y-66799999D03*
X198799975Y-68400001D03*
X199649973Y-66799999D03*
X200499974Y-68400001D03*
X201349975Y-66799999D03*
X202199975Y-68400001D03*
X203049974Y-66799999D03*
X203899975Y-68400001D03*
X204749975Y-66799999D03*
X205599974Y-68400001D03*
X206449975Y-66799999D03*
X207299975Y-68400001D03*
X208149974Y-66799999D03*
X208999975Y-68400001D03*
X209849975Y-66799999D03*
X210699974Y-68400001D03*
X211549975Y-66799999D03*
X212399975Y-68400001D03*
X213249976Y-66799999D03*
X214099974Y-68400001D03*
X214949975Y-66799999D03*
X215799976Y-68400001D03*
X216649974Y-66799999D03*
X217499975Y-68400001D03*
X218349976Y-66799999D03*
X219199974Y-68400001D03*
X220049975Y-66799999D03*
X220899976Y-68400001D03*
X221749974Y-66799999D03*
X222599975Y-68400001D03*
X223449976Y-66799999D03*
X224299977Y-68400001D03*
X225149975Y-66799999D03*
X225999976Y-68400001D03*
X226849977Y-66799999D03*
X227699975Y-68400001D03*
X228549976Y-66799999D03*
X101899978Y-64600001D03*
X102749979Y-63000001D03*
X103599980Y-64600001D03*
X104449978Y-63000001D03*
X105299979Y-64600001D03*
X106149980Y-63000001D03*
X106999978Y-64600001D03*
X107849979Y-63000001D03*
X108699980Y-64600001D03*
X109549978Y-63000001D03*
X110399979Y-64600001D03*
X111249980Y-63000001D03*
X112099978Y-64600001D03*
X112949979Y-63000001D03*
X113799980Y-64600001D03*
X114649980Y-63000001D03*
X115499979Y-64600001D03*
X116349979Y-63000001D03*
X117199980Y-64600001D03*
X118049979Y-63000001D03*
X118899979Y-64600001D03*
X119749980Y-63000001D03*
X120599979Y-64600001D03*
X121449979Y-63000001D03*
X122299980Y-64600001D03*
X123149979Y-63000001D03*
X123999979Y-64600001D03*
X124849980Y-63000001D03*
X125699981Y-64600001D03*
X126549979Y-63000001D03*
X127399980Y-64600001D03*
X128249981Y-63000001D03*
X129099979Y-64600001D03*
X129949980Y-63000001D03*
X130799981Y-64600001D03*
X131649979Y-63000001D03*
X132499980Y-64600001D03*
X133349981Y-63000001D03*
X134199979Y-64600001D03*
X135049980Y-63000001D03*
X135899981Y-64600001D03*
X136749979Y-63000001D03*
X137599980Y-64600001D03*
X138449981Y-63000001D03*
X139299982Y-64600001D03*
X140149980Y-63000001D03*
X140999981Y-64600001D03*
X141849982Y-63000001D03*
X142699980Y-64600001D03*
X143549981Y-63000001D03*
X144399982Y-64600001D03*
X145249980Y-63000001D03*
X146099981Y-64600001D03*
X146949982Y-63000001D03*
X147799980Y-64600001D03*
X148649981Y-63000001D03*
X149499982Y-64600001D03*
X150349983Y-63000001D03*
X151199981Y-64600001D03*
X152049982Y-63000001D03*
X152899983Y-64600001D03*
X153749981Y-63000001D03*
X154599982Y-64600001D03*
X155449983Y-63000001D03*
X156299981Y-64600001D03*
X157149982Y-63000001D03*
X157999983Y-64600001D03*
X163949971Y-63000001D03*
X164799971Y-64600001D03*
X165649972Y-63000001D03*
X166499973Y-64600001D03*
X167349971Y-63000001D03*
X168199972Y-64600001D03*
X169049973Y-63000001D03*
X169899971Y-64600001D03*
X170749972Y-63000001D03*
X171599973Y-64600001D03*
X172449971Y-63000001D03*
X173299972Y-64600001D03*
X174149973Y-63000001D03*
X174999971Y-64600001D03*
X175849972Y-63000001D03*
X176699973Y-64600001D03*
X177549974Y-63000001D03*
X178399972Y-64600001D03*
X179249973Y-63000001D03*
X180099974Y-64600001D03*
X180949972Y-63000001D03*
X181799973Y-64600001D03*
X182649974Y-63000001D03*
X183499972Y-64600001D03*
X184349973Y-63000001D03*
X185199974Y-64600001D03*
X186049972Y-63000001D03*
X186899973Y-64600001D03*
X187749974Y-63000001D03*
X188599972Y-64600001D03*
X189449973Y-63000001D03*
X190299974Y-64600001D03*
X191149975Y-63000001D03*
X191999973Y-64600001D03*
X192849974Y-63000001D03*
X193699975Y-64600001D03*
X194549973Y-63000001D03*
X195399974Y-64600001D03*
X196249975Y-63000001D03*
X197099973Y-64600001D03*
X197949974Y-63000001D03*
X198799975Y-64600001D03*
X199649973Y-63000001D03*
X200499974Y-64600001D03*
X201349975Y-63000001D03*
X202199975Y-64600001D03*
X203049974Y-63000001D03*
X203899975Y-64600001D03*
X204749975Y-63000001D03*
X205599974Y-64600001D03*
X206449975Y-63000001D03*
X207299975Y-64600001D03*
X208149974Y-63000001D03*
X208999975Y-64600001D03*
X209849975Y-63000001D03*
X210699974Y-64600001D03*
X211549975Y-63000001D03*
X212399975Y-64600001D03*
X213249976Y-63000001D03*
X214099974Y-64600001D03*
X214949975Y-63000001D03*
X215799976Y-64600001D03*
X216649974Y-63000001D03*
X217499975Y-64600001D03*
X218349976Y-63000001D03*
X219199974Y-64600001D03*
X220049975Y-63000001D03*
X220899976Y-64600001D03*
X221749974Y-63000001D03*
X222599975Y-64600001D03*
X223449976Y-63000001D03*
X224299977Y-64600001D03*
X225149975Y-63000001D03*
X225999976Y-64600001D03*
X226849977Y-63000001D03*
X227699975Y-64600001D03*
X228549976Y-63000001D03*
D12*
X54620000Y-76400000D03*
X54620000Y-73860000D03*
X54620000Y-71320000D03*
X54620000Y-68780000D03*
X54620000Y-66240000D03*
D13*
X54620000Y-63700000D03*
M02*
