G04 #@! TF.GenerationSoftware,KiCad,Pcbnew,(5.1.10)-1*
G04 #@! TF.CreationDate,2021-07-30T20:35:32-05:00*
G04 #@! TF.ProjectId,dimmlet,64696d6d-6c65-4742-9e6b-696361645f70,rev?*
G04 #@! TF.SameCoordinates,Original*
G04 #@! TF.FileFunction,Legend,Top*
G04 #@! TF.FilePolarity,Positive*
%FSLAX46Y46*%
G04 Gerber Fmt 4.6, Leading zero omitted, Abs format (unit mm)*
G04 Created by KiCad (PCBNEW (5.1.10)-1) date 2021-07-30 20:35:32*
%MOMM*%
%LPD*%
G01*
G04 APERTURE LIST*
%ADD10C,0.150000*%
%ADD11C,0.200000*%
%ADD12C,0.120000*%
G04 APERTURE END LIST*
D10*
X56161904Y-75852380D02*
X56780952Y-75852380D01*
X56447619Y-76233333D01*
X56590476Y-76233333D01*
X56685714Y-76280952D01*
X56733333Y-76328571D01*
X56780952Y-76423809D01*
X56780952Y-76661904D01*
X56733333Y-76757142D01*
X56685714Y-76804761D01*
X56590476Y-76852380D01*
X56304761Y-76852380D01*
X56209523Y-76804761D01*
X56161904Y-76757142D01*
X57066666Y-75852380D02*
X57400000Y-76852380D01*
X57733333Y-75852380D01*
X57971428Y-75852380D02*
X58590476Y-75852380D01*
X58257142Y-76233333D01*
X58400000Y-76233333D01*
X58495238Y-76280952D01*
X58542857Y-76328571D01*
X58590476Y-76423809D01*
X58590476Y-76661904D01*
X58542857Y-76757142D01*
X58495238Y-76804761D01*
X58400000Y-76852380D01*
X58114285Y-76852380D01*
X58019047Y-76804761D01*
X57971428Y-76757142D01*
X56638095Y-73400000D02*
X56542857Y-73352380D01*
X56400000Y-73352380D01*
X56257142Y-73400000D01*
X56161904Y-73495238D01*
X56114285Y-73590476D01*
X56066666Y-73780952D01*
X56066666Y-73923809D01*
X56114285Y-74114285D01*
X56161904Y-74209523D01*
X56257142Y-74304761D01*
X56400000Y-74352380D01*
X56495238Y-74352380D01*
X56638095Y-74304761D01*
X56685714Y-74257142D01*
X56685714Y-73923809D01*
X56495238Y-73923809D01*
X57114285Y-74352380D02*
X57114285Y-73352380D01*
X57685714Y-74352380D01*
X57685714Y-73352380D01*
X58161904Y-74352380D02*
X58161904Y-73352380D01*
X58400000Y-73352380D01*
X58542857Y-73400000D01*
X58638095Y-73495238D01*
X58685714Y-73590476D01*
X58733333Y-73780952D01*
X58733333Y-73923809D01*
X58685714Y-74114285D01*
X58638095Y-74209523D01*
X58542857Y-74304761D01*
X58400000Y-74352380D01*
X58161904Y-74352380D01*
X56085714Y-71804761D02*
X56228571Y-71852380D01*
X56466666Y-71852380D01*
X56561904Y-71804761D01*
X56609523Y-71757142D01*
X56657142Y-71661904D01*
X56657142Y-71566666D01*
X56609523Y-71471428D01*
X56561904Y-71423809D01*
X56466666Y-71376190D01*
X56276190Y-71328571D01*
X56180952Y-71280952D01*
X56133333Y-71233333D01*
X56085714Y-71138095D01*
X56085714Y-71042857D01*
X56133333Y-70947619D01*
X56180952Y-70900000D01*
X56276190Y-70852380D01*
X56514285Y-70852380D01*
X56657142Y-70900000D01*
X57085714Y-71852380D02*
X57085714Y-70852380D01*
X57323809Y-70852380D01*
X57466666Y-70900000D01*
X57561904Y-70995238D01*
X57609523Y-71090476D01*
X57657142Y-71280952D01*
X57657142Y-71423809D01*
X57609523Y-71614285D01*
X57561904Y-71709523D01*
X57466666Y-71804761D01*
X57323809Y-71852380D01*
X57085714Y-71852380D01*
X58038095Y-71566666D02*
X58514285Y-71566666D01*
X57942857Y-71852380D02*
X58276190Y-70852380D01*
X58609523Y-71852380D01*
X55909523Y-69204761D02*
X56052380Y-69252380D01*
X56290476Y-69252380D01*
X56385714Y-69204761D01*
X56433333Y-69157142D01*
X56480952Y-69061904D01*
X56480952Y-68966666D01*
X56433333Y-68871428D01*
X56385714Y-68823809D01*
X56290476Y-68776190D01*
X56100000Y-68728571D01*
X56004761Y-68680952D01*
X55957142Y-68633333D01*
X55909523Y-68538095D01*
X55909523Y-68442857D01*
X55957142Y-68347619D01*
X56004761Y-68300000D01*
X56100000Y-68252380D01*
X56338095Y-68252380D01*
X56480952Y-68300000D01*
X57480952Y-69157142D02*
X57433333Y-69204761D01*
X57290476Y-69252380D01*
X57195238Y-69252380D01*
X57052380Y-69204761D01*
X56957142Y-69109523D01*
X56909523Y-69014285D01*
X56861904Y-68823809D01*
X56861904Y-68680952D01*
X56909523Y-68490476D01*
X56957142Y-68395238D01*
X57052380Y-68300000D01*
X57195238Y-68252380D01*
X57290476Y-68252380D01*
X57433333Y-68300000D01*
X57480952Y-68347619D01*
X58385714Y-69252380D02*
X57909523Y-69252380D01*
X57909523Y-68252380D01*
X57887976Y-62754761D02*
X58030833Y-62802380D01*
X58268928Y-62802380D01*
X58364166Y-62754761D01*
X58411785Y-62707142D01*
X58459404Y-62611904D01*
X58459404Y-62516666D01*
X58411785Y-62421428D01*
X58364166Y-62373809D01*
X58268928Y-62326190D01*
X58078452Y-62278571D01*
X57983214Y-62230952D01*
X57935595Y-62183333D01*
X57887976Y-62088095D01*
X57887976Y-61992857D01*
X57935595Y-61897619D01*
X57983214Y-61850000D01*
X58078452Y-61802380D01*
X58316547Y-61802380D01*
X58459404Y-61850000D01*
X58887976Y-62802380D02*
X58887976Y-61802380D01*
X59268928Y-61802380D01*
X59364166Y-61850000D01*
X59411785Y-61897619D01*
X59459404Y-61992857D01*
X59459404Y-62135714D01*
X59411785Y-62230952D01*
X59364166Y-62278571D01*
X59268928Y-62326190D01*
X58887976Y-62326190D01*
X59887976Y-62802380D02*
X59887976Y-61802380D01*
X60126071Y-61802380D01*
X60268928Y-61850000D01*
X60364166Y-61945238D01*
X60411785Y-62040476D01*
X60459404Y-62230952D01*
X60459404Y-62373809D01*
X60411785Y-62564285D01*
X60364166Y-62659523D01*
X60268928Y-62754761D01*
X60126071Y-62802380D01*
X59887976Y-62802380D01*
X61602261Y-62516666D02*
X62078452Y-62516666D01*
X61507023Y-62802380D02*
X61840357Y-61802380D01*
X62173690Y-62802380D01*
X62507023Y-62802380D02*
X62507023Y-61802380D01*
X62745119Y-61802380D01*
X62887976Y-61850000D01*
X62983214Y-61945238D01*
X63030833Y-62040476D01*
X63078452Y-62230952D01*
X63078452Y-62373809D01*
X63030833Y-62564285D01*
X62983214Y-62659523D01*
X62887976Y-62754761D01*
X62745119Y-62802380D01*
X62507023Y-62802380D01*
X63507023Y-62802380D02*
X63507023Y-61802380D01*
X63745119Y-61802380D01*
X63887976Y-61850000D01*
X63983214Y-61945238D01*
X64030833Y-62040476D01*
X64078452Y-62230952D01*
X64078452Y-62373809D01*
X64030833Y-62564285D01*
X63983214Y-62659523D01*
X63887976Y-62754761D01*
X63745119Y-62802380D01*
X63507023Y-62802380D01*
X65078452Y-62802380D02*
X64745119Y-62326190D01*
X64507023Y-62802380D02*
X64507023Y-61802380D01*
X64887976Y-61802380D01*
X64983214Y-61850000D01*
X65030833Y-61897619D01*
X65078452Y-61992857D01*
X65078452Y-62135714D01*
X65030833Y-62230952D01*
X64983214Y-62278571D01*
X64887976Y-62326190D01*
X64507023Y-62326190D01*
X66221309Y-62754761D02*
X66364166Y-62802380D01*
X66602261Y-62802380D01*
X66697500Y-62754761D01*
X66745119Y-62707142D01*
X66792738Y-62611904D01*
X66792738Y-62516666D01*
X66745119Y-62421428D01*
X66697500Y-62373809D01*
X66602261Y-62326190D01*
X66411785Y-62278571D01*
X66316547Y-62230952D01*
X66268928Y-62183333D01*
X66221309Y-62088095D01*
X66221309Y-61992857D01*
X66268928Y-61897619D01*
X66316547Y-61850000D01*
X66411785Y-61802380D01*
X66649880Y-61802380D01*
X66792738Y-61850000D01*
X67221309Y-62278571D02*
X67554642Y-62278571D01*
X67697500Y-62802380D02*
X67221309Y-62802380D01*
X67221309Y-61802380D01*
X67697500Y-61802380D01*
X68602261Y-62802380D02*
X68126071Y-62802380D01*
X68126071Y-61802380D01*
X68935595Y-62707142D02*
X68983214Y-62754761D01*
X68935595Y-62802380D01*
X68887976Y-62754761D01*
X68935595Y-62707142D01*
X68935595Y-62802380D01*
X68935595Y-62183333D02*
X68983214Y-62230952D01*
X68935595Y-62278571D01*
X68887976Y-62230952D01*
X68935595Y-62183333D01*
X68935595Y-62278571D01*
X58459404Y-64452380D02*
X57887976Y-64452380D01*
X58173690Y-64452380D02*
X58173690Y-63452380D01*
X58078452Y-63595238D01*
X57983214Y-63690476D01*
X57887976Y-63738095D01*
X58887976Y-64357142D02*
X58935595Y-64404761D01*
X58887976Y-64452380D01*
X58840357Y-64404761D01*
X58887976Y-64357142D01*
X58887976Y-64452380D01*
X58887976Y-63833333D02*
X58935595Y-63880952D01*
X58887976Y-63928571D01*
X58840357Y-63880952D01*
X58887976Y-63833333D01*
X58887976Y-63928571D01*
X60126071Y-64452380D02*
X60126071Y-63452380D01*
X60697500Y-64452380D01*
X60697500Y-63452380D01*
X61316547Y-64452380D02*
X61221309Y-64404761D01*
X61173690Y-64357142D01*
X61126071Y-64261904D01*
X61126071Y-63976190D01*
X61173690Y-63880952D01*
X61221309Y-63833333D01*
X61316547Y-63785714D01*
X61459404Y-63785714D01*
X61554642Y-63833333D01*
X61602261Y-63880952D01*
X61649880Y-63976190D01*
X61649880Y-64261904D01*
X61602261Y-64357142D01*
X61554642Y-64404761D01*
X61459404Y-64452380D01*
X61316547Y-64452380D01*
X63126071Y-63452380D02*
X63126071Y-64166666D01*
X63078452Y-64309523D01*
X62983214Y-64404761D01*
X62840357Y-64452380D01*
X62745119Y-64452380D01*
X64030833Y-63785714D02*
X64030833Y-64452380D01*
X63602261Y-63785714D02*
X63602261Y-64309523D01*
X63649880Y-64404761D01*
X63745119Y-64452380D01*
X63887976Y-64452380D01*
X63983214Y-64404761D01*
X64030833Y-64357142D01*
X64507023Y-64452380D02*
X64507023Y-63785714D01*
X64507023Y-63880952D02*
X64554642Y-63833333D01*
X64649880Y-63785714D01*
X64792738Y-63785714D01*
X64887976Y-63833333D01*
X64935595Y-63928571D01*
X64935595Y-64452380D01*
X64935595Y-63928571D02*
X64983214Y-63833333D01*
X65078452Y-63785714D01*
X65221309Y-63785714D01*
X65316547Y-63833333D01*
X65364166Y-63928571D01*
X65364166Y-64452380D01*
X65840357Y-63785714D02*
X65840357Y-64785714D01*
X65840357Y-63833333D02*
X65935595Y-63785714D01*
X66126071Y-63785714D01*
X66221309Y-63833333D01*
X66268928Y-63880952D01*
X66316547Y-63976190D01*
X66316547Y-64261904D01*
X66268928Y-64357142D01*
X66221309Y-64404761D01*
X66126071Y-64452380D01*
X65935595Y-64452380D01*
X65840357Y-64404761D01*
X67126071Y-64404761D02*
X67030833Y-64452380D01*
X66840357Y-64452380D01*
X66745119Y-64404761D01*
X66697500Y-64309523D01*
X66697500Y-63928571D01*
X66745119Y-63833333D01*
X66840357Y-63785714D01*
X67030833Y-63785714D01*
X67126071Y-63833333D01*
X67173690Y-63928571D01*
X67173690Y-64023809D01*
X66697500Y-64119047D01*
X67602261Y-64452380D02*
X67602261Y-63785714D01*
X67602261Y-63976190D02*
X67649880Y-63880952D01*
X67697500Y-63833333D01*
X67792738Y-63785714D01*
X67887976Y-63785714D01*
X58126071Y-65102380D02*
X58221309Y-65102380D01*
X58316547Y-65150000D01*
X58364166Y-65197619D01*
X58411785Y-65292857D01*
X58459404Y-65483333D01*
X58459404Y-65721428D01*
X58411785Y-65911904D01*
X58364166Y-66007142D01*
X58316547Y-66054761D01*
X58221309Y-66102380D01*
X58126071Y-66102380D01*
X58030833Y-66054761D01*
X57983214Y-66007142D01*
X57935595Y-65911904D01*
X57887976Y-65721428D01*
X57887976Y-65483333D01*
X57935595Y-65292857D01*
X57983214Y-65197619D01*
X58030833Y-65150000D01*
X58126071Y-65102380D01*
X58887976Y-66007142D02*
X58935595Y-66054761D01*
X58887976Y-66102380D01*
X58840357Y-66054761D01*
X58887976Y-66007142D01*
X58887976Y-66102380D01*
X58887976Y-65483333D02*
X58935595Y-65530952D01*
X58887976Y-65578571D01*
X58840357Y-65530952D01*
X58887976Y-65483333D01*
X58887976Y-65578571D01*
X60411785Y-65102380D02*
X60411785Y-65816666D01*
X60364166Y-65959523D01*
X60268928Y-66054761D01*
X60126071Y-66102380D01*
X60030833Y-66102380D01*
X61316547Y-65435714D02*
X61316547Y-66102380D01*
X60887976Y-65435714D02*
X60887976Y-65959523D01*
X60935595Y-66054761D01*
X61030833Y-66102380D01*
X61173690Y-66102380D01*
X61268928Y-66054761D01*
X61316547Y-66007142D01*
X61792738Y-66102380D02*
X61792738Y-65435714D01*
X61792738Y-65530952D02*
X61840357Y-65483333D01*
X61935595Y-65435714D01*
X62078452Y-65435714D01*
X62173690Y-65483333D01*
X62221309Y-65578571D01*
X62221309Y-66102380D01*
X62221309Y-65578571D02*
X62268928Y-65483333D01*
X62364166Y-65435714D01*
X62507023Y-65435714D01*
X62602261Y-65483333D01*
X62649880Y-65578571D01*
X62649880Y-66102380D01*
X63126071Y-65435714D02*
X63126071Y-66435714D01*
X63126071Y-65483333D02*
X63221309Y-65435714D01*
X63411785Y-65435714D01*
X63507023Y-65483333D01*
X63554642Y-65530952D01*
X63602261Y-65626190D01*
X63602261Y-65911904D01*
X63554642Y-66007142D01*
X63507023Y-66054761D01*
X63411785Y-66102380D01*
X63221309Y-66102380D01*
X63126071Y-66054761D01*
X64411785Y-66054761D02*
X64316547Y-66102380D01*
X64126071Y-66102380D01*
X64030833Y-66054761D01*
X63983214Y-65959523D01*
X63983214Y-65578571D01*
X64030833Y-65483333D01*
X64126071Y-65435714D01*
X64316547Y-65435714D01*
X64411785Y-65483333D01*
X64459404Y-65578571D01*
X64459404Y-65673809D01*
X63983214Y-65769047D01*
X64887976Y-66102380D02*
X64887976Y-65435714D01*
X64887976Y-65626190D02*
X64935595Y-65530952D01*
X64983214Y-65483333D01*
X65078452Y-65435714D01*
X65173690Y-65435714D01*
D11*
X80600000Y-72300000D02*
X80100000Y-72550000D01*
X80100000Y-71050000D02*
X80100000Y-72550000D01*
X80100000Y-72550000D02*
X79600000Y-72300000D01*
X73600000Y-72200000D02*
X73100000Y-72450000D01*
X73100000Y-70950000D02*
X73100000Y-72450000D01*
X73100000Y-72450000D02*
X72600000Y-72200000D01*
X80100000Y-68550000D02*
X80100000Y-67050000D01*
X80100000Y-67050000D02*
X80600000Y-67300000D01*
X79600000Y-67300000D02*
X80100000Y-67050000D01*
X73100000Y-66950000D02*
X73600000Y-67200000D01*
X72600000Y-67200000D02*
X73100000Y-66950000D01*
X73100000Y-68450000D02*
X73100000Y-66950000D01*
X78909523Y-70104761D02*
X79052380Y-70152380D01*
X79290476Y-70152380D01*
X79385714Y-70104761D01*
X79433333Y-70057142D01*
X79480952Y-69961904D01*
X79480952Y-69866666D01*
X79433333Y-69771428D01*
X79385714Y-69723809D01*
X79290476Y-69676190D01*
X79100000Y-69628571D01*
X79004761Y-69580952D01*
X78957142Y-69533333D01*
X78909523Y-69438095D01*
X78909523Y-69342857D01*
X78957142Y-69247619D01*
X79004761Y-69200000D01*
X79100000Y-69152380D01*
X79338095Y-69152380D01*
X79480952Y-69200000D01*
X79861904Y-69866666D02*
X80338095Y-69866666D01*
X79766666Y-70152380D02*
X80100000Y-69152380D01*
X80433333Y-70152380D01*
X81290476Y-70152380D02*
X80719047Y-70152380D01*
X81004761Y-70152380D02*
X81004761Y-69152380D01*
X80909523Y-69295238D01*
X80814285Y-69390476D01*
X80719047Y-69438095D01*
X71909523Y-70204761D02*
X72052380Y-70252380D01*
X72290476Y-70252380D01*
X72385714Y-70204761D01*
X72433333Y-70157142D01*
X72480952Y-70061904D01*
X72480952Y-69966666D01*
X72433333Y-69871428D01*
X72385714Y-69823809D01*
X72290476Y-69776190D01*
X72100000Y-69728571D01*
X72004761Y-69680952D01*
X71957142Y-69633333D01*
X71909523Y-69538095D01*
X71909523Y-69442857D01*
X71957142Y-69347619D01*
X72004761Y-69300000D01*
X72100000Y-69252380D01*
X72338095Y-69252380D01*
X72480952Y-69300000D01*
X72861904Y-69966666D02*
X73338095Y-69966666D01*
X72766666Y-70252380D02*
X73100000Y-69252380D01*
X73433333Y-70252380D01*
X73957142Y-69252380D02*
X74052380Y-69252380D01*
X74147619Y-69300000D01*
X74195238Y-69347619D01*
X74242857Y-69442857D01*
X74290476Y-69633333D01*
X74290476Y-69871428D01*
X74242857Y-70061904D01*
X74195238Y-70157142D01*
X74147619Y-70204761D01*
X74052380Y-70252380D01*
X73957142Y-70252380D01*
X73861904Y-70204761D01*
X73814285Y-70157142D01*
X73766666Y-70061904D01*
X73719047Y-69871428D01*
X73719047Y-69633333D01*
X73766666Y-69442857D01*
X73814285Y-69347619D01*
X73861904Y-69300000D01*
X73957142Y-69252380D01*
D12*
X62150000Y-74590000D02*
X60250000Y-74590000D01*
X60750000Y-76910000D02*
X62150000Y-76910000D01*
X68200000Y-69400000D02*
X68200000Y-69600000D01*
X68200000Y-71700000D02*
X68600000Y-71700000D01*
X68200000Y-71800000D02*
X68200000Y-71700000D01*
X65600000Y-71800000D02*
X68200000Y-71800000D01*
X65600000Y-71600000D02*
X65600000Y-71800000D01*
X65600000Y-69400000D02*
X65600000Y-69600000D01*
X68200000Y-69400000D02*
X65600000Y-69400000D01*
X63540000Y-74648335D02*
X63540000Y-74416665D01*
X64260000Y-74648335D02*
X64260000Y-74416665D01*
X70516665Y-70240000D02*
X70748335Y-70240000D01*
X70516665Y-70960000D02*
X70748335Y-70960000D01*
X62540000Y-70015835D02*
X62540000Y-69784165D01*
X63260000Y-70015835D02*
X63260000Y-69784165D01*
X59983335Y-74060000D02*
X59751665Y-74060000D01*
X59983335Y-73340000D02*
X59751665Y-73340000D01*
X105716665Y-69640000D02*
X105948335Y-69640000D01*
X105716665Y-70360000D02*
X105948335Y-70360000D01*
X105916665Y-78740000D02*
X106148335Y-78740000D01*
X105916665Y-79460000D02*
X106148335Y-79460000D01*
X71770000Y-66630000D02*
X74430000Y-66630000D01*
X71770000Y-64030000D02*
X71770000Y-66630000D01*
X74430000Y-64030000D02*
X74430000Y-66630000D01*
X71770000Y-64030000D02*
X74430000Y-64030000D01*
X71770000Y-62760000D02*
X71770000Y-61430000D01*
X71770000Y-61430000D02*
X73100000Y-61430000D01*
X78770000Y-66630000D02*
X81430000Y-66630000D01*
X78770000Y-64030000D02*
X78770000Y-66630000D01*
X81430000Y-64030000D02*
X81430000Y-66630000D01*
X78770000Y-64030000D02*
X81430000Y-64030000D01*
X78770000Y-62760000D02*
X78770000Y-61430000D01*
X78770000Y-61430000D02*
X80100000Y-61430000D01*
X71870000Y-78070000D02*
X74530000Y-78070000D01*
X71870000Y-75470000D02*
X71870000Y-78070000D01*
X74530000Y-75470000D02*
X74530000Y-78070000D01*
X71870000Y-75470000D02*
X74530000Y-75470000D01*
X71870000Y-74200000D02*
X71870000Y-72870000D01*
X71870000Y-72870000D02*
X73200000Y-72870000D01*
X78770000Y-78070000D02*
X81430000Y-78070000D01*
X78770000Y-75470000D02*
X78770000Y-78070000D01*
X81430000Y-75470000D02*
X81430000Y-78070000D01*
X78770000Y-75470000D02*
X81430000Y-75470000D01*
X78770000Y-74200000D02*
X78770000Y-72870000D01*
X78770000Y-72870000D02*
X80100000Y-72870000D01*
X75220000Y-63465121D02*
X75220000Y-63129879D01*
X75980000Y-63465121D02*
X75980000Y-63129879D01*
X82220000Y-63565121D02*
X82220000Y-63229879D01*
X82980000Y-63565121D02*
X82980000Y-63229879D01*
X75320000Y-74965121D02*
X75320000Y-74629879D01*
X76080000Y-74965121D02*
X76080000Y-74629879D01*
X82980000Y-73434879D02*
X82980000Y-73770121D01*
X82220000Y-73434879D02*
X82220000Y-73770121D01*
X102770055Y-78227399D02*
X103029955Y-78227399D01*
X104470057Y-78227399D02*
X104729954Y-78227399D01*
X106170056Y-78227399D02*
X106429953Y-78227399D01*
X107870055Y-78227399D02*
X108129955Y-78227399D01*
X109570057Y-78227399D02*
X109829954Y-78227399D01*
X111270056Y-78227399D02*
X111529953Y-78227399D01*
X112970055Y-78227399D02*
X113229955Y-78227399D01*
X114670056Y-78227399D02*
X114929954Y-78227399D01*
X116370056Y-78227399D02*
X116629955Y-78227399D01*
X118070057Y-78227399D02*
X118329955Y-78227399D01*
X119770056Y-78227399D02*
X120029954Y-78227399D01*
X121470056Y-78227399D02*
X121729955Y-78227399D01*
X123170057Y-78227399D02*
X123429954Y-78227399D01*
X124870056Y-78227399D02*
X125129956Y-78227399D01*
X126570058Y-78227399D02*
X126829955Y-78227399D01*
X128270057Y-78227399D02*
X128529954Y-78227399D01*
X129970056Y-78227399D02*
X130229956Y-78227399D01*
X131670058Y-78227399D02*
X131929955Y-78227399D01*
X133370057Y-78227399D02*
X133629954Y-78227399D01*
X135070056Y-78227399D02*
X135329956Y-78227399D01*
X136770058Y-78227399D02*
X137029955Y-78227399D01*
X138470057Y-78227399D02*
X138729957Y-78227399D01*
X140170059Y-78227399D02*
X140429956Y-78227399D01*
X141870058Y-78227399D02*
X142129955Y-78227399D01*
X143570057Y-78227399D02*
X143829957Y-78227399D01*
X145270059Y-78227399D02*
X145529956Y-78227399D01*
X146970058Y-78227399D02*
X147229955Y-78227399D01*
X148670057Y-78227399D02*
X148929957Y-78227399D01*
X150370059Y-78227399D02*
X150629956Y-78227399D01*
X152070058Y-78227399D02*
X152329958Y-78227399D01*
X153770060Y-78227399D02*
X154029957Y-78227399D01*
X155470059Y-78227399D02*
X155729956Y-78227399D01*
X157170058Y-78227399D02*
X157429958Y-78227399D01*
X158870060Y-78227399D02*
X164229947Y-78227399D01*
X165670048Y-78227399D02*
X165929948Y-78227399D01*
X167370050Y-78227399D02*
X167629947Y-78227399D01*
X169070049Y-78227399D02*
X169329947Y-78227399D01*
X170770048Y-78227399D02*
X171029948Y-78227399D01*
X172470050Y-78227399D02*
X172729947Y-78227399D01*
X174170049Y-78227399D02*
X174429946Y-78227399D01*
X175870048Y-78227399D02*
X176129948Y-78227399D01*
X177570050Y-78227399D02*
X177829947Y-78227399D01*
X179270049Y-78227399D02*
X179529949Y-78227399D01*
X180970051Y-78227399D02*
X181229948Y-78227399D01*
X182670050Y-78227399D02*
X182929947Y-78227399D01*
X184370049Y-78227399D02*
X184629949Y-78227399D01*
X186070051Y-78227399D02*
X186329948Y-78227399D01*
X187770050Y-78227399D02*
X188029947Y-78227399D01*
X189470049Y-78227399D02*
X189729949Y-78227399D01*
X191170051Y-78227399D02*
X191429948Y-78227399D01*
X192870050Y-78227399D02*
X193129950Y-78227399D01*
X194570052Y-78227399D02*
X194829949Y-78227399D01*
X196270051Y-78227399D02*
X196529948Y-78227399D01*
X197970050Y-78227399D02*
X198229950Y-78227399D01*
X199670052Y-78227399D02*
X199929949Y-78227399D01*
X201370051Y-78227399D02*
X201629950Y-78227399D01*
X203070052Y-78227399D02*
X203329950Y-78227399D01*
X204770052Y-78227399D02*
X205029949Y-78227399D01*
X206470051Y-78227399D02*
X206729950Y-78227399D01*
X208170052Y-78227399D02*
X208429950Y-78227399D01*
X209870051Y-78227399D02*
X210129949Y-78227399D01*
X211570051Y-78227399D02*
X211829950Y-78227399D01*
X213270052Y-78227399D02*
X213529950Y-78227399D01*
X214970051Y-78227399D02*
X215229951Y-78227399D01*
X216670053Y-78227399D02*
X216929950Y-78227399D01*
X218370052Y-78227399D02*
X218629950Y-78227399D01*
X220070051Y-78227399D02*
X220329951Y-78227399D01*
X221770053Y-78227399D02*
X222029950Y-78227399D01*
X223470052Y-78227399D02*
X223729952Y-78227399D01*
X225170054Y-78227399D02*
X225429951Y-78227399D01*
X226870053Y-78227399D02*
X227129950Y-78227399D01*
X228570052Y-78227399D02*
X246502613Y-78227399D01*
X101962396Y-72018367D02*
X84247413Y-72073001D01*
X163219775Y-71829447D02*
X158186604Y-71844970D01*
X84247413Y-72073001D02*
X84247413Y-78227399D01*
X246502613Y-71572599D02*
X229462660Y-71625151D01*
X246502613Y-78227399D02*
X246502613Y-71572599D01*
X84247413Y-78227399D02*
X101329953Y-78227399D01*
X102620029Y-69027398D02*
X102879929Y-69027398D01*
X104320031Y-69027398D02*
X104579928Y-69027398D01*
X106020030Y-69027398D02*
X106279927Y-69027398D01*
X107720029Y-69027398D02*
X107979929Y-69027398D01*
X109420031Y-69027398D02*
X109679928Y-69027398D01*
X111120030Y-69027398D02*
X111379927Y-69027398D01*
X112820029Y-69027398D02*
X113079929Y-69027398D01*
X114520030Y-69027398D02*
X114779928Y-69027398D01*
X116220030Y-69027398D02*
X116479929Y-69027398D01*
X117920031Y-69027398D02*
X118179929Y-69027398D01*
X119620030Y-69027398D02*
X119879928Y-69027398D01*
X121320030Y-69027398D02*
X121579929Y-69027398D01*
X123020031Y-69027398D02*
X123279928Y-69027398D01*
X124720030Y-69027398D02*
X124979930Y-69027398D01*
X126420032Y-69027398D02*
X126679929Y-69027398D01*
X128120031Y-69027398D02*
X128379928Y-69027398D01*
X129820030Y-69027398D02*
X130079930Y-69027398D01*
X131520032Y-69027398D02*
X131779929Y-69027398D01*
X133220031Y-69027398D02*
X133479928Y-69027398D01*
X134920030Y-69027398D02*
X135179930Y-69027398D01*
X136620032Y-69027398D02*
X136879929Y-69027398D01*
X138320031Y-69027398D02*
X138579931Y-69027398D01*
X140020033Y-69027398D02*
X140279930Y-69027398D01*
X141720032Y-69027398D02*
X141979929Y-69027398D01*
X143420031Y-69027398D02*
X143679931Y-69027398D01*
X145120033Y-69027398D02*
X145379930Y-69027398D01*
X146820032Y-69027398D02*
X147079929Y-69027398D01*
X148520031Y-69027398D02*
X148779931Y-69027398D01*
X150220033Y-69027398D02*
X150479930Y-69027398D01*
X151920032Y-69027398D02*
X152179932Y-69027398D01*
X153620034Y-69027398D02*
X153879931Y-69027398D01*
X155320033Y-69027398D02*
X155579930Y-69027398D01*
X157020032Y-69027398D02*
X157279932Y-69027398D01*
X158720034Y-69027398D02*
X164079921Y-69027398D01*
X165520022Y-69027398D02*
X165779922Y-69027398D01*
X167220024Y-69027398D02*
X167479921Y-69027398D01*
X168920023Y-69027398D02*
X169179921Y-69027398D01*
X170620022Y-69027398D02*
X170879922Y-69027398D01*
X172320024Y-69027398D02*
X172579921Y-69027398D01*
X174020023Y-69027398D02*
X174279920Y-69027398D01*
X175720022Y-69027398D02*
X175979922Y-69027398D01*
X177420024Y-69027398D02*
X177679921Y-69027398D01*
X179120023Y-69027398D02*
X179379923Y-69027398D01*
X180820025Y-69027398D02*
X181079922Y-69027398D01*
X182520024Y-69027398D02*
X182779921Y-69027398D01*
X184220023Y-69027398D02*
X184479923Y-69027398D01*
X185920025Y-69027398D02*
X186179922Y-69027398D01*
X187620024Y-69027398D02*
X187879921Y-69027398D01*
X189320023Y-69027398D02*
X189579923Y-69027398D01*
X191020025Y-69027398D02*
X191279922Y-69027398D01*
X192720024Y-69027398D02*
X192979924Y-69027398D01*
X194420026Y-69027398D02*
X194679923Y-69027398D01*
X196120025Y-69027398D02*
X196379922Y-69027398D01*
X197820024Y-69027398D02*
X198079924Y-69027398D01*
X199520026Y-69027398D02*
X199779923Y-69027398D01*
X201220025Y-69027398D02*
X201479924Y-69027398D01*
X202920026Y-69027398D02*
X203179924Y-69027398D01*
X204620026Y-69027398D02*
X204879923Y-69027398D01*
X206320025Y-69027398D02*
X206579924Y-69027398D01*
X208020026Y-69027398D02*
X208279924Y-69027398D01*
X209720025Y-69027398D02*
X209979923Y-69027398D01*
X211420025Y-69027398D02*
X211679924Y-69027398D01*
X213120026Y-69027398D02*
X213379924Y-69027398D01*
X214820025Y-69027398D02*
X215079925Y-69027398D01*
X216520027Y-69027398D02*
X216779924Y-69027398D01*
X218220026Y-69027398D02*
X218479924Y-69027398D01*
X219920025Y-69027398D02*
X220179925Y-69027398D01*
X221620027Y-69027398D02*
X221879924Y-69027398D01*
X223320026Y-69027398D02*
X223579926Y-69027398D01*
X225020028Y-69027398D02*
X225279925Y-69027398D01*
X226720027Y-69027398D02*
X226979924Y-69027398D01*
X228420026Y-69027398D02*
X246352587Y-69027398D01*
X101812370Y-62818366D02*
X84097387Y-62873000D01*
X163069749Y-62629446D02*
X158036578Y-62644969D01*
X84097387Y-62873000D02*
X84097387Y-69027398D01*
X246352587Y-62372598D02*
X229312634Y-62425150D01*
X246352587Y-69027398D02*
X246352587Y-62372598D01*
X84097387Y-69027398D02*
X101179927Y-69027398D01*
X53180000Y-62370000D02*
X53180000Y-77730000D01*
X53180000Y-77730000D02*
X50520000Y-77730000D01*
X50520000Y-77730000D02*
X50520000Y-62370000D01*
X50520000Y-62370000D02*
X53180000Y-62370000D01*
X50520000Y-63320000D02*
X44520000Y-63320000D01*
X44520000Y-63320000D02*
X44520000Y-64080000D01*
X44520000Y-64080000D02*
X50520000Y-64080000D01*
X50520000Y-63380000D02*
X44520000Y-63380000D01*
X50520000Y-63500000D02*
X44520000Y-63500000D01*
X50520000Y-63620000D02*
X44520000Y-63620000D01*
X50520000Y-63740000D02*
X44520000Y-63740000D01*
X50520000Y-63860000D02*
X44520000Y-63860000D01*
X50520000Y-63980000D02*
X44520000Y-63980000D01*
X53510000Y-63320000D02*
X53180000Y-63320000D01*
X53510000Y-64080000D02*
X53180000Y-64080000D01*
X53180000Y-64970000D02*
X50520000Y-64970000D01*
X50520000Y-65860000D02*
X44520000Y-65860000D01*
X44520000Y-65860000D02*
X44520000Y-66620000D01*
X44520000Y-66620000D02*
X50520000Y-66620000D01*
X53577071Y-65860000D02*
X53180000Y-65860000D01*
X53577071Y-66620000D02*
X53180000Y-66620000D01*
X53180000Y-67510000D02*
X50520000Y-67510000D01*
X50520000Y-68400000D02*
X44520000Y-68400000D01*
X44520000Y-68400000D02*
X44520000Y-69160000D01*
X44520000Y-69160000D02*
X50520000Y-69160000D01*
X53577071Y-68400000D02*
X53180000Y-68400000D01*
X53577071Y-69160000D02*
X53180000Y-69160000D01*
X53180000Y-70050000D02*
X50520000Y-70050000D01*
X50520000Y-70940000D02*
X44520000Y-70940000D01*
X44520000Y-70940000D02*
X44520000Y-71700000D01*
X44520000Y-71700000D02*
X50520000Y-71700000D01*
X53577071Y-70940000D02*
X53180000Y-70940000D01*
X53577071Y-71700000D02*
X53180000Y-71700000D01*
X53180000Y-72590000D02*
X50520000Y-72590000D01*
X50520000Y-73480000D02*
X44520000Y-73480000D01*
X44520000Y-73480000D02*
X44520000Y-74240000D01*
X44520000Y-74240000D02*
X50520000Y-74240000D01*
X53577071Y-73480000D02*
X53180000Y-73480000D01*
X53577071Y-74240000D02*
X53180000Y-74240000D01*
X53180000Y-75130000D02*
X50520000Y-75130000D01*
X50520000Y-76020000D02*
X44520000Y-76020000D01*
X44520000Y-76020000D02*
X44520000Y-76780000D01*
X44520000Y-76780000D02*
X50520000Y-76780000D01*
X53577071Y-76020000D02*
X53180000Y-76020000D01*
X53577071Y-76780000D02*
X53180000Y-76780000D01*
X55890000Y-63700000D02*
X55890000Y-62430000D01*
X55890000Y-62430000D02*
X54620000Y-62430000D01*
D10*
X59938095Y-77252380D02*
X59938095Y-78061904D01*
X59985714Y-78157142D01*
X60033333Y-78204761D01*
X60128571Y-78252380D01*
X60319047Y-78252380D01*
X60414285Y-78204761D01*
X60461904Y-78157142D01*
X60509523Y-78061904D01*
X60509523Y-77252380D01*
X60938095Y-77347619D02*
X60985714Y-77300000D01*
X61080952Y-77252380D01*
X61319047Y-77252380D01*
X61414285Y-77300000D01*
X61461904Y-77347619D01*
X61509523Y-77442857D01*
X61509523Y-77538095D01*
X61461904Y-77680952D01*
X60890476Y-78252380D01*
X61509523Y-78252380D01*
X66138095Y-72592380D02*
X66138095Y-73401904D01*
X66185714Y-73497142D01*
X66233333Y-73544761D01*
X66328571Y-73592380D01*
X66519047Y-73592380D01*
X66614285Y-73544761D01*
X66661904Y-73497142D01*
X66709523Y-73401904D01*
X66709523Y-72592380D01*
X67709523Y-73592380D02*
X67138095Y-73592380D01*
X67423809Y-73592380D02*
X67423809Y-72592380D01*
X67328571Y-72735238D01*
X67233333Y-72830476D01*
X67138095Y-72878095D01*
X65333333Y-74357142D02*
X65285714Y-74404761D01*
X65142857Y-74452380D01*
X65047619Y-74452380D01*
X64904761Y-74404761D01*
X64809523Y-74309523D01*
X64761904Y-74214285D01*
X64714285Y-74023809D01*
X64714285Y-73880952D01*
X64761904Y-73690476D01*
X64809523Y-73595238D01*
X64904761Y-73500000D01*
X65047619Y-73452380D01*
X65142857Y-73452380D01*
X65285714Y-73500000D01*
X65333333Y-73547619D01*
X66190476Y-73452380D02*
X66000000Y-73452380D01*
X65904761Y-73500000D01*
X65857142Y-73547619D01*
X65761904Y-73690476D01*
X65714285Y-73880952D01*
X65714285Y-74261904D01*
X65761904Y-74357142D01*
X65809523Y-74404761D01*
X65904761Y-74452380D01*
X66095238Y-74452380D01*
X66190476Y-74404761D01*
X66238095Y-74357142D01*
X66285714Y-74261904D01*
X66285714Y-74023809D01*
X66238095Y-73928571D01*
X66190476Y-73880952D01*
X66095238Y-73833333D01*
X65904761Y-73833333D01*
X65809523Y-73880952D01*
X65761904Y-73928571D01*
X65714285Y-74023809D01*
X69633333Y-72857142D02*
X69585714Y-72904761D01*
X69442857Y-72952380D01*
X69347619Y-72952380D01*
X69204761Y-72904761D01*
X69109523Y-72809523D01*
X69061904Y-72714285D01*
X69014285Y-72523809D01*
X69014285Y-72380952D01*
X69061904Y-72190476D01*
X69109523Y-72095238D01*
X69204761Y-72000000D01*
X69347619Y-71952380D01*
X69442857Y-71952380D01*
X69585714Y-72000000D01*
X69633333Y-72047619D01*
X70538095Y-71952380D02*
X70061904Y-71952380D01*
X70014285Y-72428571D01*
X70061904Y-72380952D01*
X70157142Y-72333333D01*
X70395238Y-72333333D01*
X70490476Y-72380952D01*
X70538095Y-72428571D01*
X70585714Y-72523809D01*
X70585714Y-72761904D01*
X70538095Y-72857142D01*
X70490476Y-72904761D01*
X70395238Y-72952380D01*
X70157142Y-72952380D01*
X70061904Y-72904761D01*
X70014285Y-72857142D01*
X61033333Y-69457142D02*
X60985714Y-69504761D01*
X60842857Y-69552380D01*
X60747619Y-69552380D01*
X60604761Y-69504761D01*
X60509523Y-69409523D01*
X60461904Y-69314285D01*
X60414285Y-69123809D01*
X60414285Y-68980952D01*
X60461904Y-68790476D01*
X60509523Y-68695238D01*
X60604761Y-68600000D01*
X60747619Y-68552380D01*
X60842857Y-68552380D01*
X60985714Y-68600000D01*
X61033333Y-68647619D01*
X61890476Y-68885714D02*
X61890476Y-69552380D01*
X61652380Y-68504761D02*
X61414285Y-69219047D01*
X62033333Y-69219047D01*
X60033333Y-72757142D02*
X59985714Y-72804761D01*
X59842857Y-72852380D01*
X59747619Y-72852380D01*
X59604761Y-72804761D01*
X59509523Y-72709523D01*
X59461904Y-72614285D01*
X59414285Y-72423809D01*
X59414285Y-72280952D01*
X59461904Y-72090476D01*
X59509523Y-71995238D01*
X59604761Y-71900000D01*
X59747619Y-71852380D01*
X59842857Y-71852380D01*
X59985714Y-71900000D01*
X60033333Y-71947619D01*
X60366666Y-71852380D02*
X60985714Y-71852380D01*
X60652380Y-72233333D01*
X60795238Y-72233333D01*
X60890476Y-72280952D01*
X60938095Y-72328571D01*
X60985714Y-72423809D01*
X60985714Y-72661904D01*
X60938095Y-72757142D01*
X60890476Y-72804761D01*
X60795238Y-72852380D01*
X60509523Y-72852380D01*
X60414285Y-72804761D01*
X60366666Y-72757142D01*
X103333333Y-70457142D02*
X103285714Y-70504761D01*
X103142857Y-70552380D01*
X103047619Y-70552380D01*
X102904761Y-70504761D01*
X102809523Y-70409523D01*
X102761904Y-70314285D01*
X102714285Y-70123809D01*
X102714285Y-69980952D01*
X102761904Y-69790476D01*
X102809523Y-69695238D01*
X102904761Y-69600000D01*
X103047619Y-69552380D01*
X103142857Y-69552380D01*
X103285714Y-69600000D01*
X103333333Y-69647619D01*
X104285714Y-70552380D02*
X103714285Y-70552380D01*
X104000000Y-70552380D02*
X104000000Y-69552380D01*
X103904761Y-69695238D01*
X103809523Y-69790476D01*
X103714285Y-69838095D01*
X103533333Y-79457142D02*
X103485714Y-79504761D01*
X103342857Y-79552380D01*
X103247619Y-79552380D01*
X103104761Y-79504761D01*
X103009523Y-79409523D01*
X102961904Y-79314285D01*
X102914285Y-79123809D01*
X102914285Y-78980952D01*
X102961904Y-78790476D01*
X103009523Y-78695238D01*
X103104761Y-78600000D01*
X103247619Y-78552380D01*
X103342857Y-78552380D01*
X103485714Y-78600000D01*
X103533333Y-78647619D01*
X103914285Y-78647619D02*
X103961904Y-78600000D01*
X104057142Y-78552380D01*
X104295238Y-78552380D01*
X104390476Y-78600000D01*
X104438095Y-78647619D01*
X104485714Y-78742857D01*
X104485714Y-78838095D01*
X104438095Y-78980952D01*
X103866666Y-79552380D01*
X104485714Y-79552380D01*
X70566666Y-62052380D02*
X70566666Y-62766666D01*
X70519047Y-62909523D01*
X70423809Y-63004761D01*
X70280952Y-63052380D01*
X70185714Y-63052380D01*
X71566666Y-63052380D02*
X70995238Y-63052380D01*
X71280952Y-63052380D02*
X71280952Y-62052380D01*
X71185714Y-62195238D01*
X71090476Y-62290476D01*
X70995238Y-62338095D01*
X77466666Y-61652380D02*
X77466666Y-62366666D01*
X77419047Y-62509523D01*
X77323809Y-62604761D01*
X77180952Y-62652380D01*
X77085714Y-62652380D01*
X77895238Y-61747619D02*
X77942857Y-61700000D01*
X78038095Y-61652380D01*
X78276190Y-61652380D01*
X78371428Y-61700000D01*
X78419047Y-61747619D01*
X78466666Y-61842857D01*
X78466666Y-61938095D01*
X78419047Y-62080952D01*
X77847619Y-62652380D01*
X78466666Y-62652380D01*
X70566666Y-77052380D02*
X70566666Y-77766666D01*
X70519047Y-77909523D01*
X70423809Y-78004761D01*
X70280952Y-78052380D01*
X70185714Y-78052380D01*
X71519047Y-77052380D02*
X71042857Y-77052380D01*
X70995238Y-77528571D01*
X71042857Y-77480952D01*
X71138095Y-77433333D01*
X71376190Y-77433333D01*
X71471428Y-77480952D01*
X71519047Y-77528571D01*
X71566666Y-77623809D01*
X71566666Y-77861904D01*
X71519047Y-77957142D01*
X71471428Y-78004761D01*
X71376190Y-78052380D01*
X71138095Y-78052380D01*
X71042857Y-78004761D01*
X70995238Y-77957142D01*
X77466666Y-77052380D02*
X77466666Y-77766666D01*
X77419047Y-77909523D01*
X77323809Y-78004761D01*
X77180952Y-78052380D01*
X77085714Y-78052380D01*
X78371428Y-77052380D02*
X78180952Y-77052380D01*
X78085714Y-77100000D01*
X78038095Y-77147619D01*
X77942857Y-77290476D01*
X77895238Y-77480952D01*
X77895238Y-77861904D01*
X77942857Y-77957142D01*
X77990476Y-78004761D01*
X78085714Y-78052380D01*
X78276190Y-78052380D01*
X78371428Y-78004761D01*
X78419047Y-77957142D01*
X78466666Y-77861904D01*
X78466666Y-77623809D01*
X78419047Y-77528571D01*
X78371428Y-77480952D01*
X78276190Y-77433333D01*
X78085714Y-77433333D01*
X77990476Y-77480952D01*
X77942857Y-77528571D01*
X77895238Y-77623809D01*
X75533333Y-65452380D02*
X75200000Y-64976190D01*
X74961904Y-65452380D02*
X74961904Y-64452380D01*
X75342857Y-64452380D01*
X75438095Y-64500000D01*
X75485714Y-64547619D01*
X75533333Y-64642857D01*
X75533333Y-64785714D01*
X75485714Y-64880952D01*
X75438095Y-64928571D01*
X75342857Y-64976190D01*
X74961904Y-64976190D01*
X76485714Y-65452380D02*
X75914285Y-65452380D01*
X76200000Y-65452380D02*
X76200000Y-64452380D01*
X76104761Y-64595238D01*
X76009523Y-64690476D01*
X75914285Y-64738095D01*
X82433333Y-65952380D02*
X82100000Y-65476190D01*
X81861904Y-65952380D02*
X81861904Y-64952380D01*
X82242857Y-64952380D01*
X82338095Y-65000000D01*
X82385714Y-65047619D01*
X82433333Y-65142857D01*
X82433333Y-65285714D01*
X82385714Y-65380952D01*
X82338095Y-65428571D01*
X82242857Y-65476190D01*
X81861904Y-65476190D01*
X82814285Y-65047619D02*
X82861904Y-65000000D01*
X82957142Y-64952380D01*
X83195238Y-64952380D01*
X83290476Y-65000000D01*
X83338095Y-65047619D01*
X83385714Y-65142857D01*
X83385714Y-65238095D01*
X83338095Y-65380952D01*
X82766666Y-65952380D01*
X83385714Y-65952380D01*
X75433333Y-76952380D02*
X75100000Y-76476190D01*
X74861904Y-76952380D02*
X74861904Y-75952380D01*
X75242857Y-75952380D01*
X75338095Y-76000000D01*
X75385714Y-76047619D01*
X75433333Y-76142857D01*
X75433333Y-76285714D01*
X75385714Y-76380952D01*
X75338095Y-76428571D01*
X75242857Y-76476190D01*
X74861904Y-76476190D01*
X75766666Y-75952380D02*
X76385714Y-75952380D01*
X76052380Y-76333333D01*
X76195238Y-76333333D01*
X76290476Y-76380952D01*
X76338095Y-76428571D01*
X76385714Y-76523809D01*
X76385714Y-76761904D01*
X76338095Y-76857142D01*
X76290476Y-76904761D01*
X76195238Y-76952380D01*
X75909523Y-76952380D01*
X75814285Y-76904761D01*
X75766666Y-76857142D01*
X82533333Y-76152380D02*
X82200000Y-75676190D01*
X81961904Y-76152380D02*
X81961904Y-75152380D01*
X82342857Y-75152380D01*
X82438095Y-75200000D01*
X82485714Y-75247619D01*
X82533333Y-75342857D01*
X82533333Y-75485714D01*
X82485714Y-75580952D01*
X82438095Y-75628571D01*
X82342857Y-75676190D01*
X81961904Y-75676190D01*
X83390476Y-75485714D02*
X83390476Y-76152380D01*
X83152380Y-75104761D02*
X82914285Y-75819047D01*
X83533333Y-75819047D01*
X165041679Y-73552381D02*
X165041679Y-74266667D01*
X164994060Y-74409524D01*
X164898822Y-74504762D01*
X164755965Y-74552381D01*
X164660727Y-74552381D01*
X165422632Y-73552381D02*
X166089298Y-73552381D01*
X165660727Y-74552381D01*
X160041679Y-73647620D02*
X160089298Y-73600001D01*
X160184536Y-73552381D01*
X160422632Y-73552381D01*
X160517870Y-73600001D01*
X160565489Y-73647620D01*
X160613108Y-73742858D01*
X160613108Y-73838096D01*
X160565489Y-73980953D01*
X159994060Y-74552381D01*
X160613108Y-74552381D01*
X161041679Y-74171429D02*
X161803584Y-74171429D01*
X162232155Y-73647620D02*
X162279774Y-73600001D01*
X162375013Y-73552381D01*
X162613108Y-73552381D01*
X162708346Y-73600001D01*
X162755965Y-73647620D01*
X162803584Y-73742858D01*
X162803584Y-73838096D01*
X162755965Y-73980953D01*
X162184536Y-74552381D01*
X162803584Y-74552381D01*
X163136917Y-73552381D02*
X163755965Y-73552381D01*
X163422632Y-73933334D01*
X163565489Y-73933334D01*
X163660727Y-73980953D01*
X163708346Y-74028572D01*
X163755965Y-74123810D01*
X163755965Y-74361905D01*
X163708346Y-74457143D01*
X163660727Y-74504762D01*
X163565489Y-74552381D01*
X163279774Y-74552381D01*
X163184536Y-74504762D01*
X163136917Y-74457143D01*
X164375013Y-73552381D02*
X164470251Y-73552381D01*
X164565489Y-73600001D01*
X164613108Y-73647620D01*
X164660727Y-73742858D01*
X164708346Y-73933334D01*
X164708346Y-74171429D01*
X164660727Y-74361905D01*
X164613108Y-74457143D01*
X164565489Y-74504762D01*
X164470251Y-74552381D01*
X164375013Y-74552381D01*
X164279774Y-74504762D01*
X164232155Y-74457143D01*
X164184536Y-74361905D01*
X164136917Y-74171429D01*
X164136917Y-73933334D01*
X164184536Y-73742858D01*
X164232155Y-73647620D01*
X164279774Y-73600001D01*
X164375013Y-73552381D01*
X165279774Y-73980953D02*
X165184536Y-73933334D01*
X165136917Y-73885715D01*
X165089298Y-73790477D01*
X165089298Y-73742858D01*
X165136917Y-73647620D01*
X165184536Y-73600001D01*
X165279774Y-73552381D01*
X165470251Y-73552381D01*
X165565489Y-73600001D01*
X165613108Y-73647620D01*
X165660727Y-73742858D01*
X165660727Y-73790477D01*
X165613108Y-73885715D01*
X165565489Y-73933334D01*
X165470251Y-73980953D01*
X165279774Y-73980953D01*
X165184536Y-74028572D01*
X165136917Y-74076191D01*
X165089298Y-74171429D01*
X165089298Y-74361905D01*
X165136917Y-74457143D01*
X165184536Y-74504762D01*
X165279774Y-74552381D01*
X165470251Y-74552381D01*
X165565489Y-74504762D01*
X165613108Y-74457143D01*
X165660727Y-74361905D01*
X165660727Y-74171429D01*
X165613108Y-74076191D01*
X165565489Y-74028572D01*
X165470251Y-73980953D01*
X166613108Y-74552381D02*
X166041679Y-74552381D01*
X166327393Y-74552381D02*
X166327393Y-73552381D01*
X166232155Y-73695239D01*
X166136917Y-73790477D01*
X166041679Y-73838096D01*
X167232155Y-73552381D02*
X167327393Y-73552381D01*
X167422632Y-73600001D01*
X167470251Y-73647620D01*
X167517870Y-73742858D01*
X167565489Y-73933334D01*
X167565489Y-74171429D01*
X167517870Y-74361905D01*
X167470251Y-74457143D01*
X167422632Y-74504762D01*
X167327393Y-74552381D01*
X167232155Y-74552381D01*
X167136917Y-74504762D01*
X167089298Y-74457143D01*
X167041679Y-74361905D01*
X166994060Y-74171429D01*
X166994060Y-73933334D01*
X167041679Y-73742858D01*
X167089298Y-73647620D01*
X167136917Y-73600001D01*
X167232155Y-73552381D01*
X167898822Y-73552381D02*
X168565489Y-73552381D01*
X168136917Y-74552381D01*
X168946441Y-74171429D02*
X169708346Y-74171429D01*
X170375013Y-73552381D02*
X170470251Y-73552381D01*
X170565489Y-73600001D01*
X170613108Y-73647620D01*
X170660727Y-73742858D01*
X170708346Y-73933334D01*
X170708346Y-74171429D01*
X170660727Y-74361905D01*
X170613108Y-74457143D01*
X170565489Y-74504762D01*
X170470251Y-74552381D01*
X170375013Y-74552381D01*
X170279774Y-74504762D01*
X170232155Y-74457143D01*
X170184536Y-74361905D01*
X170136917Y-74171429D01*
X170136917Y-73933334D01*
X170184536Y-73742858D01*
X170232155Y-73647620D01*
X170279774Y-73600001D01*
X170375013Y-73552381D01*
X226150026Y-71652381D02*
X226150026Y-71890477D01*
X225911930Y-71795239D02*
X226150026Y-71890477D01*
X226388121Y-71795239D01*
X226007168Y-72080953D02*
X226150026Y-71890477D01*
X226292883Y-72080953D01*
X164891653Y-64352380D02*
X164891653Y-65066666D01*
X164844034Y-65209523D01*
X164748796Y-65304761D01*
X164605939Y-65352380D01*
X164510701Y-65352380D01*
X165272606Y-64352380D02*
X165891653Y-64352380D01*
X165558320Y-64733333D01*
X165701177Y-64733333D01*
X165796415Y-64780952D01*
X165844034Y-64828571D01*
X165891653Y-64923809D01*
X165891653Y-65161904D01*
X165844034Y-65257142D01*
X165796415Y-65304761D01*
X165701177Y-65352380D01*
X165415463Y-65352380D01*
X165320225Y-65304761D01*
X165272606Y-65257142D01*
X159891653Y-64447619D02*
X159939272Y-64400000D01*
X160034510Y-64352380D01*
X160272606Y-64352380D01*
X160367844Y-64400000D01*
X160415463Y-64447619D01*
X160463082Y-64542857D01*
X160463082Y-64638095D01*
X160415463Y-64780952D01*
X159844034Y-65352380D01*
X160463082Y-65352380D01*
X160891653Y-64971428D02*
X161653558Y-64971428D01*
X162082129Y-64447619D02*
X162129748Y-64400000D01*
X162224987Y-64352380D01*
X162463082Y-64352380D01*
X162558320Y-64400000D01*
X162605939Y-64447619D01*
X162653558Y-64542857D01*
X162653558Y-64638095D01*
X162605939Y-64780952D01*
X162034510Y-65352380D01*
X162653558Y-65352380D01*
X162986891Y-64352380D02*
X163605939Y-64352380D01*
X163272606Y-64733333D01*
X163415463Y-64733333D01*
X163510701Y-64780952D01*
X163558320Y-64828571D01*
X163605939Y-64923809D01*
X163605939Y-65161904D01*
X163558320Y-65257142D01*
X163510701Y-65304761D01*
X163415463Y-65352380D01*
X163129748Y-65352380D01*
X163034510Y-65304761D01*
X162986891Y-65257142D01*
X164224987Y-64352380D02*
X164320225Y-64352380D01*
X164415463Y-64400000D01*
X164463082Y-64447619D01*
X164510701Y-64542857D01*
X164558320Y-64733333D01*
X164558320Y-64971428D01*
X164510701Y-65161904D01*
X164463082Y-65257142D01*
X164415463Y-65304761D01*
X164320225Y-65352380D01*
X164224987Y-65352380D01*
X164129748Y-65304761D01*
X164082129Y-65257142D01*
X164034510Y-65161904D01*
X163986891Y-64971428D01*
X163986891Y-64733333D01*
X164034510Y-64542857D01*
X164082129Y-64447619D01*
X164129748Y-64400000D01*
X164224987Y-64352380D01*
X165129748Y-64780952D02*
X165034510Y-64733333D01*
X164986891Y-64685714D01*
X164939272Y-64590476D01*
X164939272Y-64542857D01*
X164986891Y-64447619D01*
X165034510Y-64400000D01*
X165129748Y-64352380D01*
X165320225Y-64352380D01*
X165415463Y-64400000D01*
X165463082Y-64447619D01*
X165510701Y-64542857D01*
X165510701Y-64590476D01*
X165463082Y-64685714D01*
X165415463Y-64733333D01*
X165320225Y-64780952D01*
X165129748Y-64780952D01*
X165034510Y-64828571D01*
X164986891Y-64876190D01*
X164939272Y-64971428D01*
X164939272Y-65161904D01*
X164986891Y-65257142D01*
X165034510Y-65304761D01*
X165129748Y-65352380D01*
X165320225Y-65352380D01*
X165415463Y-65304761D01*
X165463082Y-65257142D01*
X165510701Y-65161904D01*
X165510701Y-64971428D01*
X165463082Y-64876190D01*
X165415463Y-64828571D01*
X165320225Y-64780952D01*
X166463082Y-65352380D02*
X165891653Y-65352380D01*
X166177367Y-65352380D02*
X166177367Y-64352380D01*
X166082129Y-64495238D01*
X165986891Y-64590476D01*
X165891653Y-64638095D01*
X167082129Y-64352380D02*
X167177367Y-64352380D01*
X167272606Y-64400000D01*
X167320225Y-64447619D01*
X167367844Y-64542857D01*
X167415463Y-64733333D01*
X167415463Y-64971428D01*
X167367844Y-65161904D01*
X167320225Y-65257142D01*
X167272606Y-65304761D01*
X167177367Y-65352380D01*
X167082129Y-65352380D01*
X166986891Y-65304761D01*
X166939272Y-65257142D01*
X166891653Y-65161904D01*
X166844034Y-64971428D01*
X166844034Y-64733333D01*
X166891653Y-64542857D01*
X166939272Y-64447619D01*
X166986891Y-64400000D01*
X167082129Y-64352380D01*
X167748796Y-64352380D02*
X168415463Y-64352380D01*
X167986891Y-65352380D01*
X168796415Y-64971428D02*
X169558320Y-64971428D01*
X170224987Y-64352380D02*
X170320225Y-64352380D01*
X170415463Y-64400000D01*
X170463082Y-64447619D01*
X170510701Y-64542857D01*
X170558320Y-64733333D01*
X170558320Y-64971428D01*
X170510701Y-65161904D01*
X170463082Y-65257142D01*
X170415463Y-65304761D01*
X170320225Y-65352380D01*
X170224987Y-65352380D01*
X170129748Y-65304761D01*
X170082129Y-65257142D01*
X170034510Y-65161904D01*
X169986891Y-64971428D01*
X169986891Y-64733333D01*
X170034510Y-64542857D01*
X170082129Y-64447619D01*
X170129748Y-64400000D01*
X170224987Y-64352380D01*
X226000000Y-62452380D02*
X226000000Y-62690476D01*
X225761904Y-62595238D02*
X226000000Y-62690476D01*
X226238095Y-62595238D01*
X225857142Y-62880952D02*
X226000000Y-62690476D01*
X226142857Y-62880952D01*
X54466666Y-60652380D02*
X54466666Y-61366666D01*
X54419047Y-61509523D01*
X54323809Y-61604761D01*
X54180952Y-61652380D01*
X54085714Y-61652380D01*
X55371428Y-60985714D02*
X55371428Y-61652380D01*
X55133333Y-60604761D02*
X54895238Y-61319047D01*
X55514285Y-61319047D01*
M02*
