G04 #@! TF.GenerationSoftware,KiCad,Pcbnew,(5.1.10)-1*
G04 #@! TF.CreationDate,2021-07-30T20:35:32-05:00*
G04 #@! TF.ProjectId,dimmlet,64696d6d-6c65-4742-9e6b-696361645f70,rev?*
G04 #@! TF.SameCoordinates,Original*
G04 #@! TF.FileFunction,Legend,Bot*
G04 #@! TF.FilePolarity,Positive*
%FSLAX46Y46*%
G04 Gerber Fmt 4.6, Leading zero omitted, Abs format (unit mm)*
G04 Created by KiCad (PCBNEW (5.1.10)-1) date 2021-07-30 20:35:32*
%MOMM*%
%LPD*%
G01*
G04 APERTURE LIST*
%ADD10C,0.127000*%
%ADD11C,0.010000*%
G04 APERTURE END LIST*
D10*
G36*
X246305000Y-79000000D02*
G01*
X246305000Y-64800000D01*
X244805000Y-64800000D01*
X244805000Y-79000000D01*
X246305000Y-79000000D01*
G37*
X246305000Y-79000000D02*
X246305000Y-64800000D01*
X244805000Y-64800000D01*
X244805000Y-79000000D01*
X246305000Y-79000000D01*
D11*
G36*
X235941540Y-70262350D02*
G01*
X236093565Y-70861672D01*
X236389386Y-71393250D01*
X236810417Y-71830187D01*
X237197652Y-72079847D01*
X237519462Y-72212608D01*
X237835437Y-72290443D01*
X238105781Y-72309486D01*
X238290695Y-72265874D01*
X238349001Y-72191629D01*
X238326875Y-72100040D01*
X238192065Y-72042525D01*
X237988803Y-72011131D01*
X237481036Y-71873039D01*
X237028375Y-71596304D01*
X236657802Y-71209265D01*
X236396300Y-70740261D01*
X236270849Y-70217630D01*
X236269821Y-70205710D01*
X236298922Y-69646512D01*
X236467837Y-69147215D01*
X236753701Y-68723428D01*
X237133653Y-68390755D01*
X237584830Y-68164804D01*
X238084370Y-68061180D01*
X238609409Y-68095489D01*
X239107817Y-68268472D01*
X239525889Y-68556213D01*
X239870791Y-68946982D01*
X240114085Y-69397621D01*
X240227331Y-69864972D01*
X240232000Y-69974519D01*
X240267493Y-70130533D01*
X240373150Y-70154375D01*
X240483722Y-70110304D01*
X240529613Y-70008504D01*
X240518126Y-69810027D01*
X240479151Y-69589093D01*
X240286115Y-69021271D01*
X239956207Y-68532087D01*
X239511522Y-68141835D01*
X238974153Y-67870809D01*
X238478814Y-67751633D01*
X237911929Y-67756278D01*
X237375943Y-67908251D01*
X236892857Y-68185782D01*
X236484672Y-68567098D01*
X236173390Y-69030431D01*
X235981012Y-69554007D01*
X235929540Y-70116058D01*
X235941540Y-70262350D01*
G37*
X235941540Y-70262350D02*
X236093565Y-70861672D01*
X236389386Y-71393250D01*
X236810417Y-71830187D01*
X237197652Y-72079847D01*
X237519462Y-72212608D01*
X237835437Y-72290443D01*
X238105781Y-72309486D01*
X238290695Y-72265874D01*
X238349001Y-72191629D01*
X238326875Y-72100040D01*
X238192065Y-72042525D01*
X237988803Y-72011131D01*
X237481036Y-71873039D01*
X237028375Y-71596304D01*
X236657802Y-71209265D01*
X236396300Y-70740261D01*
X236270849Y-70217630D01*
X236269821Y-70205710D01*
X236298922Y-69646512D01*
X236467837Y-69147215D01*
X236753701Y-68723428D01*
X237133653Y-68390755D01*
X237584830Y-68164804D01*
X238084370Y-68061180D01*
X238609409Y-68095489D01*
X239107817Y-68268472D01*
X239525889Y-68556213D01*
X239870791Y-68946982D01*
X240114085Y-69397621D01*
X240227331Y-69864972D01*
X240232000Y-69974519D01*
X240267493Y-70130533D01*
X240373150Y-70154375D01*
X240483722Y-70110304D01*
X240529613Y-70008504D01*
X240518126Y-69810027D01*
X240479151Y-69589093D01*
X240286115Y-69021271D01*
X239956207Y-68532087D01*
X239511522Y-68141835D01*
X238974153Y-67870809D01*
X238478814Y-67751633D01*
X237911929Y-67756278D01*
X237375943Y-67908251D01*
X236892857Y-68185782D01*
X236484672Y-68567098D01*
X236173390Y-69030431D01*
X235981012Y-69554007D01*
X235929540Y-70116058D01*
X235941540Y-70262350D01*
D10*
X244352380Y-65317450D02*
X243352380Y-65317450D01*
X243352380Y-65555545D01*
X243400000Y-65698402D01*
X243495238Y-65793640D01*
X243590476Y-65841259D01*
X243780952Y-65888878D01*
X243923809Y-65888878D01*
X244114285Y-65841259D01*
X244209523Y-65793640D01*
X244304761Y-65698402D01*
X244352380Y-65555545D01*
X244352380Y-65317450D01*
X244352380Y-66317450D02*
X243352380Y-66317450D01*
X244352380Y-66793640D02*
X243352380Y-66793640D01*
X244066666Y-67126973D01*
X243352380Y-67460307D01*
X244352380Y-67460307D01*
X244352380Y-67936497D02*
X243352380Y-67936497D01*
X244066666Y-68269830D01*
X243352380Y-68603164D01*
X244352380Y-68603164D01*
X244352380Y-69555545D02*
X244352380Y-69079354D01*
X243352380Y-69079354D01*
X243828571Y-69888878D02*
X243828571Y-70222211D01*
X244352380Y-70365069D02*
X244352380Y-69888878D01*
X243352380Y-69888878D01*
X243352380Y-70365069D01*
X243352380Y-70650783D02*
X243352380Y-71222211D01*
X244352380Y-70936497D02*
X243352380Y-70936497D01*
X243547619Y-75455545D02*
X243500000Y-75503164D01*
X243452380Y-75598402D01*
X243452380Y-75836497D01*
X243500000Y-75931735D01*
X243547619Y-75979354D01*
X243642857Y-76026973D01*
X243738095Y-76026973D01*
X243880952Y-75979354D01*
X244452380Y-75407926D01*
X244452380Y-76026973D01*
X244352380Y-72831735D02*
X243876190Y-72498402D01*
X244352380Y-72260307D02*
X243352380Y-72260307D01*
X243352380Y-72641259D01*
X243400000Y-72736497D01*
X243447619Y-72784116D01*
X243542857Y-72831735D01*
X243685714Y-72831735D01*
X243780952Y-72784116D01*
X243828571Y-72736497D01*
X243876190Y-72641259D01*
X243876190Y-72260307D01*
X244304761Y-73641259D02*
X244352380Y-73546021D01*
X244352380Y-73355545D01*
X244304761Y-73260307D01*
X244209523Y-73212688D01*
X243828571Y-73212688D01*
X243733333Y-73260307D01*
X243685714Y-73355545D01*
X243685714Y-73546021D01*
X243733333Y-73641259D01*
X243828571Y-73688878D01*
X243923809Y-73688878D01*
X244019047Y-73212688D01*
X243685714Y-74022211D02*
X244352380Y-74260307D01*
X243685714Y-74498402D01*
X244257142Y-74879354D02*
X244304761Y-74926973D01*
X244352380Y-74879354D01*
X244304761Y-74831735D01*
X244257142Y-74879354D01*
X244352380Y-74879354D01*
X243733333Y-74879354D02*
X243780952Y-74926973D01*
X243828571Y-74879354D01*
X243780952Y-74831735D01*
X243733333Y-74879354D01*
X243828571Y-74879354D01*
X241852380Y-61626973D02*
X241852380Y-61817450D01*
X241900000Y-61912688D01*
X241995238Y-62007926D01*
X242185714Y-62055545D01*
X242519047Y-62055545D01*
X242709523Y-62007926D01*
X242804761Y-61912688D01*
X242852380Y-61817450D01*
X242852380Y-61626973D01*
X242804761Y-61531735D01*
X242709523Y-61436497D01*
X242519047Y-61388878D01*
X242185714Y-61388878D01*
X241995238Y-61436497D01*
X241900000Y-61531735D01*
X241852380Y-61626973D01*
X242852380Y-62388878D02*
X242185714Y-62912688D01*
X242185714Y-62388878D02*
X242852380Y-62912688D01*
X242852380Y-63293640D02*
X242185714Y-63293640D01*
X241852380Y-63293640D02*
X241900000Y-63246021D01*
X241947619Y-63293640D01*
X241900000Y-63341259D01*
X241852380Y-63293640D01*
X241947619Y-63293640D01*
X242852380Y-64198402D02*
X241852380Y-64198402D01*
X242804761Y-64198402D02*
X242852380Y-64103164D01*
X242852380Y-63912688D01*
X242804761Y-63817450D01*
X242757142Y-63769830D01*
X242661904Y-63722211D01*
X242376190Y-63722211D01*
X242280952Y-63769830D01*
X242233333Y-63817450D01*
X242185714Y-63912688D01*
X242185714Y-64103164D01*
X242233333Y-64198402D01*
X242804761Y-65055545D02*
X242852380Y-64960307D01*
X242852380Y-64769830D01*
X242804761Y-64674592D01*
X242709523Y-64626973D01*
X242328571Y-64626973D01*
X242233333Y-64674592D01*
X242185714Y-64769830D01*
X242185714Y-64960307D01*
X242233333Y-65055545D01*
X242328571Y-65103164D01*
X242423809Y-65103164D01*
X242519047Y-64626973D01*
X242757142Y-66865069D02*
X242804761Y-66817450D01*
X242852380Y-66674592D01*
X242852380Y-66579354D01*
X242804761Y-66436497D01*
X242709523Y-66341259D01*
X242614285Y-66293640D01*
X242423809Y-66246021D01*
X242280952Y-66246021D01*
X242090476Y-66293640D01*
X241995238Y-66341259D01*
X241900000Y-66436497D01*
X241852380Y-66579354D01*
X241852380Y-66674592D01*
X241900000Y-66817450D01*
X241947619Y-66865069D01*
X242852380Y-67436497D02*
X242804761Y-67341259D01*
X242757142Y-67293640D01*
X242661904Y-67246021D01*
X242376190Y-67246021D01*
X242280952Y-67293640D01*
X242233333Y-67341259D01*
X242185714Y-67436497D01*
X242185714Y-67579354D01*
X242233333Y-67674592D01*
X242280952Y-67722211D01*
X242376190Y-67769830D01*
X242661904Y-67769830D01*
X242757142Y-67722211D01*
X242804761Y-67674592D01*
X242852380Y-67579354D01*
X242852380Y-67436497D01*
X242852380Y-68198402D02*
X242185714Y-68198402D01*
X242280952Y-68198402D02*
X242233333Y-68246021D01*
X242185714Y-68341259D01*
X242185714Y-68484116D01*
X242233333Y-68579354D01*
X242328571Y-68626973D01*
X242852380Y-68626973D01*
X242328571Y-68626973D02*
X242233333Y-68674592D01*
X242185714Y-68769830D01*
X242185714Y-68912688D01*
X242233333Y-69007926D01*
X242328571Y-69055545D01*
X242852380Y-69055545D01*
X242185714Y-69531735D02*
X243185714Y-69531735D01*
X242233333Y-69531735D02*
X242185714Y-69626973D01*
X242185714Y-69817450D01*
X242233333Y-69912688D01*
X242280952Y-69960307D01*
X242376190Y-70007926D01*
X242661904Y-70007926D01*
X242757142Y-69960307D01*
X242804761Y-69912688D01*
X242852380Y-69817450D01*
X242852380Y-69626973D01*
X242804761Y-69531735D01*
X242185714Y-70865069D02*
X242852380Y-70865069D01*
X242185714Y-70436497D02*
X242709523Y-70436497D01*
X242804761Y-70484116D01*
X242852380Y-70579354D01*
X242852380Y-70722211D01*
X242804761Y-70817450D01*
X242757142Y-70865069D01*
X242185714Y-71198402D02*
X242185714Y-71579354D01*
X241852380Y-71341259D02*
X242709523Y-71341259D01*
X242804761Y-71388878D01*
X242852380Y-71484116D01*
X242852380Y-71579354D01*
X242804761Y-72293640D02*
X242852380Y-72198402D01*
X242852380Y-72007926D01*
X242804761Y-71912688D01*
X242709523Y-71865069D01*
X242328571Y-71865069D01*
X242233333Y-71912688D01*
X242185714Y-72007926D01*
X242185714Y-72198402D01*
X242233333Y-72293640D01*
X242328571Y-72341259D01*
X242423809Y-72341259D01*
X242519047Y-71865069D01*
X242852380Y-72769830D02*
X242185714Y-72769830D01*
X242376190Y-72769830D02*
X242280952Y-72817450D01*
X242233333Y-72865069D01*
X242185714Y-72960307D01*
X242185714Y-73055545D01*
X242757142Y-74722211D02*
X242804761Y-74674592D01*
X242852380Y-74531735D01*
X242852380Y-74436497D01*
X242804761Y-74293640D01*
X242709523Y-74198402D01*
X242614285Y-74150783D01*
X242423809Y-74103164D01*
X242280952Y-74103164D01*
X242090476Y-74150783D01*
X241995238Y-74198402D01*
X241900000Y-74293640D01*
X241852380Y-74436497D01*
X241852380Y-74531735D01*
X241900000Y-74674592D01*
X241947619Y-74722211D01*
X242852380Y-75293640D02*
X242804761Y-75198402D01*
X242757142Y-75150783D01*
X242661904Y-75103164D01*
X242376190Y-75103164D01*
X242280952Y-75150783D01*
X242233333Y-75198402D01*
X242185714Y-75293640D01*
X242185714Y-75436497D01*
X242233333Y-75531735D01*
X242280952Y-75579354D01*
X242376190Y-75626973D01*
X242661904Y-75626973D01*
X242757142Y-75579354D01*
X242804761Y-75531735D01*
X242852380Y-75436497D01*
X242852380Y-75293640D01*
X246004761Y-61484116D02*
X246052380Y-61626973D01*
X246052380Y-61865069D01*
X246004761Y-61960307D01*
X245957142Y-62007926D01*
X245861904Y-62055545D01*
X245766666Y-62055545D01*
X245671428Y-62007926D01*
X245623809Y-61960307D01*
X245576190Y-61865069D01*
X245528571Y-61674592D01*
X245480952Y-61579354D01*
X245433333Y-61531735D01*
X245338095Y-61484116D01*
X245242857Y-61484116D01*
X245147619Y-61531735D01*
X245100000Y-61579354D01*
X245052380Y-61674592D01*
X245052380Y-61912688D01*
X245100000Y-62055545D01*
X245004761Y-63198402D02*
X246290476Y-62341259D01*
X246052380Y-63531735D02*
X245052380Y-63531735D01*
X246052380Y-64103164D01*
X245052380Y-64103164D01*
X245957142Y-64579354D02*
X246004761Y-64626973D01*
X246052380Y-64579354D01*
X246004761Y-64531735D01*
X245957142Y-64579354D01*
X246052380Y-64579354D01*
X245433333Y-64579354D02*
X245480952Y-64626973D01*
X245528571Y-64579354D01*
X245480952Y-64531735D01*
X245433333Y-64579354D01*
X245528571Y-64579354D01*
X244252380Y-61484116D02*
X243252380Y-61484116D01*
X243252380Y-61865069D01*
X243300000Y-61960307D01*
X243347619Y-62007926D01*
X243442857Y-62055545D01*
X243585714Y-62055545D01*
X243680952Y-62007926D01*
X243728571Y-61960307D01*
X243776190Y-61865069D01*
X243776190Y-61484116D01*
X243204761Y-63198402D02*
X244490476Y-62341259D01*
X244252380Y-63531735D02*
X243252380Y-63531735D01*
X244252380Y-64103164D01*
X243252380Y-64103164D01*
X244157142Y-64579354D02*
X244204761Y-64626973D01*
X244252380Y-64579354D01*
X244204761Y-64531735D01*
X244157142Y-64579354D01*
X244252380Y-64579354D01*
X243633333Y-64579354D02*
X243680952Y-64626973D01*
X243728571Y-64579354D01*
X243680952Y-64531735D01*
X243633333Y-64579354D01*
X243728571Y-64579354D01*
M02*
