M48
INCH,TZ
T1C0.0157
T2C0.0290
T3C0.0394
T4C0.0472
T5C0.0866
T6C0.0980
%
G90
G05
T1
X23406Y-29823
X24252Y-29016
X24265Y-27743
X25157Y-28701
X25197Y-27520
X26201Y-27500
X26457Y-28039
X27992Y-28307
X28504Y-27795
X29803Y-27047
X29803Y-28701
X30236Y-27047
X30236Y-28701
X30669Y-27047
X30669Y-28701
X35551Y-27992
X36299Y-28504
X38740Y-30866
X39134Y-30512
X42402Y-27559
X42480Y-31142
T2
X40118Y-25433
X40118Y-26929
X40177Y-29055
X40177Y-30551
X40453Y-24803
X40453Y-26299
X40512Y-28425
X40512Y-29921
X40787Y-25433
X40787Y-26929
X40846Y-29055
X40846Y-30551
X41122Y-24803
X41122Y-26299
X41181Y-28425
X41181Y-29921
X41457Y-25433
X41457Y-26929
X41516Y-29055
X41516Y-30551
X41791Y-24803
X41791Y-26299
X41850Y-28425
X41850Y-29921
X42126Y-25433
X42126Y-26929
X42185Y-29055
X42185Y-30551
X42461Y-24803
X42461Y-26299
X42520Y-28425
X42520Y-29921
X42795Y-25433
X42795Y-26929
X42854Y-29055
X42854Y-30551
X43130Y-24803
X43130Y-26299
X43189Y-28425
X43189Y-29921
X43465Y-25433
X43465Y-26929
X43524Y-29055
X43524Y-30551
X43799Y-24803
X43799Y-26299
X43858Y-28425
X43858Y-29921
X44134Y-25433
X44134Y-26929
X44193Y-29055
X44193Y-30551
X44468Y-24803
X44468Y-26299
X44528Y-28425
X44528Y-29921
X44803Y-25433
X44803Y-26929
X44862Y-29055
X44862Y-30551
X45138Y-24803
X45138Y-26299
X45197Y-28425
X45197Y-29921
X45472Y-25433
X45472Y-26929
X45531Y-29055
X45531Y-30551
X45807Y-24803
X45807Y-26299
X45866Y-28425
X45866Y-29921
X46142Y-25433
X46142Y-26929
X46201Y-29055
X46201Y-30551
X46476Y-24803
X46476Y-26299
X46535Y-28425
X46535Y-29921
X46811Y-25433
X46811Y-26929
X46870Y-29055
X46870Y-30551
X47146Y-24803
X47146Y-26299
X47205Y-28425
X47205Y-29921
X47480Y-25433
X47480Y-26929
X47539Y-29055
X47539Y-30551
X47815Y-24803
X47815Y-26299
X47874Y-28425
X47874Y-29921
X48150Y-25433
X48150Y-26929
X48209Y-29055
X48209Y-30551
X48484Y-24803
X48484Y-26299
X48543Y-28425
X48543Y-29921
X48819Y-25433
X48819Y-26929
X48878Y-29055
X48878Y-30551
X49154Y-24803
X49154Y-26299
X49213Y-28425
X49213Y-29921
X49488Y-25433
X49488Y-26929
X49547Y-29055
X49547Y-30551
X49823Y-24803
X49823Y-26299
X49882Y-28425
X49882Y-29921
X50157Y-25433
X50157Y-26929
X50217Y-29055
X50217Y-30551
X50492Y-24803
X50492Y-26299
X50551Y-28425
X50551Y-29921
X50827Y-25433
X50827Y-26929
X50886Y-29055
X50886Y-30551
X51161Y-24803
X51161Y-26299
X51220Y-28425
X51220Y-29921
X51496Y-25433
X51496Y-26929
X51555Y-29055
X51555Y-30551
X51831Y-24803
X51831Y-26299
X51890Y-28425
X51890Y-29921
X52165Y-25433
X52165Y-26929
X52224Y-29055
X52224Y-30551
X52500Y-24803
X52500Y-26299
X52559Y-28425
X52559Y-29921
X52835Y-25433
X52835Y-26929
X52894Y-29055
X52894Y-30551
X53169Y-24803
X53169Y-26299
X53228Y-28425
X53228Y-29921
X53504Y-25433
X53504Y-26929
X53563Y-29055
X53563Y-30551
X53839Y-24803
X53839Y-26299
X53898Y-28425
X53898Y-29921
X54173Y-25433
X54173Y-26929
X54232Y-29055
X54232Y-30551
X54508Y-24803
X54508Y-26299
X54567Y-28425
X54567Y-29921
X54843Y-25433
X54843Y-26929
X54902Y-29055
X54902Y-30551
X55177Y-24803
X55177Y-26299
X55236Y-28425
X55236Y-29921
X55512Y-25433
X55512Y-26929
X55571Y-29055
X55571Y-30551
X55846Y-24803
X55846Y-26299
X55906Y-28425
X55906Y-29921
X56181Y-25433
X56181Y-26929
X56240Y-29055
X56240Y-30551
X56516Y-24803
X56516Y-26299
X56575Y-28425
X56575Y-29921
X56850Y-25433
X56850Y-26929
X56909Y-29055
X56909Y-30551
X57185Y-24803
X57185Y-26299
X57244Y-28425
X57244Y-29921
X57520Y-25433
X57520Y-26929
X57579Y-29055
X57579Y-30551
X57854Y-24803
X57854Y-26299
X57913Y-28425
X57913Y-29921
X58189Y-25433
X58189Y-26929
X58248Y-29055
X58248Y-30551
X58524Y-24803
X58524Y-26299
X58583Y-28425
X58583Y-29921
X58858Y-25433
X58858Y-26929
X58917Y-29055
X58917Y-30551
X59193Y-24803
X59193Y-26299
X59252Y-28425
X59252Y-29921
X59528Y-25433
X59528Y-26929
X59587Y-29055
X59587Y-30551
X59862Y-24803
X59862Y-26299
X59921Y-28425
X59921Y-29921
X60197Y-25433
X60197Y-26929
X60256Y-29055
X60256Y-30551
X60531Y-24803
X60531Y-26299
X60591Y-28425
X60591Y-29921
X60866Y-25433
X60866Y-26929
X60925Y-29055
X60925Y-30551
X61201Y-24803
X61201Y-26299
X61260Y-28425
X61260Y-29921
X61535Y-25433
X61535Y-26929
X61594Y-29055
X61594Y-30551
X61870Y-24803
X61870Y-26299
X61929Y-28425
X61929Y-29921
X62205Y-25433
X62205Y-26929
X62264Y-29055
X62264Y-30551
X64547Y-24803
X64547Y-26299
X64606Y-28425
X64606Y-29921
X64882Y-25433
X64882Y-26929
X64941Y-29055
X64941Y-30551
X65217Y-24803
X65217Y-26299
X65276Y-28425
X65276Y-29921
X65551Y-25433
X65551Y-26929
X65610Y-29055
X65610Y-30551
X65886Y-24803
X65886Y-26299
X65945Y-28425
X65945Y-29921
X66220Y-25433
X66220Y-26929
X66280Y-29055
X66280Y-30551
X66555Y-24803
X66555Y-26299
X66614Y-28425
X66614Y-29921
X66890Y-25433
X66890Y-26929
X66949Y-29055
X66949Y-30551
X67224Y-24803
X67224Y-26299
X67283Y-28425
X67283Y-29921
X67559Y-25433
X67559Y-26929
X67618Y-29055
X67618Y-30551
X67894Y-24803
X67894Y-26299
X67953Y-28425
X67953Y-29921
X68228Y-25433
X68228Y-26929
X68287Y-29055
X68287Y-30551
X68563Y-24803
X68563Y-26299
X68622Y-28425
X68622Y-29921
X68898Y-25433
X68898Y-26929
X68957Y-29055
X68957Y-30551
X69232Y-24803
X69232Y-26299
X69291Y-28425
X69291Y-29921
X69567Y-25433
X69567Y-26929
X69626Y-29055
X69626Y-30551
X69902Y-24803
X69902Y-26299
X69961Y-28425
X69961Y-29921
X70236Y-25433
X70236Y-26929
X70295Y-29055
X70295Y-30551
X70571Y-24803
X70571Y-26299
X70630Y-28425
X70630Y-29921
X70906Y-25433
X70906Y-26929
X70965Y-29055
X70965Y-30551
X71240Y-24803
X71240Y-26299
X71299Y-28425
X71299Y-29921
X71575Y-25433
X71575Y-26929
X71634Y-29055
X71634Y-30551
X71909Y-24803
X71909Y-26299
X71969Y-28425
X71969Y-29921
X72244Y-25433
X72244Y-26929
X72303Y-29055
X72303Y-30551
X72579Y-24803
X72579Y-26299
X72638Y-28425
X72638Y-29921
X72913Y-25433
X72913Y-26929
X72972Y-29055
X72972Y-30551
X73248Y-24803
X73248Y-26299
X73307Y-28425
X73307Y-29921
X73583Y-25433
X73583Y-26929
X73642Y-29055
X73642Y-30551
X73917Y-24803
X73917Y-26299
X73976Y-28425
X73976Y-29921
X74252Y-25433
X74252Y-26929
X74311Y-29055
X74311Y-30551
X74587Y-24803
X74587Y-26299
X74646Y-28425
X74646Y-29921
X74921Y-25433
X74921Y-26929
X74980Y-29055
X74980Y-30551
X75256Y-24803
X75256Y-26299
X75315Y-28425
X75315Y-29921
X75591Y-25433
X75591Y-26929
X75650Y-29055
X75650Y-30551
X75925Y-24803
X75925Y-26299
X75984Y-28425
X75984Y-29921
X76260Y-25433
X76260Y-26929
X76319Y-29055
X76319Y-30551
X76594Y-24803
X76594Y-26299
X76654Y-28425
X76654Y-29921
X76929Y-25433
X76929Y-26929
X76988Y-29055
X76988Y-30551
X77264Y-24803
X77264Y-26299
X77323Y-28425
X77323Y-29921
X77598Y-25433
X77598Y-26929
X77657Y-29055
X77657Y-30551
X77933Y-24803
X77933Y-26299
X77992Y-28425
X77992Y-29921
X78268Y-25433
X78268Y-26929
X78327Y-29055
X78327Y-30551
X78602Y-24803
X78602Y-26299
X78661Y-28425
X78661Y-29921
X78937Y-25433
X78937Y-26929
X78996Y-29055
X78996Y-30551
X79272Y-24803
X79272Y-26299
X79331Y-28425
X79331Y-29921
X79606Y-25433
X79606Y-26929
X79665Y-29055
X79665Y-30551
X79941Y-24803
X79941Y-26299
X80000Y-28425
X80000Y-29921
X80276Y-25433
X80276Y-26929
X80335Y-29055
X80335Y-30551
X80610Y-24803
X80610Y-26299
X80669Y-28425
X80669Y-29921
X80945Y-25433
X80945Y-26929
X81004Y-29055
X81004Y-30551
X81280Y-24803
X81280Y-26299
X81339Y-28425
X81339Y-29921
X81614Y-25433
X81614Y-26929
X81673Y-29055
X81673Y-30551
X81949Y-24803
X81949Y-26299
X82008Y-28425
X82008Y-29921
X82283Y-25433
X82283Y-26929
X82343Y-29055
X82343Y-30551
X82618Y-24803
X82618Y-26299
X82677Y-28425
X82677Y-29921
X82953Y-25433
X82953Y-26929
X83012Y-29055
X83012Y-30551
X83287Y-24803
X83287Y-26299
X83346Y-28425
X83346Y-29921
X83622Y-25433
X83622Y-26929
X83681Y-29055
X83681Y-30551
X83957Y-24803
X83957Y-26299
X84016Y-28425
X84016Y-29921
X84291Y-25433
X84291Y-26929
X84350Y-29055
X84350Y-30551
X84626Y-24803
X84626Y-26299
X84685Y-28425
X84685Y-29921
X84961Y-25433
X84961Y-26929
X85020Y-29055
X85020Y-30551
X85295Y-24803
X85295Y-26299
X85354Y-28425
X85354Y-29921
X85630Y-25433
X85630Y-26929
X85689Y-29055
X85689Y-30551
X85965Y-24803
X85965Y-26299
X86024Y-28425
X86024Y-29921
X86299Y-25433
X86299Y-26929
X86358Y-29055
X86358Y-30551
X86634Y-24803
X86634Y-26299
X86693Y-28425
X86693Y-29921
X86968Y-25433
X86968Y-26929
X87028Y-29055
X87028Y-30551
X87303Y-24803
X87303Y-26299
X87362Y-28425
X87362Y-29921
X87638Y-25433
X87638Y-26929
X87697Y-29055
X87697Y-30551
X87972Y-24803
X87972Y-26299
X88031Y-28425
X88031Y-29921
X88307Y-25433
X88307Y-26929
X88366Y-29055
X88366Y-30551
X88642Y-24803
X88642Y-26299
X88701Y-28425
X88701Y-29921
X88976Y-25433
X88976Y-26929
X89035Y-29055
X89035Y-30551
X89311Y-24803
X89311Y-26299
X89370Y-28425
X89370Y-29921
X89646Y-25433
X89646Y-26929
X89705Y-29055
X89705Y-30551
X89980Y-24803
X89980Y-26299
X90039Y-28425
X90039Y-29921
T3
X21504Y-25079
X21504Y-26079
X21504Y-27079
X21504Y-28079
X21504Y-29079
X21504Y-30079
X28780Y-24709
X28780Y-25709
X28819Y-29213
X28819Y-30213
X31535Y-24709
X31535Y-25709
X31535Y-29213
X31535Y-30213
T5
X33898Y-27638
X98425Y-27559
T6
X37894Y-25866
X37953Y-29488
X92205Y-25866
X92264Y-29488
T4
G00X62854Y-25620
M15
G01X62854Y-26112
M16
G05
G00X62913Y-29242
M15
G01X62913Y-29734
M16
G05
T0
M30
