M48
INCH,TZ
T1C0.0157
T2C0.0280
%
G90
G05
T1
X40945Y-40551
X40945Y-41732
X40945Y-42953
X41299Y-47756
X41339Y-51575
X41340Y-44723
X41354Y-50575
X41370Y-49575
X41496Y-45724
X41535Y-45224
X41535Y-46224
X41545Y-44224
X41732Y-54331
X42205Y-41496
X42300Y-40259
X42441Y-43661
X42441Y-48661
X42520Y-41929
X42559Y-46732
X42800Y-40438
X43300Y-40243
X43307Y-47638
X43800Y-40454
X44094Y-47244
X44094Y-49016
X44291Y-40236
X44870Y-45224
X44882Y-46224
X44882Y-47244
X44882Y-54331
X44909Y-44224
X45189Y-45724
X45236Y-44724
X45260Y-50575
X45268Y-49575
X45276Y-42126
X45276Y-42913
X45276Y-51575
X45276Y-52559
X45276Y-53575
T2
X41825Y-39833
X41825Y-40719
X45025Y-39833
X45025Y-40719
T0
M30
