G04 #@! TF.GenerationSoftware,KiCad,Pcbnew,(5.1.10)-1*
G04 #@! TF.CreationDate,2021-10-26T18:23:48-05:00*
G04 #@! TF.ProjectId,samtec_dbg,73616d74-6563-45f6-9462-672e6b696361,rev?*
G04 #@! TF.SameCoordinates,Original*
G04 #@! TF.FileFunction,Legend,Bot*
G04 #@! TF.FilePolarity,Positive*
%FSLAX46Y46*%
G04 Gerber Fmt 4.6, Leading zero omitted, Abs format (unit mm)*
G04 Created by KiCad (PCBNEW (5.1.10)-1) date 2021-10-26 18:23:48*
%MOMM*%
%LPD*%
G01*
G04 APERTURE LIST*
%ADD10C,0.200000*%
%ADD11C,0.010000*%
G04 APERTURE END LIST*
D10*
X113538095Y-130982380D02*
X114338095Y-130982380D01*
X113766666Y-130715714D01*
X114338095Y-130449047D01*
X113538095Y-130449047D01*
X114338095Y-129915714D02*
X114338095Y-129763333D01*
X114300000Y-129687142D01*
X114223809Y-129610952D01*
X114071428Y-129572857D01*
X113804761Y-129572857D01*
X113652380Y-129610952D01*
X113576190Y-129687142D01*
X113538095Y-129763333D01*
X113538095Y-129915714D01*
X113576190Y-129991904D01*
X113652380Y-130068095D01*
X113804761Y-130106190D01*
X114071428Y-130106190D01*
X114223809Y-130068095D01*
X114300000Y-129991904D01*
X114338095Y-129915714D01*
X113576190Y-129268095D02*
X113538095Y-129153809D01*
X113538095Y-128963333D01*
X113576190Y-128887142D01*
X113614285Y-128849047D01*
X113690476Y-128810952D01*
X113766666Y-128810952D01*
X113842857Y-128849047D01*
X113880952Y-128887142D01*
X113919047Y-128963333D01*
X113957142Y-129115714D01*
X113995238Y-129191904D01*
X114033333Y-129230000D01*
X114109523Y-129268095D01*
X114185714Y-129268095D01*
X114261904Y-129230000D01*
X114300000Y-129191904D01*
X114338095Y-129115714D01*
X114338095Y-128925238D01*
X114300000Y-128810952D01*
X113538095Y-128468095D02*
X114338095Y-128468095D01*
X114376190Y-127515714D02*
X113347619Y-128201428D01*
X113576190Y-127287142D02*
X113538095Y-127172857D01*
X113538095Y-126982380D01*
X113576190Y-126906190D01*
X113614285Y-126868095D01*
X113690476Y-126830000D01*
X113766666Y-126830000D01*
X113842857Y-126868095D01*
X113880952Y-126906190D01*
X113919047Y-126982380D01*
X113957142Y-127134761D01*
X113995238Y-127210952D01*
X114033333Y-127249047D01*
X114109523Y-127287142D01*
X114185714Y-127287142D01*
X114261904Y-127249047D01*
X114300000Y-127210952D01*
X114338095Y-127134761D01*
X114338095Y-126944285D01*
X114300000Y-126830000D01*
X113538095Y-126487142D02*
X114338095Y-126487142D01*
X114338095Y-126296666D01*
X114300000Y-126182380D01*
X114223809Y-126106190D01*
X114147619Y-126068095D01*
X113995238Y-126030000D01*
X113880952Y-126030000D01*
X113728571Y-126068095D01*
X113652380Y-126106190D01*
X113576190Y-126182380D01*
X113538095Y-126296666D01*
X113538095Y-126487142D01*
X113766666Y-125725238D02*
X113766666Y-125344285D01*
X113538095Y-125801428D02*
X114338095Y-125534761D01*
X113538095Y-125268095D01*
X113842857Y-124391904D02*
X113842857Y-123782380D01*
X114261904Y-123439523D02*
X114300000Y-123401428D01*
X114338095Y-123325238D01*
X114338095Y-123134761D01*
X114300000Y-123058571D01*
X114261904Y-123020476D01*
X114185714Y-122982380D01*
X114109523Y-122982380D01*
X113995238Y-123020476D01*
X113538095Y-123477619D01*
X113538095Y-122982380D01*
X112176190Y-131096666D02*
X112138095Y-130982380D01*
X112138095Y-130791904D01*
X112176190Y-130715714D01*
X112214285Y-130677619D01*
X112290476Y-130639523D01*
X112366666Y-130639523D01*
X112442857Y-130677619D01*
X112480952Y-130715714D01*
X112519047Y-130791904D01*
X112557142Y-130944285D01*
X112595238Y-131020476D01*
X112633333Y-131058571D01*
X112709523Y-131096666D01*
X112785714Y-131096666D01*
X112861904Y-131058571D01*
X112900000Y-131020476D01*
X112938095Y-130944285D01*
X112938095Y-130753809D01*
X112900000Y-130639523D01*
X112214285Y-129839523D02*
X112176190Y-129877619D01*
X112138095Y-129991904D01*
X112138095Y-130068095D01*
X112176190Y-130182380D01*
X112252380Y-130258571D01*
X112328571Y-130296666D01*
X112480952Y-130334761D01*
X112595238Y-130334761D01*
X112747619Y-130296666D01*
X112823809Y-130258571D01*
X112900000Y-130182380D01*
X112938095Y-130068095D01*
X112938095Y-129991904D01*
X112900000Y-129877619D01*
X112861904Y-129839523D01*
X112138095Y-129115714D02*
X112138095Y-129496666D01*
X112938095Y-129496666D01*
X112138095Y-128849047D02*
X112938095Y-128849047D01*
X112138095Y-128391904D02*
X112595238Y-128734761D01*
X112938095Y-128391904D02*
X112480952Y-128849047D01*
X112976190Y-127477619D02*
X111947619Y-128163333D01*
X112176190Y-127249047D02*
X112138095Y-127134761D01*
X112138095Y-126944285D01*
X112176190Y-126868095D01*
X112214285Y-126830000D01*
X112290476Y-126791904D01*
X112366666Y-126791904D01*
X112442857Y-126830000D01*
X112480952Y-126868095D01*
X112519047Y-126944285D01*
X112557142Y-127096666D01*
X112595238Y-127172857D01*
X112633333Y-127210952D01*
X112709523Y-127249047D01*
X112785714Y-127249047D01*
X112861904Y-127210952D01*
X112900000Y-127172857D01*
X112938095Y-127096666D01*
X112938095Y-126906190D01*
X112900000Y-126791904D01*
X112214285Y-125991904D02*
X112176190Y-126030000D01*
X112138095Y-126144285D01*
X112138095Y-126220476D01*
X112176190Y-126334761D01*
X112252380Y-126410952D01*
X112328571Y-126449047D01*
X112480952Y-126487142D01*
X112595238Y-126487142D01*
X112747619Y-126449047D01*
X112823809Y-126410952D01*
X112900000Y-126334761D01*
X112938095Y-126220476D01*
X112938095Y-126144285D01*
X112900000Y-126030000D01*
X112861904Y-125991904D01*
X112138095Y-125268095D02*
X112138095Y-125649047D01*
X112938095Y-125649047D01*
X112442857Y-124391904D02*
X112442857Y-123782380D01*
X112671428Y-123058571D02*
X112138095Y-123058571D01*
X112976190Y-123249047D02*
X112404761Y-123439523D01*
X112404761Y-122944285D01*
X111538095Y-127972857D02*
X110738095Y-127706190D01*
X111538095Y-127439523D01*
X111157142Y-126906190D02*
X111119047Y-126791904D01*
X111080952Y-126753809D01*
X111004761Y-126715714D01*
X110890476Y-126715714D01*
X110814285Y-126753809D01*
X110776190Y-126791904D01*
X110738095Y-126868095D01*
X110738095Y-127172857D01*
X111538095Y-127172857D01*
X111538095Y-126906190D01*
X111500000Y-126830000D01*
X111461904Y-126791904D01*
X111385714Y-126753809D01*
X111309523Y-126753809D01*
X111233333Y-126791904D01*
X111195238Y-126830000D01*
X111157142Y-126906190D01*
X111157142Y-127172857D01*
X111271428Y-126030000D02*
X110738095Y-126030000D01*
X111271428Y-126372857D02*
X110852380Y-126372857D01*
X110776190Y-126334761D01*
X110738095Y-126258571D01*
X110738095Y-126144285D01*
X110776190Y-126068095D01*
X110814285Y-126030000D01*
X110776190Y-125687142D02*
X110738095Y-125610952D01*
X110738095Y-125458571D01*
X110776190Y-125382380D01*
X110852380Y-125344285D01*
X110890476Y-125344285D01*
X110966666Y-125382380D01*
X111004761Y-125458571D01*
X111004761Y-125572857D01*
X111042857Y-125649047D01*
X111119047Y-125687142D01*
X111157142Y-125687142D01*
X111233333Y-125649047D01*
X111271428Y-125572857D01*
X111271428Y-125458571D01*
X111233333Y-125382380D01*
X111042857Y-124391904D02*
X111042857Y-123782380D01*
X111538095Y-123058571D02*
X111538095Y-123210952D01*
X111500000Y-123287142D01*
X111461904Y-123325238D01*
X111347619Y-123401428D01*
X111195238Y-123439523D01*
X110890476Y-123439523D01*
X110814285Y-123401428D01*
X110776190Y-123363333D01*
X110738095Y-123287142D01*
X110738095Y-123134761D01*
X110776190Y-123058571D01*
X110814285Y-123020476D01*
X110890476Y-122982380D01*
X111080952Y-122982380D01*
X111157142Y-123020476D01*
X111195238Y-123058571D01*
X111233333Y-123134761D01*
X111233333Y-123287142D01*
X111195238Y-123363333D01*
X111157142Y-123401428D01*
X111080952Y-123439523D01*
X110536000Y-128810952D02*
X110536000Y-128010952D01*
X109338095Y-128163333D02*
X109719047Y-128430000D01*
X109338095Y-128620476D02*
X110138095Y-128620476D01*
X110138095Y-128315714D01*
X110100000Y-128239523D01*
X110061904Y-128201428D01*
X109985714Y-128163333D01*
X109871428Y-128163333D01*
X109795238Y-128201428D01*
X109757142Y-128239523D01*
X109719047Y-128315714D01*
X109719047Y-128620476D01*
X110536000Y-128010952D02*
X110536000Y-127287142D01*
X109757142Y-127820476D02*
X109757142Y-127553809D01*
X109338095Y-127439523D02*
X109338095Y-127820476D01*
X110138095Y-127820476D01*
X110138095Y-127439523D01*
X110536000Y-127287142D02*
X110536000Y-126525238D01*
X109376190Y-127134761D02*
X109338095Y-127020476D01*
X109338095Y-126830000D01*
X109376190Y-126753809D01*
X109414285Y-126715714D01*
X109490476Y-126677619D01*
X109566666Y-126677619D01*
X109642857Y-126715714D01*
X109680952Y-126753809D01*
X109719047Y-126830000D01*
X109757142Y-126982380D01*
X109795238Y-127058571D01*
X109833333Y-127096666D01*
X109909523Y-127134761D01*
X109985714Y-127134761D01*
X110061904Y-127096666D01*
X110100000Y-127058571D01*
X110138095Y-126982380D01*
X110138095Y-126791904D01*
X110100000Y-126677619D01*
X110536000Y-126525238D02*
X110536000Y-125801428D01*
X109757142Y-126334761D02*
X109757142Y-126068095D01*
X109338095Y-125953809D02*
X109338095Y-126334761D01*
X110138095Y-126334761D01*
X110138095Y-125953809D01*
X110536000Y-125801428D02*
X110536000Y-125191904D01*
X110138095Y-125725238D02*
X110138095Y-125268095D01*
X109338095Y-125496666D02*
X110138095Y-125496666D01*
X109642857Y-124391904D02*
X109642857Y-123782380D01*
X109795238Y-123287142D02*
X109833333Y-123363333D01*
X109871428Y-123401428D01*
X109947619Y-123439523D01*
X109985714Y-123439523D01*
X110061904Y-123401428D01*
X110100000Y-123363333D01*
X110138095Y-123287142D01*
X110138095Y-123134761D01*
X110100000Y-123058571D01*
X110061904Y-123020476D01*
X109985714Y-122982380D01*
X109947619Y-122982380D01*
X109871428Y-123020476D01*
X109833333Y-123058571D01*
X109795238Y-123134761D01*
X109795238Y-123287142D01*
X109757142Y-123363333D01*
X109719047Y-123401428D01*
X109642857Y-123439523D01*
X109490476Y-123439523D01*
X109414285Y-123401428D01*
X109376190Y-123363333D01*
X109338095Y-123287142D01*
X109338095Y-123134761D01*
X109376190Y-123058571D01*
X109414285Y-123020476D01*
X109490476Y-122982380D01*
X109642857Y-122982380D01*
X109719047Y-123020476D01*
X109757142Y-123058571D01*
X109795238Y-123134761D01*
X107938095Y-127401428D02*
X108738095Y-127401428D01*
X107938095Y-126944285D01*
X108738095Y-126944285D01*
X108014285Y-126106190D02*
X107976190Y-126144285D01*
X107938095Y-126258571D01*
X107938095Y-126334761D01*
X107976190Y-126449047D01*
X108052380Y-126525238D01*
X108128571Y-126563333D01*
X108280952Y-126601428D01*
X108395238Y-126601428D01*
X108547619Y-126563333D01*
X108623809Y-126525238D01*
X108700000Y-126449047D01*
X108738095Y-126334761D01*
X108738095Y-126258571D01*
X108700000Y-126144285D01*
X108661904Y-126106190D01*
X108242857Y-125153809D02*
X108242857Y-124544285D01*
X107938095Y-123744285D02*
X107938095Y-124201428D01*
X107938095Y-123972857D02*
X108738095Y-123972857D01*
X108623809Y-124049047D01*
X108547619Y-124125238D01*
X108509523Y-124201428D01*
X108738095Y-123249047D02*
X108738095Y-123172857D01*
X108700000Y-123096666D01*
X108661904Y-123058571D01*
X108585714Y-123020476D01*
X108433333Y-122982380D01*
X108242857Y-122982380D01*
X108090476Y-123020476D01*
X108014285Y-123058571D01*
X107976190Y-123096666D01*
X107938095Y-123172857D01*
X107938095Y-123249047D01*
X107976190Y-123325238D01*
X108014285Y-123363333D01*
X108090476Y-123401428D01*
X108242857Y-123439523D01*
X108433333Y-123439523D01*
X108585714Y-123401428D01*
X108661904Y-123363333D01*
X108700000Y-123325238D01*
X108738095Y-123249047D01*
X112338095Y-138760476D02*
X112338095Y-139217619D01*
X112338095Y-138989047D02*
X113138095Y-138989047D01*
X113023809Y-139065238D01*
X112947619Y-139141428D01*
X112909523Y-139217619D01*
X112642857Y-138417619D02*
X112642857Y-137808095D01*
X113536000Y-137008095D02*
X113536000Y-136246190D01*
X112376190Y-136855714D02*
X112338095Y-136741428D01*
X112338095Y-136550952D01*
X112376190Y-136474761D01*
X112414285Y-136436666D01*
X112490476Y-136398571D01*
X112566666Y-136398571D01*
X112642857Y-136436666D01*
X112680952Y-136474761D01*
X112719047Y-136550952D01*
X112757142Y-136703333D01*
X112795238Y-136779523D01*
X112833333Y-136817619D01*
X112909523Y-136855714D01*
X112985714Y-136855714D01*
X113061904Y-136817619D01*
X113100000Y-136779523D01*
X113138095Y-136703333D01*
X113138095Y-136512857D01*
X113100000Y-136398571D01*
X113536000Y-136246190D02*
X113536000Y-135484285D01*
X112376190Y-136093809D02*
X112338095Y-135979523D01*
X112338095Y-135789047D01*
X112376190Y-135712857D01*
X112414285Y-135674761D01*
X112490476Y-135636666D01*
X112566666Y-135636666D01*
X112642857Y-135674761D01*
X112680952Y-135712857D01*
X112719047Y-135789047D01*
X112757142Y-135941428D01*
X112795238Y-136017619D01*
X112833333Y-136055714D01*
X112909523Y-136093809D01*
X112985714Y-136093809D01*
X113061904Y-136055714D01*
X113100000Y-136017619D01*
X113138095Y-135941428D01*
X113138095Y-135750952D01*
X113100000Y-135636666D01*
X111738095Y-139255714D02*
X111738095Y-138760476D01*
X111433333Y-139027142D01*
X111433333Y-138912857D01*
X111395238Y-138836666D01*
X111357142Y-138798571D01*
X111280952Y-138760476D01*
X111090476Y-138760476D01*
X111014285Y-138798571D01*
X110976190Y-138836666D01*
X110938095Y-138912857D01*
X110938095Y-139141428D01*
X110976190Y-139217619D01*
X111014285Y-139255714D01*
X111242857Y-138417619D02*
X111242857Y-137808095D01*
X110938095Y-136817619D02*
X111738095Y-136817619D01*
X111166666Y-136550952D01*
X111738095Y-136284285D01*
X110938095Y-136284285D01*
X110938095Y-135903333D02*
X111738095Y-135903333D01*
X110976190Y-135560476D02*
X110938095Y-135446190D01*
X110938095Y-135255714D01*
X110976190Y-135179523D01*
X111014285Y-135141428D01*
X111090476Y-135103333D01*
X111166666Y-135103333D01*
X111242857Y-135141428D01*
X111280952Y-135179523D01*
X111319047Y-135255714D01*
X111357142Y-135408095D01*
X111395238Y-135484285D01*
X111433333Y-135522380D01*
X111509523Y-135560476D01*
X111585714Y-135560476D01*
X111661904Y-135522380D01*
X111700000Y-135484285D01*
X111738095Y-135408095D01*
X111738095Y-135217619D01*
X111700000Y-135103333D01*
X111738095Y-134608095D02*
X111738095Y-134455714D01*
X111700000Y-134379523D01*
X111623809Y-134303333D01*
X111471428Y-134265238D01*
X111204761Y-134265238D01*
X111052380Y-134303333D01*
X110976190Y-134379523D01*
X110938095Y-134455714D01*
X110938095Y-134608095D01*
X110976190Y-134684285D01*
X111052380Y-134760476D01*
X111204761Y-134798571D01*
X111471428Y-134798571D01*
X111623809Y-134760476D01*
X111700000Y-134684285D01*
X111738095Y-134608095D01*
X111776190Y-133350952D02*
X110747619Y-134036666D01*
X110976190Y-133122380D02*
X110938095Y-133008095D01*
X110938095Y-132817619D01*
X110976190Y-132741428D01*
X111014285Y-132703333D01*
X111090476Y-132665238D01*
X111166666Y-132665238D01*
X111242857Y-132703333D01*
X111280952Y-132741428D01*
X111319047Y-132817619D01*
X111357142Y-132970000D01*
X111395238Y-133046190D01*
X111433333Y-133084285D01*
X111509523Y-133122380D01*
X111585714Y-133122380D01*
X111661904Y-133084285D01*
X111700000Y-133046190D01*
X111738095Y-132970000D01*
X111738095Y-132779523D01*
X111700000Y-132665238D01*
X110938095Y-132322380D02*
X111738095Y-132322380D01*
X111738095Y-132131904D01*
X111700000Y-132017619D01*
X111623809Y-131941428D01*
X111547619Y-131903333D01*
X111395238Y-131865238D01*
X111280952Y-131865238D01*
X111128571Y-131903333D01*
X111052380Y-131941428D01*
X110976190Y-132017619D01*
X110938095Y-132131904D01*
X110938095Y-132322380D01*
X111166666Y-131560476D02*
X111166666Y-131179523D01*
X110938095Y-131636666D02*
X111738095Y-131370000D01*
X110938095Y-131103333D01*
X110338095Y-138798571D02*
X110338095Y-139179523D01*
X109957142Y-139217619D01*
X109995238Y-139179523D01*
X110033333Y-139103333D01*
X110033333Y-138912857D01*
X109995238Y-138836666D01*
X109957142Y-138798571D01*
X109880952Y-138760476D01*
X109690476Y-138760476D01*
X109614285Y-138798571D01*
X109576190Y-138836666D01*
X109538095Y-138912857D01*
X109538095Y-139103333D01*
X109576190Y-139179523D01*
X109614285Y-139217619D01*
X109842857Y-138417619D02*
X109842857Y-137808095D01*
X110300000Y-136398571D02*
X110338095Y-136474761D01*
X110338095Y-136589047D01*
X110300000Y-136703333D01*
X110223809Y-136779523D01*
X110147619Y-136817619D01*
X109995238Y-136855714D01*
X109880952Y-136855714D01*
X109728571Y-136817619D01*
X109652380Y-136779523D01*
X109576190Y-136703333D01*
X109538095Y-136589047D01*
X109538095Y-136512857D01*
X109576190Y-136398571D01*
X109614285Y-136360476D01*
X109880952Y-136360476D01*
X109880952Y-136512857D01*
X109538095Y-136017619D02*
X110338095Y-136017619D01*
X109538095Y-135560476D01*
X110338095Y-135560476D01*
X109538095Y-135179523D02*
X110338095Y-135179523D01*
X110338095Y-134989047D01*
X110300000Y-134874761D01*
X110223809Y-134798571D01*
X110147619Y-134760476D01*
X109995238Y-134722380D01*
X109880952Y-134722380D01*
X109728571Y-134760476D01*
X109652380Y-134798571D01*
X109576190Y-134874761D01*
X109538095Y-134989047D01*
X109538095Y-135179523D01*
X108938095Y-139255714D02*
X108938095Y-138722380D01*
X108138095Y-139065238D01*
X108442857Y-138417619D02*
X108442857Y-137808095D01*
X108214285Y-136360476D02*
X108176190Y-136398571D01*
X108138095Y-136512857D01*
X108138095Y-136589047D01*
X108176190Y-136703333D01*
X108252380Y-136779523D01*
X108328571Y-136817619D01*
X108480952Y-136855714D01*
X108595238Y-136855714D01*
X108747619Y-136817619D01*
X108823809Y-136779523D01*
X108900000Y-136703333D01*
X108938095Y-136589047D01*
X108938095Y-136512857D01*
X108900000Y-136398571D01*
X108861904Y-136360476D01*
X108138095Y-136017619D02*
X108938095Y-136017619D01*
X108938095Y-135827142D01*
X108900000Y-135712857D01*
X108823809Y-135636666D01*
X108747619Y-135598571D01*
X108595238Y-135560476D01*
X108480952Y-135560476D01*
X108328571Y-135598571D01*
X108252380Y-135636666D01*
X108176190Y-135712857D01*
X108138095Y-135827142D01*
X108138095Y-136017619D01*
X108938095Y-135065238D02*
X108938095Y-134912857D01*
X108900000Y-134836666D01*
X108823809Y-134760476D01*
X108671428Y-134722380D01*
X108404761Y-134722380D01*
X108252380Y-134760476D01*
X108176190Y-134836666D01*
X108138095Y-134912857D01*
X108138095Y-135065238D01*
X108176190Y-135141428D01*
X108252380Y-135217619D01*
X108404761Y-135255714D01*
X108671428Y-135255714D01*
X108823809Y-135217619D01*
X108900000Y-135141428D01*
X108938095Y-135065238D01*
X108138095Y-134379523D02*
X108938095Y-134379523D01*
X108138095Y-133922380D01*
X108938095Y-133922380D01*
X108557142Y-133541428D02*
X108557142Y-133274761D01*
X108138095Y-133160476D02*
X108138095Y-133541428D01*
X108938095Y-133541428D01*
X108938095Y-133160476D01*
X106738095Y-139141428D02*
X106738095Y-138989047D01*
X106776190Y-138912857D01*
X106814285Y-138874761D01*
X106928571Y-138798571D01*
X107080952Y-138760476D01*
X107385714Y-138760476D01*
X107461904Y-138798571D01*
X107500000Y-138836666D01*
X107538095Y-138912857D01*
X107538095Y-139065238D01*
X107500000Y-139141428D01*
X107461904Y-139179523D01*
X107385714Y-139217619D01*
X107195238Y-139217619D01*
X107119047Y-139179523D01*
X107080952Y-139141428D01*
X107042857Y-139065238D01*
X107042857Y-138912857D01*
X107080952Y-138836666D01*
X107119047Y-138798571D01*
X107195238Y-138760476D01*
X107042857Y-138417619D02*
X107042857Y-137808095D01*
X106738095Y-136817619D02*
X107538095Y-136817619D01*
X106738095Y-136360476D01*
X107538095Y-136360476D01*
X106814285Y-135522380D02*
X106776190Y-135560476D01*
X106738095Y-135674761D01*
X106738095Y-135750952D01*
X106776190Y-135865238D01*
X106852380Y-135941428D01*
X106928571Y-135979523D01*
X107080952Y-136017619D01*
X107195238Y-136017619D01*
X107347619Y-135979523D01*
X107423809Y-135941428D01*
X107500000Y-135865238D01*
X107538095Y-135750952D01*
X107538095Y-135674761D01*
X107500000Y-135560476D01*
X107461904Y-135522380D01*
D11*
G36*
X114804064Y-114675036D02*
G01*
X114769399Y-114484656D01*
X114702053Y-114303736D01*
X114602028Y-114138338D01*
X114487188Y-114010642D01*
X114351363Y-113905713D01*
X114188575Y-113813444D01*
X114013929Y-113741802D01*
X113930417Y-113717102D01*
X113739840Y-113679445D01*
X113521160Y-113654760D01*
X113286139Y-113643045D01*
X113046539Y-113644295D01*
X112814124Y-113658509D01*
X112600655Y-113685684D01*
X112448750Y-113717443D01*
X112227375Y-113792811D01*
X112034954Y-113896265D01*
X111873173Y-114026248D01*
X111743723Y-114181206D01*
X111648290Y-114359582D01*
X111602754Y-114497072D01*
X111580958Y-114625221D01*
X111572994Y-114773580D01*
X111578813Y-114923384D01*
X111598366Y-115055873D01*
X111604283Y-115080000D01*
X111650943Y-115221341D01*
X111712963Y-115342254D01*
X111799381Y-115458698D01*
X111852037Y-115517536D01*
X111999946Y-115645956D01*
X112180849Y-115750039D01*
X112311522Y-115798739D01*
X112311522Y-115380564D01*
X112214280Y-115323576D01*
X112123320Y-115252501D01*
X112038996Y-115155233D01*
X111974112Y-115047460D01*
X111958235Y-115009813D01*
X111945683Y-114954996D01*
X111936227Y-114874760D01*
X111931828Y-114786007D01*
X111931777Y-114781756D01*
X111933499Y-114688807D01*
X111943696Y-114618593D01*
X111966584Y-114551732D01*
X111994895Y-114491562D01*
X112055869Y-114388118D01*
X112127786Y-114307787D01*
X112221621Y-114240409D01*
X112323516Y-114187276D01*
X112420287Y-114147029D01*
X112522827Y-114115956D01*
X112637908Y-114093113D01*
X112772302Y-114077559D01*
X112932781Y-114068352D01*
X113126116Y-114064550D01*
X113207320Y-114064324D01*
X113338687Y-114065240D01*
X113456370Y-114067605D01*
X113553517Y-114071157D01*
X113623275Y-114075633D01*
X113658790Y-114080768D01*
X113661022Y-114081745D01*
X113658506Y-114094028D01*
X113636557Y-114123059D01*
X113593935Y-114170037D01*
X113529400Y-114236160D01*
X113441713Y-114322628D01*
X113329633Y-114430637D01*
X113191920Y-114561386D01*
X113027336Y-114716075D01*
X112834639Y-114895900D01*
X112612591Y-115102061D01*
X112443636Y-115258427D01*
X112311522Y-115380564D01*
X112311522Y-115798739D01*
X112395176Y-115829916D01*
X112643359Y-115885719D01*
X112925827Y-115917578D01*
X113032750Y-115920965D01*
X113032750Y-115504662D01*
X112903224Y-115503266D01*
X112794706Y-115499525D01*
X112715915Y-115493293D01*
X112693098Y-115489761D01*
X112648590Y-115478905D01*
X112640282Y-115465795D01*
X112662662Y-115440946D01*
X112663994Y-115439691D01*
X112687379Y-115417811D01*
X112738308Y-115370257D01*
X112813356Y-115300223D01*
X112909102Y-115210901D01*
X113022123Y-115105485D01*
X113148996Y-114987167D01*
X113286298Y-114859139D01*
X113364573Y-114786158D01*
X114026396Y-114169124D01*
X114094823Y-114204129D01*
X114235551Y-114297501D01*
X114343298Y-114417059D01*
X114375997Y-114469902D01*
X114405807Y-114527593D01*
X114424286Y-114578296D01*
X114434089Y-114635368D01*
X114437871Y-114712168D01*
X114438358Y-114783667D01*
X114436609Y-114886598D01*
X114430058Y-114959796D01*
X114416651Y-115015772D01*
X114394328Y-115067037D01*
X114390590Y-115074146D01*
X114295744Y-115207306D01*
X114166477Y-115316898D01*
X114004061Y-115402116D01*
X113809770Y-115462155D01*
X113762747Y-115471929D01*
X113690295Y-115481551D01*
X113586531Y-115489701D01*
X113460174Y-115496232D01*
X113319945Y-115501000D01*
X113174564Y-115503858D01*
X113032750Y-115504662D01*
X113032750Y-115920965D01*
X113189583Y-115925933D01*
X113499577Y-115914068D01*
X113775266Y-115878318D01*
X114017452Y-115818457D01*
X114226938Y-115734256D01*
X114404526Y-115625486D01*
X114487188Y-115556692D01*
X114615923Y-115409932D01*
X114711979Y-115242326D01*
X114775354Y-115059933D01*
X114806049Y-114868816D01*
X114804064Y-114675036D01*
G37*
X114804064Y-114675036D02*
X114769399Y-114484656D01*
X114702053Y-114303736D01*
X114602028Y-114138338D01*
X114487188Y-114010642D01*
X114351363Y-113905713D01*
X114188575Y-113813444D01*
X114013929Y-113741802D01*
X113930417Y-113717102D01*
X113739840Y-113679445D01*
X113521160Y-113654760D01*
X113286139Y-113643045D01*
X113046539Y-113644295D01*
X112814124Y-113658509D01*
X112600655Y-113685684D01*
X112448750Y-113717443D01*
X112227375Y-113792811D01*
X112034954Y-113896265D01*
X111873173Y-114026248D01*
X111743723Y-114181206D01*
X111648290Y-114359582D01*
X111602754Y-114497072D01*
X111580958Y-114625221D01*
X111572994Y-114773580D01*
X111578813Y-114923384D01*
X111598366Y-115055873D01*
X111604283Y-115080000D01*
X111650943Y-115221341D01*
X111712963Y-115342254D01*
X111799381Y-115458698D01*
X111852037Y-115517536D01*
X111999946Y-115645956D01*
X112180849Y-115750039D01*
X112311522Y-115798739D01*
X112311522Y-115380564D01*
X112214280Y-115323576D01*
X112123320Y-115252501D01*
X112038996Y-115155233D01*
X111974112Y-115047460D01*
X111958235Y-115009813D01*
X111945683Y-114954996D01*
X111936227Y-114874760D01*
X111931828Y-114786007D01*
X111931777Y-114781756D01*
X111933499Y-114688807D01*
X111943696Y-114618593D01*
X111966584Y-114551732D01*
X111994895Y-114491562D01*
X112055869Y-114388118D01*
X112127786Y-114307787D01*
X112221621Y-114240409D01*
X112323516Y-114187276D01*
X112420287Y-114147029D01*
X112522827Y-114115956D01*
X112637908Y-114093113D01*
X112772302Y-114077559D01*
X112932781Y-114068352D01*
X113126116Y-114064550D01*
X113207320Y-114064324D01*
X113338687Y-114065240D01*
X113456370Y-114067605D01*
X113553517Y-114071157D01*
X113623275Y-114075633D01*
X113658790Y-114080768D01*
X113661022Y-114081745D01*
X113658506Y-114094028D01*
X113636557Y-114123059D01*
X113593935Y-114170037D01*
X113529400Y-114236160D01*
X113441713Y-114322628D01*
X113329633Y-114430637D01*
X113191920Y-114561386D01*
X113027336Y-114716075D01*
X112834639Y-114895900D01*
X112612591Y-115102061D01*
X112443636Y-115258427D01*
X112311522Y-115380564D01*
X112311522Y-115798739D01*
X112395176Y-115829916D01*
X112643359Y-115885719D01*
X112925827Y-115917578D01*
X113032750Y-115920965D01*
X113032750Y-115504662D01*
X112903224Y-115503266D01*
X112794706Y-115499525D01*
X112715915Y-115493293D01*
X112693098Y-115489761D01*
X112648590Y-115478905D01*
X112640282Y-115465795D01*
X112662662Y-115440946D01*
X112663994Y-115439691D01*
X112687379Y-115417811D01*
X112738308Y-115370257D01*
X112813356Y-115300223D01*
X112909102Y-115210901D01*
X113022123Y-115105485D01*
X113148996Y-114987167D01*
X113286298Y-114859139D01*
X113364573Y-114786158D01*
X114026396Y-114169124D01*
X114094823Y-114204129D01*
X114235551Y-114297501D01*
X114343298Y-114417059D01*
X114375997Y-114469902D01*
X114405807Y-114527593D01*
X114424286Y-114578296D01*
X114434089Y-114635368D01*
X114437871Y-114712168D01*
X114438358Y-114783667D01*
X114436609Y-114886598D01*
X114430058Y-114959796D01*
X114416651Y-115015772D01*
X114394328Y-115067037D01*
X114390590Y-115074146D01*
X114295744Y-115207306D01*
X114166477Y-115316898D01*
X114004061Y-115402116D01*
X113809770Y-115462155D01*
X113762747Y-115471929D01*
X113690295Y-115481551D01*
X113586531Y-115489701D01*
X113460174Y-115496232D01*
X113319945Y-115501000D01*
X113174564Y-115503858D01*
X113032750Y-115504662D01*
X113032750Y-115920965D01*
X113189583Y-115925933D01*
X113499577Y-115914068D01*
X113775266Y-115878318D01*
X114017452Y-115818457D01*
X114226938Y-115734256D01*
X114404526Y-115625486D01*
X114487188Y-115556692D01*
X114615923Y-115409932D01*
X114711979Y-115242326D01*
X114775354Y-115059933D01*
X114806049Y-114868816D01*
X114804064Y-114675036D01*
G36*
X111633833Y-106613333D02*
G01*
X111633833Y-106973167D01*
X111819042Y-106974277D01*
X111906847Y-106975191D01*
X111958131Y-106977693D01*
X111978706Y-106983368D01*
X111974385Y-106993802D01*
X111951333Y-107010343D01*
X111858771Y-107086077D01*
X111767131Y-107185640D01*
X111690492Y-107292621D01*
X111658311Y-107351927D01*
X111632468Y-107413728D01*
X111615403Y-107473969D01*
X111604939Y-107545074D01*
X111598900Y-107639468D01*
X111596743Y-107703417D01*
X111594782Y-107811456D01*
X111597041Y-107889463D01*
X111605064Y-107949652D01*
X111620395Y-108004241D01*
X111641589Y-108058378D01*
X111733935Y-108230583D01*
X111855333Y-108374228D01*
X112009024Y-108492695D01*
X112112816Y-108550499D01*
X112292783Y-108623372D01*
X112485534Y-108668000D01*
X112701080Y-108686508D01*
X112757573Y-108687299D01*
X112791821Y-108684932D01*
X112791821Y-108273143D01*
X112586437Y-108262555D01*
X112389641Y-108221707D01*
X112321291Y-108198844D01*
X112199826Y-108136101D01*
X112092409Y-108047986D01*
X112008880Y-107944125D01*
X111963353Y-107848619D01*
X111938915Y-107715061D01*
X111942507Y-107569484D01*
X111972704Y-107429950D01*
X112001999Y-107358610D01*
X112086511Y-107236444D01*
X112203525Y-107133451D01*
X112344991Y-107056639D01*
X112351821Y-107053903D01*
X112407898Y-107034142D01*
X112464650Y-107020727D01*
X112532207Y-107012471D01*
X112620700Y-107008190D01*
X112740262Y-107006699D01*
X112755667Y-107006654D01*
X112877072Y-107007215D01*
X112966447Y-107010355D01*
X113034073Y-107017309D01*
X113090232Y-107029308D01*
X113145206Y-107047586D01*
X113166698Y-107055945D01*
X113302071Y-107128445D01*
X113418579Y-107227118D01*
X113505900Y-107342772D01*
X113521238Y-107371767D01*
X113550524Y-107446979D01*
X113565652Y-107530054D01*
X113569916Y-107629333D01*
X113552336Y-107794173D01*
X113498795Y-107937034D01*
X113410299Y-108056442D01*
X113287855Y-108150923D01*
X113177698Y-108203275D01*
X112993129Y-108253405D01*
X112791821Y-108273143D01*
X112791821Y-108684932D01*
X112989692Y-108671255D01*
X113203224Y-108623561D01*
X113395022Y-108546185D01*
X113561941Y-108441094D01*
X113700834Y-108310253D01*
X113808554Y-108155631D01*
X113880013Y-107985675D01*
X113915599Y-107809122D01*
X113919484Y-107627689D01*
X113892392Y-107453310D01*
X113838840Y-107305503D01*
X113769670Y-107190389D01*
X113688047Y-107094310D01*
X113672659Y-107080114D01*
X113575207Y-106994333D01*
X114872333Y-106994333D01*
X114872333Y-106613333D01*
X111633833Y-106613333D01*
G37*
X111633833Y-106613333D02*
X111633833Y-106973167D01*
X111819042Y-106974277D01*
X111906847Y-106975191D01*
X111958131Y-106977693D01*
X111978706Y-106983368D01*
X111974385Y-106993802D01*
X111951333Y-107010343D01*
X111858771Y-107086077D01*
X111767131Y-107185640D01*
X111690492Y-107292621D01*
X111658311Y-107351927D01*
X111632468Y-107413728D01*
X111615403Y-107473969D01*
X111604939Y-107545074D01*
X111598900Y-107639468D01*
X111596743Y-107703417D01*
X111594782Y-107811456D01*
X111597041Y-107889463D01*
X111605064Y-107949652D01*
X111620395Y-108004241D01*
X111641589Y-108058378D01*
X111733935Y-108230583D01*
X111855333Y-108374228D01*
X112009024Y-108492695D01*
X112112816Y-108550499D01*
X112292783Y-108623372D01*
X112485534Y-108668000D01*
X112701080Y-108686508D01*
X112757573Y-108687299D01*
X112791821Y-108684932D01*
X112791821Y-108273143D01*
X112586437Y-108262555D01*
X112389641Y-108221707D01*
X112321291Y-108198844D01*
X112199826Y-108136101D01*
X112092409Y-108047986D01*
X112008880Y-107944125D01*
X111963353Y-107848619D01*
X111938915Y-107715061D01*
X111942507Y-107569484D01*
X111972704Y-107429950D01*
X112001999Y-107358610D01*
X112086511Y-107236444D01*
X112203525Y-107133451D01*
X112344991Y-107056639D01*
X112351821Y-107053903D01*
X112407898Y-107034142D01*
X112464650Y-107020727D01*
X112532207Y-107012471D01*
X112620700Y-107008190D01*
X112740262Y-107006699D01*
X112755667Y-107006654D01*
X112877072Y-107007215D01*
X112966447Y-107010355D01*
X113034073Y-107017309D01*
X113090232Y-107029308D01*
X113145206Y-107047586D01*
X113166698Y-107055945D01*
X113302071Y-107128445D01*
X113418579Y-107227118D01*
X113505900Y-107342772D01*
X113521238Y-107371767D01*
X113550524Y-107446979D01*
X113565652Y-107530054D01*
X113569916Y-107629333D01*
X113552336Y-107794173D01*
X113498795Y-107937034D01*
X113410299Y-108056442D01*
X113287855Y-108150923D01*
X113177698Y-108203275D01*
X112993129Y-108253405D01*
X112791821Y-108273143D01*
X112791821Y-108684932D01*
X112989692Y-108671255D01*
X113203224Y-108623561D01*
X113395022Y-108546185D01*
X113561941Y-108441094D01*
X113700834Y-108310253D01*
X113808554Y-108155631D01*
X113880013Y-107985675D01*
X113915599Y-107809122D01*
X113919484Y-107627689D01*
X113892392Y-107453310D01*
X113838840Y-107305503D01*
X113769670Y-107190389D01*
X113688047Y-107094310D01*
X113672659Y-107080114D01*
X113575207Y-106994333D01*
X114872333Y-106994333D01*
X114872333Y-106613333D01*
X111633833Y-106613333D01*
G36*
X113908899Y-104804142D02*
G01*
X113875492Y-104648576D01*
X113815948Y-104503182D01*
X113801314Y-104475390D01*
X113703086Y-104338237D01*
X113571302Y-104222323D01*
X113410098Y-104129616D01*
X113223612Y-104062089D01*
X113015980Y-104021710D01*
X112824458Y-104010201D01*
X112649833Y-104009833D01*
X112649833Y-105624423D01*
X112533354Y-105612401D01*
X112389724Y-105580752D01*
X112250672Y-105519798D01*
X112132337Y-105437009D01*
X112110851Y-105416773D01*
X112017295Y-105295247D01*
X111958736Y-105157773D01*
X111934447Y-105011121D01*
X111943704Y-104862060D01*
X111985780Y-104717358D01*
X112059950Y-104583785D01*
X112165489Y-104468111D01*
X112216834Y-104428010D01*
X112269406Y-104386065D01*
X112303651Y-104349364D01*
X112311167Y-104332905D01*
X112300929Y-104298422D01*
X112274538Y-104243304D01*
X112238479Y-104178416D01*
X112199236Y-104114622D01*
X112163293Y-104062789D01*
X112137135Y-104033781D01*
X112130983Y-104031000D01*
X112097737Y-104045201D01*
X112043785Y-104082984D01*
X111977448Y-104137118D01*
X111907052Y-104200375D01*
X111840918Y-104265523D01*
X111787371Y-104325333D01*
X111777039Y-104338455D01*
X111706780Y-104441533D01*
X111657075Y-104543231D01*
X111624585Y-104654613D01*
X111605974Y-104786744D01*
X111598380Y-104930583D01*
X111596720Y-105054007D01*
X111599938Y-105146554D01*
X111609007Y-105219499D01*
X111624897Y-105284119D01*
X111630283Y-105301000D01*
X111706316Y-105485219D01*
X111803555Y-105637124D01*
X111926775Y-105761544D01*
X112080755Y-105863310D01*
X112268833Y-105946723D01*
X112343340Y-105972044D01*
X112413023Y-105989753D01*
X112489609Y-106001661D01*
X112584827Y-106009583D01*
X112710402Y-106015329D01*
X112713455Y-106015440D01*
X112933945Y-106014149D01*
X113030039Y-106002719D01*
X113030039Y-105618500D01*
X112967333Y-105618500D01*
X112967333Y-104406104D01*
X113071855Y-104418483D01*
X113216680Y-104452405D01*
X113349157Y-104515256D01*
X113461372Y-104601371D01*
X113545412Y-104705087D01*
X113582919Y-104784198D01*
X113608219Y-104907639D01*
X113609291Y-105046058D01*
X113587011Y-105180345D01*
X113561400Y-105254173D01*
X113494540Y-105362063D01*
X113399089Y-105459525D01*
X113285429Y-105539440D01*
X113163942Y-105594689D01*
X113045010Y-105618155D01*
X113030039Y-105618500D01*
X113030039Y-106002719D01*
X113123205Y-105991636D01*
X113287799Y-105945754D01*
X113434289Y-105874357D01*
X113569237Y-105775300D01*
X113635120Y-105714047D01*
X113757386Y-105569255D01*
X113843951Y-105411233D01*
X113896965Y-105234457D01*
X113918576Y-105033405D01*
X113919331Y-104983500D01*
X113908899Y-104804142D01*
G37*
X113908899Y-104804142D02*
X113875492Y-104648576D01*
X113815948Y-104503182D01*
X113801314Y-104475390D01*
X113703086Y-104338237D01*
X113571302Y-104222323D01*
X113410098Y-104129616D01*
X113223612Y-104062089D01*
X113015980Y-104021710D01*
X112824458Y-104010201D01*
X112649833Y-104009833D01*
X112649833Y-105624423D01*
X112533354Y-105612401D01*
X112389724Y-105580752D01*
X112250672Y-105519798D01*
X112132337Y-105437009D01*
X112110851Y-105416773D01*
X112017295Y-105295247D01*
X111958736Y-105157773D01*
X111934447Y-105011121D01*
X111943704Y-104862060D01*
X111985780Y-104717358D01*
X112059950Y-104583785D01*
X112165489Y-104468111D01*
X112216834Y-104428010D01*
X112269406Y-104386065D01*
X112303651Y-104349364D01*
X112311167Y-104332905D01*
X112300929Y-104298422D01*
X112274538Y-104243304D01*
X112238479Y-104178416D01*
X112199236Y-104114622D01*
X112163293Y-104062789D01*
X112137135Y-104033781D01*
X112130983Y-104031000D01*
X112097737Y-104045201D01*
X112043785Y-104082984D01*
X111977448Y-104137118D01*
X111907052Y-104200375D01*
X111840918Y-104265523D01*
X111787371Y-104325333D01*
X111777039Y-104338455D01*
X111706780Y-104441533D01*
X111657075Y-104543231D01*
X111624585Y-104654613D01*
X111605974Y-104786744D01*
X111598380Y-104930583D01*
X111596720Y-105054007D01*
X111599938Y-105146554D01*
X111609007Y-105219499D01*
X111624897Y-105284119D01*
X111630283Y-105301000D01*
X111706316Y-105485219D01*
X111803555Y-105637124D01*
X111926775Y-105761544D01*
X112080755Y-105863310D01*
X112268833Y-105946723D01*
X112343340Y-105972044D01*
X112413023Y-105989753D01*
X112489609Y-106001661D01*
X112584827Y-106009583D01*
X112710402Y-106015329D01*
X112713455Y-106015440D01*
X112933945Y-106014149D01*
X113030039Y-106002719D01*
X113030039Y-105618500D01*
X112967333Y-105618500D01*
X112967333Y-104406104D01*
X113071855Y-104418483D01*
X113216680Y-104452405D01*
X113349157Y-104515256D01*
X113461372Y-104601371D01*
X113545412Y-104705087D01*
X113582919Y-104784198D01*
X113608219Y-104907639D01*
X113609291Y-105046058D01*
X113587011Y-105180345D01*
X113561400Y-105254173D01*
X113494540Y-105362063D01*
X113399089Y-105459525D01*
X113285429Y-105539440D01*
X113163942Y-105594689D01*
X113045010Y-105618155D01*
X113030039Y-105618500D01*
X113030039Y-106002719D01*
X113123205Y-105991636D01*
X113287799Y-105945754D01*
X113434289Y-105874357D01*
X113569237Y-105775300D01*
X113635120Y-105714047D01*
X113757386Y-105569255D01*
X113843951Y-105411233D01*
X113896965Y-105234457D01*
X113918576Y-105033405D01*
X113919331Y-104983500D01*
X113908899Y-104804142D01*
G36*
X113863325Y-111278401D02*
G01*
X113825821Y-111232394D01*
X113772518Y-111175575D01*
X113761396Y-111164476D01*
X113645292Y-111049814D01*
X113586771Y-111103129D01*
X113555072Y-111132450D01*
X113497638Y-111186016D01*
X113419564Y-111259056D01*
X113325944Y-111346803D01*
X113221871Y-111444487D01*
X113152624Y-111509555D01*
X113047359Y-111607632D01*
X112951539Y-111695240D01*
X112869660Y-111768403D01*
X112806221Y-111823143D01*
X112765718Y-111855484D01*
X112753330Y-111862667D01*
X112731768Y-111848708D01*
X112684294Y-111809574D01*
X112615561Y-111749382D01*
X112530221Y-111672247D01*
X112432928Y-111582283D01*
X112377540Y-111530274D01*
X112271174Y-111429905D01*
X112170394Y-111334877D01*
X112080904Y-111250562D01*
X112008407Y-111182332D01*
X111958604Y-111135559D01*
X111945903Y-111123676D01*
X111866389Y-111049471D01*
X111750111Y-111164304D01*
X111694632Y-111222249D01*
X111653543Y-111271173D01*
X111634376Y-111301965D01*
X111633833Y-111304999D01*
X111648743Y-111325712D01*
X111690805Y-111371111D01*
X111756018Y-111437216D01*
X111840384Y-111520047D01*
X111939902Y-111615625D01*
X112050572Y-111719972D01*
X112057167Y-111726133D01*
X112168091Y-111829946D01*
X112268156Y-111924060D01*
X112353391Y-112004703D01*
X112419827Y-112068103D01*
X112463494Y-112110489D01*
X112480419Y-112128089D01*
X112480500Y-112128300D01*
X112465663Y-112143960D01*
X112423798Y-112184679D01*
X112358876Y-112246686D01*
X112274867Y-112326208D01*
X112175741Y-112419474D01*
X112065470Y-112522712D01*
X112057167Y-112530466D01*
X111945994Y-112635144D01*
X111845740Y-112731217D01*
X111760404Y-112814718D01*
X111693984Y-112881679D01*
X111650479Y-112928132D01*
X111633886Y-112950110D01*
X111633833Y-112950551D01*
X111648000Y-112976400D01*
X111685476Y-113022183D01*
X111738722Y-113078839D01*
X111749570Y-113089661D01*
X111865306Y-113203960D01*
X111912509Y-113163022D01*
X111940656Y-113137532D01*
X111994839Y-113087508D01*
X112070256Y-113017418D01*
X112162108Y-112931732D01*
X112265592Y-112834919D01*
X112348737Y-112756958D01*
X112455515Y-112657313D01*
X112552360Y-112568028D01*
X112634955Y-112492995D01*
X112698986Y-112436104D01*
X112740134Y-112401246D01*
X112753770Y-112391833D01*
X112772780Y-112405771D01*
X112818431Y-112445112D01*
X112886629Y-112506148D01*
X112973279Y-112585174D01*
X113074287Y-112678482D01*
X113185558Y-112782364D01*
X113197954Y-112794000D01*
X113310049Y-112898788D01*
X113412276Y-112993402D01*
X113500551Y-113074136D01*
X113570786Y-113137284D01*
X113618894Y-113179140D01*
X113640789Y-113195998D01*
X113641414Y-113196167D01*
X113665060Y-113181583D01*
X113706940Y-113144171D01*
X113757965Y-113093436D01*
X113809049Y-113038887D01*
X113851101Y-112990029D01*
X113875035Y-112956371D01*
X113877500Y-112949200D01*
X113862602Y-112928912D01*
X113820703Y-112884166D01*
X113756002Y-112819124D01*
X113672693Y-112737944D01*
X113574973Y-112644786D01*
X113491208Y-112566263D01*
X113382768Y-112465051D01*
X113282995Y-112371404D01*
X113196620Y-112289805D01*
X113128373Y-112224733D01*
X113082985Y-112180673D01*
X113066982Y-112164327D01*
X113056643Y-112150973D01*
X113052797Y-112136607D01*
X113058549Y-112117706D01*
X113077005Y-112090744D01*
X113111269Y-112052198D01*
X113164448Y-111998543D01*
X113239646Y-111926255D01*
X113339968Y-111831810D01*
X113453274Y-111725917D01*
X113564581Y-111621117D01*
X113664971Y-111524885D01*
X113750446Y-111441189D01*
X113817013Y-111373999D01*
X113860675Y-111327284D01*
X113877437Y-111305013D01*
X113877500Y-111304514D01*
X113863325Y-111278401D01*
G37*
X113863325Y-111278401D02*
X113825821Y-111232394D01*
X113772518Y-111175575D01*
X113761396Y-111164476D01*
X113645292Y-111049814D01*
X113586771Y-111103129D01*
X113555072Y-111132450D01*
X113497638Y-111186016D01*
X113419564Y-111259056D01*
X113325944Y-111346803D01*
X113221871Y-111444487D01*
X113152624Y-111509555D01*
X113047359Y-111607632D01*
X112951539Y-111695240D01*
X112869660Y-111768403D01*
X112806221Y-111823143D01*
X112765718Y-111855484D01*
X112753330Y-111862667D01*
X112731768Y-111848708D01*
X112684294Y-111809574D01*
X112615561Y-111749382D01*
X112530221Y-111672247D01*
X112432928Y-111582283D01*
X112377540Y-111530274D01*
X112271174Y-111429905D01*
X112170394Y-111334877D01*
X112080904Y-111250562D01*
X112008407Y-111182332D01*
X111958604Y-111135559D01*
X111945903Y-111123676D01*
X111866389Y-111049471D01*
X111750111Y-111164304D01*
X111694632Y-111222249D01*
X111653543Y-111271173D01*
X111634376Y-111301965D01*
X111633833Y-111304999D01*
X111648743Y-111325712D01*
X111690805Y-111371111D01*
X111756018Y-111437216D01*
X111840384Y-111520047D01*
X111939902Y-111615625D01*
X112050572Y-111719972D01*
X112057167Y-111726133D01*
X112168091Y-111829946D01*
X112268156Y-111924060D01*
X112353391Y-112004703D01*
X112419827Y-112068103D01*
X112463494Y-112110489D01*
X112480419Y-112128089D01*
X112480500Y-112128300D01*
X112465663Y-112143960D01*
X112423798Y-112184679D01*
X112358876Y-112246686D01*
X112274867Y-112326208D01*
X112175741Y-112419474D01*
X112065470Y-112522712D01*
X112057167Y-112530466D01*
X111945994Y-112635144D01*
X111845740Y-112731217D01*
X111760404Y-112814718D01*
X111693984Y-112881679D01*
X111650479Y-112928132D01*
X111633886Y-112950110D01*
X111633833Y-112950551D01*
X111648000Y-112976400D01*
X111685476Y-113022183D01*
X111738722Y-113078839D01*
X111749570Y-113089661D01*
X111865306Y-113203960D01*
X111912509Y-113163022D01*
X111940656Y-113137532D01*
X111994839Y-113087508D01*
X112070256Y-113017418D01*
X112162108Y-112931732D01*
X112265592Y-112834919D01*
X112348737Y-112756958D01*
X112455515Y-112657313D01*
X112552360Y-112568028D01*
X112634955Y-112492995D01*
X112698986Y-112436104D01*
X112740134Y-112401246D01*
X112753770Y-112391833D01*
X112772780Y-112405771D01*
X112818431Y-112445112D01*
X112886629Y-112506148D01*
X112973279Y-112585174D01*
X113074287Y-112678482D01*
X113185558Y-112782364D01*
X113197954Y-112794000D01*
X113310049Y-112898788D01*
X113412276Y-112993402D01*
X113500551Y-113074136D01*
X113570786Y-113137284D01*
X113618894Y-113179140D01*
X113640789Y-113195998D01*
X113641414Y-113196167D01*
X113665060Y-113181583D01*
X113706940Y-113144171D01*
X113757965Y-113093436D01*
X113809049Y-113038887D01*
X113851101Y-112990029D01*
X113875035Y-112956371D01*
X113877500Y-112949200D01*
X113862602Y-112928912D01*
X113820703Y-112884166D01*
X113756002Y-112819124D01*
X113672693Y-112737944D01*
X113574973Y-112644786D01*
X113491208Y-112566263D01*
X113382768Y-112465051D01*
X113282995Y-112371404D01*
X113196620Y-112289805D01*
X113128373Y-112224733D01*
X113082985Y-112180673D01*
X113066982Y-112164327D01*
X113056643Y-112150973D01*
X113052797Y-112136607D01*
X113058549Y-112117706D01*
X113077005Y-112090744D01*
X113111269Y-112052198D01*
X113164448Y-111998543D01*
X113239646Y-111926255D01*
X113339968Y-111831810D01*
X113453274Y-111725917D01*
X113564581Y-111621117D01*
X113664971Y-111524885D01*
X113750446Y-111441189D01*
X113817013Y-111373999D01*
X113860675Y-111327284D01*
X113877437Y-111305013D01*
X113877500Y-111304514D01*
X113863325Y-111278401D01*
G36*
X111973549Y-109555500D02*
G01*
X111967733Y-109211542D01*
X111961917Y-108867583D01*
X111644417Y-108867583D01*
X111638893Y-109751292D01*
X111633369Y-110635000D01*
X111972500Y-110635000D01*
X111972500Y-109936500D01*
X113537671Y-109936500D01*
X113549417Y-110539750D01*
X113866917Y-110539750D01*
X113872599Y-110047625D01*
X113878280Y-109555500D01*
X111973549Y-109555500D01*
G37*
X111973549Y-109555500D02*
X111967733Y-109211542D01*
X111961917Y-108867583D01*
X111644417Y-108867583D01*
X111638893Y-109751292D01*
X111633369Y-110635000D01*
X111972500Y-110635000D01*
X111972500Y-109936500D01*
X113537671Y-109936500D01*
X113549417Y-110539750D01*
X113866917Y-110539750D01*
X113872599Y-110047625D01*
X113878280Y-109555500D01*
X111973549Y-109555500D01*
G36*
X114603136Y-109538948D02*
G01*
X114353750Y-109544917D01*
X114347762Y-109783439D01*
X114346191Y-109892976D01*
X114348364Y-109966529D01*
X114354844Y-110010329D01*
X114366197Y-110030606D01*
X114370359Y-110032930D01*
X114402534Y-110036949D01*
X114466668Y-110039086D01*
X114552421Y-110039137D01*
X114619764Y-110037825D01*
X114840583Y-110031750D01*
X114846553Y-109782364D01*
X114852522Y-109532978D01*
X114603136Y-109538948D01*
G37*
X114603136Y-109538948D02*
X114353750Y-109544917D01*
X114347762Y-109783439D01*
X114346191Y-109892976D01*
X114348364Y-109966529D01*
X114354844Y-110010329D01*
X114366197Y-110030606D01*
X114370359Y-110032930D01*
X114402534Y-110036949D01*
X114466668Y-110039086D01*
X114552421Y-110039137D01*
X114619764Y-110037825D01*
X114840583Y-110031750D01*
X114846553Y-109782364D01*
X114852522Y-109532978D01*
X114603136Y-109538948D01*
M02*
