G04 #@! TF.GenerationSoftware,KiCad,Pcbnew,(5.1.10)-1*
G04 #@! TF.CreationDate,2021-10-26T18:23:48-05:00*
G04 #@! TF.ProjectId,samtec_dbg,73616d74-6563-45f6-9462-672e6b696361,rev?*
G04 #@! TF.SameCoordinates,Original*
G04 #@! TF.FileFunction,Legend,Top*
G04 #@! TF.FilePolarity,Positive*
%FSLAX46Y46*%
G04 Gerber Fmt 4.6, Leading zero omitted, Abs format (unit mm)*
G04 Created by KiCad (PCBNEW (5.1.10)-1) date 2021-10-26 18:23:48*
%MOMM*%
%LPD*%
G01*
G04 APERTURE LIST*
%ADD10C,0.200000*%
%ADD11C,0.120000*%
%ADD12C,0.150000*%
G04 APERTURE END LIST*
D10*
X111815000Y-120535000D02*
G75*
G03*
X111815000Y-120535000I-100000J0D01*
G01*
X112860000Y-110105000D02*
X111063660Y-110105000D01*
X108936340Y-110105000D02*
X107140000Y-110105000D01*
X111063660Y-119635000D02*
X112860000Y-119635000D01*
X107140000Y-119635000D02*
X108936340Y-119635000D01*
X112860000Y-118130000D02*
X112860000Y-119635000D01*
X112860000Y-111610000D02*
X112860000Y-110105000D01*
X107140000Y-111610000D02*
X107140000Y-110105000D01*
X107140000Y-119635000D02*
X107140000Y-118130000D01*
X107520000Y-105355000D02*
G75*
G03*
X107520000Y-105355000I-100000J0D01*
G01*
X113697500Y-104845000D02*
X115062500Y-104845000D01*
X105535000Y-104845000D02*
X106902500Y-104845000D01*
D11*
X112600000Y-137410000D02*
X107400000Y-137410000D01*
X112600000Y-124590000D02*
X107400000Y-124590000D01*
X114040000Y-136840000D02*
X112600000Y-136840000D01*
X112600000Y-137410000D02*
X112600000Y-136840000D01*
X107400000Y-137410000D02*
X107400000Y-136840000D01*
X112600000Y-125160000D02*
X112600000Y-124590000D01*
X107400000Y-125160000D02*
X107400000Y-124590000D01*
X112600000Y-135320000D02*
X112600000Y-134300000D01*
X107400000Y-135320000D02*
X107400000Y-134300000D01*
X112600000Y-132780000D02*
X112600000Y-131760000D01*
X107400000Y-132780000D02*
X107400000Y-131760000D01*
X112600000Y-130240000D02*
X112600000Y-129220000D01*
X107400000Y-130240000D02*
X107400000Y-129220000D01*
X112600000Y-127700000D02*
X112600000Y-126680000D01*
X107400000Y-127700000D02*
X107400000Y-126680000D01*
D12*
X104552380Y-120333333D02*
X105266666Y-120333333D01*
X105409523Y-120380952D01*
X105504761Y-120476190D01*
X105552380Y-120619047D01*
X105552380Y-120714285D01*
X104552380Y-119952380D02*
X104552380Y-119333333D01*
X104933333Y-119666666D01*
X104933333Y-119523809D01*
X104980952Y-119428571D01*
X105028571Y-119380952D01*
X105123809Y-119333333D01*
X105361904Y-119333333D01*
X105457142Y-119380952D01*
X105504761Y-119428571D01*
X105552380Y-119523809D01*
X105552380Y-119809523D01*
X105504761Y-119904761D01*
X105457142Y-119952380D01*
X105449523Y-105913333D02*
X105906666Y-105913333D01*
X105998095Y-105943809D01*
X106059047Y-106004761D01*
X106089523Y-106096190D01*
X106089523Y-106157142D01*
X105510476Y-105639047D02*
X105480000Y-105608571D01*
X105449523Y-105547619D01*
X105449523Y-105395238D01*
X105480000Y-105334285D01*
X105510476Y-105303809D01*
X105571428Y-105273333D01*
X105632380Y-105273333D01*
X105723809Y-105303809D01*
X106089523Y-105669523D01*
X106089523Y-105273333D01*
X109452380Y-138743333D02*
X110166666Y-138743333D01*
X110309523Y-138790952D01*
X110404761Y-138886190D01*
X110452380Y-139029047D01*
X110452380Y-139124285D01*
X110452380Y-137743333D02*
X110452380Y-138314761D01*
X110452380Y-138029047D02*
X109452380Y-138029047D01*
X109595238Y-138124285D01*
X109690476Y-138219523D01*
X109738095Y-138314761D01*
M02*
