G04 #@! TF.GenerationSoftware,KiCad,Pcbnew,(5.1.10)-1*
G04 #@! TF.CreationDate,2021-10-26T18:23:48-05:00*
G04 #@! TF.ProjectId,samtec_dbg,73616d74-6563-45f6-9462-672e6b696361,rev?*
G04 #@! TF.SameCoordinates,Original*
G04 #@! TF.FileFunction,Copper,L4,Bot*
G04 #@! TF.FilePolarity,Positive*
%FSLAX46Y46*%
G04 Gerber Fmt 4.6, Leading zero omitted, Abs format (unit mm)*
G04 Created by KiCad (PCBNEW (5.1.10)-1) date 2021-10-26 18:23:48*
%MOMM*%
%LPD*%
G01*
G04 APERTURE LIST*
G04 #@! TA.AperFunction,ComponentPad*
%ADD10C,1.218000*%
G04 #@! TD*
G04 #@! TA.AperFunction,ViaPad*
%ADD11C,0.800000*%
G04 #@! TD*
G04 #@! TA.AperFunction,Conductor*
%ADD12C,0.330000*%
G04 #@! TD*
G04 #@! TA.AperFunction,Conductor*
%ADD13C,0.250000*%
G04 #@! TD*
G04 #@! TA.AperFunction,Conductor*
%ADD14C,0.200000*%
G04 #@! TD*
G04 #@! TA.AperFunction,Conductor*
%ADD15C,0.100000*%
G04 #@! TD*
G04 APERTURE END LIST*
D10*
X114364500Y-101175000D03*
X106235500Y-101175000D03*
X114364500Y-103425000D03*
X106235500Y-103425000D03*
D11*
X104000000Y-103000000D03*
X104000000Y-106000000D03*
X115000000Y-107000000D03*
X115000000Y-109000000D03*
X112000000Y-120000000D03*
X110000000Y-121000000D03*
X114000000Y-138000000D03*
X106000000Y-138000000D03*
X105080000Y-125920000D03*
X105525014Y-112330000D03*
X112500000Y-102200000D03*
X114070000Y-112330000D03*
X114980000Y-125920000D03*
X105040000Y-128460000D03*
X105004444Y-113595556D03*
X111252500Y-102752500D03*
X114900000Y-113600000D03*
X114960000Y-128460000D03*
X105000000Y-131000000D03*
X105500000Y-114870000D03*
X109982500Y-102217500D03*
X113970000Y-114870000D03*
X115000000Y-131000000D03*
X105400000Y-116140000D03*
X108712500Y-102712500D03*
X115000000Y-133500000D03*
X114779989Y-116140000D03*
X112000000Y-124500000D03*
X105500000Y-117410000D03*
X108000000Y-106500000D03*
X107442500Y-102257500D03*
X114000000Y-117410000D03*
X115000000Y-136080000D03*
X114000000Y-120000000D03*
X108100000Y-118700000D03*
X107800000Y-110900000D03*
X107200000Y-105400000D03*
X104000000Y-109100000D03*
X104900000Y-121300000D03*
X107800000Y-123600000D03*
D12*
X105080000Y-125920000D02*
X103539980Y-124379980D01*
X103539980Y-124379980D02*
X103539980Y-113749349D01*
X103539980Y-113749349D02*
X104959329Y-112330000D01*
X104959329Y-112330000D02*
X105525014Y-112330000D01*
X112500000Y-102200000D02*
X112500000Y-104500000D01*
X112500000Y-104500000D02*
X113500000Y-105500000D01*
X113500000Y-105500000D02*
X113500000Y-111760000D01*
X113500000Y-111760000D02*
X114070000Y-112330000D01*
X116525021Y-113825021D02*
X116525021Y-124374979D01*
X114070000Y-112330000D02*
X115030000Y-112330000D01*
X116525021Y-124374979D02*
X114980000Y-125920000D01*
X115030000Y-112330000D02*
X116525021Y-113825021D01*
X104069991Y-114530009D02*
X105004444Y-113595556D01*
X106700000Y-120949548D02*
X104069991Y-118319539D01*
X104069991Y-118319539D02*
X104069991Y-114530009D01*
X106700000Y-126800000D02*
X106700000Y-120949548D01*
X105040000Y-128460000D02*
X106700000Y-126800000D01*
X115995010Y-121504990D02*
X113500000Y-124000000D01*
X114560001Y-128060001D02*
X114960000Y-128460000D01*
X115995010Y-114695010D02*
X115995010Y-121504990D01*
X113500000Y-124000000D02*
X113500000Y-127000000D01*
X113500000Y-127000000D02*
X114560001Y-128060001D01*
X114900000Y-113600000D02*
X115995010Y-114695010D01*
X114000000Y-113600000D02*
X114900000Y-113600000D01*
X112500000Y-112100000D02*
X114000000Y-113600000D01*
X112500000Y-106000000D02*
X112500000Y-112100000D01*
X111252500Y-104752500D02*
X112500000Y-106000000D01*
X111252500Y-102752500D02*
X111252500Y-104752500D01*
X108000000Y-131000000D02*
X105000000Y-131000000D01*
X108900000Y-122400000D02*
X108900000Y-130100000D01*
X108900000Y-130100000D02*
X108000000Y-131000000D01*
X104600000Y-118100000D02*
X108900000Y-122400000D01*
X104600000Y-115204315D02*
X104600000Y-118100000D01*
X104934315Y-114870000D02*
X104600000Y-115204315D01*
X105500000Y-114870000D02*
X104934315Y-114870000D01*
D13*
X109982500Y-102217500D02*
X109982500Y-104482500D01*
X109982500Y-104482500D02*
X112000000Y-106500000D01*
X112000000Y-106500000D02*
X112000000Y-114500000D01*
X112370000Y-114870000D02*
X113970000Y-114870000D01*
X112000000Y-114500000D02*
X112370000Y-114870000D01*
D12*
X111075001Y-115575001D02*
X111640000Y-116140000D01*
X114779989Y-120720011D02*
X114779989Y-116140000D01*
X111035001Y-110183999D02*
X111075001Y-110223999D01*
X111640000Y-116140000D02*
X114779989Y-116140000D01*
X112000000Y-123500000D02*
X114779989Y-120720011D01*
X108712500Y-104212500D02*
X111035001Y-106535001D01*
X112000000Y-130500000D02*
X112000000Y-124500000D01*
X111075001Y-110223999D02*
X111075001Y-115575001D01*
X111035001Y-106535001D02*
X111035001Y-110183999D01*
X115000000Y-133500000D02*
X112000000Y-130500000D01*
X108712500Y-102712500D02*
X108712500Y-104212500D01*
X112000000Y-124500000D02*
X112000000Y-123500000D01*
X105500000Y-117410000D02*
X106500000Y-116410000D01*
X106500000Y-116410000D02*
X106500000Y-107500000D01*
X106500000Y-107500000D02*
X107500000Y-106500000D01*
X107500000Y-106500000D02*
X108000000Y-106500000D01*
D13*
X108000000Y-106500000D02*
X108000000Y-106500000D01*
D12*
X114000000Y-117410000D02*
X114000000Y-120000000D01*
X114000000Y-120000000D02*
X114000000Y-120000000D01*
X111000000Y-123000000D02*
X111000000Y-134500000D01*
X112580000Y-136080000D02*
X115000000Y-136080000D01*
X111000000Y-134500000D02*
X112580000Y-136080000D01*
X110410000Y-117410000D02*
X114000000Y-117410000D01*
X108964999Y-115964999D02*
X110410000Y-117410000D01*
X108900000Y-115900000D02*
X108964999Y-115964999D01*
X108900000Y-105529998D02*
X108900000Y-115900000D01*
X107442500Y-104042500D02*
X108900000Y-105500000D01*
X107442500Y-102257500D02*
X107442500Y-104042500D01*
X114000000Y-120000000D02*
X111000000Y-123000000D01*
D13*
X113000000Y-123500000D02*
X113000000Y-129000000D01*
X114703002Y-114870000D02*
X115504999Y-115671997D01*
X114600001Y-130600001D02*
X115000000Y-131000000D01*
X113000000Y-129000000D02*
X114600001Y-130600001D01*
X113970000Y-114870000D02*
X114703002Y-114870000D01*
X115504999Y-120995001D02*
X113000000Y-123500000D01*
X115504999Y-115671997D02*
X115504999Y-120995001D01*
D14*
X105529434Y-100595546D02*
X105429955Y-100744427D01*
X105361433Y-100909855D01*
X105326500Y-101085471D01*
X105326500Y-101264529D01*
X105361433Y-101440145D01*
X105429955Y-101605573D01*
X105529434Y-101754454D01*
X105656046Y-101881066D01*
X105804927Y-101980545D01*
X105970355Y-102049067D01*
X106145971Y-102084000D01*
X106325029Y-102084000D01*
X106500645Y-102049067D01*
X106666073Y-101980545D01*
X106814954Y-101881066D01*
X106941566Y-101754454D01*
X107041045Y-101605573D01*
X107109567Y-101440145D01*
X107144500Y-101264529D01*
X107144500Y-101085471D01*
X107109567Y-100909855D01*
X107041045Y-100744427D01*
X106941566Y-100595546D01*
X106846020Y-100500000D01*
X113753980Y-100500000D01*
X113658434Y-100595546D01*
X113558955Y-100744427D01*
X113490433Y-100909855D01*
X113455500Y-101085471D01*
X113455500Y-101264529D01*
X113490433Y-101440145D01*
X113558955Y-101605573D01*
X113658434Y-101754454D01*
X113785046Y-101881066D01*
X113933927Y-101980545D01*
X114099355Y-102049067D01*
X114274971Y-102084000D01*
X114454029Y-102084000D01*
X114629645Y-102049067D01*
X114795073Y-101980545D01*
X114943954Y-101881066D01*
X115070566Y-101754454D01*
X115170045Y-101605573D01*
X115238567Y-101440145D01*
X115273500Y-101264529D01*
X115273500Y-101085471D01*
X115238567Y-100909855D01*
X115170045Y-100744427D01*
X115070566Y-100595546D01*
X114975020Y-100500000D01*
X116500000Y-100500000D01*
X116500000Y-113142391D01*
X115374957Y-112017349D01*
X115360395Y-111999605D01*
X115289590Y-111941497D01*
X115208808Y-111898318D01*
X115121156Y-111871729D01*
X115052835Y-111865000D01*
X115052832Y-111865000D01*
X115030000Y-111862751D01*
X115007168Y-111865000D01*
X114594950Y-111865000D01*
X114516224Y-111786274D01*
X114401574Y-111709668D01*
X114274182Y-111656901D01*
X114138944Y-111630000D01*
X114027608Y-111630000D01*
X113965000Y-111567392D01*
X113965000Y-105522834D01*
X113967249Y-105500000D01*
X113961226Y-105438843D01*
X113958271Y-105408844D01*
X113931682Y-105321192D01*
X113888503Y-105240410D01*
X113830395Y-105169605D01*
X113812657Y-105155048D01*
X112965000Y-104307392D01*
X112965000Y-103335471D01*
X113455500Y-103335471D01*
X113455500Y-103514529D01*
X113490433Y-103690145D01*
X113558955Y-103855573D01*
X113658434Y-104004454D01*
X113785046Y-104131066D01*
X113933927Y-104230545D01*
X114099355Y-104299067D01*
X114274971Y-104334000D01*
X114454029Y-104334000D01*
X114629645Y-104299067D01*
X114795073Y-104230545D01*
X114943954Y-104131066D01*
X115070566Y-104004454D01*
X115170045Y-103855573D01*
X115238567Y-103690145D01*
X115273500Y-103514529D01*
X115273500Y-103335471D01*
X115238567Y-103159855D01*
X115170045Y-102994427D01*
X115070566Y-102845546D01*
X114943954Y-102718934D01*
X114795073Y-102619455D01*
X114629645Y-102550933D01*
X114454029Y-102516000D01*
X114274971Y-102516000D01*
X114099355Y-102550933D01*
X113933927Y-102619455D01*
X113785046Y-102718934D01*
X113658434Y-102845546D01*
X113558955Y-102994427D01*
X113490433Y-103159855D01*
X113455500Y-103335471D01*
X112965000Y-103335471D01*
X112965000Y-102724950D01*
X113043726Y-102646224D01*
X113120332Y-102531574D01*
X113173099Y-102404182D01*
X113200000Y-102268944D01*
X113200000Y-102131056D01*
X113173099Y-101995818D01*
X113120332Y-101868426D01*
X113043726Y-101753776D01*
X112946224Y-101656274D01*
X112831574Y-101579668D01*
X112704182Y-101526901D01*
X112568944Y-101500000D01*
X112431056Y-101500000D01*
X112295818Y-101526901D01*
X112168426Y-101579668D01*
X112053776Y-101656274D01*
X111956274Y-101753776D01*
X111879668Y-101868426D01*
X111826901Y-101995818D01*
X111800000Y-102131056D01*
X111800000Y-102268944D01*
X111812174Y-102330143D01*
X111796226Y-102306276D01*
X111698724Y-102208774D01*
X111584074Y-102132168D01*
X111456682Y-102079401D01*
X111321444Y-102052500D01*
X111183556Y-102052500D01*
X111048318Y-102079401D01*
X110920926Y-102132168D01*
X110806276Y-102208774D01*
X110708774Y-102306276D01*
X110632168Y-102420926D01*
X110579401Y-102548318D01*
X110552500Y-102683556D01*
X110552500Y-102821444D01*
X110579401Y-102956682D01*
X110632168Y-103084074D01*
X110708774Y-103198724D01*
X110787500Y-103277450D01*
X110787501Y-104729658D01*
X110785251Y-104752500D01*
X110791177Y-104812657D01*
X110794230Y-104843656D01*
X110820819Y-104931308D01*
X110863998Y-105012090D01*
X110922106Y-105082895D01*
X110939845Y-105097453D01*
X112035000Y-106192610D01*
X112035001Y-112077158D01*
X112032751Y-112100000D01*
X112041730Y-112191155D01*
X112068319Y-112278808D01*
X112095682Y-112330000D01*
X112111498Y-112359590D01*
X112169606Y-112430395D01*
X112187345Y-112444953D01*
X113655051Y-113912661D01*
X113669605Y-113930395D01*
X113687338Y-113944948D01*
X113687341Y-113944951D01*
X113740410Y-113988503D01*
X113821192Y-114031682D01*
X113908844Y-114058271D01*
X113977165Y-114065000D01*
X113977175Y-114065000D01*
X113999999Y-114067248D01*
X114022824Y-114065000D01*
X114375050Y-114065000D01*
X114453776Y-114143726D01*
X114568426Y-114220332D01*
X114695818Y-114273099D01*
X114831056Y-114300000D01*
X114942392Y-114300000D01*
X115530010Y-114887619D01*
X115530011Y-121312380D01*
X113187349Y-123655043D01*
X113169605Y-123669605D01*
X113111497Y-123740411D01*
X113068318Y-123821193D01*
X113041729Y-123908845D01*
X113035977Y-123967249D01*
X113032751Y-124000000D01*
X113035000Y-124022832D01*
X113035001Y-126977158D01*
X113032751Y-127000000D01*
X113041730Y-127091155D01*
X113068319Y-127178808D01*
X113111497Y-127259589D01*
X113134522Y-127287645D01*
X113169606Y-127330395D01*
X113187345Y-127344953D01*
X114247343Y-128404952D01*
X114247348Y-128404956D01*
X114260000Y-128417608D01*
X114260000Y-128528944D01*
X114286901Y-128664182D01*
X114339668Y-128791574D01*
X114416274Y-128906224D01*
X114513776Y-129003726D01*
X114628426Y-129080332D01*
X114755818Y-129133099D01*
X114891056Y-129160000D01*
X115028944Y-129160000D01*
X115164182Y-129133099D01*
X115291574Y-129080332D01*
X115406224Y-129003726D01*
X115503726Y-128906224D01*
X115580332Y-128791574D01*
X115633099Y-128664182D01*
X115660000Y-128528944D01*
X115660000Y-128391056D01*
X115633099Y-128255818D01*
X115580332Y-128128426D01*
X115503726Y-128013776D01*
X115406224Y-127916274D01*
X115291574Y-127839668D01*
X115164182Y-127786901D01*
X115028944Y-127760000D01*
X114917608Y-127760000D01*
X114904956Y-127747348D01*
X114904952Y-127747343D01*
X113965000Y-126807392D01*
X113965000Y-124192608D01*
X116060022Y-122097587D01*
X116060022Y-124182369D01*
X115022392Y-125220000D01*
X114911056Y-125220000D01*
X114775818Y-125246901D01*
X114648426Y-125299668D01*
X114533776Y-125376274D01*
X114436274Y-125473776D01*
X114359668Y-125588426D01*
X114306901Y-125715818D01*
X114280000Y-125851056D01*
X114280000Y-125988944D01*
X114306901Y-126124182D01*
X114359668Y-126251574D01*
X114436274Y-126366224D01*
X114533776Y-126463726D01*
X114648426Y-126540332D01*
X114775818Y-126593099D01*
X114911056Y-126620000D01*
X115048944Y-126620000D01*
X115184182Y-126593099D01*
X115311574Y-126540332D01*
X115426224Y-126463726D01*
X115523726Y-126366224D01*
X115600332Y-126251574D01*
X115653099Y-126124182D01*
X115680000Y-125988944D01*
X115680000Y-125877608D01*
X116500000Y-125057609D01*
X116500000Y-139500000D01*
X103500000Y-139500000D01*
X103500000Y-124997608D01*
X104380000Y-125877609D01*
X104380000Y-125988944D01*
X104406901Y-126124182D01*
X104459668Y-126251574D01*
X104536274Y-126366224D01*
X104633776Y-126463726D01*
X104748426Y-126540332D01*
X104875818Y-126593099D01*
X105011056Y-126620000D01*
X105148944Y-126620000D01*
X105284182Y-126593099D01*
X105411574Y-126540332D01*
X105526224Y-126463726D01*
X105623726Y-126366224D01*
X105700332Y-126251574D01*
X105753099Y-126124182D01*
X105780000Y-125988944D01*
X105780000Y-125851056D01*
X105753099Y-125715818D01*
X105700332Y-125588426D01*
X105623726Y-125473776D01*
X105526224Y-125376274D01*
X105411574Y-125299668D01*
X105284182Y-125246901D01*
X105148944Y-125220000D01*
X105037609Y-125220000D01*
X104004980Y-124187372D01*
X104004980Y-118912136D01*
X106235001Y-121142159D01*
X106235000Y-126607391D01*
X105082392Y-127760000D01*
X104971056Y-127760000D01*
X104835818Y-127786901D01*
X104708426Y-127839668D01*
X104593776Y-127916274D01*
X104496274Y-128013776D01*
X104419668Y-128128426D01*
X104366901Y-128255818D01*
X104340000Y-128391056D01*
X104340000Y-128528944D01*
X104366901Y-128664182D01*
X104419668Y-128791574D01*
X104496274Y-128906224D01*
X104593776Y-129003726D01*
X104708426Y-129080332D01*
X104835818Y-129133099D01*
X104971056Y-129160000D01*
X105108944Y-129160000D01*
X105244182Y-129133099D01*
X105371574Y-129080332D01*
X105486224Y-129003726D01*
X105583726Y-128906224D01*
X105660332Y-128791574D01*
X105713099Y-128664182D01*
X105740000Y-128528944D01*
X105740000Y-128417608D01*
X107012657Y-127144952D01*
X107030395Y-127130395D01*
X107088503Y-127059590D01*
X107131682Y-126978808D01*
X107158271Y-126891156D01*
X107165000Y-126822835D01*
X107165000Y-126822834D01*
X107167249Y-126800000D01*
X107165000Y-126777166D01*
X107165000Y-121322609D01*
X108435000Y-122592610D01*
X108435001Y-129907389D01*
X107807392Y-130535000D01*
X105524950Y-130535000D01*
X105446224Y-130456274D01*
X105331574Y-130379668D01*
X105204182Y-130326901D01*
X105068944Y-130300000D01*
X104931056Y-130300000D01*
X104795818Y-130326901D01*
X104668426Y-130379668D01*
X104553776Y-130456274D01*
X104456274Y-130553776D01*
X104379668Y-130668426D01*
X104326901Y-130795818D01*
X104300000Y-130931056D01*
X104300000Y-131068944D01*
X104326901Y-131204182D01*
X104379668Y-131331574D01*
X104456274Y-131446224D01*
X104553776Y-131543726D01*
X104668426Y-131620332D01*
X104795818Y-131673099D01*
X104931056Y-131700000D01*
X105068944Y-131700000D01*
X105204182Y-131673099D01*
X105331574Y-131620332D01*
X105446224Y-131543726D01*
X105524950Y-131465000D01*
X107977168Y-131465000D01*
X108000000Y-131467249D01*
X108022832Y-131465000D01*
X108022835Y-131465000D01*
X108091156Y-131458271D01*
X108178808Y-131431682D01*
X108259590Y-131388503D01*
X108330395Y-131330395D01*
X108344957Y-131312651D01*
X109212661Y-130444949D01*
X109230395Y-130430395D01*
X109272026Y-130379668D01*
X109288503Y-130359590D01*
X109331681Y-130278810D01*
X109331682Y-130278808D01*
X109358271Y-130191156D01*
X109365000Y-130122835D01*
X109365000Y-130122825D01*
X109367248Y-130100001D01*
X109365000Y-130077176D01*
X109365000Y-122422824D01*
X109367248Y-122399999D01*
X109365000Y-122377175D01*
X109365000Y-122377165D01*
X109358271Y-122308844D01*
X109331682Y-122221192D01*
X109288503Y-122140410D01*
X109230395Y-122069605D01*
X109212663Y-122055053D01*
X106058133Y-118900524D01*
X108990000Y-118900524D01*
X108990000Y-119099476D01*
X109028814Y-119294606D01*
X109104950Y-119478414D01*
X109215482Y-119643837D01*
X109356163Y-119784518D01*
X109521586Y-119895050D01*
X109705394Y-119971186D01*
X109900524Y-120010000D01*
X110099476Y-120010000D01*
X110294606Y-119971186D01*
X110478414Y-119895050D01*
X110643837Y-119784518D01*
X110784518Y-119643837D01*
X110895050Y-119478414D01*
X110971186Y-119294606D01*
X111010000Y-119099476D01*
X111010000Y-118900524D01*
X110971186Y-118705394D01*
X110895050Y-118521586D01*
X110784518Y-118356163D01*
X110643837Y-118215482D01*
X110478414Y-118104950D01*
X110294606Y-118028814D01*
X110099476Y-117990000D01*
X109900524Y-117990000D01*
X109705394Y-118028814D01*
X109521586Y-118104950D01*
X109356163Y-118215482D01*
X109215482Y-118356163D01*
X109104950Y-118521586D01*
X109028814Y-118705394D01*
X108990000Y-118900524D01*
X106058133Y-118900524D01*
X105201738Y-118044130D01*
X105295818Y-118083099D01*
X105431056Y-118110000D01*
X105568944Y-118110000D01*
X105704182Y-118083099D01*
X105831574Y-118030332D01*
X105946224Y-117953726D01*
X106043726Y-117856224D01*
X106120332Y-117741574D01*
X106173099Y-117614182D01*
X106200000Y-117478944D01*
X106200000Y-117367608D01*
X106812657Y-116754952D01*
X106830395Y-116740395D01*
X106888503Y-116669590D01*
X106931682Y-116588808D01*
X106958271Y-116501156D01*
X106965000Y-116432835D01*
X106965000Y-116432834D01*
X106967249Y-116410000D01*
X106965000Y-116387166D01*
X106965000Y-107692608D01*
X107589807Y-107067801D01*
X107668426Y-107120332D01*
X107795818Y-107173099D01*
X107931056Y-107200000D01*
X108068944Y-107200000D01*
X108204182Y-107173099D01*
X108331574Y-107120332D01*
X108435000Y-107051225D01*
X108435001Y-115877158D01*
X108432751Y-115900000D01*
X108441730Y-115991155D01*
X108468319Y-116078808D01*
X108506592Y-116150411D01*
X108511498Y-116159590D01*
X108569606Y-116230395D01*
X108587343Y-116244951D01*
X108652341Y-116309950D01*
X108652346Y-116309954D01*
X110065047Y-117722656D01*
X110079605Y-117740395D01*
X110150410Y-117798503D01*
X110231192Y-117841682D01*
X110318844Y-117868271D01*
X110387165Y-117875000D01*
X110387167Y-117875000D01*
X110409999Y-117877249D01*
X110432831Y-117875000D01*
X113475050Y-117875000D01*
X113535000Y-117934950D01*
X113535001Y-119475049D01*
X113456274Y-119553776D01*
X113379668Y-119668426D01*
X113326901Y-119795818D01*
X113300000Y-119931056D01*
X113300000Y-120042391D01*
X110687349Y-122655043D01*
X110669605Y-122669605D01*
X110611497Y-122740411D01*
X110568318Y-122821193D01*
X110541729Y-122908845D01*
X110535000Y-122977165D01*
X110532751Y-123000000D01*
X110535000Y-123022832D01*
X110535001Y-134477158D01*
X110532751Y-134500000D01*
X110540894Y-134582667D01*
X110541730Y-134591156D01*
X110568319Y-134678808D01*
X110611498Y-134759590D01*
X110669606Y-134830395D01*
X110687345Y-134844953D01*
X112235052Y-136392661D01*
X112249605Y-136410395D01*
X112267338Y-136424948D01*
X112267341Y-136424951D01*
X112320410Y-136468503D01*
X112401192Y-136511682D01*
X112488844Y-136538271D01*
X112557165Y-136545000D01*
X112557175Y-136545000D01*
X112579999Y-136547248D01*
X112602823Y-136545000D01*
X114475050Y-136545000D01*
X114553776Y-136623726D01*
X114668426Y-136700332D01*
X114795818Y-136753099D01*
X114931056Y-136780000D01*
X115068944Y-136780000D01*
X115204182Y-136753099D01*
X115331574Y-136700332D01*
X115446224Y-136623726D01*
X115543726Y-136526224D01*
X115620332Y-136411574D01*
X115673099Y-136284182D01*
X115700000Y-136148944D01*
X115700000Y-136011056D01*
X115673099Y-135875818D01*
X115620332Y-135748426D01*
X115543726Y-135633776D01*
X115446224Y-135536274D01*
X115331574Y-135459668D01*
X115204182Y-135406901D01*
X115068944Y-135380000D01*
X114931056Y-135380000D01*
X114795818Y-135406901D01*
X114668426Y-135459668D01*
X114553776Y-135536274D01*
X114475050Y-135615000D01*
X112772610Y-135615000D01*
X111465000Y-134307392D01*
X111465000Y-124954950D01*
X111535001Y-125024951D01*
X111535000Y-130477168D01*
X111532751Y-130500000D01*
X111535000Y-130522832D01*
X111535000Y-130522834D01*
X111541729Y-130591155D01*
X111568318Y-130678807D01*
X111611497Y-130759589D01*
X111669605Y-130830395D01*
X111687349Y-130844957D01*
X114300000Y-133457609D01*
X114300000Y-133568944D01*
X114326901Y-133704182D01*
X114379668Y-133831574D01*
X114456274Y-133946224D01*
X114553776Y-134043726D01*
X114668426Y-134120332D01*
X114795818Y-134173099D01*
X114931056Y-134200000D01*
X115068944Y-134200000D01*
X115204182Y-134173099D01*
X115331574Y-134120332D01*
X115446224Y-134043726D01*
X115543726Y-133946224D01*
X115620332Y-133831574D01*
X115673099Y-133704182D01*
X115700000Y-133568944D01*
X115700000Y-133431056D01*
X115673099Y-133295818D01*
X115620332Y-133168426D01*
X115543726Y-133053776D01*
X115446224Y-132956274D01*
X115331574Y-132879668D01*
X115204182Y-132826901D01*
X115068944Y-132800000D01*
X114957609Y-132800000D01*
X112465000Y-130307392D01*
X112465000Y-125024950D01*
X112543726Y-124946224D01*
X112620332Y-124831574D01*
X112673099Y-124704182D01*
X112700000Y-124568944D01*
X112700000Y-124431056D01*
X112673099Y-124295818D01*
X112620332Y-124168426D01*
X112543726Y-124053776D01*
X112465000Y-123975050D01*
X112465000Y-123692608D01*
X115092646Y-121064963D01*
X115110384Y-121050406D01*
X115168492Y-120979601D01*
X115211671Y-120898819D01*
X115238260Y-120811167D01*
X115244989Y-120742846D01*
X115244989Y-120742836D01*
X115247237Y-120720012D01*
X115244989Y-120697187D01*
X115244989Y-116664950D01*
X115323715Y-116586224D01*
X115400321Y-116471574D01*
X115453088Y-116344182D01*
X115479989Y-116208944D01*
X115479989Y-116071056D01*
X115453088Y-115935818D01*
X115400321Y-115808426D01*
X115323715Y-115693776D01*
X115226213Y-115596274D01*
X115111563Y-115519668D01*
X114984171Y-115466901D01*
X114848933Y-115440000D01*
X114711045Y-115440000D01*
X114575807Y-115466901D01*
X114448415Y-115519668D01*
X114333765Y-115596274D01*
X114255039Y-115675000D01*
X111832609Y-115675000D01*
X111540001Y-115382392D01*
X111540001Y-110246833D01*
X111542250Y-110223999D01*
X111533272Y-110132845D01*
X111533272Y-110132843D01*
X111506683Y-110045191D01*
X111500001Y-110032690D01*
X111500001Y-106557824D01*
X111502249Y-106535000D01*
X111500001Y-106512176D01*
X111500001Y-106512166D01*
X111493272Y-106443845D01*
X111466683Y-106356193D01*
X111423504Y-106275411D01*
X111410519Y-106259589D01*
X111379952Y-106222342D01*
X111379949Y-106222339D01*
X111365396Y-106204606D01*
X111347664Y-106190054D01*
X109177500Y-104019892D01*
X109177500Y-103237450D01*
X109256226Y-103158724D01*
X109332832Y-103044074D01*
X109385599Y-102916682D01*
X109412500Y-102781444D01*
X109412500Y-102643556D01*
X109385599Y-102508318D01*
X109332832Y-102380926D01*
X109256226Y-102266276D01*
X109158724Y-102168774D01*
X109044074Y-102092168D01*
X108916682Y-102039401D01*
X108781444Y-102012500D01*
X108643556Y-102012500D01*
X108508318Y-102039401D01*
X108380926Y-102092168D01*
X108266276Y-102168774D01*
X108168774Y-102266276D01*
X108142500Y-102305598D01*
X108142500Y-102188556D01*
X108115599Y-102053318D01*
X108062832Y-101925926D01*
X107986226Y-101811276D01*
X107888724Y-101713774D01*
X107774074Y-101637168D01*
X107646682Y-101584401D01*
X107511444Y-101557500D01*
X107373556Y-101557500D01*
X107238318Y-101584401D01*
X107110926Y-101637168D01*
X106996276Y-101713774D01*
X106898774Y-101811276D01*
X106822168Y-101925926D01*
X106769401Y-102053318D01*
X106742500Y-102188556D01*
X106742500Y-102326444D01*
X106769401Y-102461682D01*
X106822168Y-102589074D01*
X106898774Y-102703724D01*
X106977500Y-102782450D01*
X106977500Y-102899326D01*
X106941566Y-102845546D01*
X106814954Y-102718934D01*
X106666073Y-102619455D01*
X106500645Y-102550933D01*
X106325029Y-102516000D01*
X106145971Y-102516000D01*
X105970355Y-102550933D01*
X105804927Y-102619455D01*
X105656046Y-102718934D01*
X105529434Y-102845546D01*
X105429955Y-102994427D01*
X105361433Y-103159855D01*
X105326500Y-103335471D01*
X105326500Y-103514529D01*
X105361433Y-103690145D01*
X105429955Y-103855573D01*
X105529434Y-104004454D01*
X105656046Y-104131066D01*
X105804927Y-104230545D01*
X105970355Y-104299067D01*
X106145971Y-104334000D01*
X106325029Y-104334000D01*
X106500645Y-104299067D01*
X106666073Y-104230545D01*
X106814954Y-104131066D01*
X106941566Y-104004454D01*
X106977501Y-103950674D01*
X106977501Y-104019658D01*
X106975251Y-104042500D01*
X106983017Y-104121345D01*
X106984230Y-104133656D01*
X107008147Y-104212500D01*
X107010819Y-104221308D01*
X107049797Y-104294230D01*
X107053998Y-104302090D01*
X107112106Y-104372895D01*
X107129845Y-104387453D01*
X108435000Y-105692610D01*
X108435000Y-105948774D01*
X108331574Y-105879668D01*
X108204182Y-105826901D01*
X108068944Y-105800000D01*
X107931056Y-105800000D01*
X107795818Y-105826901D01*
X107668426Y-105879668D01*
X107553776Y-105956274D01*
X107474819Y-106035231D01*
X107408844Y-106041729D01*
X107321192Y-106068318D01*
X107240410Y-106111497D01*
X107169605Y-106169605D01*
X107155047Y-106187344D01*
X106187345Y-107155047D01*
X106169606Y-107169605D01*
X106155049Y-107187343D01*
X106111497Y-107240411D01*
X106068319Y-107321192D01*
X106041730Y-107408845D01*
X106032751Y-107500000D01*
X106035001Y-107522842D01*
X106035001Y-111850037D01*
X105971238Y-111786274D01*
X105856588Y-111709668D01*
X105729196Y-111656901D01*
X105593958Y-111630000D01*
X105456070Y-111630000D01*
X105320832Y-111656901D01*
X105193440Y-111709668D01*
X105078790Y-111786274D01*
X105000064Y-111865000D01*
X104982163Y-111865000D01*
X104959329Y-111862751D01*
X104936495Y-111865000D01*
X104936494Y-111865000D01*
X104868173Y-111871729D01*
X104780521Y-111898318D01*
X104699739Y-111941497D01*
X104628934Y-111999605D01*
X104614378Y-112017342D01*
X103500000Y-113131721D01*
X103500000Y-100500000D01*
X105624980Y-100500000D01*
X105529434Y-100595546D01*
G04 #@! TA.AperFunction,Conductor*
D15*
G36*
X105529434Y-100595546D02*
G01*
X105429955Y-100744427D01*
X105361433Y-100909855D01*
X105326500Y-101085471D01*
X105326500Y-101264529D01*
X105361433Y-101440145D01*
X105429955Y-101605573D01*
X105529434Y-101754454D01*
X105656046Y-101881066D01*
X105804927Y-101980545D01*
X105970355Y-102049067D01*
X106145971Y-102084000D01*
X106325029Y-102084000D01*
X106500645Y-102049067D01*
X106666073Y-101980545D01*
X106814954Y-101881066D01*
X106941566Y-101754454D01*
X107041045Y-101605573D01*
X107109567Y-101440145D01*
X107144500Y-101264529D01*
X107144500Y-101085471D01*
X107109567Y-100909855D01*
X107041045Y-100744427D01*
X106941566Y-100595546D01*
X106846020Y-100500000D01*
X113753980Y-100500000D01*
X113658434Y-100595546D01*
X113558955Y-100744427D01*
X113490433Y-100909855D01*
X113455500Y-101085471D01*
X113455500Y-101264529D01*
X113490433Y-101440145D01*
X113558955Y-101605573D01*
X113658434Y-101754454D01*
X113785046Y-101881066D01*
X113933927Y-101980545D01*
X114099355Y-102049067D01*
X114274971Y-102084000D01*
X114454029Y-102084000D01*
X114629645Y-102049067D01*
X114795073Y-101980545D01*
X114943954Y-101881066D01*
X115070566Y-101754454D01*
X115170045Y-101605573D01*
X115238567Y-101440145D01*
X115273500Y-101264529D01*
X115273500Y-101085471D01*
X115238567Y-100909855D01*
X115170045Y-100744427D01*
X115070566Y-100595546D01*
X114975020Y-100500000D01*
X116500000Y-100500000D01*
X116500000Y-113142391D01*
X115374957Y-112017349D01*
X115360395Y-111999605D01*
X115289590Y-111941497D01*
X115208808Y-111898318D01*
X115121156Y-111871729D01*
X115052835Y-111865000D01*
X115052832Y-111865000D01*
X115030000Y-111862751D01*
X115007168Y-111865000D01*
X114594950Y-111865000D01*
X114516224Y-111786274D01*
X114401574Y-111709668D01*
X114274182Y-111656901D01*
X114138944Y-111630000D01*
X114027608Y-111630000D01*
X113965000Y-111567392D01*
X113965000Y-105522834D01*
X113967249Y-105500000D01*
X113961226Y-105438843D01*
X113958271Y-105408844D01*
X113931682Y-105321192D01*
X113888503Y-105240410D01*
X113830395Y-105169605D01*
X113812657Y-105155048D01*
X112965000Y-104307392D01*
X112965000Y-103335471D01*
X113455500Y-103335471D01*
X113455500Y-103514529D01*
X113490433Y-103690145D01*
X113558955Y-103855573D01*
X113658434Y-104004454D01*
X113785046Y-104131066D01*
X113933927Y-104230545D01*
X114099355Y-104299067D01*
X114274971Y-104334000D01*
X114454029Y-104334000D01*
X114629645Y-104299067D01*
X114795073Y-104230545D01*
X114943954Y-104131066D01*
X115070566Y-104004454D01*
X115170045Y-103855573D01*
X115238567Y-103690145D01*
X115273500Y-103514529D01*
X115273500Y-103335471D01*
X115238567Y-103159855D01*
X115170045Y-102994427D01*
X115070566Y-102845546D01*
X114943954Y-102718934D01*
X114795073Y-102619455D01*
X114629645Y-102550933D01*
X114454029Y-102516000D01*
X114274971Y-102516000D01*
X114099355Y-102550933D01*
X113933927Y-102619455D01*
X113785046Y-102718934D01*
X113658434Y-102845546D01*
X113558955Y-102994427D01*
X113490433Y-103159855D01*
X113455500Y-103335471D01*
X112965000Y-103335471D01*
X112965000Y-102724950D01*
X113043726Y-102646224D01*
X113120332Y-102531574D01*
X113173099Y-102404182D01*
X113200000Y-102268944D01*
X113200000Y-102131056D01*
X113173099Y-101995818D01*
X113120332Y-101868426D01*
X113043726Y-101753776D01*
X112946224Y-101656274D01*
X112831574Y-101579668D01*
X112704182Y-101526901D01*
X112568944Y-101500000D01*
X112431056Y-101500000D01*
X112295818Y-101526901D01*
X112168426Y-101579668D01*
X112053776Y-101656274D01*
X111956274Y-101753776D01*
X111879668Y-101868426D01*
X111826901Y-101995818D01*
X111800000Y-102131056D01*
X111800000Y-102268944D01*
X111812174Y-102330143D01*
X111796226Y-102306276D01*
X111698724Y-102208774D01*
X111584074Y-102132168D01*
X111456682Y-102079401D01*
X111321444Y-102052500D01*
X111183556Y-102052500D01*
X111048318Y-102079401D01*
X110920926Y-102132168D01*
X110806276Y-102208774D01*
X110708774Y-102306276D01*
X110632168Y-102420926D01*
X110579401Y-102548318D01*
X110552500Y-102683556D01*
X110552500Y-102821444D01*
X110579401Y-102956682D01*
X110632168Y-103084074D01*
X110708774Y-103198724D01*
X110787500Y-103277450D01*
X110787501Y-104729658D01*
X110785251Y-104752500D01*
X110791177Y-104812657D01*
X110794230Y-104843656D01*
X110820819Y-104931308D01*
X110863998Y-105012090D01*
X110922106Y-105082895D01*
X110939845Y-105097453D01*
X112035000Y-106192610D01*
X112035001Y-112077158D01*
X112032751Y-112100000D01*
X112041730Y-112191155D01*
X112068319Y-112278808D01*
X112095682Y-112330000D01*
X112111498Y-112359590D01*
X112169606Y-112430395D01*
X112187345Y-112444953D01*
X113655051Y-113912661D01*
X113669605Y-113930395D01*
X113687338Y-113944948D01*
X113687341Y-113944951D01*
X113740410Y-113988503D01*
X113821192Y-114031682D01*
X113908844Y-114058271D01*
X113977165Y-114065000D01*
X113977175Y-114065000D01*
X113999999Y-114067248D01*
X114022824Y-114065000D01*
X114375050Y-114065000D01*
X114453776Y-114143726D01*
X114568426Y-114220332D01*
X114695818Y-114273099D01*
X114831056Y-114300000D01*
X114942392Y-114300000D01*
X115530010Y-114887619D01*
X115530011Y-121312380D01*
X113187349Y-123655043D01*
X113169605Y-123669605D01*
X113111497Y-123740411D01*
X113068318Y-123821193D01*
X113041729Y-123908845D01*
X113035977Y-123967249D01*
X113032751Y-124000000D01*
X113035000Y-124022832D01*
X113035001Y-126977158D01*
X113032751Y-127000000D01*
X113041730Y-127091155D01*
X113068319Y-127178808D01*
X113111497Y-127259589D01*
X113134522Y-127287645D01*
X113169606Y-127330395D01*
X113187345Y-127344953D01*
X114247343Y-128404952D01*
X114247348Y-128404956D01*
X114260000Y-128417608D01*
X114260000Y-128528944D01*
X114286901Y-128664182D01*
X114339668Y-128791574D01*
X114416274Y-128906224D01*
X114513776Y-129003726D01*
X114628426Y-129080332D01*
X114755818Y-129133099D01*
X114891056Y-129160000D01*
X115028944Y-129160000D01*
X115164182Y-129133099D01*
X115291574Y-129080332D01*
X115406224Y-129003726D01*
X115503726Y-128906224D01*
X115580332Y-128791574D01*
X115633099Y-128664182D01*
X115660000Y-128528944D01*
X115660000Y-128391056D01*
X115633099Y-128255818D01*
X115580332Y-128128426D01*
X115503726Y-128013776D01*
X115406224Y-127916274D01*
X115291574Y-127839668D01*
X115164182Y-127786901D01*
X115028944Y-127760000D01*
X114917608Y-127760000D01*
X114904956Y-127747348D01*
X114904952Y-127747343D01*
X113965000Y-126807392D01*
X113965000Y-124192608D01*
X116060022Y-122097587D01*
X116060022Y-124182369D01*
X115022392Y-125220000D01*
X114911056Y-125220000D01*
X114775818Y-125246901D01*
X114648426Y-125299668D01*
X114533776Y-125376274D01*
X114436274Y-125473776D01*
X114359668Y-125588426D01*
X114306901Y-125715818D01*
X114280000Y-125851056D01*
X114280000Y-125988944D01*
X114306901Y-126124182D01*
X114359668Y-126251574D01*
X114436274Y-126366224D01*
X114533776Y-126463726D01*
X114648426Y-126540332D01*
X114775818Y-126593099D01*
X114911056Y-126620000D01*
X115048944Y-126620000D01*
X115184182Y-126593099D01*
X115311574Y-126540332D01*
X115426224Y-126463726D01*
X115523726Y-126366224D01*
X115600332Y-126251574D01*
X115653099Y-126124182D01*
X115680000Y-125988944D01*
X115680000Y-125877608D01*
X116500000Y-125057609D01*
X116500000Y-139500000D01*
X103500000Y-139500000D01*
X103500000Y-124997608D01*
X104380000Y-125877609D01*
X104380000Y-125988944D01*
X104406901Y-126124182D01*
X104459668Y-126251574D01*
X104536274Y-126366224D01*
X104633776Y-126463726D01*
X104748426Y-126540332D01*
X104875818Y-126593099D01*
X105011056Y-126620000D01*
X105148944Y-126620000D01*
X105284182Y-126593099D01*
X105411574Y-126540332D01*
X105526224Y-126463726D01*
X105623726Y-126366224D01*
X105700332Y-126251574D01*
X105753099Y-126124182D01*
X105780000Y-125988944D01*
X105780000Y-125851056D01*
X105753099Y-125715818D01*
X105700332Y-125588426D01*
X105623726Y-125473776D01*
X105526224Y-125376274D01*
X105411574Y-125299668D01*
X105284182Y-125246901D01*
X105148944Y-125220000D01*
X105037609Y-125220000D01*
X104004980Y-124187372D01*
X104004980Y-118912136D01*
X106235001Y-121142159D01*
X106235000Y-126607391D01*
X105082392Y-127760000D01*
X104971056Y-127760000D01*
X104835818Y-127786901D01*
X104708426Y-127839668D01*
X104593776Y-127916274D01*
X104496274Y-128013776D01*
X104419668Y-128128426D01*
X104366901Y-128255818D01*
X104340000Y-128391056D01*
X104340000Y-128528944D01*
X104366901Y-128664182D01*
X104419668Y-128791574D01*
X104496274Y-128906224D01*
X104593776Y-129003726D01*
X104708426Y-129080332D01*
X104835818Y-129133099D01*
X104971056Y-129160000D01*
X105108944Y-129160000D01*
X105244182Y-129133099D01*
X105371574Y-129080332D01*
X105486224Y-129003726D01*
X105583726Y-128906224D01*
X105660332Y-128791574D01*
X105713099Y-128664182D01*
X105740000Y-128528944D01*
X105740000Y-128417608D01*
X107012657Y-127144952D01*
X107030395Y-127130395D01*
X107088503Y-127059590D01*
X107131682Y-126978808D01*
X107158271Y-126891156D01*
X107165000Y-126822835D01*
X107165000Y-126822834D01*
X107167249Y-126800000D01*
X107165000Y-126777166D01*
X107165000Y-121322609D01*
X108435000Y-122592610D01*
X108435001Y-129907389D01*
X107807392Y-130535000D01*
X105524950Y-130535000D01*
X105446224Y-130456274D01*
X105331574Y-130379668D01*
X105204182Y-130326901D01*
X105068944Y-130300000D01*
X104931056Y-130300000D01*
X104795818Y-130326901D01*
X104668426Y-130379668D01*
X104553776Y-130456274D01*
X104456274Y-130553776D01*
X104379668Y-130668426D01*
X104326901Y-130795818D01*
X104300000Y-130931056D01*
X104300000Y-131068944D01*
X104326901Y-131204182D01*
X104379668Y-131331574D01*
X104456274Y-131446224D01*
X104553776Y-131543726D01*
X104668426Y-131620332D01*
X104795818Y-131673099D01*
X104931056Y-131700000D01*
X105068944Y-131700000D01*
X105204182Y-131673099D01*
X105331574Y-131620332D01*
X105446224Y-131543726D01*
X105524950Y-131465000D01*
X107977168Y-131465000D01*
X108000000Y-131467249D01*
X108022832Y-131465000D01*
X108022835Y-131465000D01*
X108091156Y-131458271D01*
X108178808Y-131431682D01*
X108259590Y-131388503D01*
X108330395Y-131330395D01*
X108344957Y-131312651D01*
X109212661Y-130444949D01*
X109230395Y-130430395D01*
X109272026Y-130379668D01*
X109288503Y-130359590D01*
X109331681Y-130278810D01*
X109331682Y-130278808D01*
X109358271Y-130191156D01*
X109365000Y-130122835D01*
X109365000Y-130122825D01*
X109367248Y-130100001D01*
X109365000Y-130077176D01*
X109365000Y-122422824D01*
X109367248Y-122399999D01*
X109365000Y-122377175D01*
X109365000Y-122377165D01*
X109358271Y-122308844D01*
X109331682Y-122221192D01*
X109288503Y-122140410D01*
X109230395Y-122069605D01*
X109212663Y-122055053D01*
X106058133Y-118900524D01*
X108990000Y-118900524D01*
X108990000Y-119099476D01*
X109028814Y-119294606D01*
X109104950Y-119478414D01*
X109215482Y-119643837D01*
X109356163Y-119784518D01*
X109521586Y-119895050D01*
X109705394Y-119971186D01*
X109900524Y-120010000D01*
X110099476Y-120010000D01*
X110294606Y-119971186D01*
X110478414Y-119895050D01*
X110643837Y-119784518D01*
X110784518Y-119643837D01*
X110895050Y-119478414D01*
X110971186Y-119294606D01*
X111010000Y-119099476D01*
X111010000Y-118900524D01*
X110971186Y-118705394D01*
X110895050Y-118521586D01*
X110784518Y-118356163D01*
X110643837Y-118215482D01*
X110478414Y-118104950D01*
X110294606Y-118028814D01*
X110099476Y-117990000D01*
X109900524Y-117990000D01*
X109705394Y-118028814D01*
X109521586Y-118104950D01*
X109356163Y-118215482D01*
X109215482Y-118356163D01*
X109104950Y-118521586D01*
X109028814Y-118705394D01*
X108990000Y-118900524D01*
X106058133Y-118900524D01*
X105201738Y-118044130D01*
X105295818Y-118083099D01*
X105431056Y-118110000D01*
X105568944Y-118110000D01*
X105704182Y-118083099D01*
X105831574Y-118030332D01*
X105946224Y-117953726D01*
X106043726Y-117856224D01*
X106120332Y-117741574D01*
X106173099Y-117614182D01*
X106200000Y-117478944D01*
X106200000Y-117367608D01*
X106812657Y-116754952D01*
X106830395Y-116740395D01*
X106888503Y-116669590D01*
X106931682Y-116588808D01*
X106958271Y-116501156D01*
X106965000Y-116432835D01*
X106965000Y-116432834D01*
X106967249Y-116410000D01*
X106965000Y-116387166D01*
X106965000Y-107692608D01*
X107589807Y-107067801D01*
X107668426Y-107120332D01*
X107795818Y-107173099D01*
X107931056Y-107200000D01*
X108068944Y-107200000D01*
X108204182Y-107173099D01*
X108331574Y-107120332D01*
X108435000Y-107051225D01*
X108435001Y-115877158D01*
X108432751Y-115900000D01*
X108441730Y-115991155D01*
X108468319Y-116078808D01*
X108506592Y-116150411D01*
X108511498Y-116159590D01*
X108569606Y-116230395D01*
X108587343Y-116244951D01*
X108652341Y-116309950D01*
X108652346Y-116309954D01*
X110065047Y-117722656D01*
X110079605Y-117740395D01*
X110150410Y-117798503D01*
X110231192Y-117841682D01*
X110318844Y-117868271D01*
X110387165Y-117875000D01*
X110387167Y-117875000D01*
X110409999Y-117877249D01*
X110432831Y-117875000D01*
X113475050Y-117875000D01*
X113535000Y-117934950D01*
X113535001Y-119475049D01*
X113456274Y-119553776D01*
X113379668Y-119668426D01*
X113326901Y-119795818D01*
X113300000Y-119931056D01*
X113300000Y-120042391D01*
X110687349Y-122655043D01*
X110669605Y-122669605D01*
X110611497Y-122740411D01*
X110568318Y-122821193D01*
X110541729Y-122908845D01*
X110535000Y-122977165D01*
X110532751Y-123000000D01*
X110535000Y-123022832D01*
X110535001Y-134477158D01*
X110532751Y-134500000D01*
X110540894Y-134582667D01*
X110541730Y-134591156D01*
X110568319Y-134678808D01*
X110611498Y-134759590D01*
X110669606Y-134830395D01*
X110687345Y-134844953D01*
X112235052Y-136392661D01*
X112249605Y-136410395D01*
X112267338Y-136424948D01*
X112267341Y-136424951D01*
X112320410Y-136468503D01*
X112401192Y-136511682D01*
X112488844Y-136538271D01*
X112557165Y-136545000D01*
X112557175Y-136545000D01*
X112579999Y-136547248D01*
X112602823Y-136545000D01*
X114475050Y-136545000D01*
X114553776Y-136623726D01*
X114668426Y-136700332D01*
X114795818Y-136753099D01*
X114931056Y-136780000D01*
X115068944Y-136780000D01*
X115204182Y-136753099D01*
X115331574Y-136700332D01*
X115446224Y-136623726D01*
X115543726Y-136526224D01*
X115620332Y-136411574D01*
X115673099Y-136284182D01*
X115700000Y-136148944D01*
X115700000Y-136011056D01*
X115673099Y-135875818D01*
X115620332Y-135748426D01*
X115543726Y-135633776D01*
X115446224Y-135536274D01*
X115331574Y-135459668D01*
X115204182Y-135406901D01*
X115068944Y-135380000D01*
X114931056Y-135380000D01*
X114795818Y-135406901D01*
X114668426Y-135459668D01*
X114553776Y-135536274D01*
X114475050Y-135615000D01*
X112772610Y-135615000D01*
X111465000Y-134307392D01*
X111465000Y-124954950D01*
X111535001Y-125024951D01*
X111535000Y-130477168D01*
X111532751Y-130500000D01*
X111535000Y-130522832D01*
X111535000Y-130522834D01*
X111541729Y-130591155D01*
X111568318Y-130678807D01*
X111611497Y-130759589D01*
X111669605Y-130830395D01*
X111687349Y-130844957D01*
X114300000Y-133457609D01*
X114300000Y-133568944D01*
X114326901Y-133704182D01*
X114379668Y-133831574D01*
X114456274Y-133946224D01*
X114553776Y-134043726D01*
X114668426Y-134120332D01*
X114795818Y-134173099D01*
X114931056Y-134200000D01*
X115068944Y-134200000D01*
X115204182Y-134173099D01*
X115331574Y-134120332D01*
X115446224Y-134043726D01*
X115543726Y-133946224D01*
X115620332Y-133831574D01*
X115673099Y-133704182D01*
X115700000Y-133568944D01*
X115700000Y-133431056D01*
X115673099Y-133295818D01*
X115620332Y-133168426D01*
X115543726Y-133053776D01*
X115446224Y-132956274D01*
X115331574Y-132879668D01*
X115204182Y-132826901D01*
X115068944Y-132800000D01*
X114957609Y-132800000D01*
X112465000Y-130307392D01*
X112465000Y-125024950D01*
X112543726Y-124946224D01*
X112620332Y-124831574D01*
X112673099Y-124704182D01*
X112700000Y-124568944D01*
X112700000Y-124431056D01*
X112673099Y-124295818D01*
X112620332Y-124168426D01*
X112543726Y-124053776D01*
X112465000Y-123975050D01*
X112465000Y-123692608D01*
X115092646Y-121064963D01*
X115110384Y-121050406D01*
X115168492Y-120979601D01*
X115211671Y-120898819D01*
X115238260Y-120811167D01*
X115244989Y-120742846D01*
X115244989Y-120742836D01*
X115247237Y-120720012D01*
X115244989Y-120697187D01*
X115244989Y-116664950D01*
X115323715Y-116586224D01*
X115400321Y-116471574D01*
X115453088Y-116344182D01*
X115479989Y-116208944D01*
X115479989Y-116071056D01*
X115453088Y-115935818D01*
X115400321Y-115808426D01*
X115323715Y-115693776D01*
X115226213Y-115596274D01*
X115111563Y-115519668D01*
X114984171Y-115466901D01*
X114848933Y-115440000D01*
X114711045Y-115440000D01*
X114575807Y-115466901D01*
X114448415Y-115519668D01*
X114333765Y-115596274D01*
X114255039Y-115675000D01*
X111832609Y-115675000D01*
X111540001Y-115382392D01*
X111540001Y-110246833D01*
X111542250Y-110223999D01*
X111533272Y-110132845D01*
X111533272Y-110132843D01*
X111506683Y-110045191D01*
X111500001Y-110032690D01*
X111500001Y-106557824D01*
X111502249Y-106535000D01*
X111500001Y-106512176D01*
X111500001Y-106512166D01*
X111493272Y-106443845D01*
X111466683Y-106356193D01*
X111423504Y-106275411D01*
X111410519Y-106259589D01*
X111379952Y-106222342D01*
X111379949Y-106222339D01*
X111365396Y-106204606D01*
X111347664Y-106190054D01*
X109177500Y-104019892D01*
X109177500Y-103237450D01*
X109256226Y-103158724D01*
X109332832Y-103044074D01*
X109385599Y-102916682D01*
X109412500Y-102781444D01*
X109412500Y-102643556D01*
X109385599Y-102508318D01*
X109332832Y-102380926D01*
X109256226Y-102266276D01*
X109158724Y-102168774D01*
X109044074Y-102092168D01*
X108916682Y-102039401D01*
X108781444Y-102012500D01*
X108643556Y-102012500D01*
X108508318Y-102039401D01*
X108380926Y-102092168D01*
X108266276Y-102168774D01*
X108168774Y-102266276D01*
X108142500Y-102305598D01*
X108142500Y-102188556D01*
X108115599Y-102053318D01*
X108062832Y-101925926D01*
X107986226Y-101811276D01*
X107888724Y-101713774D01*
X107774074Y-101637168D01*
X107646682Y-101584401D01*
X107511444Y-101557500D01*
X107373556Y-101557500D01*
X107238318Y-101584401D01*
X107110926Y-101637168D01*
X106996276Y-101713774D01*
X106898774Y-101811276D01*
X106822168Y-101925926D01*
X106769401Y-102053318D01*
X106742500Y-102188556D01*
X106742500Y-102326444D01*
X106769401Y-102461682D01*
X106822168Y-102589074D01*
X106898774Y-102703724D01*
X106977500Y-102782450D01*
X106977500Y-102899326D01*
X106941566Y-102845546D01*
X106814954Y-102718934D01*
X106666073Y-102619455D01*
X106500645Y-102550933D01*
X106325029Y-102516000D01*
X106145971Y-102516000D01*
X105970355Y-102550933D01*
X105804927Y-102619455D01*
X105656046Y-102718934D01*
X105529434Y-102845546D01*
X105429955Y-102994427D01*
X105361433Y-103159855D01*
X105326500Y-103335471D01*
X105326500Y-103514529D01*
X105361433Y-103690145D01*
X105429955Y-103855573D01*
X105529434Y-104004454D01*
X105656046Y-104131066D01*
X105804927Y-104230545D01*
X105970355Y-104299067D01*
X106145971Y-104334000D01*
X106325029Y-104334000D01*
X106500645Y-104299067D01*
X106666073Y-104230545D01*
X106814954Y-104131066D01*
X106941566Y-104004454D01*
X106977501Y-103950674D01*
X106977501Y-104019658D01*
X106975251Y-104042500D01*
X106983017Y-104121345D01*
X106984230Y-104133656D01*
X107008147Y-104212500D01*
X107010819Y-104221308D01*
X107049797Y-104294230D01*
X107053998Y-104302090D01*
X107112106Y-104372895D01*
X107129845Y-104387453D01*
X108435000Y-105692610D01*
X108435000Y-105948774D01*
X108331574Y-105879668D01*
X108204182Y-105826901D01*
X108068944Y-105800000D01*
X107931056Y-105800000D01*
X107795818Y-105826901D01*
X107668426Y-105879668D01*
X107553776Y-105956274D01*
X107474819Y-106035231D01*
X107408844Y-106041729D01*
X107321192Y-106068318D01*
X107240410Y-106111497D01*
X107169605Y-106169605D01*
X107155047Y-106187344D01*
X106187345Y-107155047D01*
X106169606Y-107169605D01*
X106155049Y-107187343D01*
X106111497Y-107240411D01*
X106068319Y-107321192D01*
X106041730Y-107408845D01*
X106032751Y-107500000D01*
X106035001Y-107522842D01*
X106035001Y-111850037D01*
X105971238Y-111786274D01*
X105856588Y-111709668D01*
X105729196Y-111656901D01*
X105593958Y-111630000D01*
X105456070Y-111630000D01*
X105320832Y-111656901D01*
X105193440Y-111709668D01*
X105078790Y-111786274D01*
X105000064Y-111865000D01*
X104982163Y-111865000D01*
X104959329Y-111862751D01*
X104936495Y-111865000D01*
X104936494Y-111865000D01*
X104868173Y-111871729D01*
X104780521Y-111898318D01*
X104699739Y-111941497D01*
X104628934Y-111999605D01*
X104614378Y-112017342D01*
X103500000Y-113131721D01*
X103500000Y-100500000D01*
X105624980Y-100500000D01*
X105529434Y-100595546D01*
G37*
G04 #@! TD.AperFunction*
M02*
